<?xml version="1.0" encoding="UTF-8"?><svg id="Layer_2" xmlns="http://www.w3.org/2000/svg" viewBox="0 0 48 48"><defs><style>.cls-1{fill:#d27f7d;}.cls-2{fill:none;}</style></defs><g id="Layer_1-2"><rect class="cls-2" width="48" height="48"/><g><path class="cls-1" d="M15.76,28.93h-.49c-.37,0-.66,.3-.66,.66s.3,.66,.66,.66h.49c.37,0,.66-.3,.66-.66s-.3-.66-.66-.66Z"/><path class="cls-1" d="M11.52,26.55l-.48-.04c-.37-.03-.69,.24-.71,.61s.24,.69,.61,.71l.48,.04h.06c.34,0,.63-.26,.66-.61,.03-.37-.24-.69-.61-.71Z"/><path class="cls-1" d="M11.22,30.25c.37,0,.66-.3,.66-.66s-.3-.66-.66-.66h-.49c-.37,0-.66,.3-.66,.66s.3,.66,.66,.66h.49Z"/><path class="cls-1" d="M11.42,31.32l-.48,.04c-.37,.03-.63,.35-.61,.71,.03,.35,.32,.61,.66,.61h.06l.48-.04c.37-.03,.63-.35,.61-.71-.03-.37-.35-.63-.71-.61h0Z"/><path class="cls-1" d="M7.34,23.38l-.47-.08c-.36-.06-.7,.19-.76,.54-.06,.36,.19,.7,.54,.76l.47,.08s.07,.01,.11,.01c.32,0,.6-.23,.65-.55,.06-.37-.19-.71-.54-.76h0Z"/><path class="cls-1" d="M5.84,27.41l.48,.04h.06c.34,0,.63-.26,.66-.61,.03-.37-.24-.69-.61-.71l-.48-.04c-.37-.03-.69,.24-.71,.61-.03,.37,.24,.69,.61,.71h0Z"/><path class="cls-1" d="M6.1,30.25c.37,0,.66-.3,.66-.66s-.3-.66-.66-.66h-.49c-.37,0-.66,.3-.66,.66s.3,.66,.66,.66h.49Z"/><path class="cls-1" d="M7.04,32.34c-.03-.37-.35-.63-.71-.61l-.48,.04c-.37,.03-.63,.35-.61,.71,.03,.35,.32,.61,.66,.61h.06l.48-.04c.37-.03,.63-.35,.61-.71h0Z"/><path class="cls-1" d="M7.13,34.5l-.47,.08c-.36,.06-.61,.4-.54,.76,.06,.33,.33,.55,.65,.55,.03,0,.07,0,.11-.01l.47-.08c.36-.06,.61-.4,.54-.76s-.4-.6-.76-.54h0Z"/><path class="cls-1" d="M35.92,25c.31-.7,.28-1.48-.11-2.25-.41-.81-1-1.1-1.43-1.2-.89-.21-1.77,.21-2.21,.47-.37-.12-1.08-.55-.99-1.95,.15-2.33,1.27-4.97,1.28-5,.12-.27,.04-.59-.19-.77-.23-.19-.56-.2-.8-.03-.06,.04-5.88,4.07-12.63,2.2-.35-.1-.72,.11-.81,.46-.1,.35,.11,.72,.46,.81,.02,0,.04,.01,.06,.02-.69,1.29-.89,2.75-.58,4.3l-2.16,2.13c-.34,.34-.48,.82-.36,1.29,.12,.47,.47,.83,.93,.96l1.17,.34-.08,1.98c-.01,.31,.2,.6,.5,.67l2.71,.67-2.08,.79c-.14,.06-.26,.16-.34,.29-.34,.59,.17,1.07,.48,1.36,.11,.1,.29,.28,.36,.38-.72,1.9-.61,3.3,.35,4.16,.6,.53,1.45,.75,2.44,.75,1.49,0,3.27-.51,4.85-1.24-.03,.46-.07,1.01-.09,1.47-.02,.37,.26,.67,.62,.7h.04c.35,0,.64-.28,.66-.62,.05-.81,.12-1.88,.15-2.26,.24-.14,.47-.29,.69-.44,.3-.2,.38-.62,.18-.92-.2-.3-.61-.38-.92-.18-.37,.25-.77,.49-1.17,.7-2.72,1.44-5.6,1.9-6.56,1.04-.65-.58-.34-1.83,.03-2.77,.25-.63-.12-1.15-.47-1.51l3.24-1.24c.27-.1,.44-.37,.43-.66-.02-.29-.22-.53-.5-.6l-4.24-1.05,.06-1.55c.05-.06,.09-.13,.11-.21,.1-.35-.1-.72-.45-.82l-1.79-.52v-.03s2.36-2.35,2.36-2.35c.11-.11,.17-.25,.19-.4l.02-.14c0-.07,0-.15-.02-.22-.35-1.47-.14-2.8,.6-3.95,4.61,.81,8.59-.69,10.71-1.76-.33,1.03-.67,2.38-.75,3.69-.16,2.45,1.48,3.3,2.36,3.4,.17,.02,.34-.03,.47-.12,.16-.12,.87-.54,1.38-.42,.14,.03,.35,.12,.55,.51,.21,.42,.24,.77,.08,1.11-.42,.93-2.04,1.53-2.63,1.68-.35,.09-.57,.45-.47,.8,.08,.3,.35,.49,.64,.49,.06,0,.11,0,.17-.02,.26-.08,2.74-.76,3.49-2.43h0Z"/><path class="cls-1" d="M35.02,11.44c1.63,.28,2.6,.93,2.97,1.99,1.19,3.44,2.5,6.21-3.32,14.64-.2,.3-.12,.71,.19,.92,.11,.07,.24,.11,.37,.11,.21,0,.43-.11,.55-.3,7.01-9.41,4.64-12.36,3.47-15.8-.53-1.54-1.88-2.5-3.99-2.86-.36-.06-.7,.18-.76,.54-.06,.37,.18,.71,.54,.77h0Z"/><path class="cls-1" d="M35.77,28.8c-.1-.35-.45-.56-.81-.47-.35,.1-.56,.45-.47,.81l2.34,8.85c.08,.3,.35,.49,.64,.49,.06,0,.11,0,.17-.02,.35-.1,.56-.45,.47-.81l-2.34-8.85Z"/><path class="cls-1" d="M18.4,17.41s.08,0,.12,0c1.59-.24-.89-2.35-1.03-2.72-.28-.78,.11-1.4,.47-2.05,.38-.69,1.03-1.29,1.88-1.75,.59-.31,1.23-.54,1.89-.66,.98-.17,2.02-.12,3.03-.08l10.6,1.35c.37,.02,.67-.26,.69-.63,.02-.37-.26-.67-.63-.69l-10.6-1.35c-1.08-.05-2.2-.1-3.32,.1-2.43,.44-5.11,2.24-5.17,4.95-.02,1.23,.54,2.46,1.49,3.25,.16,.13,.36,.26,.56,.28Z"/></g></g></svg>