<?xml version="1.0" encoding="UTF-8"?><svg id="Layer_2" xmlns="http://www.w3.org/2000/svg" viewBox="0 0 48 48"><defs><style>.cls-1{fill:#d27f7d;}.cls-2{fill:none;}</style></defs><g id="Layer_1-2"><rect class="cls-2" width="48" height="48"/><g><path class="cls-1" d="M33.71,9.57H14.29c-1.76,0-3.19,1.43-3.19,3.19v22.48c0,1.76,1.43,3.19,3.19,3.19h19.41c1.76,0,3.19-1.43,3.19-3.19V12.76c0-1.76-1.43-3.19-3.19-3.19Zm1.92,25.67c0,1.06-.86,1.92-1.92,1.92H14.29c-1.06,0-1.92-.86-1.92-1.92V12.76c0-1.06,.86-1.92,1.92-1.92h19.41c1.06,0,1.92,.86,1.92,1.92v22.48Z"/><path class="cls-1" d="M24,12.63c-4.94,0-8.81,2.08-8.81,4.73s3.87,4.73,8.81,4.73,8.81-2.08,8.81-4.73-3.87-4.73-8.81-4.73Zm0,8.17c-4.44,0-7.54-1.82-7.54-3.45s3.09-3.45,7.54-3.45,7.54,1.82,7.54,3.45-3.09,3.45-7.54,3.45Z"/><path class="cls-1" d="M21.25,15.74c-.08,.09-.09,.22-.03,.32l1.76,2.65c.17,.28,.45,.46,.77,.49,.32,.03,.64-.08,.86-.32,.13-.14,.22-.31,.25-.48,.03-.13,.03-.26,0-.39-.06-.32-.25-.59-.53-.73l-2.77-1.58c-.1-.06-.23-.04-.31,.05h0Z"/></g></g></svg>