<?xml version="1.0" encoding="UTF-8"?><svg id="Layer_2" xmlns="http://www.w3.org/2000/svg" viewBox="0 0 48 48"><defs><style>.cls-1{fill:#d27f7d;}.cls-2{fill:none;}</style></defs><g id="Layer_1-2"><rect class="cls-2" width="48" height="48"/><g><path class="cls-1" d="M25.76,41.64c0,.98-.79,1.76-1.76,1.76s-1.76-.79-1.76-1.76c0-.77,.49-1.42,1.18-1.66V14.34c0-.32,.26-.59,.59-.59s.59,.26,.59,.59v25.64c.69,.24,1.18,.89,1.18,1.66Z"/><g><path class="cls-1" d="M26.35,39.01V5.19c0-1.3-1.05-2.35-2.35-2.35s-2.35,1.05-2.35,2.35V39.01c-.72,.64-1.18,1.58-1.18,2.62,0,1.95,1.58,3.53,3.53,3.53s3.53-1.58,3.53-3.53c0-1.04-.45-1.98-1.18-2.62h0Zm-2.35,5.56c-1.62,0-2.94-1.32-2.94-2.94,0-.66,.22-1.28,.59-1.76,.17-.22,.36-.42,.59-.59V5.19c0-.98,.79-1.76,1.76-1.76s1.76,.79,1.76,1.76V39.28c.22,.17,.42,.36,.59,.59,.37,.49,.59,1.1,.59,1.76,0,1.62-1.32,2.94-2.94,2.94h0Z"/><path class="cls-1" d="M24,45.31c-2.03,0-3.68-1.65-3.68-3.68,0-1.02,.43-2,1.18-2.69V5.19c0-1.38,1.12-2.5,2.5-2.5s2.5,1.12,2.5,2.5V38.95c.75,.69,1.18,1.66,1.18,2.69,0,2.03-1.65,3.68-3.68,3.68Zm0-42.33c-1.21,0-2.2,.99-2.2,2.2V39.08l-.05,.04c-.71,.63-1.12,1.55-1.12,2.51,0,1.86,1.51,3.38,3.38,3.38s3.38-1.52,3.38-3.38c0-.96-.41-1.88-1.12-2.51l-.05-.04V5.19c0-1.21-.99-2.2-2.2-2.2Zm0,41.74c-1.7,0-3.09-1.39-3.09-3.09,0-.68,.21-1.32,.62-1.85,.16-.21,.35-.4,.56-.57V5.19c0-1.06,.86-1.91,1.92-1.91s1.91,.86,1.91,1.91V39.21c.21,.17,.39,.35,.56,.57,.41,.53,.62,1.17,.62,1.85,0,1.7-1.39,3.09-3.09,3.09h0Zm0-41.15c-.89,0-1.61,.72-1.61,1.61V39.36s-.06,.04-.06,.04c-.21,.16-.4,.35-.56,.56-.36,.48-.56,1.06-.56,1.67,0,1.54,1.25,2.79,2.79,2.79,1.54,0,2.79-1.25,2.79-2.79,0-.61-.19-1.19-.56-1.67-.16-.21-.35-.4-.56-.56l-.06-.04V5.19c0-.89-.72-1.61-1.61-1.61Z"/></g><path class="cls-1" d="M24,20.47h1.76v.59h-1.76v-.59Z"/><path class="cls-1" d="M24.59,18.71h1.18v.59h-1.18v-.59Z"/><path class="cls-1" d="M24,16.95h1.76v.59h-1.76v-.59Z"/><path class="cls-1" d="M24.59,15.18h1.18v.59h-1.18v-.59Z"/><path class="cls-1" d="M24,13.42h1.76v.59h-1.76v-.59Z"/><path class="cls-1" d="M24.59,11.65h1.18v.59h-1.18v-.59Z"/><path class="cls-1" d="M24,9.89h1.76v.59h-1.76v-.59Z"/><path class="cls-1" d="M24.59,8.13h1.18v.59h-1.18v-.59Z"/><path class="cls-1" d="M24,6.36h1.76v.59h-1.76v-.59Z"/></g></g></svg>