<?xml version="1.0" encoding="UTF-8"?><svg id="Layer_2" xmlns="http://www.w3.org/2000/svg" viewBox="0 0 48 48"><defs><style>.cls-1{fill:#d27f7d;}.cls-2{fill:none;}</style></defs><g id="Layer_1-2"><rect class="cls-2" width="48" height="48"/><path class="cls-1" d="M37.38,19.9c.7-1.68,.74-3.15,.12-4.36-.7-1.37-2.05-2-2.8-2.26-.04-.88-.31-2.64-1.61-3.87-1.05-1-2.53-1.44-4.39-1.28-1.66-1.18-3.33-1.66-4.95-1.42-1.92,.29-3.24,1.51-3.78,2.11-2.13-.31-5.89,.11-7.39,3.61-2.41,1.3-2.18,3.89-1.64,5.34-.23,.49-.67,1.53-.85,2.79-.3,2.1,.22,3.93,1.49,5.37-.07,.09-.14,.18-.22,.29-.43,.67-.56,1.4-.38,2.17,.43,1.87,2.64,3.43,3.38,3.91,.53,4.92,4.62,9.03,9.23,9.03s8.69-4.11,9.23-9.03c.74-.48,2.94-2.05,3.38-3.91,.17-.75,.06-1.45-.35-2.11,1.26-1.09,3.1-3.74,1.52-6.4h0ZM12.3,28.09c-.09-.41-.03-.77,.2-1.13,.11-.17,.22-.28,.32-.35,.06-.02,.11-.04,.16-.08,.06-.02,.11-.03,.14-.03,.41-.05,.9,.23,1.18,.44v3.67c-.82-.65-1.78-1.6-2-2.52h0Zm19.24,3.13c0,4.59-3.78,8.77-7.94,8.77s-7.94-4.18-7.94-8.77v-7.4c0-1.92,.68-3.61,1.96-4.9,.48,.33,1.06,.53,1.69,.53,.19,0,.38-.02,.56-.06,.5,.94,1.48,1.55,2.59,1.55,1.16,0,2.16-.67,2.64-1.66,.45,.27,.96,.41,1.5,.41,1.62,0,2.93-1.32,2.93-2.93,0-.37-.3-.67-.67-.67s-.67,.3-.67,.67c0,.88-.71,1.58-1.58,1.58-.53,0-1.03-.27-1.32-.71-.16-.25-.47-.36-.76-.27-.28,.08-.48,.35-.48,.65,0,.87-.71,1.58-1.58,1.58-.72,0-1.36-.49-1.53-1.2-.05-.2-.18-.36-.36-.45-.18-.09-.4-.09-.57,0-.21,.1-.44,.15-.67,.15-.82,0-1.5-.61-1.58-1.43-.04-.37-.37-.64-.74-.61-.37,.04-.64,.37-.61,.74,.04,.4,.16,.77,.33,1.1,0,0-.01,.01-.02,.01-1.57,1.55-2.4,3.59-2.4,5.9v1.57c-.4-.17-.86-.29-1.35-.23-.07,.01-.14,.02-.22,.04-2.77-2.86-.57-6.89-.47-7.07,.11-.19,.12-.42,.03-.61-.06-.12-1.29-2.87,1.1-4,.16-.07,.28-.21,.34-.37,1.49-3.89,6.16-2.99,6.36-2.95,.26,.06,.52-.05,.68-.26,.01-.02,1.19-1.61,3.17-1.91,1.33-.2,2.73,.25,4.16,1.32,.14,.1,.31,.15,.48,.13,1.57-.17,2.77,.12,3.57,.89,1.3,1.24,1.2,3.34,1.2,3.37-.02,.33,.21,.64,.54,.7,.02,0,1.73,.37,2.41,1.71,.46,.9,.36,2.08-.3,3.52-.1,.22-.08,.47,.06,.67,1.73,2.47-.99,4.84-1.11,4.95-.03,.02-.05,.05-.07,.08-.23-.12-.46-.18-.65-.2-.49-.06-.95,.06-1.35,.23v-1.57c0-.37-.03-.75-.07-1.11,.77-.41,1.3-1.26,1.3-2.26,0-.76-.63-4.48-2.32-4.48-.73,0-1.32,.64-1.79,1.95-.31,.85-.52,1.89-.52,2.52,0,1.27,.88,2.32,2,2.49,.03,.29,.06,.58,.06,.88v7.4s-.02,0-.02,0Zm.26-9.6c-.53,0-.97-.52-.97-1.16,0-.41,.17-1.29,.45-2.06,.22-.6,.41-.89,.52-1.01,.41,.4,.97,2.16,.97,3.08,0,.64-.43,1.16-.97,1.16h0Zm3.09,6.47c-.21,.92-1.18,1.87-2,2.52v-3.67c.28-.2,.76-.49,1.18-.44,.15,.02,.38,.09,.62,.46,.23,.36,.3,.71,.2,1.13h0Z"/></g></svg>