<?xml version="1.0" encoding="UTF-8"?><svg id="Layer_2" xmlns="http://www.w3.org/2000/svg" viewBox="0 0 48 48"><defs><style>.cls-1{fill:#d27f7d;}.cls-2{fill:none;}</style></defs><g id="Layer_1-2"><rect class="cls-2" width="48" height="48"/><g><path class="cls-1" d="M17.1,9.79h-3.37c-.31,0-.56-.25-.56-.56s.25-.56,.56-.56h3.37c.31,0,.56,.25,.56,.56s-.25,.56-.56,.56Z"/><path class="cls-1" d="M28.35,9.79h-3.37c-.31,0-.56-.25-.56-.56s.25-.56,.56-.56h3.37c.31,0,.56,.25,.56,.56s-.25,.56-.56,.56Z"/><path class="cls-1" d="M39.04,41.85H8.66c-.76-.01-1.48-.32-2.01-.87-.53-.54-.82-1.27-.81-2.03V13.3c0-1.22,.46-2.4,1.31-3.28,.83-.87,1.98-1.36,3.19-1.37h1.12c.31,0,.56,.25,.56,.56s-.25,.56-.56,.56h-1.12c-.9,0-1.76,.37-2.38,1.02-.64,.67-1,1.57-.99,2.49v25.65c-.01,.46,.16,.9,.48,1.23,.32,.33,.75,.53,1.21,.54h30.37c.46-.01,.89-.21,1.21-.54,.32-.33,.49-.78,.48-1.23V13.3c.02-.91-.33-1.8-.96-2.46-.63-.66-1.5-1.04-2.41-1.06h-1.12c-.31,0-.56-.25-.56-.56s.25-.56,.56-.56h1.12c1.21,.02,2.37,.52,3.21,1.39,.84,.87,1.31,2.04,1.29,3.25v25.65c.01,.76-.28,1.49-.81,2.03-.53,.54-1.25,.86-2.01,.87h0Z"/><path class="cls-1" d="M33.98,9.79h-3.37c-.31,0-.56-.25-.56-.56s.25-.56,.56-.56h3.37c.31,0,.56,.25,.56,.56s-.25,.56-.56,.56Z"/><path class="cls-1" d="M22.73,9.79h-3.37c-.31,0-.56-.25-.56-.56s.25-.56,.56-.56h3.37c.31,0,.56,.25,.56,.56s-.25,.56-.56,.56Z"/><path class="cls-1" d="M19.35,25.54h-3.37c-.31,0-.56-.25-.56-.56v-3.37c0-.31,.25-.56,.56-.56h3.37c.15,0,.29,.06,.4,.16s.16,.25,.16,.4v3.37c0,.15-.06,.29-.16,.4s-.25,.16-.4,.16Zm-2.81-1.12h2.25v-2.25h-2.25v2.25Z"/><path class="cls-1" d="M25.54,25.54h-3.37c-.31,0-.56-.25-.56-.56v-3.37c0-.31,.25-.56,.56-.56h3.37c.15,0,.29,.06,.4,.16s.16,.25,.16,.4v3.37c0,.15-.06,.29-.16,.4s-.25,.16-.4,.16Zm-2.81-1.12h2.25v-2.25h-2.25v2.25Z"/><path class="cls-1" d="M31.73,25.54h-3.37c-.31,0-.56-.25-.56-.56v-3.37c0-.31,.25-.56,.56-.56h3.37c.15,0,.29,.06,.4,.16s.16,.25,.16,.4v3.37c0,.15-.06,.29-.16,.4s-.25,.16-.4,.16Zm-2.81-1.12h2.25v-2.25h-2.25v2.25Z"/><path class="cls-1" d="M37.91,25.54h-3.37c-.31,0-.56-.25-.56-.56v-3.37c0-.31,.25-.56,.56-.56h3.37c.15,0,.29,.06,.4,.16s.16,.25,.16,.4v3.37c0,.15-.06,.29-.16,.4s-.25,.16-.4,.16Zm-2.81-1.12h2.25v-2.25h-2.25v2.25Z"/><path class="cls-1" d="M13.16,31.73h-3.37c-.31,0-.56-.25-.56-.56v-3.37c0-.31,.25-.56,.56-.56h3.37c.15,0,.29,.06,.4,.16s.16,.25,.16,.4v3.37c0,.15-.06,.29-.16,.4s-.25,.16-.4,.16Zm-2.81-1.12h2.25v-2.25h-2.25v2.25Z"/><path class="cls-1" d="M19.35,31.73h-3.37c-.31,0-.56-.25-.56-.56v-3.37c0-.31,.25-.56,.56-.56h3.37c.15,0,.29,.06,.4,.16s.16,.25,.16,.4v3.37c0,.15-.06,.29-.16,.4s-.25,.16-.4,.16Zm-2.81-1.12h2.25v-2.25h-2.25v2.25Z"/><path class="cls-1" d="M25.54,31.73h-3.37c-.31,0-.56-.25-.56-.56v-3.37c0-.31,.25-.56,.56-.56h3.37c.15,0,.29,.06,.4,.16s.16,.25,.16,.4v3.37c0,.15-.06,.29-.16,.4s-.25,.16-.4,.16Zm-2.81-1.12h2.25v-2.25h-2.25v2.25Z"/><path class="cls-1" d="M31.73,31.73h-3.37c-.31,0-.56-.25-.56-.56v-3.37c0-.31,.25-.56,.56-.56h3.37c.15,0,.29,.06,.4,.16s.16,.25,.16,.4v3.37c0,.15-.06,.29-.16,.4s-.25,.16-.4,.16Zm-2.81-1.12h2.25v-2.25h-2.25v2.25Z"/><path class="cls-1" d="M37.91,31.73h-3.37c-.31,0-.56-.25-.56-.56v-3.37c0-.31,.25-.56,.56-.56h3.37c.15,0,.29,.06,.4,.16s.16,.25,.16,.4v3.37c0,.15-.06,.29-.16,.4s-.25,.16-.4,.16Zm-2.81-1.12h2.25v-2.25h-2.25v2.25Z"/><path class="cls-1" d="M13.16,37.91h-3.37c-.31,0-.56-.25-.56-.56v-3.37c0-.31,.25-.56,.56-.56h3.37c.15,0,.29,.06,.4,.16s.16,.25,.16,.4v3.37c0,.15-.06,.29-.16,.4s-.25,.16-.4,.16Zm-2.81-1.12h2.25v-2.25h-2.25v2.25Z"/><path class="cls-1" d="M19.35,37.91h-3.37c-.31,0-.56-.25-.56-.56v-3.37c0-.31,.25-.56,.56-.56h3.37c.15,0,.29,.06,.4,.16s.16,.25,.16,.4v3.37c0,.15-.06,.29-.16,.4s-.25,.16-.4,.16Zm-2.81-1.12h2.25v-2.25h-2.25v2.25Z"/><path class="cls-1" d="M25.54,37.91h-3.37c-.31,0-.56-.25-.56-.56v-3.37c0-.31,.25-.56,.56-.56h3.37c.15,0,.29,.06,.4,.16s.16,.25,.16,.4v3.37c0,.15-.06,.29-.16,.4s-.25,.16-.4,.16Zm-2.81-1.12h2.25v-2.25h-2.25v2.25Z"/><path class="cls-1" d="M31.73,37.91h-3.37c-.31,0-.56-.25-.56-.56v-3.37c0-.31,.25-.56,.56-.56h3.37c.15,0,.29,.06,.4,.16s.16,.25,.16,.4v3.37c0,.15-.06,.29-.16,.4s-.25,.16-.4,.16Zm-2.81-1.12h2.25v-2.25h-2.25v2.25Z"/><path class="cls-1" d="M41.29,17.66H6.41c-.31,0-.56-.25-.56-.56s.25-.56,.56-.56H41.29c.31,0,.56,.25,.56,.56s-.25,.56-.56,.56Z"/><path class="cls-1" d="M12.6,12.04c-.45,0-.88-.18-1.19-.49s-.49-.75-.49-1.19v-2.81c0-.6,.32-1.16,.84-1.46,.52-.3,1.17-.3,1.69,0,.52,.3,.84,.86,.84,1.46v2.81c0,.45-.18,.88-.49,1.19s-.75,.49-1.19,.49h0Zm0-5.06c-.31,0-.56,.25-.56,.56v2.81c0,.31,.25,.56,.56,.56s.56-.25,.56-.56v-2.81c0-.15-.06-.29-.16-.4s-.25-.16-.4-.16Z"/><path class="cls-1" d="M18.23,12.04c-.45,0-.88-.18-1.19-.49s-.49-.75-.49-1.19v-2.81c0-.6,.32-1.16,.84-1.46,.52-.3,1.17-.3,1.69,0,.52,.3,.84,.86,.84,1.46v2.81c0,.45-.18,.88-.49,1.19s-.75,.49-1.19,.49h0Zm0-5.06c-.31,0-.56,.25-.56,.56v2.81c0,.31,.25,.56,.56,.56s.56-.25,.56-.56v-2.81c0-.15-.06-.29-.16-.4s-.25-.16-.4-.16Z"/><path class="cls-1" d="M23.85,12.04c-.45,0-.88-.18-1.19-.49s-.49-.75-.49-1.19v-2.81c0-.6,.32-1.16,.84-1.46,.52-.3,1.17-.3,1.69,0,.52,.3,.84,.86,.84,1.46v2.81c0,.45-.18,.88-.49,1.19s-.75,.49-1.19,.49h0Zm0-5.06c-.31,0-.56,.25-.56,.56v2.81c0,.31,.25,.56,.56,.56s.56-.25,.56-.56v-2.81c0-.15-.06-.29-.16-.4s-.25-.16-.4-.16Z"/><path class="cls-1" d="M29.48,12.04c-.45,0-.88-.18-1.19-.49s-.49-.75-.49-1.19v-2.81c0-.6,.32-1.16,.84-1.46,.52-.3,1.17-.3,1.69,0,.52,.3,.84,.86,.84,1.46v2.81c0,.45-.18,.88-.49,1.19s-.75,.49-1.19,.49h0Zm0-5.06c-.31,0-.56,.25-.56,.56v2.81c0,.31,.25,.56,.56,.56s.56-.25,.56-.56v-2.81c0-.15-.06-.29-.16-.4s-.25-.16-.4-.16Z"/><path class="cls-1" d="M35.1,12.04c-.45,0-.88-.18-1.19-.49s-.49-.75-.49-1.19v-2.81c0-.6,.32-1.16,.84-1.46,.52-.3,1.17-.3,1.69,0,.52,.3,.84,.86,.84,1.46v2.81c0,.45-.18,.88-.49,1.19s-.75,.49-1.19,.49h0Zm0-5.06c-.31,0-.56,.25-.56,.56v2.81c0,.31,.25,.56,.56,.56s.56-.25,.56-.56v-2.81c0-.15-.06-.29-.16-.4s-.25-.16-.4-.16Z"/></g></g></svg>