<?xml version="1.0" encoding="UTF-8"?><svg id="Layer_2" xmlns="http://www.w3.org/2000/svg" viewBox="0 0 48 48"><defs><style>.cls-1{fill:#d27f7d;}.cls-2{fill:none;}</style></defs><g id="Layer_1-2"><rect class="cls-2" width="48" height="48"/><g><g><path class="cls-1" d="M42.17,38.9h-.71v-.4c0-1.24-1.01-2.24-2.24-2.24h-8.68c-1.24,0-2.24,1.01-2.24,2.24v.4h-.71c-.26,0-.47,.21-.47,.47v2.8c0,.26,.21,.47,.47,.47h14.57c.26,0,.47-.21,.47-.47v-2.8c0-.26-.21-.47-.47-.47h0Zm-12.92-.4c0-.72,.58-1.3,1.3-1.3h8.68c.72,0,1.3,.58,1.3,1.3v.4h-11.28v-.4Zm12.45,3.2h-13.63v-1.86h13.63v1.86Z"/><path class="cls-1" d="M42.17,42.74h-14.57c-.31,0-.57-.25-.57-.57v-2.8c0-.31,.26-.57,.57-.57h.61v-.3c0-1.29,1.05-2.34,2.34-2.34h8.68c1.29,0,2.34,1.05,2.34,2.34v.3h.61c.31,0,.57,.25,.57,.57v2.8c0,.31-.25,.57-.57,.57Zm-14.57-3.74c-.2,0-.37,.17-.37,.37v2.8c0,.2,.17,.37,.37,.37h14.57c.2,0,.37-.17,.37-.37v-2.8c0-.2-.17-.37-.37-.37h-.81v-.5c0-1.18-.96-2.14-2.14-2.14h-8.68c-1.18,0-2.14,.96-2.14,2.14v.5h-.81Zm14.2,2.8h-13.83v-2.06h13.83v2.06Zm-13.63-.2h13.43v-1.66h-13.43v1.66Zm12.45-2.6h-11.48v-.5c0-.77,.63-1.4,1.4-1.4h8.67c.77,0,1.4,.63,1.4,1.4v.5Zm-11.28-.2h11.08v-.3c0-.66-.54-1.2-1.2-1.2h-8.67c-.66,0-1.2,.54-1.2,1.2v.3Z"/></g><g><path class="cls-1" d="M27.79,22.23l2.01,2.64c-.32,.29-.53,.67-.59,1.1-.07,.48,.06,.96,.35,1.35,.36,.47,.9,.72,1.46,.72,.38,0,.77-.12,1.1-.37l9.79-7.44c.39-.29,.64-.72,.7-1.21,.07-.48-.06-.96-.36-1.35-.3-.39-.72-.64-1.21-.7-.43-.06-.85,.04-1.21,.27l-6.85-9.02c.32-.29,.53-.67,.59-1.1,.07-.48-.06-.96-.35-1.35-.61-.8-1.76-.96-2.56-.35l-9.79,7.44c-.8,.61-.96,1.76-.35,2.56,.3,.39,.72,.64,1.21,.7,.08,.01,.17,.02,.25,.02,.34,0,.67-.1,.96-.29l2.46,3.24L6.41,31.84c-.71,.49-1.17,1.23-1.31,2.08s.08,1.69,.6,2.38c.52,.69,1.28,1.12,2.13,1.21,.12,.01,.24,.02,.36,.02,.73,0,1.42-.25,1.99-.72l17.61-14.58Zm-4.08-6.93l8.55-6.49,6.83,8.99-8.55,6.49-6.83-8.99Zm17.1,2.59s.08,0,.12,0c.23,.03,.44,.15,.59,.34,.14,.19,.2,.42,.17,.66-.03,.23-.15,.44-.34,.59l-9.79,7.44c-.39,.29-.95,.22-1.24-.17-.14-.19-.2-.42-.17-.66,.03-.23,.15-.44,.34-.59l9.79-7.44c.16-.12,.34-.18,.53-.18h0Zm-18.95-2.7c-.23-.03-.44-.15-.59-.34-.3-.39-.22-.95,.17-1.24l9.79-7.44c.16-.12,.34-.18,.53-.18,.04,0,.08,0,.12,0,.23,.03,.44,.15,.59,.34s.2,.42,.17,.66c-.03,.23-.15,.44-.34,.59h0s-9.79,7.44-9.79,7.44c-.19,.14-.42,.2-.66,.17h0ZM7.94,36.58c-.6-.07-1.13-.37-1.49-.85-.36-.48-.51-1.07-.42-1.66,.1-.59,.42-1.11,.91-1.45l19.05-12.76,1.24,1.63-17.64,14.6c-.46,.38-1.05,.56-1.64,.49h0Z"/><path class="cls-1" d="M8.19,37.63c-.12,0-.25,0-.38-.02-.88-.1-1.66-.55-2.2-1.25s-.76-1.58-.62-2.46c.14-.88,.62-1.64,1.35-2.14l18.92-12.68-2.34-3.09c-.37,.21-.77,.29-1.2,.24-.51-.07-.96-.33-1.27-.74-.31-.41-.44-.92-.37-1.43,.07-.51,.33-.96,.74-1.27l9.79-7.44c.41-.31,.92-.44,1.43-.37,.51,.07,.96,.33,1.27,.74,.31,.41,.44,.92,.37,1.43-.06,.42-.25,.79-.55,1.09l6.74,8.87c.37-.21,.79-.29,1.2-.24,.51,.07,.96,.33,1.27,.74s.44,.92,.37,1.43c-.07,.51-.33,.96-.74,1.27l-9.79,7.44c-.34,.26-.74,.39-1.16,.39-.61,0-1.17-.28-1.54-.76-.31-.41-.44-.92-.37-1.43,.06-.42,.25-.79,.55-1.09l-1.89-2.49-17.53,14.51c-.59,.49-1.29,.74-2.05,.74ZM22.98,15.73l.06,.07,2.53,3.33-.09,.06L6.47,31.92c-.68,.47-1.13,1.19-1.26,2.01-.13,.82,.07,1.64,.58,2.3,.5,.66,1.24,1.08,2.06,1.18,.83,.1,1.64-.15,2.28-.68l17.69-14.64,2.12,2.8-.07,.06c-.31,.28-.5,.64-.55,1.04-.06,.46,.06,.91,.34,1.28,.33,.43,.83,.68,1.38,.68,.38,0,.74-.12,1.04-.35l9.79-7.44c.37-.28,.6-.68,.67-1.14,.06-.46-.06-.91-.34-1.28s-.68-.6-1.14-.67c-.4-.05-.79,.03-1.15,.26l-.08,.05-.06-.07-6.9-9.09,.07-.06c.31-.28,.5-.64,.55-1.04,.06-.46-.06-.91-.34-1.28-.28-.37-.68-.6-1.14-.67-.46-.07-.91,.06-1.28,.33l-9.79,7.44c-.37,.28-.6,.68-.67,1.14-.06,.46,.06,.91,.33,1.28,.28,.37,.68,.6,1.14,.67,.39,.05,.8-.03,1.15-.25l.08-.05Zm-14.79,20.96c-.09,0-.18,0-.26-.01h-.09c-.59-.1-1.11-.41-1.47-.89-.38-.5-.53-1.12-.44-1.74,.1-.62,.44-1.16,.95-1.51l19.13-12.82,1.35,1.78-.07,.06-17.64,14.6c-.41,.34-.92,.53-1.45,.53Zm-.18-.21c.55,.05,1.08-.12,1.51-.47l17.57-14.54-1.12-1.48L6.99,32.7c-.47,.32-.77,.81-.87,1.38-.09,.57,.05,1.13,.4,1.59,.35,.46,.85,.74,1.42,.81h.06Zm23.02-9.27s-.09,0-.14,0c-.26-.04-.49-.17-.65-.38-.16-.21-.23-.47-.19-.73,.04-.26,.17-.49,.38-.65l9.79-7.44c.17-.13,.38-.2,.59-.2h0s.09,0,.13,0c.26,.04,.49,.17,.65,.38,.16,.21,.23,.47,.19,.73-.04,.26-.17,.49-.38,.65l-9.79,7.44c-.17,.13-.38,.2-.59,.2Zm9.79-9.21c-.17,0-.34,.06-.47,.16l-9.79,7.44c-.17,.13-.28,.31-.3,.52-.03,.21,.03,.42,.15,.58,.26,.35,.76,.41,1.1,.15l9.79-7.44c.17-.13,.28-.31,.3-.52,.03-.21-.03-.42-.15-.58-.13-.17-.31-.28-.52-.3-.04,0-.07,0-.11,0Zm-10.29,6.44l-6.95-9.15,.08-.06,8.63-6.56,6.95,9.15-.08,.06-8.63,6.56Zm-6.67-9.11l6.71,8.83,8.39-6.37-6.71-8.83-8.39,6.37Zm-1.86-.02s-.09,0-.13,0h0c-.26-.04-.49-.17-.65-.38-.33-.43-.24-1.05,.19-1.38l9.79-7.44c.21-.16,.47-.23,.73-.19,.26,.04,.49,.17,.65,.38,.16,.21,.23,.47,.19,.73-.03,.26-.17,.49-.38,.65l-9.79,7.44c-.17,.13-.38,.2-.6,.2Zm-.11-.21c.21,.03,.42-.03,.58-.15l9.79-7.44c.17-.13,.27-.31,.3-.52,.03-.21-.02-.41-.15-.58-.13-.17-.31-.28-.52-.3-.21-.03-.41,.02-.58,.15l-9.79,7.44c-.34,.26-.41,.76-.15,1.1,.13,.17,.31,.28,.52,.3h0Z"/></g></g></g></svg>