<?xml version="1.0" encoding="UTF-8"?><svg id="Layer_2" xmlns="http://www.w3.org/2000/svg" viewBox="0 0 48 48"><defs><style>.cls-1{fill:#d27f7d;}.cls-2{fill:none;}</style></defs><g id="Layer_1-2"><rect class="cls-2" width="48" height="48"/><g><path class="cls-1" d="M39.59,15.86L28.72,4.99H15.17c-1.59,0-2.94,1.3-2.94,2.9V31.26c-2.39,.76-4.11,2.98-4.11,5.58,0,3.23,2.64,5.87,5.87,5.87,.25,0,.46,0,.71-.04,.17,.04,.34,.04,.5,.04h21.48c1.59,0,2.9-1.3,2.9-2.94V16.74s0-.88,0-.88ZM29.18,7.51l7.89,7.89h-7.89s0-7.89,0-7.89ZM9.46,36.88c0-2.48,2.01-4.53,4.53-4.53,1.47,0,2.73,.67,3.57,1.76l-4.11,3.1-.96-1.85c-.17-.34-.59-.46-.92-.29s-.46,.59-.29,.92l1.68,3.27,5.24-3.94c.17,.5,.29,1.01,.29,1.55,0,2.48-2.01,4.53-4.53,4.53s-4.49-2.01-4.49-4.53h0Zm28.78,2.94c0,.88-.71,1.55-1.55,1.55H17.73c1.3-1.09,2.14-2.69,2.14-4.53,0-.84-.21-1.68-.5-2.39l1.51-1.13c.29-.21,.38-.63,.13-.96-.21-.29-.63-.38-.96-.13l-1.43,1.05c-1.09-1.38-2.77-2.31-4.66-2.31h-.38V7.93c0-.88,.71-1.55,1.55-1.55h12.63v10.36h10.41v23.08s.08,0,.08,0Z"/><path class="cls-1" d="M19.45,19.97h12.96v1.34h-12.96v-1.34Z"/><path class="cls-1" d="M19.45,23.83h12.96v1.34h-12.96v-1.34Z"/><path class="cls-1" d="M19.45,27.69h12.96v1.34h-12.96v-1.34Z"/></g></g></svg>