<?xml version="1.0" encoding="UTF-8"?><svg id="Layer_2" xmlns="http://www.w3.org/2000/svg" viewBox="0 0 48 48"><defs><style>.cls-1{fill:#d27f7d;}.cls-2{fill:none;}</style></defs><g id="Layer_1-2"><rect class="cls-2" width="48" height="48"/><g><g><g><path class="cls-1" d="M16.34,24.31c-1.45,.13-2.31,.63-2.37,.67h0c-.17,.11-.23,.33-.12,.5,.11,.17,.33,.23,.5,.12,.01,0,.86-.51,2.31-.58,.13,.27,.26,.53,.39,.77-1.01,.14-1.88,.46-2.55,.97h0c-.08,.06-.13,.14-.14,.24-.01,.1,.01,.19,.07,.27,.12,.16,.35,.2,.51,.07,.73-.55,1.64-.78,2.5-.86,.15,.26,.3,.49,.42,.67-.89,.24-1.71,.71-2.38,1.35-.07,.07-.11,.16-.11,.26,0,.1,.03,.19,.1,.26,.07,.07,.16,.11,.26,.11s.19-.04,.26-.1c.64-.62,1.45-1.04,2.32-1.23,.24,.38,.57,.7,.94,.94,.11,.07,.23,.14,.35,.19,.07,.79,.41,1.54,.96,2.11,.75,.75,1.85,1.13,3.28,1.13h.03c1.43,0,2.53-.38,3.28-1.13,.56-.57,.9-1.32,.96-2.11,.12-.06,.24-.12,.35-.19,.4-.25,.73-.59,.98-.99,.97,.16,1.87,.6,2.59,1.28,.07,.07,.16,.11,.26,.1,.1,0,.19-.04,.26-.11,.07-.07,.1-.17,.1-.26,0-.1-.04-.19-.11-.26-.73-.71-1.65-1.2-2.64-1.42,.12-.18,.25-.39,.39-.63,.94,.05,1.98,.27,2.79,.88h0c.16,.12,.39,.09,.51-.07,.12-.16,.09-.39-.07-.51-.74-.55-1.71-.89-2.84-1,.12-.23,.25-.48,.38-.75,1.6,0,2.55,.56,2.61,.59,.17,.11,.4,.05,.5-.12,.1-.17,.05-.4-.12-.5-.07-.04-1.04-.61-2.66-.69,.15-.36,.3-.74,.44-1.14,1.04-3.06,.79-5.6-.7-7.36-1.17-1.37-2.36-2.1-3.54-2.15-.97-.04-1.9,.36-2.75,1.2-.41,.4-.75,.74-.96,.96-.22-.22-.56-.55-.97-.96-.85-.84-1.78-1.24-2.75-1.2-1.18,.05-2.37,.77-3.54,2.15-1.5,1.76-1.74,4.3-.7,7.36,.14,.4,.29,.79,.44,1.16h0Zm1.49,1.39c-.11-.21-.23-.43-.35-.66,.16,.01,.33,.03,.5,.05-.07,.2-.12,.4-.15,.61h0Zm8.79,4.85c-.57,.56-1.42,.87-2.53,.9h0c-.08,0-.16,0-.24,0s-.16,0-.24,0c-1.11-.04-1.96-.34-2.53-.9h0c-.36-.37-.61-.83-.71-1.34,.67,.14,1.36,.05,1.98-.24,.54-.27,1.05-.6,1.52-.98,.45,.39,.94,.72,1.48,.98,.62,.29,1.31,.38,1.98,.24-.1,.51-.35,.97-.71,1.34h0Zm-3.45-5.21c-.65-.2-1.16-.45-1.52-.74,.09-.14,.26-.35,.5-.4,.3-.05,.68,.15,1.11,.58h0s.03,.06,.05,.09c.13,.16,.36,.19,.51,.06,.67-.53,1.23-.74,1.63-.62,.19,.07,.36,.2,.46,.38-.37,.26-.87,.48-1.49,.67-.19,.06-.3,.25-.25,.44,.02,.07,0,.14-.02,.21,0,.01-.04,.06-.15,.08h0c-.06,.01-.11,.03-.17,.06-.2-.04-.31-.1-.34-.16h0s-.02-.07,0-.1c.06-.24-.08-.49-.32-.56h0Zm6.7,.36h0c-.03-.19-.07-.39-.14-.57,.16-.03,.32-.05,.47-.07-.11,.23-.23,.44-.34,.64h0Zm-12.72-9.43c1.03-1.21,2.05-1.85,3.01-1.89,.76-.03,1.5,.3,2.2,.99,.73,.72,1.23,1.22,1.23,1.22,.14,.14,.38,.14,.52,0,0,0,0,0,0,0,0,0,.49-.5,1.21-1.21,.7-.69,1.44-1.03,2.2-.99,.97,.04,1.98,.68,3.01,1.89,1.34,1.57,1.53,3.81,.57,6.65-.16,.48-.35,.94-.54,1.38h0c-.4,.02-.79,.07-1.18,.15-.11-.16-.23-.3-.37-.44l.07-.55c.05-.39-.03-.78-.22-1.12l-.8-1.37c-.05-.08-.13-.15-.22-.17-.09-.03-.2-.01-.28,.04-.08,.05-.15,.13-.17,.23-.02,.09,0,.2,.04,.28l.8,1.37h0c.11,.2,.16,.42,.13,.65l-.02,.13c-.09-.05-.18-.1-.27-.14-.19-.08-.4,0-.48,.19-.08,.19,0,.4,.19,.48,.22,.1,.42,.24,.6,.4h0c.08,.07,.15,.14,.21,.22-.39,.11-.76,.25-1.13,.4-.09,.04-.16,.11-.2,.2-.04,.09-.04,.19,0,.28,.04,.09,.11,.16,.2,.2,.09,.04,.19,.04,.28,0,.41-.17,.83-.32,1.25-.43,.06,.15,.1,.3,.13,.46-.54,.04-1.08,.12-1.61,.24-.2,.05-.31,.25-.26,.45,.05,.2,.25,.31,.45,.26,.47-.11,.95-.18,1.43-.22-.02,.16-.07,.32-.12,.48-.51-.05-1.01-.03-1.51,.06-.2,.04-.33,.24-.28,.43,.04,.2,.24,.33,.43,.28,.31-.05,.63-.07,.94-.06-.35,.41-.83,.69-1.36,.8-.53,.11-1.08,.05-1.57-.18-.52-.26-1-.59-1.43-.98v-.52c.23-.06,.42-.2,.55-.39,.08-.13,.13-.27,.14-.42,.7-.24,1.26-.53,1.68-.89,0,0,.01-.01,.02-.02,.34-.28,.6-.65,.76-1.06,.38-1.07-.19-2.04-.37-2.31-.28-.41-.4-1.24-.43-1.53h0c0-.1-.05-.19-.13-.25-.07-.06-.17-.09-.27-.09s-.19,.06-.25,.13c-.06,.08-.09,.17-.08,.27,.01,.13,.12,1.24,.55,1.88,.1,.14,.56,.89,.29,1.65h0c-.05,.15-.13,.29-.23,.41-.19-.27-.46-.47-.78-.57-.58-.18-1.26,0-2.02,.53-.58-.54-1.13-.76-1.65-.67h0c-.35,.07-.66,.27-.87,.56-.05-.09-.1-.18-.13-.28-.27-.76,.2-1.5,.29-1.65,.43-.64,.54-1.76,.55-1.88,.02-.2-.13-.38-.33-.39-.2-.02-.38,.13-.4,.33-.02,.29-.15,1.13-.43,1.53-.18,.27-.75,1.23-.38,2.3,.3,.85,1.12,1.51,2.43,1.96h0c0,.16,.05,.31,.14,.45,.13,.19,.33,.32,.6,.41v.52h0c-.44,.38-.93,.7-1.45,.96-.49,.23-1.03,.29-1.56,.18s-1-.39-1.36-.79c.41-.03,.82-.02,1.23,.05,.2,.04,.39-.09,.43-.29,.04-.2-.09-.39-.28-.43-.6-.1-1.2-.11-1.8-.03-.07-.17-.11-.35-.14-.53,.58,.02,1.16,.1,1.73,.23,.2,.05,.4-.07,.45-.26,.05-.2-.07-.4-.26-.45-.63-.15-1.27-.24-1.91-.26,.03-.18,.08-.35,.15-.51,.52,.12,1.03,.29,1.53,.5,.19,.08,.4,0,.48-.2,.08-.19,0-.4-.2-.48-.45-.19-.91-.35-1.38-.47,.05-.05,.09-.09,.14-.13,.01-.01,.03-.02,.04-.04,.17-.15,.37-.28,.58-.38,.19-.08,.27-.29,.19-.48-.08-.19-.29-.27-.48-.19-.09,.04-.19,.09-.27,.14l-.02-.13h0c-.03-.23,.02-.45,.13-.65l.8-1.37c.05-.08,.06-.18,.04-.28s-.09-.18-.17-.23c-.08-.05-.19-.06-.28-.04-.09,.03-.18,.09-.22,.17l-.8,1.37h0c-.2,.34-.27,.73-.22,1.12l.07,.55c-.12,.12-.23,.25-.33,.39-.4-.07-.81-.11-1.22-.11-.19-.43-.38-.89-.54-1.36-.96-2.84-.77-5.07,.57-6.65h0Z"/><path class="cls-1" d="M23.87,32.29h-.03c-1.46,0-2.59-.39-3.35-1.16-.56-.57-.91-1.32-.99-2.12-.11-.05-.21-.11-.31-.17-.37-.24-.69-.55-.93-.91-.83,.19-1.59,.6-2.21,1.19-.09,.08-.2,.13-.32,.13h0c-.12,0-.24-.05-.33-.14-.09-.09-.13-.21-.13-.33,0-.13,.06-.24,.15-.33,.64-.62,1.43-1.08,2.29-1.34-.1-.16-.21-.33-.31-.51-.97,.1-1.78,.38-2.39,.83-.21,.15-.5,.11-.65-.09-.08-.1-.11-.22-.09-.35,0-.04,.02-.09,.04-.13h-.1l.24-.18c.66-.49,1.49-.81,2.46-.96-.1-.2-.2-.39-.29-.58-1.39,.08-2.19,.56-2.2,.56-.22,.13-.51,.07-.64-.16-.07-.11-.08-.23-.06-.35s.1-.22,.21-.29c.09-.06,.91-.53,2.28-.67-.15-.35-.28-.7-.39-1.04-1.05-3.09-.8-5.67,.72-7.45,1.19-1.4,2.4-2.13,3.61-2.18,.99-.05,1.95,.37,2.83,1.23,.37,.36,.68,.67,.9,.89,.21-.22,.52-.53,.89-.89,.83-.82,1.73-1.23,2.68-1.23,.05,0,.1,0,.14,0,1.21,.05,2.42,.79,3.61,2.18,1.52,1.79,1.77,4.36,.72,7.45-.11,.33-.24,.67-.38,1.01,1.53,.1,2.46,.63,2.57,.7,.22,.13,.29,.42,.16,.64-.06,.11-.17,.18-.29,.21-.12,.03-.25,.01-.35-.06-.1-.06-.99-.56-2.49-.58-.09,.18-.18,.37-.28,.56,1.1,.13,2.02,.46,2.74,1,.21,.15,.25,.45,.1,.65-.16,.21-.45,.25-.65,.09-.68-.5-1.58-.79-2.68-.86-.1,.17-.19,.32-.28,.46,.96,.24,1.84,.72,2.55,1.41,.09,.08,.14,.2,.15,.33,0,.12-.04,.25-.13,.33-.09,.09-.21,.14-.33,.14-.11,0-.24-.04-.33-.13-.68-.65-1.54-1.08-2.47-1.25-.25,.38-.58,.72-.97,.97-.1,.06-.2,.12-.31,.17-.08,.79-.43,1.54-.99,2.12-.77,.77-1.89,1.16-3.35,1.16Zm-5.52-4.58l.04,.06c.24,.37,.54,.67,.91,.91,.1,.07,.22,.13,.34,.19l.05,.02v.06c.07,.77,.4,1.5,.94,2.05,.73,.73,1.81,1.1,3.21,1.1h.03c1.4,0,2.48-.37,3.21-1.1,.54-.55,.87-1.28,.94-2.05v-.06s.06-.02,.06-.02c.12-.06,.23-.12,.34-.19,.38-.25,.71-.58,.95-.96l.04-.06h.07c1,.17,1.91,.62,2.64,1.32,.05,.05,.12,.08,.19,.08h0c.07,0,.14-.03,.19-.08,.05-.05,.08-.12,.07-.19,0-.07-.03-.14-.08-.19-.72-.7-1.62-1.18-2.59-1.39l-.14-.03,.08-.12c.11-.18,.25-.39,.38-.62l.03-.05h.06c1.17,.06,2.13,.37,2.85,.9,.12,.09,.29,.06,.37-.05,.09-.12,.06-.29-.05-.37-.73-.54-1.66-.87-2.79-.98h-.15s.07-.15,.07-.15c.14-.26,.26-.5,.37-.74l.03-.06h.06c1.59,0,2.55,.54,2.66,.61,.06,.04,.13,.05,.2,.03,.07-.02,.13-.06,.16-.12,.08-.12,.04-.29-.09-.37-.1-.06-1.05-.6-2.62-.67h-.14s.06-.14,.06-.14c.16-.38,.31-.76,.43-1.13,1.02-3.02,.79-5.53-.69-7.26-1.15-1.35-2.32-2.06-3.47-2.11-.94-.04-1.84,.35-2.67,1.17-.41,.4-.75,.74-.96,.96l-.07,.07-.07-.07c-.22-.22-.56-.55-.97-.96-.79-.78-1.65-1.18-2.54-1.18-.04,0-.09,0-.13,0-1.15,.05-2.32,.76-3.47,2.11-1.47,1.73-1.71,4.24-.69,7.26,.13,.38,.28,.76,.44,1.15l.05,.13h-.14c-1.4,.13-2.24,.61-2.33,.67-.12,.08-.17,.24-.09,.37,.04,.06,.1,.1,.17,.12,.07,.01,.14,0,.2-.03,0,0,.87-.52,2.36-.59h.07s.03,.06,.03,.06c.12,.25,.25,.5,.39,.76l.07,.13-.14,.02c-.98,.13-1.81,.44-2.47,.92l-.04,.03c-.06,.04-.09,.11-.1,.17-.01,.07,0,.14,.05,.2,.09,.12,.26,.14,.37,.05,.66-.49,1.52-.79,2.56-.88h.06s.03,.05,.03,.05c.14,.23,.28,.46,.41,.67l.07,.12-.13,.04c-.88,.24-1.68,.7-2.34,1.33-.05,.05-.08,.12-.08,.19,0,.07,.03,.14,.08,.19,.05,.05,.13,.09,.19,.08,.07,0,.13-.03,.18-.08,.66-.63,1.48-1.06,2.37-1.25h.07Zm5.5,3.84c-.08,0-.16,0-.24,0-1.12-.04-1.99-.34-2.57-.9h0l-.03-.03c-.38-.38-.63-.86-.74-1.39l-.03-.15,.15,.03c.64,.13,1.33,.05,1.92-.24,.54-.26,1.04-.59,1.5-.97l.07-.05,.06,.06c.44,.39,.93,.71,1.45,.97,.59,.28,1.28,.37,1.92,.23l.15-.03-.03,.15c-.11,.53-.36,1.01-.74,1.39h0c-.59,.58-1.46,.9-2.6,.93-.08,0-.16,0-.24,0Zm-2.71-1.09h.02c.55,.56,1.38,.85,2.46,.89,.16,0,.31,0,.47,0,1.08-.03,1.91-.33,2.46-.87,.31-.32,.54-.71,.65-1.14-.64,.1-1.31,0-1.89-.28-.52-.25-1-.57-1.44-.94-.45,.37-.95,.68-1.47,.94-.59,.28-1.25,.37-1.89,.28,.11,.42,.33,.81,.63,1.13Zm-.15-1.82c-.18,0-.35-.02-.52-.05-.54-.11-1.04-.41-1.41-.82l-.13-.15,.2-.02c.42-.03,.84-.02,1.25,.05,.15,.03,.29-.06,.32-.21,.03-.14-.06-.28-.21-.31-.58-.1-1.18-.11-1.77-.03h-.08s-.03-.06-.03-.06c-.07-.18-.12-.36-.15-.55l-.02-.12h.12c.59,.03,1.18,.11,1.75,.24,.15,.04,.29-.05,.33-.19,.04-.14-.05-.29-.19-.33-.62-.15-1.25-.23-1.89-.26h-.11s.02-.12,.02-.12c.03-.18,.08-.36,.16-.53l.03-.08,.08,.02c.53,.12,1.04,.29,1.54,.5,.13,.06,.29,0,.35-.14,.03-.07,.03-.14,0-.2-.03-.07-.08-.12-.14-.15-.44-.19-.9-.34-1.36-.47l-.16-.04,.12-.12s.09-.1,.14-.14c.02-.01,.03-.02,.04-.03,.19-.17,.39-.3,.61-.4,.14-.06,.2-.22,.14-.35-.06-.13-.21-.19-.35-.14-.09,.04-.17,.09-.26,.14l-.13,.08-.04-.28c-.03-.25,.02-.5,.14-.71l.8-1.37c.04-.06,.05-.13,.03-.2-.02-.07-.06-.13-.12-.16-.06-.04-.13-.04-.2-.03-.07,.02-.13,.06-.16,.12l-.8,1.38c-.18,.32-.26,.69-.21,1.05l.08,.6-.04,.03c-.12,.11-.22,.24-.32,.38l-.04,.05h-.06c-.4-.08-.8-.12-1.21-.12h-.06s-.03-.06-.03-.06c-.21-.47-.39-.93-.54-1.37-.98-2.87-.78-5.14,.58-6.74h0c1.05-1.23,2.09-1.88,3.09-1.93,.04,0,.07,0,.11,0,.75,0,1.48,.34,2.17,1.02,.88,.86,1.14,1.13,1.22,1.22h0c.1,.09,.26,.1,.37,0v-.02c.14-.13,.6-.59,1.22-1.21,.69-.68,1.42-1.02,2.17-1.02,.04,0,.07,0,.11,0,1,.04,2.03,.69,3.08,1.93,1.36,1.6,1.56,3.87,.59,6.74-.15,.44-.33,.91-.55,1.39l-.02,.06h-.06c-.39,.03-.78,.08-1.17,.15h-.06s-.04-.04-.04-.04c-.11-.15-.22-.29-.35-.42l-.04-.03,.08-.6c.05-.36-.03-.74-.21-1.05l-.8-1.37c-.04-.06-.09-.11-.16-.13-.07-.02-.14,0-.2,.03-.06,.04-.11,.09-.12,.16-.02,.07,0,.14,.03,.2l.8,1.38c.12,.21,.18,.47,.14,.71l-.04,.28-.13-.08c-.08-.05-.17-.1-.26-.14-.06-.03-.13-.03-.2,0-.07,.03-.12,.08-.15,.14-.03,.07-.03,.14,0,.2,.03,.07,.08,.12,.14,.15,.23,.11,.44,.25,.62,.42,.08,.07,.16,.15,.23,.23l.1,.12-.15,.04c-.38,.11-.76,.25-1.12,.4-.07,.03-.12,.08-.15,.15-.03,.06-.03,.14,0,.2,.03,.07,.08,.12,.15,.14,.07,.03,.14,.03,.21,0,.41-.17,.84-.32,1.27-.44l.09-.02,.03,.08c.06,.16,.11,.32,.13,.48l.02,.11h-.11c-.53,.04-1.07,.12-1.6,.25-.07,.02-.12,.06-.16,.12-.04,.06-.05,.13-.03,.2,.02,.07,.06,.13,.12,.16,.06,.04,.13,.04,.2,.03,.48-.11,.96-.18,1.45-.22h.12s-.02,.11-.02,.11c-.02,.17-.07,.33-.13,.5l-.03,.07h-.08c-.5-.05-1-.03-1.49,.05-.14,.03-.23,.17-.2,.31,.03,.14,.17,.24,.32,.21,.32-.05,.65-.08,.96-.07h.21s-.14,.17-.14,.17c-.37,.42-.87,.72-1.41,.84-.55,.12-1.13,.05-1.63-.19-.53-.26-1.02-.6-1.46-1l-.03-.03v-.64l.08-.02c.2-.05,.38-.17,.49-.35,.07-.11,.11-.24,.12-.38v-.07s.07-.02,.07-.02c.69-.23,1.25-.53,1.65-.87h0s.02-.02,.02-.02c.33-.27,.58-.62,.73-1.02,.37-1.02-.18-1.96-.36-2.22-.29-.43-.42-1.29-.44-1.58,0-.07-.04-.14-.09-.18-.05-.05-.12-.07-.2-.06-.07,0-.14,.04-.18,.09-.05,.05-.07,.13-.06,.2,.01,.12,.11,1.22,.53,1.83,.1,.15,.59,.94,.3,1.74-.06,.16-.14,.31-.24,.44l-.08,.11-.08-.11c-.18-.25-.43-.44-.73-.53-.54-.17-1.2,0-1.94,.52l-.07,.05-.06-.06c-.55-.52-1.08-.73-1.56-.64-.32,.07-.61,.25-.8,.52l-.09,.12-.08-.13c-.06-.09-.1-.19-.14-.29-.28-.81,.2-1.59,.3-1.74,.42-.62,.52-1.71,.53-1.83,.01-.15-.1-.27-.24-.29-.15-.01-.27,.09-.29,.24,0,.01-.1,1.07-.44,1.58-.18,.26-.72,1.19-.37,2.21,.29,.82,1.08,1.46,2.37,1.9l.57,.19h-.5c.02,.1,.06,.2,.12,.29,.11,.17,.3,.29,.55,.37l.07,.02v.64l-.04,.03c-.45,.38-.94,.71-1.47,.97-.34,.16-.72,.24-1.1,.24Zm-1.64-.86c.32,.3,.72,.52,1.15,.61,.5,.1,1.03,.04,1.5-.17,.5-.25,.97-.56,1.4-.92v-.4c-.26-.09-.46-.24-.59-.42-.09-.13-.14-.27-.16-.43-1.31-.46-2.12-1.13-2.43-2-.02-.05-.03-.1-.05-.15-.05,.1-.13,.18-.23,.22-.2,.09-.38,.22-.55,.37-.01,.01-.03,.03-.05,.04,0,0,0,0,0,0,.42,.12,.83,.26,1.22,.43,.12,.05,.2,.14,.25,.25s.05,.24,0,.36c-.1,.24-.37,.35-.61,.25-.46-.2-.94-.36-1.43-.47-.04,.1-.07,.2-.09,.3,.61,.03,1.22,.12,1.82,.26,.25,.07,.4,.32,.33,.57-.07,.25-.32,.4-.57,.33-.52-.12-1.06-.2-1.59-.23,.02,.11,.05,.21,.09,.31,.58-.07,1.18-.06,1.75,.04,.25,.05,.42,.3,.37,.55-.05,.25-.3,.42-.55,.36-.32-.05-.65-.07-.99-.06Zm4.98-.5c.41,.37,.88,.69,1.38,.93,.47,.22,1,.28,1.51,.17,.43-.09,.83-.3,1.15-.61-.23,0-.46,.03-.69,.06-.12,.02-.24,0-.35-.07-.1-.07-.18-.17-.2-.29-.05-.25,.11-.5,.36-.55,.49-.09,.98-.11,1.47-.07,.03-.09,.05-.17,.07-.26-.43,.04-.86,.11-1.29,.2-.12,.03-.24,.01-.35-.05-.11-.06-.18-.17-.21-.29-.03-.12-.01-.25,.05-.35s.16-.18,.28-.22c.5-.12,1.01-.2,1.52-.24-.02-.08-.04-.17-.07-.25-.39,.11-.78,.24-1.15,.4-.11,.05-.24,.05-.36,0-.11-.05-.21-.14-.25-.25-.05-.11-.05-.25,0-.36,.05-.12,.14-.21,.25-.25,.32-.13,.65-.26,.99-.36-.03-.03-.06-.06-.1-.09-.18-.16-.37-.29-.58-.39-.1-.04-.18-.12-.23-.22-.02,.05-.03,.11-.05,.17-.16,.43-.43,.81-.79,1.1l-.02,.02c-.41,.35-.96,.64-1.65,.88-.02,.14-.07,.28-.15,.4-.13,.2-.31,.34-.54,.42v.4Zm4.8-3.3c.11,.11,.21,.23,.3,.36,.35-.07,.71-.11,1.07-.14,.2-.45,.37-.89,.51-1.31,.95-2.8,.77-5.01-.55-6.55-1.01-1.19-2-1.82-2.94-1.86-.72-.02-1.45,.29-2.13,.96-.61,.6-1.06,1.06-1.19,1.2l-.02,.02c-.18,.18-.48,.18-.66,0l-.03-.03c-.12-.12-.57-.57-1.2-1.19-.65-.64-1.33-.97-2.03-.97-.03,0-.07,0-.1,0-.94,.04-1.93,.67-2.94,1.86h0c-1.32,1.54-1.5,3.75-.55,6.55,.14,.42,.31,.85,.51,1.3,.37,0,.75,.04,1.11,.1,.08-.11,.17-.22,.27-.31l-.07-.5c-.05-.41,.03-.83,.24-1.18l.8-1.37c.06-.11,.16-.19,.28-.22,.12-.03,.25-.01,.36,.05,.11,.06,.19,.17,.22,.29,.03,.12,.01,.25-.05,.35l-.8,1.37c-.1,.17-.14,.37-.12,.56,.05-.03,.1-.05,.15-.07,.19-.08,.39-.03,.52,.1-.03-.81,.37-1.48,.52-1.7,.26-.39,.39-1.2,.41-1.49,.02-.25,.25-.44,.5-.42,.25,.02,.44,.25,.42,.5-.01,.13-.12,1.27-.57,1.93-.09,.13-.53,.84-.28,1.56,.02,.04,.03,.09,.05,.13,.22-.24,.51-.41,.83-.48,.53-.1,1.1,.12,1.68,.64,.77-.52,1.46-.68,2.05-.5,.29,.09,.55,.27,.74,.5,.06-.09,.1-.18,.14-.28,.25-.72-.19-1.43-.28-1.56-.45-.66-.56-1.8-.57-1.93-.01-.12,.03-.25,.11-.34,.08-.09,.2-.16,.32-.17,.13,0,.25,.03,.34,.11,.1,.08,.15,.19,.16,.32,.02,.26,.14,1.09,.41,1.48,.15,.22,.55,.89,.52,1.7,.04-.05,.1-.08,.16-.11,.12-.05,.24-.04,.36,0,.05,.02,.1,.05,.15,.08,.02-.2-.02-.39-.12-.56l-.8-1.37c-.06-.11-.08-.24-.05-.35,.03-.12,.11-.22,.22-.29,.11-.06,.23-.08,.36-.05,.12,.03,.22,.11,.28,.22l.8,1.37c.21,.35,.29,.77,.24,1.18l-.07,.5Zm-5.53,2.38l-.18-.3c-.04-.06-.04-.13-.02-.19h0v-.15c-.03-.13-.12-.24-.26-.28h0c-.66-.21-1.18-.46-1.56-.76l-.07-.06,.05-.08c.11-.17,.29-.39,.57-.44,.33-.06,.74,.15,1.2,.61l.1,.1h-.03c.04,.06,.1,.1,.17,.1,.06,0,.14-.01,.19-.06,.7-.55,1.3-.77,1.72-.64,.22,.08,.4,.23,.52,.43l.04,.08-.08,.05c-.38,.27-.89,.5-1.52,.68-.14,.04-.21,.18-.18,.32,.02,.09,.01,.19-.03,.28-.03,.05-.08,.09-.14,.11h0s-.08,.02-.08,.02c-.05,.01-.1,.03-.14,.05l-.03,.02h-.04c-.07-.02-.15-.04-.22-.07v.17Zm-.02-.42h0s.08,.08,.25,.12c.03-.01,.05-.02,.08-.03h0s.08-.02,.08-.02c.06-.01,.08-.03,.08-.04,.02-.03,.02-.08,0-.13-.06-.24,.08-.49,.32-.56,.56-.17,1.03-.37,1.38-.6-.09-.12-.21-.21-.36-.26-.36-.11-.89,.1-1.54,.6-.1,.08-.22,.11-.34,.1-.12-.01-.24-.08-.31-.17-.02-.03-.04-.06-.06-.1-.4-.4-.75-.58-1.01-.54-.17,.03-.3,.16-.38,.27,.35,.26,.83,.48,1.42,.67h0c.29,.09,.46,.39,.38,.68h-.01Zm-5.69,.09l-.15-.27c-.11-.21-.23-.43-.35-.67l-.08-.16h.17c.18,.02,.34,.04,.51,.06l.12,.02-.04,.12c-.07,.19-.12,.39-.14,.59l-.04,.3Zm-.24-.86c.04,.09,.09,.17,.13,.25,.02-.08,.04-.15,.06-.23-.06,0-.13-.01-.2-.02Zm12.16,.86l-.04-.3c-.02-.19-.07-.37-.13-.55l-.04-.11,.12-.02c.16-.03,.32-.05,.48-.07l.18-.02-.08,.17c-.11,.23-.23,.44-.34,.64l-.15,.27Zm.06-.81c.02,.06,.04,.13,.05,.19,.04-.07,.08-.14,.11-.22-.05,0-.11,.01-.17,.02Z"/></g><g><path class="cls-1" d="M26.4,19.75s.04,0,.06,0c.14,0,.27-.08,.33-.21,.15,.1,.31,.17,.47,.22,.15,.04,.31,.07,.47,.07,.26,0,.51-.06,.73-.19,.25-.14,.45-.35,.59-.61,.14-.25,.2-.54,.19-.82,.07,.02,.11,.03,.11,.03,.19,.06,.39-.05,.45-.24,.06-.19-.05-.4-.24-.46-.06-.02-1.45-.44-2.48,.2-.53,.33-.87,.86-.99,1.58h0c-.02,.1,0,.19,.06,.27,.06,.08,.14,.13,.24,.15h0Zm1.07-1.38c.31-.19,.69-.24,1.02-.24,.07,.35-.09,.7-.39,.89-.2,.1-.42,.12-.63,.05-.16-.04-.31-.13-.42-.26,.1-.18,.25-.33,.43-.44h0Z"/><path class="cls-1" d="M27.76,19.94c-.18,0-.35-.02-.52-.07-.15-.04-.29-.1-.42-.18-.1,.12-.27,.19-.44,.16h0c-.12-.02-.23-.09-.3-.19-.07-.1-.1-.22-.08-.35,.13-.75,.48-1.31,1.04-1.65,1.07-.66,2.51-.22,2.57-.21,.24,.08,.38,.34,.3,.58-.07,.24-.33,.38-.56,.31,0,.26-.08,.51-.2,.74-.15,.27-.36,.49-.63,.64-.23,.13-.5,.2-.77,.2Zm-1-.54l.09,.06c.14,.09,.29,.16,.45,.21,.15,.04,.3,.06,.46,.06,.23,0,.46-.06,.67-.18,.23-.13,.42-.33,.55-.57,.13-.24,.19-.5,.18-.77v-.13s.12,.03,.12,.03c.08,.02,.12,.03,.13,.03,.13,.04,.28-.04,.32-.18,.04-.14-.03-.29-.17-.33-.06-.02-1.41-.42-2.4,.19-.51,.31-.82,.82-.94,1.51-.01,.07,0,.14,.04,.2,.04,.06,.1,.1,.17,.11h0s0,0,0,0c.12,.02,.23-.04,.28-.15l.05-.1Zm.97-.2c-.1,0-.19-.01-.28-.04-.18-.05-.34-.15-.46-.28l-.05-.05,.04-.06c.11-.19,.27-.36,.46-.48h0c.28-.17,.63-.26,1.05-.26h.1s.02,.08,.02,.08c.08,.39-.1,.79-.44,.99-.14,.07-.28,.1-.43,.1Zm-.55-.41c.09,.08,.2,.14,.32,.17,.19,.06,.39,.04,.56-.04,.24-.14,.38-.42,.35-.7-.36,0-.65,.08-.88,.23h0c-.14,.09-.26,.2-.35,.34Z"/></g><g><path class="cls-1" d="M18.34,18.25s.04-.01,.11-.03h0c-.01,.29,.05,.57,.19,.82,.14,.25,.34,.46,.59,.61,.22,.13,.48,.19,.73,.19,.16,0,.32-.02,.47-.07,.17-.05,.33-.12,.47-.22,.06,.12,.19,.2,.33,.21,.02,0,.04,0,.06,0,.1-.02,.18-.07,.24-.15,.06-.08,.08-.18,.06-.27-.13-.72-.46-1.26-.99-1.58-1.03-.63-2.43-.21-2.48-.2-.19,.06-.3,.26-.24,.46,.06,.19,.26,.3,.45,.24h0Zm.87-.12c.34,0,.71,.05,1.02,.24h0c.18,.11,.32,.26,.43,.44-.11,.12-.26,.21-.42,.26-.27,.09-.58,.03-.79-.16-.21-.2-.31-.49-.24-.77h0Z"/><path class="cls-1" d="M19.95,19.94c-.27,0-.53-.07-.77-.2-.27-.15-.48-.38-.63-.65-.12-.23-.19-.48-.2-.74-.24,.06-.49-.08-.56-.31-.08-.24,.06-.5,.3-.58,.15-.05,1.52-.43,2.57,.21,.56,.34,.91,.9,1.04,1.65,.02,.12,0,.25-.08,.35-.07,.1-.18,.17-.3,.19-.17,.03-.33-.04-.44-.16-.13,.08-.27,.14-.42,.18-.17,.05-.35,.08-.51,.07Zm-1.39-1.84v.13c-.02,.27,.04,.54,.17,.77,.13,.24,.32,.43,.55,.57,.2,.11,.43,.17,.67,.17,.15-.01,.31-.02,.46-.06,.16-.04,.31-.11,.45-.21l.09-.06,.05,.1c.05,.1,.17,.17,.28,.15,.07-.01,.13-.05,.17-.11,.04-.06,.06-.13,.04-.2-.12-.69-.44-1.2-.95-1.51-.99-.6-2.35-.2-2.4-.19-.14,.04-.22,.19-.17,.33,.04,.14,.19,.22,.33,.18h0s.05-.02,.12-.03l.13-.03Zm-.22,.16v.04s.01,0,.01,0v-.04Zm1.62,.96c-.22,0-.43-.08-.6-.23-.24-.22-.34-.55-.27-.87l.1,.02v-.1s.03,0,.05,0h.08c.38,.01,.69,.1,.95,.26,.19,.12,.35,.28,.46,.48l.04,.06-.05,.05c-.13,.14-.29,.23-.47,.28-.09,.03-.19,.05-.29,.05Zm-.69-.98c-.03,.22,.05,.45,.22,.6,.19,.17,.45,.23,.69,.14,.12-.03,.23-.09,.33-.18-.09-.14-.21-.25-.35-.34-.23-.14-.53-.22-.89-.23Z"/></g><g><path class="cls-1" d="M21.4,26.47c.17,0,.33-.12,.36-.29,.03-.17-.06-.34-.22-.41-.16-.07-.35-.01-.44,.13-.1,.15-.08,.34,.04,.46,.07,.07,.16,.11,.26,.11h0Z"/><path class="cls-1" d="M21.4,26.57h0c-.12,0-.24-.05-.33-.14-.16-.16-.18-.4-.06-.59,.12-.18,.36-.25,.57-.17,.21,.08,.32,.3,.28,.52-.04,.22-.24,.38-.46,.38Zm0-.73c-.09,0-.17,.04-.22,.12-.07,.1-.06,.25,.03,.34,.05,.05,.12,.08,.19,.08,.13,0,.24-.09,.26-.21,.02-.12-.04-.25-.16-.3-.03-.01-.07-.02-.1-.02Z"/></g><g><path class="cls-1" d="M21.4,27.54c.17,0,.32-.12,.36-.29s-.06-.34-.22-.41c-.16-.07-.35,0-.44,.14-.1,.15-.08,.34,.05,.46,.07,.07,.16,.11,.26,.11h0Z"/><path class="cls-1" d="M21.4,27.64h0c-.12,0-.24-.05-.33-.13-.16-.16-.18-.41-.06-.59s.36-.25,.56-.17c.2,.08,.32,.3,.28,.52-.04,.22-.24,.37-.46,.38h0Zm0-.73c-.09,0-.17,.04-.22,.12-.07,.1-.06,.25,.03,.34,.05,.05,.12,.08,.19,.08,.12,0,.23-.09,.26-.21,.02-.12-.04-.25-.16-.3-.03-.01-.07-.02-.1-.02Z"/></g><g><path class="cls-1" d="M22.33,27.08c.15,0,.28-.09,.34-.23,.06-.14,.03-.29-.08-.4s-.26-.14-.4-.08c-.14,.06-.23,.19-.23,.34,0,.1,.04,.19,.11,.26,.07,.07,.16,.11,.26,.11h0Z"/><path class="cls-1" d="M22.33,27.18h0c-.12,0-.24-.05-.33-.14-.09-.09-.14-.21-.14-.33,0-.19,.11-.36,.29-.43,.17-.07,.37-.03,.51,.1,.13,.14,.17,.33,.1,.51-.07,.18-.24,.29-.43,.29Zm0-.73s-.07,0-.1,.02c-.1,.04-.17,.14-.17,.25,0,.07,.03,.14,.08,.19,.12,.12,.37,.08,.43-.09,.04-.1,.02-.21-.06-.29-.05-.05-.12-.08-.19-.08Z"/></g><g><path class="cls-1" d="M26.6,25.73c-.17,0-.33,.12-.36,.29-.03,.17,.06,.34,.22,.41,.16,.07,.35,.01,.44-.14,.1-.15,.08-.34-.05-.46-.07-.07-.16-.11-.26-.11h0Z"/><path class="cls-1" d="M26.6,26.57c-.06,0-.12-.01-.18-.04-.21-.09-.32-.31-.28-.52,.04-.22,.24-.38,.46-.38,.12,0,.24,.05,.33,.14,.16,.16,.18,.4,.06,.59-.09,.13-.24,.21-.39,.21Zm0-.73c-.13,0-.24,.09-.26,.21-.02,.12,.04,.25,.16,.3,.12,.04,.25,0,.32-.1,.07-.11,.06-.25-.03-.34-.05-.05-.12-.08-.19-.08Z"/></g><g><path class="cls-1" d="M26.6,26.81c-.18,0-.33,.12-.36,.3-.03,.17,.06,.34,.22,.41,.16,.07,.35,.01,.45-.13,.1-.15,.08-.34-.05-.46-.07-.07-.16-.11-.26-.11h0Z"/><path class="cls-1" d="M26.6,27.65c-.06,0-.12-.01-.18-.04-.21-.09-.32-.31-.28-.52,.04-.22,.24-.38,.46-.38h0c.12,0,.24,.05,.33,.14,.16,.16,.18,.41,.06,.59-.09,.13-.24,.21-.39,.21Zm0-.74c-.13,0-.24,.09-.26,.22-.02,.12,.04,.25,.16,.3,.12,.05,.25,0,.33-.1,.07-.11,.06-.25-.03-.34-.05-.05-.12-.08-.19-.08Z"/></g><g><path class="cls-1" d="M25.68,26.35c-.17,0-.33,.12-.36,.29-.03,.17,.06,.34,.22,.41,.16,.07,.35,.01,.44-.14,.1-.15,.08-.34-.05-.46-.07-.07-.16-.11-.26-.11h0Z"/><path class="cls-1" d="M25.68,27.18c-.06,0-.12-.01-.18-.03-.21-.08-.32-.3-.28-.52,.04-.22,.24-.38,.46-.38,.12,0,.24,.05,.33,.14,.16,.16,.18,.4,.06,.59-.09,.13-.24,.21-.39,.21Zm0-.73c-.13,0-.24,.09-.26,.21-.02,.12,.04,.25,.16,.3,.12,.05,.25,0,.32-.1,.07-.11,.06-.25-.03-.33-.05-.05-.12-.08-.19-.08Z"/></g><g><path class="cls-1" d="M8.14,23.87c.04,.17,.18,.29,.36,.29,.03,0,.05,0,.08,0,.16-.03,.27-.17,.29-.33h0c.04-.41,.21-.84,.52-1.27-.22,1.62-.24,4.06,.47,6.92h0s0,0,0,0c.05,.19,.25,.31,.44,.26,.19-.05,.31-.24,.27-.44-.1-.42-.07-.99,.09-1.66,0,.12,0,.25,0,.38,.06,1.77,.55,4.36,2.54,6.7h0c.12,.14,.33,.17,.48,.06,.15-.1,.21-.31,.12-.47-.19-.37-.21-1.02-.06-1.86,.02,.16,.05,.32,.09,.49,.38,1.91,1.2,3.31,2.38,4.06,.14,.09,.32,.07,.44-.04,.12-.11,.15-.29,.08-.44h0s0,0,0,0c-.22-.44-.37-.9-.46-1.38,.52,1.25,1.36,2.63,2.7,3.72,.14,.11,.34,.11,.48-.01,.13-.12,.16-.32,.06-.47h0c-.16-.25-.26-.59-.31-.95,.39,1.01,1,2.13,1.94,2.87h0c.11,.09,.27,.1,.4,.04,.13-.07,.2-.21,.19-.35-.01-.14-.01-.28,0-.42,.39,1.31,1.01,2.28,1.85,2.89,.16,.12,.39,.12,.55,0,.82-.6,1.45-1.6,1.84-2.89,0,.14,0,.28,0,.42-.01,.15,.06,.28,.19,.35,.13,.07,.29,.05,.4-.04,.94-.74,1.55-1.86,1.94-2.87-.05,.36-.15,.7-.31,.95h0c-.1,.15-.07,.35,.06,.47,.13,.12,.34,.13,.48,.01,1.34-1.08,2.18-2.47,2.7-3.72-.09,.48-.24,.94-.46,1.38h0c-.08,.15-.05,.33,.08,.44s.3,.13,.44,.04c1.18-.75,2-2.15,2.38-4.06,.03-.17,.06-.33,.09-.49,.15,.84,.13,1.5-.06,1.86h0c-.09,.17-.04,.37,.12,.47,.15,.1,.36,.08,.48-.07,1.99-2.34,2.48-4.94,2.54-6.7,0-.13,0-.26,0-.38,.16,.67,.19,1.24,.09,1.66h0c-.04,.19,.08,.39,.27,.44,.19,.05,.39-.07,.44-.26h0s0,0,0,0c.71-2.86,.69-5.3,.47-6.91,.31,.44,.49,.86,.52,1.27h0c.01,.16,.13,.29,.29,.33,.02,0,.05,0,.08,0,.17,0,.32-.12,.36-.29,.68-3.26-.58-6.29-1.52-7.98l1.14,.71c.13,.08,.3,.07,.42-.02,.12-.1,.17-.26,.12-.41-1.07-3.12-2.43-5.03-3.4-6.11-.12-1.36-.72-1.88-1.26-2.07-.48-.17-1-.13-1.51,.03-.07-.03-.14-.06-.21-.08l1.54-.35c.16-.04,.27-.17,.28-.33,.01-.16-.08-.31-.22-.37-.12-.05-2.28-.93-4.75-.66l.62-.4h0c.14-.09,.2-.25,.16-.41s-.18-.26-.34-.27c-.2,0-4.81-.14-6.83,1.82-2.02-1.96-6.55-1.83-6.74-1.82-.16,0-.3,.11-.34,.27-.04,.15,.02,.32,.16,.41l.62,.4c-2.47-.27-4.63,.61-4.75,.66h0c-.15,.06-.24,.21-.22,.37,.01,.16,.13,.29,.28,.33l1.54,.35c-.07,.03-.15,.06-.22,.09-.5-.16-1.01-.2-1.49-.04-.87,.3-1.19,1.17-1.26,2.07-.97,1.07-2.33,2.98-3.4,6.1h0c-.05,.15,0,.31,.12,.41,.12,.1,.29,.11,.42,.02l1.14-.71c-.94,1.69-2.19,4.73-1.52,7.98h0Zm28.18-12.68c.73,.93,1.58,2.29,2.35,4.22l-1.54-.97h0c-.36-.46-.74-.89-1.14-1.31,.17-.64,.28-1.29,.34-1.94h0Zm-1.5-2.5c1.07,.37,.83,2.57,.55,3.85-.15-.13-.29-.26-.44-.39,.44-.9,.3-2.05-.37-2.51-.36-.25-.88-.28-1.41-.08-.4,.16-.75,.4-1.04,.72-.18-.09-.36-.18-.53-.25,.82-.7,2.28-1.68,3.24-1.34h0Zm-.48,2.99c-.5-.38-1.02-.73-1.56-1.04,.18-.17,.39-.31,.63-.4,.3-.11,.57-.11,.73,0,.31,.21,.42,.86,.2,1.44h0Zm-21.46-2.99c.97-.34,2.37,.68,3.15,1.39-.13,.06-.27,.12-.41,.19-.29-.32-.65-.57-1.06-.72-.54-.2-1.06-.16-1.42,.09-.66,.46-.78,1.57-.33,2.48-.16,.14-.32,.28-.49,.43-.28-1.28-.52-3.48,.55-3.86h0Zm2.07,1.94h0c-.54,.31-1.05,.65-1.54,1.02-.23-.57-.14-1.2,.16-1.4,.16-.11,.45-.12,.75,0h0c.23,.09,.45,.22,.63,.39h0Zm-5.91,4.78c.76-1.92,1.62-3.28,2.35-4.21h0c.06,.65,.17,1.3,.34,1.94-.4,.41-.78,.85-1.14,1.3l-1.54,.97Zm2.08-.46c2.33-2.99,4.96-4.18,6.32-4.63h0c.19-.07,.29-.27,.23-.46-.06-.19-.26-.29-.46-.24-.13,.04-.28,.09-.43,.15-.5-.5-1.07-.93-1.67-1.3,.3-.09,.61-.14,.93-.16,.19,0,.34-.14,.36-.33,.02-.19-.1-.36-.28-.4l-1.78-.41c1.3-.3,3.38-.52,5.25,.38,.17,.08,.38,.02,.48-.15,.09-.17,.04-.38-.12-.49l-1.55-.99c1.44,.1,3.74,.43,4.92,1.58,.28,.28,.74,.28,1.02,0,1.19-1.16,3.54-1.49,5.01-1.58l-1.55,.99c-.16,.1-.22,.32-.12,.49,.09,.17,.3,.24,.48,.15,1.87-.9,3.95-.67,5.25-.38l-1.78,.41h0c-.18,.04-.3,.21-.28,.4,.02,.18,.18,.33,.36,.33,.3,.02,.59,.06,.88,.14-.62,.36-1.21,.78-1.74,1.27-.11-.04-.22-.08-.32-.11-.19-.06-.39,.05-.46,.24-.06,.19,.04,.39,.23,.46,1.36,.45,3.98,1.64,6.32,4.63,.05,.07,2.56,3.42,2.43,7.34-.12-.18-.25-.35-.39-.52-.57-.68-1.07-1.41-1.49-2.19-.7-1.29-1.76-2.35-3.04-3.07-.09-.05-.19-.06-.28-.03-.09,.03-.17,.09-.22,.17-.1,.18-.03,.4,.14,.5,1.16,.65,2.12,1.61,2.75,2.78,.24,.44,.5,.87,.79,1.28,.07,.21,.34,1.11,.42,2.68h0c.05,.99,0,1.98-.11,2.96-.24-.76-.55-1.5-.92-2.2-.09-.16-.29-.23-.46-.16-.17,.07-.26,.26-.21,.44,0,.01,.38,1.31,.32,3.1-.07,1.89-.59,3.59-1.53,5.08-.09-1.3-.62-2.7-.71-2.92h0c-.07-.17-.24-.26-.42-.22-.18,.04-.3,.2-.29,.38,.02,.83-.05,1.66-.21,2.47-.16,.79-.46,1.76-1.02,2.56,.36-1.71,.16-3.5,.15-3.6-.02-.18-.18-.32-.36-.32h0c-.19,0-.34,.15-.36,.34,0,.04-.27,3.18-2.3,5.55,.11-1.12-.12-2.27-.14-2.34-.04-.17-.19-.3-.37-.29-.18,0-.33,.14-.35,.32,0,.03-.36,2.55-1.7,4.13h0c-.06-.69-.17-1.37-.31-2.04-.04-.18-.21-.3-.39-.29s-.33,.17-.33,.36c0,.03-.1,3.12-1.79,4.55-1.69-1.43-1.8-4.52-1.8-4.55h0c0-.19-.15-.34-.33-.36-.18-.02-.35,.11-.39,.29-.14,.67-.25,1.35-.31,2.04-1.34-1.58-1.7-4.1-1.7-4.13h0c-.02-.18-.17-.31-.35-.32-.18,0-.34,.12-.37,.29-.01,.07-.25,1.21-.14,2.34-2.03-2.37-2.3-5.51-2.3-5.55-.01-.19-.17-.33-.36-.34-.19,0-.35,.14-.37,.32-.01,.1-.21,1.9,.15,3.6-.56-.8-.86-1.77-1.02-2.56h0c-.16-.81-.23-1.64-.21-2.47,0-.18-.11-.34-.29-.38-.18-.04-.35,.06-.42,.22-.09,.22-.63,1.62-.71,2.92-.94-1.49-1.46-3.2-1.53-5.08-.07-1.79,.31-3.09,.32-3.1h0c.05-.18-.04-.37-.21-.44-.17-.07-.37,0-.46,.16-.37,.7-.68,1.44-.92,2.2-.12-.98-.16-1.97-.11-2.96,.08-1.57,.34-2.46,.42-2.68,.28-.41,.55-.84,.79-1.28,.64-1.17,1.59-2.13,2.75-2.78,.18-.1,.24-.32,.14-.5-.1-.18-.32-.24-.5-.14-1.28,.72-2.34,1.78-3.04,3.07-.42,.78-.92,1.51-1.49,2.19-.14,.16-.27,.34-.39,.52-.12-3.91,2.38-7.27,2.43-7.34h0Z"/><path class="cls-1" d="M23.85,42.64c-.12,0-.24-.04-.34-.11-.73-.54-1.3-1.34-1.7-2.4-.03,.12-.11,.22-.23,.29-.11,.06-.23,.07-.35,.04v.04l-.16-.13c-.54-.43-1.01-1-1.42-1.72-.02,.1-.07,.2-.15,.27-.17,.16-.43,.16-.61,.02-.83-.67-1.54-1.51-2.11-2.5,0,.01,.01,.03,.02,.04l.03,.06h0c.06,.18,0,.37-.13,.49-.15,.14-.38,.16-.56,.05-1.17-.75-2-2.12-2.4-3.99-.04,.52,0,.93,.14,1.18,.11,.21,.04,.47-.15,.6-.2,.13-.46,.1-.62-.08l-.14-.17h0c-1.65-2.03-2.23-4.22-2.38-5.9,0,.21,.02,.39,.06,.55,.06,.25-.1,.5-.34,.56-.24,.06-.5-.09-.56-.33v-.03c-.71-2.83-.66-5.15-.52-6.48-.16,.29-.25,.58-.27,.85l-.02,.09c-.05,.16-.18,.29-.35,.32-.24,.05-.5-.11-.55-.36l-.03-.12h0c-.6-3.08,.52-5.97,1.37-7.6l-.82,.51c-.16,.1-.38,.09-.54-.03-.15-.12-.21-.33-.15-.52,1.08-3.13,2.44-5.05,3.4-6.11,.11-1.14,.55-1.85,1.33-2.12,.2-.07,.41-.11,.63-.11l-.45-.1c-.2-.04-.34-.21-.36-.41-.02-.2,.1-.39,.28-.47h.02c.22-.1,2.12-.85,4.37-.7l-.28-.18c-.17-.11-.25-.32-.2-.52,.05-.2,.23-.34,.43-.34,.19,0,4.66-.14,6.75,1.78,2.03-1.87,6.34-1.8,6.83-1.78,.21,0,.38,.15,.43,.34,.05,.2-.02,.4-.2,.52l-.28,.18c2.35-.15,4.31,.66,4.39,.7,.19,.08,.3,.27,.29,.47-.02,.2-.16,.37-.36,.42l-.45,.1c.22,0,.43,.04,.62,.11,.53,.19,1.19,.71,1.33,2.12,.96,1.07,2.32,2.99,3.4,6.12,.06,.19,0,.39-.15,.52-.16,.12-.37,.13-.54,.03l-.82-.51c.86,1.65,2,4.59,1.35,7.72-.05,.25-.31,.41-.55,.36-.18-.04-.31-.17-.36-.34h0s0-.07,0-.07c-.02-.27-.12-.56-.27-.85,.13,1.34,.18,3.66-.52,6.51-.07,.25-.32,.4-.56,.34-.25-.06-.4-.3-.34-.55,.04-.16,.06-.35,.06-.55-.16,1.73-.76,3.99-2.52,6.06-.16,.18-.42,.22-.62,.08-.2-.13-.26-.39-.15-.6,.13-.25,.18-.66,.14-1.18-.4,1.87-1.22,3.25-2.39,3.99-.18,.11-.41,.09-.57-.05-.14-.13-.18-.32-.13-.49h0s.03-.07,.03-.07c0-.01,.01-.03,.02-.04-.57,.99-1.28,1.83-2.11,2.5-.18,.14-.43,.14-.6-.02-.08-.07-.13-.17-.15-.27-.4,.72-.88,1.29-1.42,1.72-.15,.12-.34,.13-.51,.04-.11-.06-.2-.16-.23-.28-.4,1.05-.98,1.87-1.69,2.39-.1,.07-.22,.11-.34,.11Zm-2.2-3.68l.17,.57c.39,1.29,1,2.24,1.81,2.84,.13,.09,.31,.09,.44,0,.8-.59,1.42-1.57,1.81-2.84l.17-.58,.02,.6c0,.15,0,.29,0,.43,0,.11,.05,.21,.14,.26,.09,.05,.21,.04,.29-.03,.78-.62,1.42-1.57,1.91-2.83l.31-.8-.11,.85c-.05,.36-.14,.66-.27,.9h0s-.06,.1-.06,.1c-.07,.11-.05,.25,.04,.34,.1,.09,.24,.09,.34,0,1.14-.92,2.04-2.16,2.67-3.68l.36-.85-.17,.91c-.08,.46-.23,.91-.43,1.34h0s-.03,.07-.03,.07c-.06,.11-.03,.24,.06,.32,.09,.08,.22,.09,.32,.03,1.15-.73,1.96-2.12,2.33-4,.03-.17,.06-.33,.08-.48l.09-.59,.11,.59c.16,.87,.13,1.54-.07,1.93-.06,.12-.03,.27,.09,.34,.11,.08,.26,.06,.35-.05,1.97-2.32,2.46-4.89,2.52-6.64,0-.13,0-.25,0-.38v-.86l.2,.83c.16,.7,.19,1.27,.08,1.71-.03,.14,.05,.28,.2,.32,.14,.03,.28-.05,.32-.18h0c.78-3.17,.63-5.68,.47-6.89l-.05-.4,.24,.33c.3,.42,.47,.83,.53,1.23h0v.09c.02,.12,.11,.21,.22,.24,.14,.02,.29-.07,.32-.21,.68-3.29-.65-6.37-1.51-7.92l-.19-.34,1.47,.92c.1,.06,.22,.05,.31-.02,.09-.07,.12-.19,.09-.3-1.08-3.12-2.43-5.02-3.38-6.07l-.02-.03v-.03c-.09-1.05-.51-1.74-1.2-1.98-.41-.14-.9-.13-1.45,.03h-.03s-.03,0-.03,0c-.07-.03-.14-.06-.2-.08l-.32-.12,1.87-.43c.11-.03,.2-.12,.21-.24,0-.12-.06-.22-.16-.27-.09-.04-2.23-.92-4.7-.65l-.42,.05,.98-.63c.1-.06,.14-.18,.11-.29-.03-.11-.13-.19-.25-.2-.48-.02-4.82-.09-6.75,1.79l-.07,.07-.07-.07c-1.99-1.94-6.48-1.8-6.67-1.79-.12,0-.22,.08-.25,.2-.03,.11,.01,.23,.11,.3l.98,.62-.42-.05c-2.48-.27-4.61,.61-4.7,.65h-.01c-.1,.05-.16,.16-.15,.27,0,.12,.09,.21,.21,.24l1.87,.43-.31,.12c-.07,.03-.14,.06-.22,.09h-.03s-.04,0-.04,0c-.53-.17-1.01-.18-1.43-.04-.7,.25-1.1,.91-1.2,1.99v.03s-.03,.02-.03,.02c-.95,1.04-2.31,2.94-3.38,6.06-.04,.11,0,.23,.09,.3s.21,.08,.31,.02l1.47-.92-.19,.34c-.86,1.55-2.19,4.63-1.5,7.92v.02c.04,.13,.18,.21,.32,.19,.11-.02,.2-.12,.21-.24v-.09c.07-.4,.25-.81,.54-1.23l.24-.33-.05,.4c-.16,1.21-.32,3.71,.47,6.88h0c.04,.14,.18,.22,.32,.19,.14-.03,.23-.18,.2-.32-.11-.44-.08-1.01,.09-1.71l.19-.81v.83c0,.12,0,.25,.01,.38,.06,1.75,.55,4.32,2.52,6.64h.01c.09,.1,.23,.12,.34,.05,.11-.08,.15-.22,.09-.34-.21-.38-.23-1.05-.07-1.93l.11-.59,.09,.59c.02,.16,.05,.32,.08,.48,.38,1.88,1.18,3.26,2.33,4,.1,.06,.23,.05,.32-.03,.09-.08,.11-.21,.06-.32l-.03-.07h0c-.2-.43-.35-.88-.43-1.34l-.17-.91,.36,.85c.64,1.52,1.54,2.76,2.67,3.68,.1,.08,.25,.08,.35,0,.1-.09,.12-.23,.04-.34l-.04-.07h0c-.14-.24-.23-.55-.28-.92l-.12-.86,.31,.81c.47,1.22,1.09,2.16,1.84,2.78l.06,.05c.08,.07,.2,.07,.29,.03,.09-.05,.15-.15,.14-.26-.01-.14-.01-.29,0-.44l.02-.59Zm2.2,2.91l-.06-.05c-1.71-1.45-1.83-4.59-1.83-4.62,0-.14-.11-.25-.24-.26,0,0-.02,0-.03,0-.12,0-.23,.09-.26,.21-.14,.67-.25,1.35-.31,2.03l-.02,.24-.15-.18c-1.35-1.59-1.72-4.16-1.72-4.18-.02-.13-.12-.23-.25-.23-.12,0-.24,.08-.27,.21,0,.05-.25,1.2-.14,2.31l.03,.32-.21-.24c-2.04-2.39-2.32-5.57-2.33-5.61-.01-.14-.12-.24-.26-.25h0c-.14,0-.25,.1-.26,.24,0,.08-.21,1.86,.15,3.57l.1,.48-.28-.4c-.6-.85-.89-1.88-1.03-2.6-.16-.82-.24-1.66-.21-2.5,0-.13-.08-.25-.21-.28-.12-.03-.26,.04-.3,.16-.1,.26-.62,1.62-.7,2.89l-.02,.31-.17-.26c-.95-1.51-1.47-3.24-1.54-5.13-.07-1.81,.32-3.12,.32-3.14,.04-.13-.03-.27-.15-.32-.13-.05-.27,0-.34,.12-.37,.7-.68,1.44-.92,2.18l-.14,.44-.06-.46c-.12-.98-.16-1.98-.11-2.98,.08-1.57,.34-2.46,.42-2.7v-.02c.29-.41,.56-.84,.79-1.27,.65-1.19,1.61-2.16,2.79-2.82,.06-.03,.11-.09,.13-.16,.02-.07,.01-.14-.02-.2-.04-.06-.09-.11-.16-.13-.07-.02-.14-.01-.2,.02-1.27,.71-2.31,1.76-3,3.03-.42,.78-.93,1.52-1.5,2.21-.14,.16-.26,.33-.38,.51l-.17,.27v-.32c-.13-3.91,2.33-7.26,2.44-7.4h0c2.35-3.01,4.99-4.22,6.36-4.67,.14-.05,.21-.19,.16-.33-.04-.14-.19-.21-.33-.17-.13,.04-.27,.09-.43,.15l-.06,.02-.05-.04c-.5-.49-1.05-.92-1.65-1.28l-.2-.12,.22-.06c.31-.09,.63-.14,.95-.16,.14,0,.25-.1,.27-.24,.01-.13-.07-.26-.21-.29l-2.21-.5,.43-.1c1.39-.32,3.45-.51,5.32,.39,.12,.06,.28,.01,.35-.11,.07-.12,.03-.28-.09-.35l-1.88-1.2,.39,.03c1.63,.11,3.81,.47,4.98,1.61,.24,.24,.64,.24,.88,0,1.17-1.14,3.4-1.51,5.07-1.61l.39-.02-1.88,1.2c-.12,.08-.16,.23-.09,.35,.07,.12,.22,.17,.35,.11,1.87-.9,3.92-.7,5.32-.39l.43,.1-2.21,.5c-.13,.03-.22,.15-.21,.29s.13,.24,.26,.24c.31,.02,.61,.07,.9,.15l.23,.06-.21,.12c-.62,.35-1.2,.77-1.72,1.25l-.04,.04-.06-.02c-.11-.04-.22-.08-.32-.11-.13-.04-.28,.04-.33,.17-.04,.14,.03,.29,.17,.33,1.37,.45,4.01,1.65,6.36,4.66,.03,.03,2.58,3.44,2.45,7.4v.32s-.18-.26-.18-.26c-.12-.18-.24-.35-.38-.51-.57-.68-1.08-1.42-1.5-2.21-.69-1.28-1.73-2.32-3-3.03-.06-.03-.13-.04-.2-.02-.07,.02-.12,.06-.16,.13-.04,.06-.04,.13-.02,.2s.07,.13,.13,.16c1.18,.66,2.15,1.63,2.79,2.82,.24,.44,.5,.86,.78,1.27v.03c.09,.24,.36,1.14,.43,2.7,.05,.99,0,2-.11,2.98l-.06,.46-.14-.44c-.24-.75-.55-1.48-.92-2.18-.06-.12-.21-.17-.33-.12-.13,.05-.19,.19-.15,.32,0,.01,.39,1.32,.32,3.13-.07,1.9-.59,3.62-1.54,5.13l-.17,.26-.02-.31c-.08-1.27-.6-2.63-.7-2.89-.05-.12-.18-.19-.3-.16-.13,.03-.22,.14-.21,.27,.02,.84-.05,1.68-.21,2.5-.14,.72-.44,1.75-1.03,2.6l-.28,.4,.1-.48c.36-1.72,.15-3.55,.15-3.57-.02-.13-.13-.24-.26-.24-.14,0-.25,.11-.27,.25,0,.03-.28,3.22-2.33,5.61l-.21,.24,.03-.32c.11-1.13-.13-2.29-.14-2.31-.03-.12-.13-.21-.26-.21h-.01c-.13,0-.24,.1-.25,.23,0,.03-.37,2.59-1.73,4.18l-.15,.18-.02-.24c-.07-.69-.17-1.37-.31-2.03-.03-.12-.14-.21-.26-.21,0,0-.02,0-.03,0-.13,.01-.24,.12-.24,.26,0,.13-.12,3.18-1.83,4.62l-.06,.05Zm-2.16-5.14s.03,0,.04,0c.23,.02,.42,.21,.42,.45,0,.03,.11,3.01,1.7,4.42,1.58-1.41,1.69-4.39,1.69-4.42,0-.24,.19-.43,.42-.45,.02,0,.03,0,.04,0,.22,0,.41,.15,.46,.37,.13,.59,.22,1.2,.29,1.81,1.19-1.56,1.52-3.87,1.53-3.89,.03-.22,.22-.39,.44-.4,0,0,.01,0,.02,0,.22,0,.41,.15,.46,.37,0,0,.22,.99,.17,2.05,1.82-2.31,2.08-5.22,2.08-5.25,.02-.24,.21-.42,.46-.43,.25,0,.45,.18,.47,.41,0,.02,.18,1.54-.06,3.12,.4-.72,.61-1.51,.73-2.09,.16-.8,.23-1.63,.21-2.45-.01-.23,.14-.43,.37-.48,.23-.05,.45,.07,.53,.28,.1,.24,.55,1.44,.69,2.64,.83-1.42,1.29-3.02,1.36-4.78,.07-1.78-.31-3.06-.31-3.07-.07-.23,.05-.47,.27-.57,.22-.09,.47,0,.59,.21,.3,.58,.57,1.18,.79,1.79,.08-.83,.1-1.66,.06-2.49-.07-1.51-.32-2.38-.41-2.63-.28-.41-.54-.84-.78-1.28-.63-1.15-1.57-2.1-2.71-2.74-.11-.06-.19-.16-.22-.28-.03-.12-.02-.25,.04-.35,.06-.11,.16-.19,.28-.22,.12-.03,.25-.02,.35,.04,1.3,.73,2.37,1.8,3.08,3.11,.42,.77,.92,1.51,1.48,2.18,.07,.09,.15,.18,.21,.27-.01-3.76-2.39-6.93-2.42-6.97-2.31-2.97-4.92-4.15-6.27-4.6-.24-.08-.37-.35-.29-.59,.08-.24,.34-.37,.58-.3,.08,.03,.17,.06,.27,.09,.46-.42,.96-.79,1.5-1.11-.2-.04-.41-.07-.62-.08-.23,0-.43-.18-.46-.42-.02-.24,.13-.45,.36-.51l1.33-.3c-1.33-.25-3.11-.32-4.74,.46-.22,.11-.49,.02-.61-.19-.12-.21-.05-.49,.16-.62l1.22-.78c-1.38,.12-3.47,.48-4.55,1.52-.32,.31-.84,.31-1.16,0-1.07-1.04-3.11-1.4-4.46-1.52l1.21,.78c.21,.13,.28,.41,.16,.62-.12,.21-.39,.3-.61,.19-1.62-.78-3.4-.71-4.74-.46l1.33,.3c.23,.05,.39,.27,.36,.51-.03,.23-.22,.41-.46,.42-.23,.01-.45,.04-.68,.1,.52,.33,1,.71,1.44,1.14,.13-.05,.26-.09,.38-.13,.24-.07,.5,.06,.58,.3,.08,.24-.05,.5-.29,.58-1.35,.44-3.96,1.63-6.27,4.6-.11,.15-2.4,3.25-2.41,6.96,.07-.09,.14-.18,.21-.27,.56-.67,1.06-1.41,1.48-2.18,.71-1.31,1.78-2.38,3.08-3.11,.11-.06,.24-.07,.36-.04,.12,.03,.22,.11,.28,.22,.06,.11,.08,.23,.04,.35-.03,.12-.11,.22-.22,.28-1.15,.64-2.09,1.59-2.71,2.74-.24,.44-.5,.86-.78,1.28-.06,.2-.33,1.09-.41,2.63-.04,.83-.02,1.67,.06,2.49,.22-.61,.48-1.21,.78-1.79,.12-.21,.37-.3,.59-.21,.22,.09,.34,.34,.27,.57,0,.01-.38,1.29-.31,3.07,.07,1.75,.52,3.36,1.36,4.78,.14-1.2,.59-2.4,.69-2.64,.08-.21,.31-.33,.53-.28,.22,.05,.38,.25,.37,.48-.02,.82,.05,1.64,.21,2.45,.12,.58,.33,1.37,.73,2.09-.24-1.57-.07-3.05-.06-3.12,.03-.24,.23-.41,.46-.41h0c.24,0,.44,.19,.46,.43,0,.03,.26,2.94,2.08,5.25-.05-1.01,.14-1.94,.16-2.05,.05-.22,.24-.37,.46-.37,0,0,.01,0,.02,0,.23,0,.41,.18,.44,.4,0,.02,.33,2.33,1.53,3.89,.07-.61,.16-1.21,.29-1.81,.05-.22,.24-.37,.45-.37ZM8.83,15.65l.11-.28c.66-1.65,1.45-3.07,2.36-4.23l.16-.2,.02,.25c.06,.65,.17,1.3,.33,1.92v.05s-.03,.04-.03,.04c-.4,.41-.78,.85-1.13,1.3l-.03,.02-1.8,1.13Zm2.48-4.19c-.78,1.04-1.48,2.28-2.06,3.7l1.27-.79c.34-.43,.71-.86,1.1-1.26-.14-.54-.24-1.09-.3-1.65Zm27.56,4.19l-1.83-1.15c-.35-.45-.73-.89-1.14-1.3l-.04-.04v-.05c.18-.63,.29-1.28,.35-1.93l.02-.25,.16,.2c.91,1.16,1.71,2.59,2.36,4.24l.11,.28Zm-1.68-1.29l1.27,.79c-.59-1.42-1.28-2.67-2.07-3.71-.06,.56-.17,1.11-.3,1.65,.39,.4,.76,.83,1.1,1.26Zm-24.92-1.63l-.04-.17c-.18-.82-.67-3.53,.62-3.97h0c1.11-.39,2.64,.86,3.25,1.41l.11,.1-.14,.06c-.13,.06-.26,.12-.4,.19l-.07,.03-.05-.06c-.28-.31-.63-.55-1.02-.69-.51-.18-.99-.15-1.33,.08-.6,.42-.74,1.48-.29,2.35l.04,.07-.06,.05c-.16,.13-.32,.28-.48,.42l-.13,.12Zm1.03-4.02c-.13,0-.26,.02-.39,.06-.86,.3-.84,2.01-.52,3.57,.1-.09,.2-.18,.3-.26-.44-.94-.27-2.07,.39-2.53,.39-.27,.94-.31,1.52-.1,.39,.15,.75,.39,1.04,.69,.07-.03,.14-.07,.2-.1-.49-.43-1.63-1.33-2.55-1.33Zm22.13,4.01l-.13-.12c-.15-.13-.29-.26-.44-.38l-.06-.05,.03-.07c.43-.87,.27-1.96-.34-2.39-.34-.24-.82-.26-1.32-.07-.38,.15-.73,.39-1,.7l-.05,.06-.07-.03c-.18-.09-.36-.17-.53-.25l-.15-.06,.12-.1c.63-.54,2.24-1.75,3.34-1.36,1.28,.45,.79,3.15,.61,3.97l-.04,.17Zm-.38-.6c.08,.07,.17,.15,.25,.22,.32-1.56,.34-3.27-.52-3.57h0c-.96-.33-2.44,.74-3.02,1.22,.1,.05,.21,.1,.32,.15,.28-.3,.64-.54,1.02-.69,.56-.21,1.11-.18,1.51,.09,.68,.48,.87,1.62,.44,2.57Zm-.67-.29l-.11-.08c-.49-.37-1.01-.72-1.55-1.03l-.12-.07,.1-.09c.19-.18,.41-.32,.66-.42,.34-.13,.64-.12,.83,0,.36,.25,.47,.95,.24,1.55l-.05,.13Zm-1.43-1.21c.46,.27,.91,.57,1.34,.89,.15-.52,.02-1.03-.21-1.19-.13-.09-.38-.09-.64,.01-.18,.07-.34,.17-.49,.29Zm-19.59,1.18l-.05-.12c-.24-.6-.16-1.28,.19-1.52,.19-.13,.51-.14,.85-.01,.25,.09,.47,.23,.67,.41l.1,.09-.12,.07c-.53,.3-1.04,.64-1.53,1.01l-.1,.08Zm.53-1.55c-.11,0-.2,.02-.27,.07-.22,.16-.33,.64-.17,1.16,.42-.31,.87-.61,1.32-.87-.15-.12-.31-.21-.49-.28-.14-.05-.28-.08-.39-.08Z"/></g></g><g><path class="cls-1" d="M38.1,41.11h-2.85v-.75l.76-.35v-4.04l-.76-.35v-.75h2.85v.75l-.76,.35v4.04l.76,.35v.75Z"/><path class="cls-1" d="M40.99,34.86c.85,0,1.48,.15,1.89,.46,.41,.31,.61,.78,.61,1.41,0,.29-.05,.54-.16,.75-.11,.21-.25,.39-.43,.54-.18,.15-.37,.27-.57,.36l1.84,2.72h-1.47l-1.49-2.4h-.71v2.4h-1.32v-6.25h1.82Zm-.1,1.09h-.4v1.69h.43c.44,0,.75-.07,.94-.22,.19-.15,.28-.36,.28-.65s-.1-.51-.3-.63c-.2-.12-.52-.19-.95-.19Z"/></g></g></g></svg>