<?xml version="1.0" encoding="UTF-8"?><svg id="Layer_2" xmlns="http://www.w3.org/2000/svg" viewBox="0 0 48 48"><defs><style>.cls-1{fill:#d27f7d;}.cls-2{fill:none;}</style></defs><g id="Layer_1-2"><rect class="cls-2" width="48" height="48"/><path class="cls-1" d="M37.29,10.41h2.12v-1.41h-11.32v1.41h2.12v12.73h-12.73V10.41h2.12v-1.41H8.29v1.41h2.12v12.73h-3.54v1.41h3.54v10.61c0,1.95,1.59,3.54,3.54,3.54s3.54-1.59,3.54-3.54v-10.61h12.73v10.61c0,1.95,1.59,3.54,3.54,3.54s3.54-1.59,3.54-3.54v-10.61h3.54v-1.41h-3.54V10.41Zm-21.22,24.76c0,1.17-.95,2.12-2.12,2.12s-2.12-.95-2.12-2.12V10.41h4.24v24.76Zm19.81,0c0,1.17-.95,2.12-2.12,2.12s-2.12-.95-2.12-2.12V10.41h4.24v24.76Z"/></g></svg>