<?xml version="1.0" encoding="UTF-8"?><svg id="Layer_2" xmlns="http://www.w3.org/2000/svg" viewBox="0 0 48 48"><defs><style>.cls-1{fill:#d27f7d;}.cls-2{fill:none;}</style></defs><g id="Layer_1-2"><rect class="cls-2" width="48" height="48"/><g><g><path class="cls-1" d="M8.18,12.7c-1.49,0-2.71,1.22-2.71,2.71v15.07c0,.83,.68,1.51,1.51,1.51h3.01c.08,0,.16-.03,.21-.09s.09-.13,.09-.21-.03-.16-.09-.21c-.06-.06-.13-.09-.21-.09h-3.01c-.24,0-.47-.09-.64-.26-.17-.17-.26-.4-.26-.64V15.41c0-.56,.22-1.1,.62-1.49,.4-.4,.93-.62,1.49-.62h24.11c1.4,0,2.71,.71,3.48,1.88l4.59,7h0c.83,1.27,1.27,2.75,1.27,4.26v4.03c0,.24-.09,.47-.26,.64-.17,.17-.4,.26-.64,.26h-3.01c-.08,0-.16,.03-.21,.09-.06,.06-.09,.13-.09,.21,0,.08,.03,.16,.09,.21,.06,.06,.13,.09,.21,.09h3.01c.83,0,1.51-.68,1.51-1.51v-4.03c0-1.63-.48-3.23-1.37-4.59l-4.59-7h0c-.88-1.34-2.38-2.15-3.98-2.15H8.18Zm7.83,18.68c-.08,0-.16,.03-.21,.09s-.09,.13-.09,.21,.03,.16,.09,.21c.06,.06,.13,.09,.21,.09h15.67c.08,0,.16-.03,.21-.09,.06-.06,.09-.13,.09-.21s-.03-.16-.09-.21-.13-.09-.21-.09h-15.67Z"/><path class="cls-1" d="M40.73,32.19h-3.01c-.13,0-.26-.05-.35-.15-.1-.1-.15-.22-.15-.36s.05-.26,.15-.35,.22-.15,.36-.15h3.01c.17,0,.37-.07,.5-.2s.21-.31,.21-.5v-4.04c0-1.48-.43-2.91-1.24-4.15l-4.59-7c-.74-1.12-1.97-1.79-3.31-1.79H8.18c-.5,0-.99,.2-1.35,.56s-.56,.84-.56,1.35v15.07c0,.19,.07,.37,.2,.5,.13,.13,.31,.21,.5,.21h3.02c.13,0,.26,.05,.35,.15,.09,.09,.15,.22,.15,.35s-.05,.26-.15,.36c-.09,.09-.22,.15-.35,.15h-3.01c-.94,0-1.71-.77-1.71-1.71V15.41c0-1.61,1.31-2.91,2.91-2.91h24.11c1.68,0,3.23,.84,4.15,2.24l4.59,7c.92,1.4,1.4,3.03,1.4,4.7v4.04c0,.94-.77,1.71-1.71,1.71Zm0-.6h-3.01s-.05,.01-.07,.03c-.02,.02-.03,.04-.03,.07s.01,.05,.03,.07c.02,.02,.04,.03,.07,.03h3.01c.72,0,1.31-.59,1.31-1.31v-4.04c0-1.6-.46-3.15-1.34-4.48l-4.59-7c-.85-1.29-2.27-2.06-3.82-2.06H8.18c-1.38,0-2.51,1.13-2.51,2.51v15.07c0,.72,.59,1.31,1.31,1.31h3.01s.05-.01,.07-.03c.02-.02,.03-.04,.03-.07,0-.03-.01-.05-.03-.07s-.04-.03-.07-.03h-3.02c-.29,0-.57-.11-.78-.32-.21-.21-.32-.49-.32-.78V15.41c0-.62,.24-1.2,.67-1.63,.43-.43,1.02-.68,1.63-.68h24.11c1.48,0,2.84,.74,3.65,1.97l4.59,7c.85,1.3,1.31,2.81,1.31,4.37v4.04c0,.29-.11,.57-.32,.78-.21,.2-.49,.32-.77,.32h0Zm-9.04,.6h-15.67c-.13,0-.26-.05-.35-.15-.09-.09-.15-.22-.15-.35s.05-.26,.15-.36c.09-.09,.22-.15,.35-.15h15.67c.13,0,.26,.05,.36,.15,.09,.09,.15,.22,.15,.35s-.05,.26-.15,.35-.22,.15-.36,.15Zm-15.67-.6s-.05,.01-.07,.03c-.02,.02-.03,.04-.03,.07s0,.05,.03,.07c.02,.02,.04,.03,.07,.03h15.67s.05-.01,.07-.03c.02-.02,.03-.04,.03-.07s0-.05-.03-.07c-.02-.02-.05-.03-.07-.03h-15.67Z"/></g><g><path class="cls-1" d="M13,28.37c-1.83,0-3.32,1.49-3.32,3.32s1.49,3.32,3.32,3.32,3.31-1.49,3.31-3.32-1.49-3.32-3.31-3.32h0Zm0,.6c.72,0,1.41,.28,1.92,.79,.51,.51,.79,1.2,.79,1.92,0,.72-.28,1.41-.79,1.92-.51,.51-1.2,.79-1.92,.79-.72,0-1.41-.28-1.92-.79-.51-.51-.79-1.2-.79-1.92,0-.72,.28-1.41,.79-1.92,.51-.51,1.2-.79,1.92-.79h0Z"/><path class="cls-1" d="M13,35.2c-1.94,0-3.52-1.58-3.52-3.52s1.58-3.52,3.52-3.52,3.51,1.58,3.51,3.52-1.58,3.52-3.51,3.52Zm0-6.63c-1.72,0-3.12,1.4-3.12,3.12s1.4,3.12,3.12,3.12,3.11-1.4,3.11-3.12-1.4-3.12-3.11-3.12Zm0,6.03h-.02c-.76,0-1.51-.31-2.05-.85-.55-.55-.85-1.28-.85-2.06,0-.78,.3-1.51,.85-2.06,.55-.55,1.28-.85,2.06-.85h0c.78,0,1.51,.3,2.06,.85,.55,.55,.85,1.28,.85,2.06,0,.78-.3,1.51-.85,2.06-.55,.55-1.28,.85-2.05,.85Zm0-.4h0c.67,0,1.3-.26,1.77-.73,.48-.47,.74-1.11,.74-1.78,0-.67-.26-1.3-.74-1.78-.47-.47-1.1-.73-1.77-.73h0c-.67,0-1.3,.26-1.77,.73s-.74,1.11-.73,1.78c0,.67,.26,1.3,.73,1.78s1.11,.73,1.77,.73h0Z"/></g><g><path class="cls-1" d="M13,30.18c-.83,0-1.51,.68-1.51,1.51s.68,1.51,1.51,1.51,1.51-.68,1.51-1.51-.68-1.51-1.51-1.51h0Zm0,.6c.24,0,.47,.09,.64,.26,.17,.17,.26,.4,.26,.64,0,.24-.09,.47-.26,.64-.17,.17-.4,.26-.64,.26-.24,0-.47-.09-.64-.26-.17-.17-.26-.4-.26-.64,0-.24,.09-.47,.26-.64,.17-.17,.4-.26,.64-.26Zm21.7-2.41c-1.83,0-3.31,1.49-3.31,3.32s1.49,3.32,3.31,3.32,3.32-1.49,3.32-3.32-1.49-3.32-3.32-3.32h0Zm0,.6c.72,0,1.41,.28,1.92,.79,.51,.51,.79,1.2,.79,1.92,0,.72-.28,1.41-.79,1.92-.51,.51-1.2,.79-1.92,.79-.72,0-1.41-.28-1.92-.79-.51-.51-.79-1.2-.79-1.92,0-.72,.28-1.41,.79-1.92,.51-.51,1.2-.79,1.92-.79Z"/><path class="cls-1" d="M34.7,35.2c-1.94,0-3.51-1.58-3.51-3.51s1.58-3.52,3.51-3.52,3.52,1.58,3.52,3.52-1.58,3.51-3.52,3.51Zm0-6.63c-1.72,0-3.11,1.4-3.11,3.12s1.4,3.11,3.11,3.11,3.12-1.4,3.12-3.11-1.4-3.12-3.12-3.12Zm0,6.03c-.78,0-1.51-.3-2.06-.85-.55-.55-.85-1.28-.85-2.06,0-.78,.3-1.51,.85-2.06,.55-.55,1.28-.85,2.06-.85h0c.77,0,1.52,.31,2.06,.85,.55,.55,.85,1.28,.85,2.06,0,.78-.3,1.51-.85,2.06-.54,.54-1.29,.85-2.06,.85h0Zm0-5.42c-.67,0-1.3,.26-1.77,.73-.47,.48-.74,1.11-.73,1.78,0,.67,.26,1.3,.73,1.78,.47,.47,1.1,.73,1.77,.73h0c.66,0,1.31-.27,1.78-.73s.74-1.11,.73-1.78c0-.67-.26-1.3-.73-1.78-.47-.47-1.11-.74-1.77-.74h0Zm-21.69,4.22c-.94,0-1.71-.77-1.71-1.71s.77-1.71,1.71-1.71,1.71,.77,1.71,1.71-.77,1.71-1.71,1.71Zm0-3.01c-.72,0-1.31,.59-1.31,1.31s.59,1.31,1.31,1.31,1.31-.59,1.31-1.31-.59-1.31-1.31-1.31Zm0,2.41h0c-.29,0-.57-.11-.78-.32s-.32-.49-.32-.78c0-.29,.12-.58,.32-.78,.21-.2,.49-.32,.78-.32h.01c.29,0,.57,.12,.77,.32,.21,.21,.32,.49,.32,.78,0,.29-.11,.57-.32,.78s-.48,.32-.78,.32Zm0-.4h0c.19,0,.37-.07,.5-.21,.13-.13,.21-.31,.21-.5,0-.19-.07-.37-.21-.5s-.31-.2-.49-.2h-.01c-.18,0-.36,.07-.49,.2-.13,.13-.21,.31-.2,.5,0,.19,.07,.37,.21,.5,.13,.13,.31,.21,.5,.21h0Z"/></g><g><path class="cls-1" d="M34.7,30.18c-.83,0-1.51,.68-1.51,1.51s.68,1.51,1.51,1.51,1.51-.68,1.51-1.51-.68-1.51-1.51-1.51h0Zm0,.6c.24,0,.47,.09,.64,.26,.17,.17,.26,.4,.26,.64,0,.24-.09,.47-.26,.64-.17,.17-.4,.26-.64,.26-.24,0-.47-.09-.64-.26-.17-.17-.26-.4-.26-.64,0-.24,.09-.47,.26-.64,.17-.17,.4-.26,.64-.26ZM7.58,15.71c-.08,0-.16,.03-.21,.09-.06,.06-.09,.13-.09,.21,0,.08,.03,.16,.09,.21,.06,.06,.13,.09,.21,.09h28.93c.17,0,.3-.14,.3-.3,0-.08-.03-.16-.09-.21-.06-.06-.13-.09-.21-.09H7.58Z"/><path class="cls-1" d="M34.7,33.39c-.94,0-1.71-.77-1.71-1.71s.77-1.71,1.71-1.71,1.71,.77,1.71,1.71-.77,1.71-1.71,1.71Zm0-3.01c-.72,0-1.31,.59-1.31,1.31s.59,1.31,1.31,1.31,1.31-.59,1.31-1.31-.59-1.31-1.31-1.31Zm0,2.41c-.29,0-.57-.11-.78-.32-.21-.21-.32-.49-.32-.78,0-.29,.12-.57,.32-.78,.21-.21,.49-.32,.78-.32h.01c.29,0,.57,.12,.78,.32,.21,.21,.32,.49,.32,.78,0,.29-.11,.57-.32,.78-.2,.21-.49,.32-.78,.32h0Zm0-1.81c-.18,0-.36,.07-.49,.21-.13,.13-.2,.31-.2,.5,0,.19,.07,.37,.2,.5,.13,.13,.31,.2,.5,.2h0c.19,0,.37-.07,.5-.2s.21-.31,.21-.5c0-.19-.07-.37-.2-.5-.13-.13-.31-.2-.49-.2h-.01Zm1.82-14.46H7.58c-.13,0-.26-.05-.35-.15-.1-.1-.15-.22-.15-.36s.05-.26,.15-.35c.09-.09,.22-.15,.35-.15h28.93c.13,0,.26,.05,.36,.15,.09,.09,.15,.22,.15,.35,0,.28-.22,.5-.5,.5Zm-28.93-.6s-.05,.01-.07,.03c-.02,.02-.03,.04-.03,.07s.01,.05,.03,.07c.02,.02,.04,.03,.07,.03h28.93c.06,0,.1-.05,.1-.1,0-.03-.01-.05-.03-.07-.02-.02-.05-.03-.07-.03H7.58Z"/></g><g><path class="cls-1" d="M30.48,15.71c-.08,0-.16,.03-.21,.09-.06,.06-.09,.13-.09,.21v.6c0,4.04,2.73,7.58,6.64,8.61l5.04,1.33c.16,.04,.33-.05,.37-.21,.02-.08,0-.16-.03-.23-.04-.07-.11-.12-.18-.14l-5.04-1.33c-1.77-.47-3.34-1.51-4.46-2.96-1.12-1.45-1.73-3.23-1.73-5.07v-.6c0-.08-.03-.16-.09-.21-.06-.06-.13-.09-.21-.09h0Z"/><path class="cls-1" d="M41.93,26.76s-.08,0-.13-.02l-5.04-1.33c-4-1.05-6.79-4.67-6.79-8.8v-.6c0-.13,.05-.26,.15-.35,.19-.19,.52-.19,.71,0,.09,.09,.15,.22,.15,.35v.6c0,1.78,.6,3.54,1.68,4.95,1.09,1.41,2.63,2.43,4.35,2.89l5.04,1.33c.13,.03,.24,.12,.31,.23,.07,.12,.09,.25,.05,.38-.06,.22-.26,.37-.49,.37Zm-11.45-10.85s-.05,.01-.07,.03c-.02,.02-.03,.04-.03,.07v.6c0,3.95,2.67,7.41,6.49,8.42l5.04,1.33c.05,.01,.11-.02,.12-.07,0-.03,0-.05-.01-.08-.01-.02-.04-.04-.06-.05l-5.04-1.33c-1.81-.48-3.43-1.55-4.57-3.03-1.14-1.48-1.77-3.32-1.77-5.19v-.6s-.01-.05-.03-.07c-.02-.02-.05-.03-.07-.03Z"/></g><g><path class="cls-1" d="M5.77,22.95c-.08,0-.16,.03-.21,.09-.06,.06-.09,.13-.09,.21s.03,.16,.09,.21c.06,.06,.13,.09,.21,.09h27.73c.08,0,.16-.03,.21-.09,.06-.06,.09-.13,.09-.21s-.03-.16-.09-.21c-.06-.06-.13-.09-.21-.09H5.77Z"/><path class="cls-1" d="M33.49,23.75H5.77c-.13,0-.26-.05-.36-.15s-.15-.22-.15-.35,.05-.26,.15-.35c.09-.09,.22-.15,.35-.15h27.72c.13,0,.26,.05,.35,.15,.09,.09,.15,.22,.15,.35s-.05,.26-.15,.35c-.09,.09-.22,.15-.35,.15Zm-27.72-.6s-.05,.01-.07,.03c-.02,.02-.03,.04-.03,.07s0,.05,.03,.07c.02,.02,.04,.03,.07,.03h27.72s.05-.01,.07-.03c.02-.02,.03-.05,.03-.07s-.01-.05-.03-.07c-.02-.02-.04-.03-.07-.03H5.77Z"/></g><g><path class="cls-1" d="M23.25,15.71c-.08,0-.16,.03-.21,.09-.06,.06-.09,.13-.09,.21v7.23c0,.08,.03,.16,.09,.21,.06,.06,.13,.09,.21,.09s.16-.03,.21-.09c.06-.06,.09-.13,.09-.21v-7.23c0-.08-.03-.16-.09-.21-.06-.06-.13-.09-.21-.09h0Zm-7.23,0c-.17,0-.3,.14-.3,.3v7.23c0,.17,.13,.3,.3,.3,.08,0,.16-.03,.21-.09,.06-.06,.09-.13,.09-.21v-7.23c0-.08-.03-.16-.09-.21-.06-.06-.13-.09-.21-.09h0Zm-7.23,0c-.08,0-.16,.03-.21,.09-.06,.06-.09,.13-.09,.21v7.23c0,.08,.03,.16,.09,.21,.06,.06,.13,.09,.21,.09s.16-.03,.21-.09c.06-.06,.09-.13,.09-.21v-7.23c0-.08-.03-.16-.09-.21-.06-.06-.13-.09-.21-.09h0Zm8.44,13.26c-.08,0-.16,.03-.21,.09-.06,.06-.09,.13-.09,.21s.03,.16,.09,.21c.06,.06,.13,.09,.21,.09h13.26c.08,0,.16-.03,.21-.09,.06-.06,.09-.13,.09-.21s-.03-.16-.09-.21c-.06-.06-.13-.09-.21-.09h-13.26Zm-11.45-3.01c-.17,0-.3,.13-.3,.3,0,.08,.03,.16,.09,.21,.06,.06,.13,.09,.21,.09h.6c.17,0,.3,.13,.3,.3v1.21c0,.17-.13,.3-.3,.3h-.6c-.08,0-.16,.03-.21,.09-.06,.06-.09,.13-.09,.21s.03,.16,.09,.21c.06,.06,.13,.09,.21,.09h.6c.5,0,.9-.41,.9-.9v-1.21c0-.5-.41-.9-.9-.9h-.6Zm35.56,0c-.5,0-.9,.41-.9,.9v1.21c0,.5,.41,.9,.9,.9h.6c.08,0,.16-.03,.21-.09,.06-.06,.09-.13,.09-.21s-.03-.16-.09-.21c-.06-.06-.13-.09-.21-.09h-.6c-.17,0-.3-.13-.3-.3v-1.21c0-.17,.13-.3,.3-.3h.6c.08,0,.16-.03,.21-.09,.06-.06,.09-.13,.09-.21,0-.17-.14-.3-.3-.3h-.6Z"/><path class="cls-1" d="M30.48,29.78h-13.26c-.13,0-.26-.05-.36-.15-.09-.1-.15-.22-.15-.35s.05-.26,.15-.35c.1-.1,.22-.15,.36-.15h13.26c.13,0,.26,.05,.35,.15,.09,.09,.15,.22,.15,.36s-.05,.26-.15,.35c-.09,.09-.22,.15-.36,.15Zm-13.26-.6s-.05,.01-.08,.03c-.02,.02-.03,.04-.03,.07s.01,.05,.03,.07c.02,.02,.04,.03,.07,.03h13.26s.05-.01,.07-.03c.02-.02,.03-.04,.03-.07s-.01-.05-.03-.07-.04-.03-.07-.03h-13.26Zm24.71,0h-.6c-.61,0-1.1-.5-1.1-1.1v-1.21c0-.61,.5-1.1,1.1-1.1h.6c.28,0,.5,.22,.5,.5,0,.14-.05,.26-.15,.36-.09,.09-.22,.15-.35,.15h-.6c-.06,0-.1,.04-.1,.1v1.21c0,.06,.04,.1,.1,.1h.6c.13,0,.26,.05,.36,.15,.09,.09,.15,.22,.15,.35s-.05,.26-.15,.36c-.09,.09-.22,.15-.35,.15Zm-.6-3.01c-.39,0-.7,.32-.71,.7v1.21c0,.39,.32,.7,.71,.7h.6s.05,0,.07-.03c.02-.02,.03-.05,.03-.07s0-.05-.03-.07c-.02-.02-.04-.03-.07-.03h-.6c-.28,0-.5-.22-.5-.5v-1.21c0-.28,.22-.5,.5-.5h.6s.05-.01,.07-.03c.02-.02,.03-.04,.03-.07,0-.06-.04-.1-.1-.1h-.6ZM6.37,29.17h-.6c-.13,0-.26-.05-.36-.15-.09-.09-.15-.22-.15-.35s.05-.26,.15-.36c.09-.09,.22-.15,.36-.15h.6c.06,0,.1-.04,.1-.1v-1.21c0-.06-.04-.1-.1-.1h-.6c-.13,0-.26-.05-.36-.15s-.15-.22-.15-.35c0-.28,.23-.5,.5-.5h.6c.61,0,1.1,.5,1.1,1.1v1.21c0,.61-.5,1.1-1.1,1.1Zm-.6-.6s-.05,.01-.07,.03-.03,.04-.03,.07,.01,.05,.03,.07,.04,.03,.07,.03h.6c.39,0,.7-.32,.7-.7v-1.21c0-.39-.32-.7-.71-.7h-.6c-.06,0-.1,.04-.1,.1,0,.03,0,.05,.03,.07,.02,.02,.05,.03,.07,.03h.6c.28,0,.5,.22,.5,.5v1.21c0,.28-.22,.5-.5,.5h-.6Zm17.48-4.82c-.13,0-.26-.05-.36-.15-.09-.09-.15-.22-.15-.36v-7.23c0-.13,.05-.26,.15-.35,.19-.19,.52-.19,.71,0,.09,.09,.15,.22,.15,.35v7.23c0,.13-.05,.26-.15,.36-.09,.09-.22,.15-.35,.15Zm0-7.84s-.05,.01-.07,.03c-.02,.02-.03,.04-.03,.07v7.24s0,.05,.03,.07c.04,.04,.1,.04,.14,0,.02-.02,.03-.05,.03-.07v-7.23s0-.05-.03-.07c-.02-.02-.05-.03-.07-.03Zm-7.23,7.84c-.28,0-.5-.23-.5-.5v-7.23c0-.28,.22-.5,.5-.5,.13,0,.26,.05,.35,.15,.09,.1,.15,.22,.15,.36v7.23c0,.13-.05,.26-.15,.35-.1,.1-.22,.15-.36,.15Zm0-7.84c-.06,0-.1,.05-.1,.1v7.23c0,.08,.11,.13,.17,.07,.02-.02,.03-.04,.03-.07v-7.23s-.01-.05-.03-.07c-.02-.02-.04-.03-.07-.03Zm-7.23,7.84c-.13,0-.26-.05-.35-.15-.09-.09-.15-.22-.15-.35v-7.23c0-.13,.05-.26,.15-.35,.19-.19,.52-.19,.71,0,.09,.09,.15,.22,.15,.35v7.23c0,.13-.05,.26-.15,.35-.09,.09-.22,.15-.35,.15Zm0-7.84s-.05,.01-.07,.03c-.02,.02-.03,.04-.03,.07v7.23s.01,.05,.03,.07c.04,.04,.11,.04,.14,0,.02-.02,.03-.05,.03-.07v-7.23s-.01-.05-.03-.07c-.02-.02-.05-.03-.07-.03Z"/></g></g></g></svg>