<?xml version="1.0" encoding="utf-8"?>
<!-- Generator: Adobe Illustrator 26.3.1, SVG Export Plug-In . SVG Version: 6.00 Build 0)  -->
<svg version="1.1" id="Camada_1" xmlns="http://www.w3.org/2000/svg" xmlns:xlink="http://www.w3.org/1999/xlink" x="0px" y="0px"
	 viewBox="0 0 920 486.29" style="enable-background:new 0 0 920 486.29;" xml:space="preserve">
<style type="text/css">
	.st0{opacity:0.15;fill:#CCCCCC;}
	.st1{opacity:0.5;fill:#D17F7D;}
	.st2{opacity:0.5;fill:#8A6480;}
	.st3{fill:#75566C;}
	.st4{fill:#FFFFFF;}
	.st5{font-family:'NotoSans-Medium';}
	.st6{font-size:31.5287px;}
	.st7{fill:none;}
	.st8{font-family:'NotoSans-Light';}
	.st9{font-size:18.9172px;}
	.st10{opacity:0.5;}
	.st11{fill:#D17F7D;}
</style>
<rect x="-40.64" y="-67.36" class="st0" width="1009.7" height="624.49"/>
<g id="BACKGROUND">
</g>
<circle class="st1" cx="439.75" cy="257.66" r="188.17"/>
<circle class="st2" cx="439.75" cy="294.99" r="150.84"/>
<circle class="st3" cx="439.75" cy="338.1" r="107.73"/>
<text transform="matrix(1 0 0 1 346.0499 355.1703)" class="st4 st5 st6">Microético</text>
<text transform="matrix(1 0 0 1 367.0895 208.2982)" class="st4 st5 st6">Misoético</text>
<text transform="matrix(1 0 0 1 355.8492 125.268)" class="st4 st5 st6">Macroético</text>
<rect x="15.52" y="232.04" class="st7" width="210.87" height="197.56"/>
<text transform="matrix(1 0 0 1 28.276 246.4144)"><tspan x="0" y="0" class="st8 st9">O nível mesoético trata </tspan><tspan x="14.68" y="22.7" class="st8 st9">principalmente sobre </tspan><tspan x="2.12" y="45.4" class="st8 st9">como gestores público </tspan><tspan x="13.79" y="68.1" class="st8 st9">lidam com a alocação </tspan><tspan x="16.15" y="90.8" class="st8 st9">de recursos frente as </tspan><tspan x="3.84" y="113.5" class="st8 st9">demandas sociais e de </tspan><tspan x="37.98" y="136.2" class="st8 st9">grupos específicos </tspan><tspan x="79.53" y="158.91" class="st8 st9">concorrentes.</tspan></text>
<rect x="651.95" y="46.24" class="st7" width="221.36" height="162.01"/>
<text transform="matrix(1 0 0 1 651.9518 60.6166)"><tspan x="0" y="0" class="st8 st9">O nível macroético </tspan><tspan x="0" y="22.7" class="st8 st9">analisa como as pessoas </tspan><tspan x="0" y="45.4" class="st8 st9">e grupos são tratados </tspan><tspan x="0" y="68.1" class="st8 st9">pelos governos e </tspan><tspan x="0" y="90.8" class="st8 st9">instituições, abrangendo </tspan><tspan x="0" y="113.5" class="st8 st9">aspectos social, cultural, </tspan><tspan x="0" y="136.2" class="st8 st9">político e legal.</tspan></text>
<rect x="651.95" y="263.11" class="st7" width="250.68" height="205.37"/>
<text transform="matrix(1 0 0 1 651.9518 277.4901)"><tspan x="0" y="0" class="st8 st9">O nível microético de análise </tspan><tspan x="0" y="22.7" class="st8 st9">diz respeito aos critérios </tspan><tspan x="0" y="45.4" class="st8 st9">éticos de como uma pessoa </tspan><tspan x="0" y="68.1" class="st8 st9">trata a outra, às condutas </tspan><tspan x="0" y="90.8" class="st8 st9">individuais adotadas e suas </tspan><tspan x="0" y="113.5" class="st8 st9">implicações, por exemplo, </tspan><tspan x="0" y="136.2" class="st8 st9">entre profissionais de uma </tspan><tspan x="0" y="158.91" class="st8 st9">equipe ou entre estes e os </tspan><tspan x="0" y="181.61" class="st8 st9">usuários,</tspan></text>
<g>
	<line class="st3" x1="506.38" y1="218.94" x2="32.44" y2="218.94"/>
	<rect x="32.44" y="218.6" class="st3" width="473.95" height="0.68"/>
</g>
<circle class="st3" cx="510.63" cy="218.72" r="3.96"/>
<circle class="st3" cx="353.97" cy="135.21" r="3.96"/>
<g>
	<line class="st3" x1="639.74" y1="136" x2="351.51" y2="136"/>
	<rect x="351.51" y="135.64" class="st3" width="288.23" height="0.72"/>
</g>
<g class="st10">
	<line class="st11" x1="639.87" y1="364.53" x2="345.82" y2="364.53"/>
	<rect x="345.82" y="364.28" class="st11" width="294.04" height="0.51"/>
</g>
<circle class="st1" cx="343.38" cy="363.92" r="3.96"/>
<g>
	<line class="st3" x1="639.75" y1="39.53" x2="639.75" y2="204.91"/>
	<rect x="639.55" y="39.53" class="st3" width="0.4" height="165.38"/>
</g>
<g>
	<line class="st11" x1="639.72" y1="258.79" x2="639.72" y2="460.67"/>
	<rect x="639.55" y="258.79" class="st11" width="0.34" height="201.89"/>
</g>
</svg>
