<?xml version="1.0" encoding="utf-8"?>
<!-- Generator: Adobe Illustrator 26.3.1, SVG Export Plug-In . SVG Version: 6.00 Build 0)  -->
<svg version="1.1" id="Layer_1" xmlns="http://www.w3.org/2000/svg" xmlns:xlink="http://www.w3.org/1999/xlink" x="0px" y="0px"
	 viewBox="0 0 120 120" style="enable-background:new 0 0 120 120;" xml:space="preserve">
<style type="text/css">
	.st0{fill:#B7A1B3;}
	.st1{fill:#FFFFFF;}
	.st2{fill:none;stroke:#000000;stroke-width:3.5;stroke-miterlimit:10;}
</style>
<rect x="-13" y="-16" class="st0" width="146" height="146"/>
<g>
	<path class="st1" d="M55.49,40.46c-0.59,0-1.07-0.48-1.07-1.07v-7.3c0-0.59,0.48-1.07,1.07-1.07s1.07,0.48,1.07,1.07v7.3
		C56.56,39.98,56.08,40.46,55.49,40.46L55.49,40.46z"/>
	<path class="st1" d="M43.37,40.46c-0.59,0-1.07-0.48-1.07-1.07v-7.3c0-0.59,0.48-1.07,1.07-1.07c0.59,0,1.07,0.48,1.07,1.07v7.3
		C44.45,39.98,43.97,40.46,43.37,40.46z"/>
	<path class="st1" d="M67.6,40.46c-0.59,0-1.07-0.48-1.07-1.07v-7.3c0-0.59,0.48-1.07,1.07-1.07s1.07,0.48,1.07,1.07v7.3
		C68.67,39.98,68.19,40.46,67.6,40.46z"/>
	<path class="st1" d="M69.07,48.2H41.9c-0.59,0-1.07-0.48-1.07-1.07c0-0.59,0.48-1.07,1.07-1.07h27.17c0.59,0,1.07,0.48,1.07,1.07
		C70.15,47.72,69.67,48.2,69.07,48.2L69.07,48.2z"/>
	<path class="st1" d="M69.07,54.95H41.9c-0.59,0-1.07-0.48-1.07-1.07c0-0.59,0.48-1.07,1.07-1.07h27.17c0.59,0,1.07,0.48,1.07,1.07
		C70.15,54.47,69.67,54.95,69.07,54.95L69.07,54.95z"/>
	<path class="st1" d="M69.07,61.7H41.9c-0.59,0-1.07-0.48-1.07-1.07s0.48-1.07,1.07-1.07h27.17c0.59,0,1.07,0.48,1.07,1.07
		C70.15,61.22,69.67,61.7,69.07,61.7L69.07,61.7z"/>
	<path class="st1" d="M69.07,68.45H41.9c-0.59,0-1.07-0.48-1.07-1.07s0.48-1.07,1.07-1.07h27.17c0.59,0,1.07,0.48,1.07,1.07
		C70.15,67.97,69.67,68.45,69.07,68.45L69.07,68.45z"/>
	<path class="st1" d="M69.07,75.2H41.9c-0.59,0-1.07-0.48-1.07-1.07s0.48-1.07,1.07-1.07h27.17c0.59,0,1.07,0.48,1.07,1.07
		C70.15,74.72,69.67,75.2,69.07,75.2L69.07,75.2z"/>
	<path class="st1" d="M73.53,86.88H37.44c-1.78,0-3.22-1.45-3.22-3.22V37.59c0-1.78,1.45-3.22,3.22-3.22h36.09
		c1.78,0,3.22,1.45,3.22,3.22v25.48c0,0.59-0.48,1.07-1.07,1.07s-1.07-0.48-1.07-1.07V37.59c0-0.59-0.48-1.07-1.07-1.07H37.44
		c-0.59,0-1.07,0.48-1.07,1.07v46.06c0,0.59,0.48,1.07,1.07,1.07h36.09c0.59,0,1.07-0.48,1.07-1.07V71.46
		c0-0.59,0.48-1.07,1.07-1.07s1.07,0.48,1.07,1.07v12.19C76.76,85.43,75.31,86.88,73.53,86.88z"/>
	<path class="st1" d="M97.89,47.56l-1.68-1.34l2.15-2.69c0.49-0.61,0.39-1.5-0.21-1.99l-1.29-1.04c-0.3-0.24-0.65-0.36-1.01-0.31
		c-0.35,0.04-0.68,0.22-0.92,0.52l-2.14,2.73l-1.69-1.33l2.15-2.74c0.61-0.76,1.45-1.22,2.37-1.32c0.92-0.1,1.84,0.18,2.58,0.78
		l1.29,1.04c1.53,1.23,1.77,3.48,0.54,5.01L97.89,47.56z"/>
	<path class="st1" d="M72.48,74.3c-0.43,0-0.86-0.14-1.21-0.42c-0.64-0.51-0.88-1.31-0.62-2.09l2.19-6.71
		c0.04-0.2,0.05-0.23,2.41-3.18l16.55-20.64l6.77,5.46L82.02,67.36L80,70c-0.08,0.1-0.25,0.32-0.53,0.47l-6.03,3.56
		C73.15,74.21,72.81,74.3,72.48,74.3L72.48,74.3z M72.35,72.19C72.35,72.19,72.34,72.19,72.35,72.19L72.35,72.19z M74.82,65.91
		l-1.94,5.96l5.46-3.23l0.51-0.64l1.47-1.97l15.23-18.99l-3.42-2.76l-15.2,18.96C76.05,64.34,75.08,65.56,74.82,65.91L74.82,65.91z"
		/>
	<path class="st1" d="M83.41,64.98c-0.24,0-0.47-0.08-0.67-0.24l-1.87-1.51c-0.46-0.37-0.53-1.05-0.16-1.51
		c0.37-0.46,1.05-0.54,1.51-0.16l1.87,1.51c0.46,0.37,0.53,1.05,0.16,1.51C84.03,64.84,83.72,64.98,83.41,64.98L83.41,64.98z"/>
	<path class="st1" d="M85.17,62.78c-0.24,0-0.47-0.08-0.67-0.24l-1.87-1.51c-0.46-0.37-0.53-1.05-0.16-1.51
		c0.37-0.46,1.05-0.54,1.51-0.16l1.87,1.51c0.46,0.37,0.53,1.05,0.16,1.51C85.8,62.64,85.49,62.78,85.17,62.78L85.17,62.78z"/>
	<path class="st1" d="M86.93,60.58c-0.24,0-0.47-0.08-0.67-0.24l-1.87-1.51c-0.46-0.37-0.53-1.05-0.16-1.51
		c0.37-0.46,1.05-0.54,1.51-0.16l1.87,1.51c0.46,0.37,0.53,1.05,0.16,1.51C87.56,60.44,87.25,60.58,86.93,60.58L86.93,60.58z"/>
	<path class="st1" d="M73.4,65.88l1.38-1.64l5.08,4.27l-1.38,1.64L73.4,65.88z"/>
</g>
<path class="st2" d="M27.03,58.39"/>
<path class="st2" d="M23.31,72.55"/>
<path class="st2" d="M27.03,76.15"/>
</svg>
