<?xml version="1.0" encoding="utf-8"?>
<!-- Generator: Adobe Illustrator 26.3.1, SVG Export Plug-In . SVG Version: 6.00 Build 0)  -->
<svg version="1.1" id="Layer_1" xmlns="http://www.w3.org/2000/svg" xmlns:xlink="http://www.w3.org/1999/xlink" x="0px" y="0px"
	 viewBox="0 0 120 120" style="enable-background:new 0 0 120 120;" xml:space="preserve">
<style type="text/css">
	.st0{fill:#B7A1B3;}
	.st1{fill:#FFFFFF;}
</style>
<rect x="-13" y="-16" class="st0" width="146" height="146"/>
<path class="st1" d="M100.77,33.58c-1.42-2.51-3.25-4.68-5.42-6.44s-4.74-3.05-7.45-3.8c-7.32-2.1-15.05-0.27-20.67,4.95
	c-2.85,2.64-4.95,6.1-6.03,9.89c-1.49,5.29-0.95,10.91,1.56,15.79l0.41,0.81l-0.68,0.61c-0.14,0.14-0.34,0.27-0.54,0.47l-3.25,2.44
	c-0.47,0.34-0.68,0.81-0.61,1.29c0.07,0.27,0.2,1.02,2.24,1.63l0.2,0.07c1.69,0.47,3.25,0.75,4.61,0.75h0.41h0.81
	c0.88-0.07,1.69-0.14,2.64-0.27l0.41-0.07l0.41,0.27c1.9,1.29,3.93,2.24,6.17,2.85c7.32,2.1,14.98,0.2,20.6-4.95
	c2.85-2.64,4.95-6.1,6.03-9.89C104.22,44.43,103.55,38.6,100.77,33.58L100.77,33.58z M68.92,47.48c-1.9,0-3.39-1.49-3.39-3.39
	s1.49-3.39,3.39-3.39s3.39,1.49,3.39,3.39C72.37,45.92,70.81,47.48,68.92,47.48z M81.93,47.48c-1.9,0-3.39-1.49-3.39-3.39
	s1.49-3.39,3.39-3.39s3.39,1.49,3.39,3.39C85.32,45.92,83.83,47.48,81.93,47.48z M94.94,47.48c-1.9,0-3.39-1.49-3.39-3.39
	s1.49-3.39,3.39-3.39s3.39,1.49,3.39,3.39C98.33,45.92,96.77,47.48,94.94,47.48z"/>
<path class="st1" d="M54.21,99.29l-0.53-1.22c-0.46-1.05-1.01-2.14-1.53-3.2c-1.73-3.52-3.11-4.59-5.93-4.59
	c-0.61,0-1.35,0.06-2.42,0.19c-0.94,0.07-1.86,0.15-2.8,0.15c-1.4,0-2.85-0.07-4.2-0.2c-0.97-0.02-1.81-0.39-2.37-1.05l-0.09-0.12
	c-0.43-0.65-0.61-1.46-0.54-2.41c0.18-2.2-0.15-3.91-1.16-5.93l-0.16-0.37c-0.12-0.29-0.28-0.65-0.4-1.07l-0.03-0.12l-0.56-3.18
	c-0.13-0.86-0.26-1.61-0.44-2.39l-0.06-0.25l-0.57-0.7l-0.8-0.45c-0.86-0.26-2.01-0.71-2.33-1.67c-0.21-0.64-0.08-1.46,0.45-2.66
	c0.34-0.75,0.72-1.43,1.06-2.03l0.28-0.51c0.58-1.05,1.24-2.28,1.77-3.57l0.04-0.16c0.67-2,0.81-3.64,0.42-4.74
	c-2.54-7.85-1.13-14.67,4.3-20.9c5.25-6.03,14.31-9.78,23.64-9.78v2.5c-8.63,0-16.97,3.42-21.76,8.92
	c-4.81,5.51-6.06,11.54-3.82,18.45c0.57,1.58,0.45,3.66-0.35,6.14v0.04l-0.09,0.29c-0.59,1.47-1.32,2.85-1.97,4.01l-0.28,0.51
	c-0.33,0.59-0.67,1.2-0.96,1.84c-0.14,0.31-0.21,0.54-0.26,0.7c0.14,0.06,0.34,0.14,0.63,0.22l0.64,0.27l1.06,0.65l1.19,1.46
	l0.2,0.81c0.21,0.91,0.35,1.73,0.5,2.69l0.01,0.14l0.51,2.81c0.08,0.26,0.18,0.5,0.28,0.71l0.11,0.27c1.2,2.41,1.62,4.57,1.4,7.2
	c-0.02,0.22-0.01,0.54,0.09,0.75c0.12,0.09,0.33,0.13,0.49,0.13l0.12,0.01c2.1,0.21,4.4,0.23,6.56,0.07
	c1.12-0.14,1.96-0.21,2.67-0.21c4.36,0,6.36,2.29,8.17,5.99c0.34,0.68,0.69,1.38,1.03,2.09L76.18,85.1
	c-0.08-0.41-0.13-0.76-0.17-1.08c-0.5-3.4,0.04-6.92,1.71-11.04c0.07-0.22,0.2-0.52,0.32-0.79c0.05-0.12,0.11-0.24,0.15-0.35
	l2.32,0.92c-0.05,0.14-0.12,0.28-0.18,0.43c-0.09,0.21-0.19,0.43-0.26,0.65c-1.52,3.77-2.01,6.88-1.58,9.86
	c0.07,0.65,0.22,1.34,0.32,1.81l0.21,0.94L54.21,99.29z M29.67,70.08L29.67,70.08L29.67,70.08z"/>
</svg>
