<?xml version="1.0" encoding="utf-8"?>
<!-- Generator: Adobe Illustrator 26.3.1, SVG Export Plug-In . SVG Version: 6.00 Build 0)  -->
<svg version="1.1" id="Layer_1" xmlns="http://www.w3.org/2000/svg" xmlns:xlink="http://www.w3.org/1999/xlink" x="0px" y="0px"
	 viewBox="0 0 120 120" style="enable-background:new 0 0 120 120;" xml:space="preserve">
<style type="text/css">
	.st0{fill:#B7A1B3;}
	.st1{fill:#FFFFFF;}
</style>
<rect x="-13" y="-16" class="st0" width="146" height="146"/>
<g>
	<path class="st1" d="M35.77,87.84l2.13-2.87c2.24-3.02,2.91-5.93,2.21-9.84c-15.46-1.85-26.49-9.9-26.96-19.79
		c-0.22-4.04,1.38-8.07,4.61-11.64c6.17-6.82,17.33-11.25,29.87-11.85c13.99-0.6,26.87,3.78,32.81,11.17l-2.09,1.68
		c-5.42-6.74-17.43-10.73-30.59-10.17c-11.66,0.55-22.39,4.76-28,10.97c-2.74,3.03-4.1,6.39-3.92,9.71
		c0.2,4.24,2.75,8.15,7.38,11.32c4.65,3.18,11.1,5.33,18.16,6.04l0.96,0.1l0.21,0.95c0.61,2.72,0.99,6.16-0.7,9.93
		c5-1.85,8.72-5.33,11.09-10.36l0.32-0.68l0.75-0.08c2.62-0.28,5.39-0.83,8.02-1.61l0.76,2.57c-2.54,0.75-5.21,1.3-7.76,1.61
		c-3.22,6.36-8.66,10.53-15.77,12.08L35.77,87.84z"/>
	<path class="st1" d="M91.85,85.63l-3.49-0.49c-6.88-0.96-10.8-5.08-12.94-8.61C61.74,75.38,51.76,68.41,51.6,59.8
		c-0.06-3.24,1.33-6.41,4.02-9.17c5.03-5.17,13.85-8.32,23.6-8.42c7.31-0.07,14.22,1.56,19.47,4.61c5.48,3.19,8.55,7.57,8.63,12.33
		c0.15,7.83-8,14.64-19.96,16.8c-0.21,2.42,0.18,4.6,2.21,6.99L91.85,85.63z M79.7,44.89c-0.15,0-0.3,0-0.45,0
		c-8.91,0.09-17.23,3-21.7,7.6c-2.18,2.24-3.3,4.74-3.26,7.26c0.13,7.21,9.61,13.3,22.04,14.16l0.72,0.05l0.35,0.63
		c1.43,2.55,3.95,5.63,8.21,7.14c-1.18-2.58-1.1-5-0.8-7.12l0.14-0.98l0.98-0.15c11.14-1.74,18.83-7.61,18.7-14.27v0
		C104.5,51.25,93.36,44.89,79.7,44.89z"/>
	<path class="st1" d="M37.81,151.5c0,6.78-5.5,12.28-12.28,12.28s-12.28-5.5-12.28-12.28s5.5-12.28,12.28-12.28
		S37.81,144.72,37.81,151.5"/>
	<path class="st1" d="M35.92,167.16H15.54c-6.75,0-12.55,4.99-12.55,11.74v2.16H48.2v-2.16C48.06,172.15,42.66,167.16,35.92,167.16
		L35.92,167.16z"/>
	<path class="st1" d="M106.64,151.5c0,6.78-5.5,12.28-12.28,12.28s-12.28-5.5-12.28-12.28s5.5-12.28,12.28-12.28
		S106.64,144.72,106.64,151.5"/>
	<path class="st1" d="M104.61,167.16H84.37c-6.75,0-12.55,4.99-12.55,11.74v2.16h45.21v-2.16
		C116.89,172.15,111.49,167.16,104.61,167.16L104.61,167.16z"/>
</g>
</svg>
