<?xml version="1.0" encoding="utf-8"?>
<!-- Generator: Adobe Illustrator 26.3.1, SVG Export Plug-In . SVG Version: 6.00 Build 0)  -->
<svg version="1.1" id="BACKGROUND" xmlns="http://www.w3.org/2000/svg" xmlns:xlink="http://www.w3.org/1999/xlink" x="0px" y="0px"
	 viewBox="0 0 1280 497.75" style="enable-background:new 0 0 1280 497.75;" xml:space="preserve">
<style type="text/css">
	.st0{fill:url(#SVGID_1_);}
	.st1{fill:#B279AA;}
	.st2{fill:url(#SVGID_00000067222117277968679020000007398526912139355061_);}
	.st3{fill:#FFCCCC;}
	.st4{fill:none;}
	.st5{enable-background:new    ;}
	.st6{fill:#FFFFFF;}
	.st7{fill:#CC6666;}
</style>
<g>
	
		<linearGradient id="SVGID_1_" gradientUnits="userSpaceOnUse" x1="552.86" y1="93.45" x2="552.86" y2="498.93" gradientTransform="matrix(1 0 0 -1 0 500)">
		<stop  offset="0.2398" style="stop-color:#000000"/>
		<stop  offset="1" style="stop-color:#5A3851"/>
	</linearGradient>
	<path class="st0" d="M482.37,1.07v405.48c55.72-23.19,100.31-67.78,123.5-123.5c11.28-27.03,17.48-56.75,17.48-87.87V1.07H482.37z"
		/>
	<path class="st1" d="M197.99,283.04l42.13-42.13H114.99l-42.13,42.13l0,0L9.39,346.51l0,0l-3.37,3.37l0.75,0.75l-0.75,0.75
		l3.37,3.37l46.19,46.19l23.1,23.1l0,0l36.31,36.32h125.14l-36.31-36.32l0,0h190.72c31.11,0,60.8-6.2,87.85-17.47
		c55.71-23.21,100.29-67.79,123.49-123.52H197.99V283.04z"/>
</g>
<g>
	
		<linearGradient id="SVGID_00000141431463691472499590000017420521513616819098_" gradientUnits="userSpaceOnUse" x1="727.66" y1="-123.4122" x2="727.66" y2="261.2301" gradientTransform="matrix(1 0 0 -1 0 500)">
		<stop  offset="0.2398" style="stop-color:#000000"/>
		<stop  offset="1" style="stop-color:#EE9B9B"/>
	</linearGradient>
	<path style="fill:url(#SVGID_00000141431463691472499590000017420521513616819098_);" d="M798.15,1.07v405.48
		c-55.72-23.19-100.31-67.78-123.5-123.5c-11.28-27.03-17.48-56.75-17.48-87.87V1.07H798.15z"/>
	<path class="st3" d="M1270.92,349.87L1161.95,240.9h-125.13l42.13,42.13H674.66c23.18,55.74,67.76,100.31,123.49,123.52
		c27.02,11.27,56.71,17.47,87.82,17.47h187.16l-36.31,36.32h125.13l36.32-36.32l72.65-72.65l-0.75-0.75L1270.92,349.87z"/>
</g>
<rect x="113.45" y="301.99" class="st4" width="345.48" height="122.18"/>
<g class="st5">
	<path class="st6" d="M163.18,303.19c-0.24,1.11-0.48,2.29-0.72,3.54c-0.23,1.25-0.41,2.36-0.53,3.33h-3.93l-0.18-0.29
		c0.16-0.62,0.35-1.32,0.6-2.09c0.24-0.77,0.51-1.55,0.79-2.34c0.29-0.79,0.57-1.5,0.85-2.15H163.18z M169.37,303.19
		c-0.24,1.11-0.48,2.29-0.71,3.54c-0.23,1.25-0.41,2.36-0.53,3.33h-3.93l-0.18-0.29c0.16-0.62,0.35-1.32,0.6-2.09
		c0.24-0.77,0.5-1.55,0.78-2.34c0.28-0.79,0.56-1.5,0.86-2.15H169.37z"/>
	<path class="st6" d="M183.44,316.37c0,1.06-0.26,2.01-0.78,2.87c-0.52,0.86-1.3,1.53-2.34,2.03c-1.04,0.49-2.35,0.74-3.93,0.74
		c-1.09,0-2.07-0.1-2.94-0.29s-1.71-0.48-2.52-0.86v-4.03c0.94,0.43,1.89,0.8,2.87,1.09c0.98,0.29,1.92,0.44,2.82,0.44
		c0.85,0,1.46-0.16,1.85-0.48c0.38-0.32,0.57-0.72,0.57-1.21c0-0.59-0.3-1.07-0.91-1.44c-0.61-0.37-1.46-0.82-2.57-1.34
		c-0.73-0.33-1.43-0.72-2.12-1.18c-0.69-0.46-1.24-1.04-1.68-1.74c-0.43-0.7-0.65-1.6-0.65-2.69c0-1.73,0.6-3.06,1.81-3.98
		c1.2-0.92,2.8-1.38,4.8-1.38c1.07,0,2.07,0.13,2.99,0.38c0.92,0.25,1.82,0.56,2.7,0.92l-1.4,3.46c-0.83-0.36-1.61-0.65-2.33-0.84
		s-1.42-0.3-2.09-0.3c-0.71,0-1.24,0.15-1.59,0.44c-0.35,0.29-0.52,0.67-0.52,1.12c0,0.36,0.12,0.68,0.36,0.95
		c0.24,0.27,0.62,0.54,1.14,0.82s1.2,0.62,2.05,1.01c0.92,0.42,1.71,0.87,2.37,1.35s1.16,1.05,1.51,1.7
		C183.26,314.59,183.44,315.4,183.44,316.37z"/>
	<path class="st6" d="M188.51,301.81c0.62,0,1.17,0.14,1.64,0.42c0.47,0.28,0.7,0.82,0.7,1.61c0,0.78-0.23,1.31-0.7,1.6
		c-0.47,0.29-1.01,0.43-1.64,0.43c-0.66,0-1.22-0.14-1.68-0.43c-0.46-0.29-0.69-0.82-0.69-1.6c0-0.8,0.23-1.33,0.69-1.61
		C187.29,301.95,187.85,301.81,188.51,301.81z M190.67,307.48v14.27h-4.37v-14.27H190.67z"/>
	<path class="st6" d="M200.91,318.53c0.43,0,0.84-0.04,1.23-0.13s0.78-0.2,1.18-0.34v3.22c-0.47,0.21-1.01,0.38-1.61,0.52
		c-0.61,0.14-1.33,0.21-2.16,0.21c-0.88,0-1.67-0.14-2.35-0.43c-0.69-0.29-1.22-0.78-1.61-1.47c-0.39-0.69-0.58-1.67-0.58-2.94
		v-6.42h-1.82v-1.82l2.18-1.4l1.2-3.02h2.81v2.96h3.8v3.28h-3.8v6.27c0,0.5,0.14,0.88,0.42,1.13
		C200.07,318.4,200.44,318.53,200.91,318.53z"/>
	<path class="st6" d="M219.53,307.48v14.27h-3.33l-0.57-1.82h-0.26c-0.45,0.73-1.07,1.26-1.85,1.59c-0.78,0.33-1.61,0.49-2.5,0.49
		c-1.47,0-2.68-0.42-3.63-1.25s-1.42-2.16-1.42-3.98v-9.31h4.39v8.09c0,0.97,0.16,1.71,0.48,2.21s0.84,0.75,1.55,0.75
		c1.06,0,1.78-0.39,2.16-1.17c0.38-0.78,0.57-1.91,0.57-3.38v-6.5H219.53z"/>
	<path class="st6" d="M229.67,307.19c1.85,0,3.29,0.43,4.32,1.3c1.02,0.87,1.53,2.13,1.53,3.8v9.46h-3.04l-0.86-1.92h-0.1
		c-0.61,0.78-1.25,1.34-1.92,1.68c-0.68,0.34-1.6,0.51-2.78,0.51c-1.27,0-2.31-0.37-3.15-1.12c-0.83-0.75-1.25-1.9-1.25-3.46
		c0-1.51,0.53-2.63,1.6-3.37c1.07-0.74,2.63-1.15,4.69-1.24l2.44-0.08v-0.42c0-0.69-0.18-1.2-0.53-1.51
		c-0.36-0.31-0.84-0.47-1.47-0.47s-1.27,0.1-1.95,0.3c-0.68,0.2-1.36,0.45-2.05,0.74l-1.33-2.91c0.78-0.42,1.66-0.74,2.65-0.96
		C227.46,307.3,228.52,307.19,229.67,307.19z M229.82,315.3c-1.09,0.04-1.85,0.23-2.29,0.58c-0.43,0.36-0.65,0.84-0.65,1.44
		c0,0.54,0.16,0.93,0.47,1.17c0.31,0.24,0.71,0.36,1.2,0.36c0.73,0,1.34-0.22,1.85-0.66c0.5-0.44,0.75-1.04,0.75-1.81v-1.14
		L229.82,315.3z"/>
	<path class="st6" d="M245.34,322.01c-2.15,0-3.83-0.58-5.04-1.75s-1.82-3.03-1.82-5.58c0-1.73,0.31-3.15,0.92-4.25
		c0.62-1.1,1.47-1.91,2.56-2.43c1.09-0.52,2.34-0.78,3.74-0.78c0.94,0,1.78,0.1,2.54,0.29c0.75,0.19,1.43,0.43,2.01,0.73l-1.27,3.3
		c-0.61-0.26-1.17-0.46-1.69-0.61c-0.52-0.15-1.05-0.22-1.59-0.22c-0.88,0-1.57,0.33-2.05,0.99c-0.49,0.66-0.73,1.65-0.73,2.96
		c0,1.33,0.25,2.31,0.75,2.92c0.5,0.62,1.19,0.92,2.05,0.92c0.76,0,1.48-0.11,2.15-0.33c0.67-0.22,1.3-0.52,1.91-0.92v3.59
		c-0.59,0.38-1.23,0.67-1.92,0.87S246.33,322.01,245.34,322.01z M248.2,324.92c0,0.95-0.3,1.7-0.9,2.25
		c-0.6,0.55-1.54,0.82-2.82,0.82c-0.49,0-0.92-0.04-1.31-0.1s-0.72-0.15-1-0.23v-2.29c0.28,0.09,0.57,0.16,0.88,0.21
		c0.31,0.05,0.61,0.08,0.88,0.08c0.28,0,0.51-0.06,0.69-0.18s0.27-0.31,0.27-0.57c0-0.31-0.15-0.57-0.44-0.78
		c-0.29-0.21-0.81-0.37-1.53-0.49l0.88-1.87h2.47l-0.29,0.78c0.52,0.14,1.02,0.39,1.49,0.77S248.2,324.21,248.2,324.92z"/>
	<path class="st6" d="M259.28,307.19c1.85,0,3.29,0.43,4.32,1.3c1.02,0.87,1.53,2.13,1.53,3.8v9.46h-3.04l-0.86-1.92h-0.1
		c-0.61,0.78-1.25,1.34-1.92,1.68c-0.68,0.34-1.6,0.51-2.78,0.51c-1.27,0-2.31-0.37-3.15-1.12c-0.83-0.75-1.25-1.9-1.25-3.46
		c0-1.51,0.53-2.63,1.6-3.37c1.07-0.74,2.63-1.15,4.69-1.24l2.44-0.08v-0.42c0-0.69-0.18-1.2-0.53-1.51
		c-0.36-0.31-0.84-0.47-1.47-0.47s-1.27,0.1-1.95,0.3c-0.68,0.2-1.36,0.45-2.05,0.74l-1.33-2.91c0.78-0.42,1.66-0.74,2.65-0.96
		C257.07,307.3,258.13,307.19,259.28,307.19z M253.69,306.02c0.1-1.46,0.46-2.5,1.07-3.15c0.61-0.64,1.36-0.96,2.26-0.96
		c0.45,0,0.91,0.11,1.38,0.33c0.47,0.22,0.93,0.43,1.39,0.64c0.46,0.21,0.9,0.31,1.31,0.31c0.21,0,0.42-0.09,0.64-0.27
		c0.22-0.18,0.37-0.52,0.46-1.03h2.11c-0.1,1.44-0.47,2.48-1.09,3.13c-0.62,0.65-1.36,0.98-2.21,0.98c-0.49,0-0.97-0.1-1.44-0.31
		c-0.48-0.21-0.94-0.42-1.39-0.64s-0.88-0.33-1.3-0.33c-0.21,0-0.42,0.09-0.62,0.27c-0.21,0.18-0.36,0.52-0.47,1.03H253.69z
		 M259.43,315.3c-1.09,0.04-1.85,0.23-2.29,0.58c-0.43,0.36-0.65,0.84-0.65,1.44c0,0.54,0.16,0.93,0.47,1.17
		c0.31,0.24,0.71,0.36,1.2,0.36c0.73,0,1.34-0.22,1.85-0.66c0.5-0.44,0.75-1.04,0.75-1.81v-1.14L259.43,315.3z"/>
	<path class="st6" d="M282.11,314.58c0,2.39-0.63,4.23-1.89,5.51c-1.26,1.28-2.98,1.92-5.16,1.92c-1.35,0-2.55-0.29-3.6-0.87
		c-1.05-0.58-1.87-1.42-2.47-2.52s-0.9-2.45-0.9-4.04c0-2.36,0.63-4.17,1.88-5.45s2.98-1.91,5.16-1.91c1.35,0,2.55,0.29,3.6,0.86
		c1.05,0.57,1.87,1.4,2.47,2.5C281.81,311.66,282.11,313,282.11,314.58z M272.54,314.58c0,1.33,0.2,2.34,0.6,3.03
		c0.4,0.69,1.06,1.03,1.98,1.03c0.9,0,1.55-0.34,1.95-1.03c0.4-0.68,0.6-1.69,0.6-3.03c0-1.32-0.2-2.31-0.6-2.98
		c-0.4-0.67-1.06-1-1.98-1c-0.9,0-1.55,0.33-1.95,1C272.74,312.27,272.54,313.26,272.54,314.58z"/>
	<path class="st6" d="M296.38,322.01c-1.54,0-2.8-0.62-3.77-1.87c-0.97-1.25-1.46-3.08-1.46-5.51c0-2.44,0.49-4.29,1.48-5.54
		s2.28-1.87,3.87-1.87c1,0,1.82,0.2,2.44,0.6c0.62,0.4,1.13,0.89,1.51,1.48h0.1c-0.05-0.31-0.11-0.76-0.17-1.34
		c-0.06-0.58-0.09-1.16-0.09-1.73v-4.24h4.39v19.76h-3.33l-0.88-1.85h-0.18c-0.36,0.59-0.86,1.09-1.48,1.5
		C298.2,321.81,297.39,322.01,296.38,322.01z M298.04,318.53c0.94,0,1.6-0.29,1.99-0.86s0.59-1.44,0.61-2.6v-0.39
		c0-1.26-0.19-2.24-0.56-2.91c-0.37-0.68-1.07-1.01-2.09-1.01c-0.75,0-1.33,0.33-1.77,0.99s-0.65,1.65-0.65,2.96
		c0,1.3,0.22,2.26,0.66,2.89S297.28,318.53,298.04,318.53z"/>
	<path class="st6" d="M314.63,307.22c2.01,0,3.6,0.55,4.78,1.65s1.77,2.72,1.77,4.85v2.03h-9.02c0.03,0.94,0.34,1.68,0.91,2.24
		c0.57,0.55,1.39,0.83,2.44,0.83c0.9,0,1.73-0.09,2.48-0.26c0.75-0.17,1.53-0.45,2.33-0.83v3.25c-0.71,0.36-1.46,0.63-2.25,0.79
		c-0.79,0.17-1.76,0.25-2.92,0.25c-1.44,0-2.72-0.26-3.83-0.78c-1.12-0.52-1.99-1.32-2.63-2.41s-0.95-2.46-0.95-4.12
		c0-1.68,0.29-3.08,0.86-4.19c0.57-1.11,1.37-1.94,2.41-2.48C312.04,307.49,313.24,307.22,314.63,307.22z M314.71,310.26
		c-0.68,0-1.23,0.21-1.68,0.64c-0.44,0.43-0.71,1.1-0.79,2.02h4.91c-0.02-0.75-0.23-1.37-0.62-1.88
		C316.13,310.52,315.52,310.26,314.71,310.26z"/>
	<path class="st6" d="M339.2,307.22c0.23,0,0.48,0.01,0.75,0.04s0.49,0.06,0.65,0.09l-0.36,4.11c-0.16-0.03-0.36-0.07-0.6-0.09
		c-0.24-0.03-0.51-0.04-0.81-0.04c-0.55,0-1.1,0.09-1.65,0.26c-0.55,0.17-1,0.5-1.35,0.97c-0.36,0.48-0.53,1.16-0.53,2.04v7.15
		h-4.39v-14.27h3.3l0.68,2.34h0.18c0.42-0.71,0.99-1.32,1.72-1.83C337.51,307.47,338.32,307.22,339.2,307.22z"/>
	<path class="st6" d="M356.39,307.48v14.27h-3.33l-0.57-1.82h-0.26c-0.45,0.73-1.07,1.26-1.85,1.59c-0.78,0.33-1.61,0.49-2.5,0.49
		c-1.47,0-2.68-0.42-3.63-1.25s-1.42-2.16-1.42-3.98v-9.31h4.39v8.09c0,0.97,0.16,1.71,0.48,2.21s0.84,0.75,1.55,0.75
		c1.06,0,1.78-0.39,2.16-1.17c0.38-0.78,0.57-1.91,0.57-3.38v-6.5H356.39z"/>
	<path class="st6" d="M366.53,307.19c1.85,0,3.29,0.43,4.32,1.3c1.02,0.87,1.53,2.13,1.53,3.8v9.46h-3.04l-0.86-1.92h-0.1
		c-0.61,0.78-1.25,1.34-1.92,1.68c-0.68,0.34-1.6,0.51-2.78,0.51c-1.27,0-2.31-0.37-3.15-1.12c-0.83-0.75-1.25-1.9-1.25-3.46
		c0-1.51,0.53-2.63,1.6-3.37c1.07-0.74,2.63-1.15,4.69-1.24l2.44-0.08v-0.42c0-0.69-0.18-1.2-0.53-1.51
		c-0.36-0.31-0.84-0.47-1.47-0.47s-1.27,0.1-1.95,0.3c-0.68,0.2-1.36,0.45-2.05,0.74l-1.33-2.91c0.78-0.42,1.66-0.74,2.65-0.96
		C364.32,307.3,365.38,307.19,366.53,307.19z M366.68,315.3c-1.09,0.04-1.85,0.23-2.29,0.58c-0.43,0.36-0.65,0.84-0.65,1.44
		c0,0.54,0.16,0.93,0.47,1.17c0.31,0.24,0.71,0.36,1.2,0.36c0.73,0,1.34-0.22,1.85-0.66c0.5-0.44,0.75-1.04,0.75-1.81v-1.14
		L366.68,315.3z"/>
	<path class="st6" d="M379.68,303.47c-0.16,0.62-0.36,1.33-0.6,2.11s-0.5,1.56-0.78,2.34c-0.28,0.78-0.56,1.49-0.86,2.13h-3.12
		c0.24-1.09,0.48-2.27,0.71-3.52s0.41-2.37,0.53-3.34h3.93L379.68,303.47z M385.87,303.47c-0.16,0.62-0.36,1.33-0.6,2.11
		s-0.51,1.56-0.79,2.34s-0.57,1.49-0.84,2.13h-3.15c0.26-1.09,0.51-2.27,0.74-3.52s0.41-2.37,0.53-3.34h3.93L385.87,303.47z"/>
</g>
<g class="st5">
	<path class="st6" d="M399.36,320.74c0.38,0,0.75-0.03,1.09-0.08s0.65-0.13,0.91-0.23v1.2c-0.26,0.1-0.58,0.2-0.96,0.27
		c-0.38,0.08-0.79,0.12-1.22,0.12c-1.16,0-2.05-0.32-2.68-0.96c-0.62-0.64-0.94-1.69-0.94-3.15v-8.79h-2.05v-0.83l2.05-0.49
		l0.52-3.17h0.96v3.3h4.24v1.2h-4.24v8.71C397.05,319.77,397.82,320.74,399.36,320.74z"/>
	<path class="st6" d="M409.99,307.69c0.68,0,1.3,0.07,1.87,0.21l-0.23,1.38c-0.55-0.16-1.13-0.23-1.72-0.23
		c-1.27,0-2.27,0.47-3.02,1.4c-0.75,0.94-1.12,2.17-1.12,3.72v7.59h-1.48v-13.83h1.25l0.16,2.57h0.08c0.35-0.78,0.88-1.44,1.59-1.99
		C408.08,307.96,408.95,307.69,409.99,307.69z"/>
	<path class="st6" d="M418.91,307.69c1.56,0,2.72,0.38,3.48,1.14c0.76,0.76,1.14,1.97,1.14,3.61v9.31h-1.12l-0.26-2.34h-0.08
		c-0.5,0.78-1.11,1.41-1.83,1.88c-0.72,0.48-1.72,0.71-3,0.71c-1.33,0-2.38-0.33-3.15-1c-0.76-0.67-1.14-1.62-1.14-2.87
		c0-1.39,0.56-2.44,1.69-3.16c1.13-0.72,2.76-1.12,4.91-1.21l2.52-0.13v-0.96c0-1.35-0.27-2.31-0.82-2.89
		c-0.55-0.57-1.35-0.86-2.4-0.86c-0.71,0-1.4,0.1-2.05,0.29c-0.66,0.19-1.32,0.44-1.98,0.75l-0.47-1.2
		c0.66-0.31,1.37-0.57,2.14-0.78S418.08,307.69,418.91,307.69z M419.74,314.86c-1.77,0.09-3.08,0.39-3.94,0.92
		c-0.86,0.53-1.29,1.31-1.29,2.35c0,0.87,0.26,1.52,0.79,1.96c0.53,0.44,1.26,0.66,2.2,0.66c1.44,0,2.56-0.41,3.35-1.23
		c0.8-0.82,1.2-1.96,1.22-3.42v-1.35L419.74,314.86z"/>
	<path class="st6" d="M436.64,321.75h-9.93v-0.99l8.11-11.65h-7.54v-1.2h9.31v1.04l-8.09,11.57h8.14V321.75z"/>
	<path class="st6" d="M451.65,307.69c1.56,0,2.72,0.38,3.48,1.14s1.14,1.97,1.14,3.61v9.31h-1.12l-0.26-2.34h-0.08
		c-0.5,0.78-1.11,1.41-1.83,1.88c-0.72,0.48-1.72,0.71-3,0.71c-1.33,0-2.38-0.33-3.15-1c-0.76-0.67-1.14-1.62-1.14-2.87
		c0-1.39,0.56-2.44,1.69-3.16c1.13-0.72,2.76-1.12,4.91-1.21l2.52-0.13v-0.96c0-1.35-0.27-2.31-0.82-2.89s-1.35-0.86-2.41-0.86
		c-0.71,0-1.4,0.1-2.05,0.29c-0.66,0.19-1.32,0.44-1.98,0.75l-0.47-1.2c0.66-0.31,1.37-0.57,2.15-0.78
		C450.01,307.79,450.81,307.69,451.65,307.69z M452.48,314.86c-1.77,0.09-3.08,0.39-3.94,0.92c-0.86,0.53-1.29,1.31-1.29,2.35
		c0,0.87,0.26,1.52,0.79,1.96c0.53,0.44,1.26,0.66,2.2,0.66c1.44,0,2.56-0.41,3.35-1.23s1.21-1.96,1.22-3.42v-1.35L452.48,314.86z"
		/>
</g>
<g class="st5">
	<path class="st6" d="M208.26,334c0.68,0,1.01,0.37,1.01,1.12c0,0.76-0.34,1.14-1.01,1.14s-1.01-0.38-1.01-1.14
		C207.25,334.37,207.59,334,208.26,334z M208.99,339.12v13.83h-1.48v-13.83H208.99z"/>
	<path class="st6" d="M218.53,353.21c-1.85,0-3.28-0.59-4.28-1.78c-1-1.19-1.5-2.94-1.5-5.26c0-2.37,0.52-4.19,1.56-5.43
		s2.49-1.87,4.34-1.87c1.16,0,2.1,0.26,2.82,0.77c0.72,0.51,1.26,1.13,1.62,1.86h0.1c-0.02-0.4-0.04-0.84-0.06-1.34
		c-0.03-0.49-0.04-0.95-0.04-1.37v-5.59h1.48v19.76h-1.2l-0.21-2.42h-0.08c-0.36,0.75-0.91,1.38-1.64,1.9
		C220.74,352.95,219.76,353.21,218.53,353.21z M218.72,351.94c1.59,0,2.73-0.49,3.41-1.46c0.68-0.97,1.01-2.38,1.01-4.21v-0.23
		c0-1.91-0.33-3.37-1-4.38c-0.67-1.01-1.77-1.52-3.31-1.52c-1.49,0-2.62,0.52-3.38,1.57c-0.76,1.05-1.14,2.54-1.14,4.49
		c0,1.87,0.36,3.3,1.09,4.28C216.12,351.45,217.22,351.94,218.72,351.94z"/>
	<path class="st6" d="M234.39,338.86c1.18,0,2.16,0.27,2.95,0.82c0.79,0.55,1.39,1.3,1.79,2.25c0.41,0.95,0.61,2.05,0.61,3.28v1.01
		h-9.88c0,1.84,0.43,3.25,1.29,4.23c0.86,0.98,2.08,1.47,3.68,1.47c0.85,0,1.59-0.07,2.24-0.22s1.34-0.39,2.11-0.71v1.35
		c-0.69,0.31-1.38,0.54-2.05,0.68s-1.46,0.21-2.34,0.21c-2.08,0-3.68-0.63-4.78-1.9c-1.11-1.27-1.66-2.99-1.66-5.17
		c0-1.4,0.24-2.65,0.71-3.74c0.48-1.09,1.17-1.95,2.07-2.59C232.02,339.18,233.11,338.86,234.39,338.86z M234.37,340.11
		c-1.27,0-2.29,0.42-3.08,1.27c-0.79,0.85-1.24,2.05-1.37,3.61h8.29c0-1.46-0.32-2.63-0.95-3.54
		C236.63,340.56,235.67,340.11,234.37,340.11z"/>
	<path class="st6" d="M244.25,334c0.68,0,1.01,0.37,1.01,1.12c0,0.76-0.34,1.14-1.01,1.14s-1.01-0.38-1.01-1.14
		C243.23,334.37,243.57,334,244.25,334z M244.98,339.12v13.83h-1.48v-13.83H244.98z"/>
	<path class="st6" d="M254.44,338.89c1.56,0,2.72,0.38,3.48,1.14c0.76,0.76,1.14,1.97,1.14,3.61v9.31h-1.12l-0.26-2.34h-0.08
		c-0.5,0.78-1.11,1.41-1.83,1.88c-0.72,0.48-1.72,0.71-3,0.71c-1.33,0-2.38-0.33-3.15-1c-0.76-0.67-1.14-1.62-1.14-2.87
		c0-1.39,0.56-2.44,1.69-3.16c1.13-0.72,2.76-1.12,4.91-1.21l2.52-0.13v-0.96c0-1.35-0.27-2.31-0.82-2.89
		c-0.55-0.57-1.35-0.86-2.4-0.86c-0.71,0-1.4,0.1-2.05,0.29c-0.66,0.19-1.32,0.44-1.98,0.75l-0.47-1.2
		c0.66-0.31,1.37-0.57,2.15-0.78C252.81,338.99,253.61,338.89,254.44,338.89z M255.27,346.06c-1.77,0.09-3.08,0.39-3.94,0.92
		s-1.29,1.31-1.29,2.35c0,0.87,0.26,1.52,0.79,1.96c0.53,0.44,1.26,0.66,2.2,0.66c1.44,0,2.56-0.41,3.35-1.23
		c0.8-0.82,1.2-1.96,1.22-3.42v-1.35L255.27,346.06z"/>
	<path class="st6" d="M275.21,353.21c-1.85,0-3.28-0.59-4.28-1.78c-1-1.19-1.5-2.94-1.5-5.26c0-2.37,0.52-4.19,1.56-5.43
		s2.49-1.87,4.34-1.87c1.16,0,2.1,0.26,2.82,0.77c0.72,0.51,1.26,1.13,1.62,1.86h0.1c-0.02-0.4-0.04-0.84-0.06-1.34
		c-0.03-0.49-0.04-0.95-0.04-1.37v-5.59h1.48v19.76h-1.2l-0.21-2.42h-0.08c-0.36,0.75-0.91,1.38-1.64,1.9
		C277.42,352.95,276.44,353.21,275.21,353.21z M275.4,351.94c1.59,0,2.73-0.49,3.41-1.46c0.68-0.97,1.01-2.38,1.01-4.21v-0.23
		c0-1.91-0.33-3.37-1-4.38c-0.67-1.01-1.77-1.52-3.31-1.52c-1.49,0-2.62,0.52-3.38,1.57c-0.76,1.05-1.14,2.54-1.14,4.49
		c0,1.87,0.36,3.3,1.09,4.28C272.79,351.45,273.9,351.94,275.4,351.94z"/>
	<path class="st6" d="M291.07,338.86c1.18,0,2.16,0.27,2.95,0.82c0.79,0.55,1.39,1.3,1.79,2.25c0.41,0.95,0.61,2.05,0.61,3.28v1.01
		h-9.88c0,1.84,0.43,3.25,1.29,4.23c0.86,0.98,2.08,1.47,3.68,1.47c0.85,0,1.59-0.07,2.24-0.22s1.34-0.39,2.11-0.71v1.35
		c-0.69,0.31-1.38,0.54-2.05,0.68s-1.46,0.21-2.34,0.21c-2.08,0-3.68-0.63-4.78-1.9c-1.11-1.27-1.66-2.99-1.66-5.17
		c0-1.4,0.24-2.65,0.71-3.74c0.48-1.09,1.17-1.95,2.07-2.59C288.7,339.18,289.79,338.86,291.07,338.86z M291.05,340.11
		c-1.27,0-2.29,0.42-3.08,1.27c-0.79,0.85-1.24,2.05-1.37,3.61h8.29c0-1.46-0.32-2.63-0.95-3.54
		C293.31,340.56,292.35,340.11,291.05,340.11z"/>
	<path class="st6" d="M311.82,338.89c1.56,0,2.72,0.38,3.48,1.14c0.76,0.76,1.14,1.97,1.14,3.61v9.31h-1.12l-0.26-2.34h-0.08
		c-0.5,0.78-1.11,1.41-1.83,1.88c-0.72,0.48-1.72,0.71-3,0.71c-1.33,0-2.38-0.33-3.15-1c-0.76-0.67-1.14-1.62-1.14-2.87
		c0-1.39,0.56-2.44,1.69-3.16c1.13-0.72,2.76-1.12,4.91-1.21l2.52-0.13v-0.96c0-1.35-0.27-2.31-0.82-2.89
		c-0.55-0.57-1.35-0.86-2.4-0.86c-0.71,0-1.4,0.1-2.05,0.29c-0.66,0.19-1.32,0.44-1.98,0.75l-0.47-1.2
		c0.66-0.31,1.37-0.57,2.15-0.78C310.19,338.99,310.99,338.89,311.82,338.89z M312.65,346.06c-1.77,0.09-3.08,0.39-3.94,0.92
		s-1.29,1.31-1.29,2.35c0,0.87,0.26,1.52,0.79,1.96c0.53,0.44,1.26,0.66,2.2,0.66c1.44,0,2.56-0.41,3.35-1.23
		c0.8-0.82,1.2-1.96,1.22-3.42v-1.35L312.65,346.06z"/>
	<path class="st6" d="M322.35,352.95h-1.48v-19.76h1.48V352.95z"/>
	<path class="st6" d="M332,338.86c1.07,0,1.97,0.21,2.69,0.64s1.3,1,1.73,1.73h0.1l0.21-2.11h1.2v14.27c0,1.82-0.47,3.24-1.4,4.26
		c-0.94,1.02-2.45,1.53-4.55,1.53c-1.04,0-1.96-0.08-2.77-0.25c-0.81-0.17-1.53-0.39-2.17-0.69v-1.43c0.64,0.33,1.39,0.59,2.24,0.79
		c0.85,0.2,1.77,0.3,2.76,0.3c1.51,0,2.63-0.4,3.35-1.2c0.73-0.8,1.09-1.88,1.09-3.25v-0.81c0-0.36,0-0.73,0.01-1.1
		s0.02-0.72,0.04-1.05h-0.08c-0.8,1.8-2.34,2.7-4.63,2.7c-1.79,0-3.18-0.61-4.19-1.82c-1.01-1.21-1.51-2.96-1.51-5.25
		c0-2.24,0.5-4.01,1.51-5.32C328.63,339.51,330.09,338.86,332,338.86z M332.15,340.13c-1.51,0-2.64,0.53-3.38,1.59
		c-0.75,1.06-1.12,2.54-1.12,4.45c0,1.87,0.37,3.3,1.12,4.29s1.82,1.48,3.22,1.48c1.14,0,2.04-0.23,2.69-0.69
		c0.65-0.46,1.11-1.1,1.38-1.91c0.27-0.81,0.4-1.74,0.4-2.78v-0.91c0-1.75-0.33-3.11-0.98-4.07S333.73,340.13,332.15,340.13z"/>
	<path class="st6" d="M354.07,346.01c0,1.46-0.24,2.72-0.71,3.8c-0.48,1.08-1.18,1.91-2.11,2.51c-0.93,0.6-2.06,0.9-3.39,0.9
		c-1.28,0-2.38-0.29-3.3-0.88c-0.92-0.59-1.62-1.43-2.12-2.51c-0.49-1.08-0.74-2.35-0.74-3.81c0-2.24,0.55-3.99,1.66-5.25
		c1.11-1.26,2.64-1.9,4.6-1.9c1.32,0,2.43,0.3,3.34,0.9c0.91,0.6,1.6,1.43,2.07,2.51C353.84,343.34,354.07,344.59,354.07,346.01z
		 M343.23,346.01c0,1.79,0.38,3.22,1.13,4.3s1.93,1.62,3.52,1.62c1.61,0,2.79-0.55,3.54-1.64c0.75-1.09,1.12-2.52,1.12-4.29
		c0-1.14-0.16-2.16-0.47-3.04c-0.31-0.88-0.81-1.58-1.48-2.08c-0.68-0.5-1.56-0.75-2.65-0.75c-1.56,0-2.73,0.52-3.52,1.56
		C343.62,342.73,343.23,344.17,343.23,346.01z"/>
	<path class="st6" d="M370.81,338.86c1.77,0,3.15,0.6,4.13,1.79c0.99,1.2,1.48,2.96,1.48,5.3s-0.52,4.13-1.55,5.38
		s-2.44,1.87-4.22,1.87c-1.21,0-2.19-0.26-2.94-0.78c-0.75-0.52-1.29-1.14-1.64-1.87h-0.1c0.03,0.43,0.06,0.91,0.08,1.42
		c0.02,0.51,0.03,0.98,0.03,1.42v5.69h-1.48v-19.97h1.22l0.18,2.57h0.08c0.35-0.75,0.9-1.4,1.66-1.98
		C368.51,339.15,369.53,338.86,370.81,338.86z M370.61,340.13c-1.54,0-2.68,0.49-3.41,1.46c-0.73,0.97-1.1,2.37-1.12,4.19v0.26
		c0,1.98,0.36,3.45,1.08,4.43c0.72,0.98,1.83,1.47,3.34,1.47c1.42,0,2.51-0.53,3.26-1.6c0.75-1.07,1.13-2.54,1.13-4.41
		c0-1.86-0.36-3.29-1.08-4.29C373.1,340.64,372.03,340.13,370.61,340.13z"/>
	<path class="st6" d="M391.74,346.01c0,1.46-0.24,2.72-0.71,3.8c-0.48,1.08-1.18,1.91-2.11,2.51c-0.93,0.6-2.06,0.9-3.39,0.9
		c-1.28,0-2.38-0.29-3.3-0.88c-0.92-0.59-1.62-1.43-2.12-2.51c-0.49-1.08-0.74-2.35-0.74-3.81c0-2.24,0.55-3.99,1.66-5.25
		c1.11-1.26,2.64-1.9,4.6-1.9c1.32,0,2.43,0.3,3.34,0.9c0.91,0.6,1.6,1.43,2.07,2.51C391.51,343.34,391.74,344.59,391.74,346.01z
		 M380.9,346.01c0,1.79,0.38,3.22,1.13,4.3s1.93,1.62,3.52,1.62c1.61,0,2.79-0.55,3.54-1.64c0.75-1.09,1.12-2.52,1.12-4.29
		c0-1.14-0.16-2.16-0.47-3.04c-0.31-0.88-0.81-1.58-1.48-2.08c-0.68-0.5-1.56-0.75-2.65-0.75c-1.56,0-2.73,0.52-3.52,1.56
		C381.3,342.73,380.9,344.17,380.9,346.01z"/>
	<path class="st6" d="M401.7,338.86c1.58,0,2.78,0.41,3.61,1.22c0.83,0.82,1.25,2.09,1.25,3.82v9.05h-1.46v-8.94
		c0-1.32-0.3-2.29-0.91-2.92c-0.61-0.63-1.49-0.95-2.65-0.95c-3.03,0-4.55,1.76-4.55,5.28v7.54h-1.48v-13.83h1.2l0.21,2.39h0.1
		c0.36-0.76,0.94-1.39,1.74-1.9C399.56,339.11,400.54,338.86,401.7,338.86z"/>
	<path class="st6" d="M414.91,351.94c0.38,0,0.75-0.03,1.09-0.08s0.65-0.13,0.91-0.23v1.2c-0.26,0.1-0.58,0.2-0.96,0.27
		c-0.38,0.08-0.79,0.12-1.22,0.12c-1.16,0-2.05-0.32-2.68-0.96c-0.62-0.64-0.94-1.69-0.94-3.15v-8.79h-2.05v-0.83l2.05-0.49
		l0.52-3.17h0.96v3.3h4.24v1.2h-4.24v8.71C412.6,350.97,413.37,351.94,414.91,351.94z"/>
	<path class="st6" d="M430.74,339.12v13.83h-1.2l-0.23-2.37h-0.08c-0.38,0.76-0.97,1.39-1.75,1.88c-0.79,0.49-1.77,0.74-2.95,0.74
		c-3.24,0-4.86-1.68-4.86-5.04v-9.05h1.48v8.92c0,1.33,0.3,2.32,0.9,2.95c0.6,0.63,1.49,0.95,2.67,0.95c3.03,0,4.55-1.76,4.55-5.28
		v-7.54H430.74z"/>
	<path class="st6" d="M440.23,338.89c1.56,0,2.72,0.38,3.48,1.14c0.76,0.76,1.14,1.97,1.14,3.61v9.31h-1.12l-0.26-2.34h-0.08
		c-0.5,0.78-1.11,1.41-1.83,1.88c-0.72,0.48-1.72,0.71-3,0.71c-1.33,0-2.38-0.33-3.15-1c-0.76-0.67-1.14-1.62-1.14-2.87
		c0-1.39,0.56-2.44,1.69-3.16c1.13-0.72,2.76-1.12,4.91-1.21l2.52-0.13v-0.96c0-1.35-0.27-2.31-0.82-2.89
		c-0.55-0.57-1.35-0.86-2.4-0.86c-0.71,0-1.4,0.1-2.05,0.29c-0.66,0.19-1.32,0.44-1.98,0.75l-0.47-1.2
		c0.66-0.31,1.37-0.57,2.15-0.78C438.6,338.99,439.4,338.89,440.23,338.89z M441.06,346.06c-1.77,0.09-3.08,0.39-3.94,0.92
		s-1.29,1.31-1.29,2.35c0,0.87,0.26,1.52,0.79,1.96c0.53,0.44,1.26,0.66,2.2,0.66c1.44,0,2.56-0.41,3.35-1.23
		c0.8-0.82,1.2-1.96,1.22-3.42v-1.35L441.06,346.06z"/>
	<path class="st6" d="M450.76,352.95h-1.48v-19.76h1.48V352.95z"/>
	<path class="st6" d="M457.18,350.22c-0.23,0.95-0.51,1.98-0.86,3.07s-0.72,2.1-1.12,3.02h-1.12c0.62-2.3,1.08-4.43,1.38-6.37h1.59
		L457.18,350.22z"/>
</g>
<g class="st5">
	<path class="st6" d="M159.24,370.06c1.37,0,2.44,0.39,3.21,1.17c0.77,0.78,1.16,2.01,1.16,3.69v9.23h-1.46v-9.18
		c0-1.23-0.28-2.15-0.84-2.74c-0.56-0.6-1.32-0.9-2.27-0.9c-1.32,0-2.33,0.39-3.04,1.16c-0.71,0.77-1.07,1.96-1.07,3.58v8.09h-1.46
		v-9.18c0-1.23-0.28-2.15-0.85-2.74c-0.56-0.6-1.32-0.9-2.27-0.9c-1.32,0-2.33,0.41-3.03,1.22c-0.7,0.81-1.05,2.06-1.05,3.74v7.85
		h-1.48v-13.83h1.2l0.21,2.18h0.1c0.35-0.68,0.87-1.25,1.57-1.73c0.7-0.48,1.6-0.71,2.69-0.71c1,0,1.85,0.22,2.55,0.65
		c0.69,0.43,1.19,1.08,1.48,1.92h0.08c0.4-0.82,0.99-1.45,1.78-1.9C157.23,370.29,158.16,370.06,159.24,370.06z"/>
	<path class="st6" d="M179.59,377.21c0,1.46-0.24,2.72-0.71,3.8c-0.48,1.08-1.18,1.91-2.11,2.51c-0.93,0.6-2.06,0.9-3.39,0.9
		c-1.28,0-2.38-0.29-3.3-0.88c-0.92-0.59-1.62-1.43-2.12-2.51c-0.49-1.08-0.74-2.35-0.74-3.81c0-2.24,0.55-3.99,1.66-5.25
		c1.11-1.26,2.64-1.9,4.6-1.9c1.32,0,2.43,0.3,3.34,0.9c0.91,0.6,1.6,1.43,2.07,2.51C179.36,374.54,179.59,375.79,179.59,377.21z
		 M168.75,377.21c0,1.79,0.38,3.22,1.13,4.3s1.93,1.62,3.52,1.62c1.61,0,2.79-0.55,3.54-1.64c0.75-1.09,1.12-2.52,1.12-4.29
		c0-1.14-0.16-2.16-0.47-3.04c-0.31-0.88-0.81-1.58-1.48-2.08c-0.68-0.5-1.56-0.75-2.65-0.75c-1.56,0-2.73,0.52-3.52,1.56
		C169.15,373.93,168.75,375.37,168.75,377.21z"/>
	<path class="st6" d="M197.82,370.06c1.37,0,2.44,0.39,3.21,1.17c0.77,0.78,1.16,2.01,1.16,3.69v9.23h-1.46v-9.18
		c0-1.23-0.28-2.15-0.84-2.74c-0.56-0.6-1.32-0.9-2.27-0.9c-1.32,0-2.33,0.39-3.04,1.16c-0.71,0.77-1.07,1.96-1.07,3.58v8.09h-1.46
		v-9.18c0-1.23-0.28-2.15-0.85-2.74c-0.56-0.6-1.32-0.9-2.27-0.9c-1.32,0-2.33,0.41-3.03,1.22c-0.7,0.81-1.05,2.06-1.05,3.74v7.85
		h-1.48v-13.83h1.2l0.21,2.18h0.1c0.35-0.68,0.87-1.25,1.57-1.73c0.7-0.48,1.6-0.71,2.69-0.71c1,0,1.85,0.22,2.55,0.65
		c0.69,0.43,1.19,1.08,1.48,1.92h0.08c0.4-0.82,0.99-1.45,1.78-1.9C195.81,370.29,196.75,370.06,197.82,370.06z"/>
	<path class="st6" d="M211.86,370.06c1.18,0,2.16,0.27,2.95,0.82c0.79,0.55,1.39,1.3,1.79,2.25c0.41,0.95,0.61,2.05,0.61,3.28v1.01
		h-9.88c0,1.84,0.43,3.25,1.29,4.23c0.86,0.98,2.08,1.47,3.68,1.47c0.85,0,1.59-0.07,2.24-0.22s1.34-0.39,2.11-0.71v1.35
		c-0.69,0.31-1.38,0.54-2.05,0.68s-1.46,0.21-2.34,0.21c-2.08,0-3.68-0.63-4.78-1.9c-1.11-1.27-1.66-2.99-1.66-5.17
		c0-1.4,0.24-2.65,0.71-3.74c0.48-1.09,1.17-1.95,2.07-2.59C209.48,370.38,210.58,370.06,211.86,370.06z M211.83,371.31
		c-1.27,0-2.29,0.42-3.08,1.27c-0.79,0.85-1.24,2.05-1.37,3.61h8.29c0-1.46-0.32-2.63-0.95-3.54
		C214.1,371.76,213.13,371.31,211.83,371.31z"/>
	<path class="st6" d="M227.15,370.06c1.58,0,2.78,0.41,3.61,1.22c0.83,0.82,1.25,2.09,1.25,3.82v9.05h-1.46v-8.94
		c0-1.32-0.3-2.29-0.91-2.92c-0.61-0.63-1.49-0.95-2.65-0.95c-3.03,0-4.55,1.76-4.55,5.28v7.54h-1.48v-13.83h1.2l0.21,2.39h0.1
		c0.36-0.76,0.94-1.39,1.74-1.9C225.01,370.31,225.99,370.06,227.15,370.06z"/>
	<path class="st6" d="M240.36,383.14c0.38,0,0.75-0.03,1.09-0.08s0.65-0.13,0.91-0.23v1.2c-0.26,0.1-0.58,0.2-0.96,0.27
		c-0.38,0.08-0.79,0.12-1.22,0.12c-1.16,0-2.05-0.32-2.68-0.96c-0.62-0.64-0.94-1.69-0.94-3.15v-8.79h-2.05v-0.83l2.05-0.49
		l0.52-3.17h0.96v3.3h4.24v1.2h-4.24v8.71C238.04,382.17,238.81,383.14,240.36,383.14z"/>
	<path class="st6" d="M250.18,370.09c1.56,0,2.72,0.38,3.48,1.14c0.76,0.76,1.14,1.97,1.14,3.61v9.31h-1.12l-0.26-2.34h-0.08
		c-0.5,0.78-1.11,1.41-1.83,1.88c-0.72,0.48-1.72,0.71-3,0.71c-1.33,0-2.38-0.33-3.15-1c-0.76-0.67-1.14-1.62-1.14-2.87
		c0-1.39,0.56-2.44,1.69-3.16c1.13-0.72,2.76-1.12,4.91-1.21l2.52-0.13v-0.96c0-1.35-0.27-2.31-0.82-2.89
		c-0.55-0.57-1.35-0.86-2.4-0.86c-0.71,0-1.4,0.1-2.05,0.29c-0.66,0.19-1.32,0.44-1.98,0.75l-0.47-1.2
		c0.66-0.31,1.37-0.57,2.15-0.78C248.55,370.19,249.35,370.09,250.18,370.09z M251.02,377.26c-1.77,0.09-3.08,0.39-3.94,0.92
		s-1.29,1.31-1.29,2.35c0,0.87,0.26,1.52,0.79,1.96c0.53,0.44,1.26,0.66,2.2,0.66c1.44,0,2.56-0.41,3.35-1.23
		c0.8-0.82,1.2-1.96,1.22-3.42v-1.35L251.02,377.26z M250.73,364.26c0.21,0.38,0.49,0.81,0.86,1.29c0.36,0.48,0.75,0.95,1.14,1.42
		c0.4,0.47,0.76,0.87,1.09,1.2v0.23h-1.07c-0.47-0.38-0.94-0.82-1.43-1.33s-0.94-1-1.35-1.48c-0.42,0.49-0.86,0.98-1.34,1.48
		c-0.48,0.5-0.95,0.95-1.42,1.33h-1.07v-0.23c0.33-0.35,0.69-0.75,1.09-1.21c0.4-0.46,0.78-0.93,1.14-1.4
		c0.36-0.48,0.66-0.91,0.88-1.29H250.73z"/>
	<path class="st6" d="M265.42,370.06c1.58,0,2.78,0.41,3.61,1.22c0.83,0.82,1.25,2.09,1.25,3.82v9.05h-1.46v-8.94
		c0-1.32-0.3-2.29-0.91-2.92c-0.61-0.63-1.49-0.95-2.65-0.95c-3.03,0-4.55,1.76-4.55,5.28v7.54h-1.48v-13.83h1.2l0.21,2.39h0.1
		c0.36-0.76,0.94-1.39,1.74-1.9C263.28,370.31,264.26,370.06,265.42,370.06z"/>
	<path class="st6" d="M279.98,370.06c1.18,0,2.16,0.27,2.95,0.82c0.79,0.55,1.39,1.3,1.79,2.25c0.41,0.95,0.61,2.05,0.61,3.28v1.01
		h-9.88c0,1.84,0.43,3.25,1.29,4.23c0.86,0.98,2.08,1.47,3.68,1.47c0.85,0,1.59-0.07,2.24-0.22s1.34-0.39,2.11-0.71v1.35
		c-0.69,0.31-1.38,0.54-2.05,0.68s-1.46,0.21-2.34,0.21c-2.08,0-3.68-0.63-4.78-1.9c-1.11-1.27-1.66-2.99-1.66-5.17
		c0-1.4,0.24-2.65,0.71-3.74c0.48-1.09,1.17-1.95,2.07-2.59C277.6,370.38,278.7,370.06,279.98,370.06z M279.95,371.31
		c-1.27,0-2.29,0.42-3.08,1.27c-0.79,0.85-1.24,2.05-1.37,3.61h8.29c0-1.46-0.32-2.63-0.95-3.54
		C282.22,371.76,281.25,371.31,279.95,371.31z"/>
	<path class="st6" d="M300.65,377.21c0,1.46-0.24,2.72-0.71,3.8c-0.48,1.08-1.18,1.91-2.11,2.51c-0.93,0.6-2.06,0.9-3.39,0.9
		c-1.28,0-2.38-0.29-3.3-0.88c-0.92-0.59-1.62-1.43-2.12-2.51c-0.49-1.08-0.74-2.35-0.74-3.81c0-2.24,0.55-3.99,1.66-5.25
		c1.11-1.26,2.64-1.9,4.6-1.9c1.32,0,2.43,0.3,3.34,0.9c0.91,0.6,1.6,1.43,2.07,2.51C300.41,374.54,300.65,375.79,300.65,377.21z
		 M289.81,377.21c0,1.79,0.38,3.22,1.13,4.3s1.93,1.62,3.52,1.62c1.61,0,2.79-0.55,3.54-1.64c0.75-1.09,1.12-2.52,1.12-4.29
		c0-1.14-0.16-2.16-0.47-3.04c-0.31-0.88-0.81-1.58-1.48-2.08c-0.68-0.5-1.56-0.75-2.65-0.75c-1.56,0-2.73,0.52-3.52,1.56
		C290.2,373.93,289.81,375.37,289.81,377.21z"/>
	<path class="st6" d="M316.43,370.06c1.18,0,2.16,0.27,2.95,0.82c0.79,0.55,1.39,1.3,1.79,2.25c0.41,0.95,0.61,2.05,0.61,3.28v1.01
		h-9.88c0,1.84,0.43,3.25,1.29,4.23c0.86,0.98,2.08,1.47,3.68,1.47c0.85,0,1.59-0.07,2.24-0.22s1.34-0.39,2.11-0.71v1.35
		c-0.69,0.31-1.38,0.54-2.05,0.68s-1.46,0.21-2.34,0.21c-2.08,0-3.68-0.63-4.78-1.9c-1.11-1.27-1.66-2.99-1.66-5.17
		c0-1.4,0.24-2.65,0.71-3.74c0.48-1.09,1.17-1.95,2.07-2.59C314.06,370.38,315.15,370.06,316.43,370.06z M316.4,371.31
		c-1.27,0-2.29,0.42-3.08,1.27c-0.79,0.85-1.24,2.05-1.37,3.61h8.29c0-1.46-0.32-2.63-0.95-3.54
		C318.67,371.76,317.7,371.31,316.4,371.31z"/>
	<path class="st6" d="M336.19,383.14c0.38,0,0.75-0.03,1.09-0.08s0.65-0.13,0.91-0.23v1.2c-0.26,0.1-0.58,0.2-0.96,0.27
		c-0.38,0.08-0.79,0.12-1.22,0.12c-1.16,0-2.05-0.32-2.68-0.96c-0.62-0.64-0.94-1.69-0.94-3.15v-8.79h-2.05v-0.83l2.05-0.49
		l0.52-3.17h0.96v3.3h4.24v1.2h-4.24v8.71C333.88,382.17,334.65,383.14,336.19,383.14z"/>
	<path class="st6" d="M346.82,370.09c0.68,0,1.3,0.07,1.87,0.21l-0.23,1.38c-0.56-0.16-1.13-0.23-1.72-0.23
		c-1.27,0-2.27,0.47-3.02,1.4c-0.75,0.94-1.12,2.17-1.12,3.72v7.59h-1.48v-13.83h1.25l0.16,2.57h0.08c0.35-0.78,0.88-1.44,1.59-1.99
		C344.91,370.36,345.78,370.09,346.82,370.09z"/>
	<path class="st6" d="M355.74,370.09c1.56,0,2.72,0.38,3.48,1.14c0.76,0.76,1.14,1.97,1.14,3.61v9.31h-1.12l-0.26-2.34h-0.08
		c-0.5,0.78-1.11,1.41-1.83,1.88c-0.72,0.48-1.72,0.71-3,0.71c-1.33,0-2.38-0.33-3.15-1c-0.76-0.67-1.14-1.62-1.14-2.87
		c0-1.39,0.56-2.44,1.69-3.16c1.13-0.72,2.76-1.12,4.91-1.21l2.52-0.13v-0.96c0-1.35-0.27-2.31-0.82-2.89
		c-0.55-0.57-1.35-0.86-2.4-0.86c-0.71,0-1.4,0.1-2.05,0.29c-0.66,0.19-1.32,0.44-1.98,0.75l-0.47-1.2
		c0.66-0.31,1.37-0.57,2.15-0.78C354.11,370.19,354.91,370.09,355.74,370.09z M356.57,377.26c-1.77,0.09-3.08,0.39-3.94,0.92
		s-1.29,1.31-1.29,2.35c0,0.87,0.26,1.52,0.79,1.96c0.53,0.44,1.26,0.66,2.2,0.66c1.44,0,2.56-0.41,3.35-1.23
		c0.8-0.82,1.2-1.96,1.22-3.42v-1.35L356.57,377.26z"/>
	<path class="st6" d="M370.98,370.06c1.58,0,2.78,0.41,3.61,1.22c0.83,0.82,1.25,2.09,1.25,3.82v9.05h-1.46v-8.94
		c0-1.32-0.3-2.29-0.91-2.92c-0.61-0.63-1.49-0.95-2.65-0.95c-3.03,0-4.55,1.76-4.55,5.28v7.54h-1.48v-13.83h1.2l0.21,2.39h0.1
		c0.36-0.76,0.94-1.39,1.74-1.9C368.84,370.31,369.82,370.06,370.98,370.06z"/>
	<path class="st6" d="M389,380.49c0,1.25-0.47,2.21-1.4,2.9c-0.94,0.68-2.25,1.03-3.95,1.03c-0.97,0-1.83-0.08-2.57-0.25
		c-0.75-0.16-1.37-0.38-1.87-0.64v-1.43c0.61,0.31,1.3,0.57,2.08,0.77c0.78,0.2,1.58,0.3,2.39,0.3c1.35,0,2.34-0.23,2.95-0.69
		c0.61-0.46,0.92-1.09,0.92-1.88c0-0.76-0.32-1.35-0.96-1.76c-0.64-0.41-1.59-0.83-2.83-1.26c-0.87-0.29-1.62-0.59-2.27-0.9
		c-0.65-0.3-1.16-0.69-1.52-1.16c-0.36-0.47-0.55-1.11-0.55-1.92c0-1.11,0.45-1.98,1.35-2.6s2.11-0.94,3.61-0.94
		c0.83,0,1.61,0.08,2.33,0.23c0.72,0.16,1.38,0.36,1.99,0.62l-0.55,1.22c-0.54-0.23-1.14-0.42-1.82-0.58
		c-0.68-0.17-1.35-0.25-2.03-0.25c-1.09,0-1.94,0.19-2.55,0.57c-0.61,0.38-0.91,0.94-0.91,1.66c0,0.56,0.15,0.99,0.44,1.31
		c0.29,0.32,0.72,0.59,1.27,0.82c0.55,0.22,1.23,0.48,2.03,0.75c0.83,0.29,1.58,0.6,2.24,0.91c0.66,0.31,1.19,0.71,1.59,1.2
		C388.8,379.02,389,379.67,389,380.49z"/>
	<path class="st6" d="M393.23,365.2c0.68,0,1.01,0.37,1.01,1.12c0,0.76-0.34,1.14-1.01,1.14s-1.01-0.38-1.01-1.14
		C392.22,365.57,392.56,365.2,393.23,365.2z M393.96,370.32v13.83h-1.48v-13.83H393.96z"/>
	<path class="st6" d="M402.44,383.14c0.38,0,0.75-0.03,1.09-0.08s0.65-0.13,0.91-0.23v1.2c-0.26,0.1-0.58,0.2-0.96,0.27
		c-0.38,0.08-0.79,0.12-1.22,0.12c-1.16,0-2.05-0.32-2.68-0.96c-0.62-0.64-0.94-1.69-0.94-3.15v-8.79h-2.05v-0.83l2.05-0.49
		l0.52-3.17h0.96v3.3h4.24v1.2h-4.24v8.71C400.12,382.17,400.89,383.14,402.44,383.14z"/>
	<path class="st6" d="M418.95,377.21c0,1.46-0.24,2.72-0.71,3.8c-0.48,1.08-1.18,1.91-2.11,2.51c-0.93,0.6-2.06,0.9-3.39,0.9
		c-1.28,0-2.38-0.29-3.3-0.88c-0.92-0.59-1.62-1.43-2.12-2.51c-0.49-1.08-0.74-2.35-0.74-3.81c0-2.24,0.55-3.99,1.66-5.25
		c1.11-1.26,2.64-1.9,4.6-1.9c1.32,0,2.43,0.3,3.34,0.9c0.91,0.6,1.6,1.43,2.07,2.51C418.71,374.54,418.95,375.79,418.95,377.21z
		 M408.11,377.21c0,1.79,0.38,3.22,1.13,4.3s1.93,1.62,3.52,1.62c1.61,0,2.79-0.55,3.54-1.64c0.75-1.09,1.12-2.52,1.12-4.29
		c0-1.14-0.16-2.16-0.47-3.04c-0.31-0.88-0.81-1.58-1.48-2.08c-0.68-0.5-1.56-0.75-2.65-0.75c-1.56,0-2.73,0.52-3.52,1.56
		C408.5,373.93,408.11,375.37,408.11,377.21z M416.32,364.44c-0.26,0.36-0.6,0.79-1.03,1.27c-0.42,0.49-0.88,0.97-1.37,1.44
		c-0.49,0.48-0.94,0.89-1.38,1.24h-1.04v-0.23c0.33-0.33,0.68-0.73,1.07-1.2c0.38-0.47,0.75-0.95,1.1-1.43
		c0.36-0.48,0.65-0.92,0.87-1.3h1.77V364.44z"/>
	<path class="st6" d="M428.41,370.09c0.68,0,1.3,0.07,1.87,0.21l-0.23,1.38c-0.56-0.16-1.13-0.23-1.72-0.23
		c-1.27,0-2.27,0.47-3.02,1.4c-0.75,0.94-1.12,2.17-1.12,3.72v7.59h-1.48v-13.83h1.25l0.16,2.57h0.08c0.35-0.78,0.88-1.44,1.59-1.99
		C426.5,370.36,427.37,370.09,428.41,370.09z"/>
	<path class="st6" d="M433.71,365.2c0.68,0,1.01,0.37,1.01,1.12c0,0.76-0.34,1.14-1.01,1.14s-1.01-0.38-1.01-1.14
		C432.7,365.57,433.04,365.2,433.71,365.2z M434.44,370.32v13.83h-1.48v-13.83H434.44z"/>
	<path class="st6" d="M450.59,377.21c0,1.46-0.24,2.72-0.71,3.8c-0.48,1.08-1.18,1.91-2.11,2.51c-0.93,0.6-2.06,0.9-3.39,0.9
		c-1.28,0-2.38-0.29-3.3-0.88c-0.92-0.59-1.62-1.43-2.12-2.51c-0.49-1.08-0.74-2.35-0.74-3.81c0-2.24,0.55-3.99,1.66-5.25
		c1.11-1.26,2.64-1.9,4.6-1.9c1.32,0,2.43,0.3,3.34,0.9c0.91,0.6,1.6,1.43,2.07,2.51C450.35,374.54,450.59,375.79,450.59,377.21z
		 M439.75,377.21c0,1.79,0.38,3.22,1.13,4.3s1.93,1.62,3.52,1.62c1.61,0,2.79-0.55,3.54-1.64c0.75-1.09,1.12-2.52,1.12-4.29
		c0-1.14-0.16-2.16-0.47-3.04c-0.31-0.88-0.81-1.58-1.48-2.08c-0.68-0.5-1.56-0.75-2.65-0.75c-1.56,0-2.73,0.52-3.52,1.56
		C440.14,373.93,439.75,375.37,439.75,377.21z"/>
	<path class="st6" d="M454.12,383.14c0-0.85,0.37-1.27,1.12-1.27c0.78,0,1.17,0.42,1.17,1.27c0,0.87-0.39,1.3-1.17,1.3
		C454.5,384.44,454.12,384,454.12,383.14z"/>
</g>
<rect x="801.6" y="301.67" class="st4" width="412.68" height="122.18"/>
<g class="st5">
	<path class="st7" d="M807.24,302.86c-0.24,1.11-0.48,2.29-0.71,3.54s-0.41,2.36-0.53,3.33h-3.93l-0.18-0.29
		c0.16-0.62,0.35-1.32,0.6-2.09c0.24-0.77,0.51-1.55,0.79-2.34s0.57-1.5,0.84-2.15H807.24z M813.43,302.86
		c-0.24,1.11-0.48,2.29-0.71,3.54c-0.23,1.25-0.41,2.36-0.53,3.33h-3.93l-0.18-0.29c0.16-0.62,0.36-1.32,0.6-2.09
		c0.24-0.77,0.5-1.55,0.78-2.34s0.56-1.5,0.86-2.15H813.43z"/>
	<path class="st7" d="M823.96,321.43l-4.16-14.01h-0.1c0.02,0.35,0.05,0.84,0.09,1.5c0.04,0.65,0.08,1.35,0.12,2.09
		c0.03,0.75,0.05,1.43,0.05,2.05v8.37h-3.95v-18.56h5.98l4.13,13.73h0.1l4.26-13.73h5.95v18.56h-4.11v-8.48
		c0-0.59,0.01-1.24,0.04-1.96c0.03-0.72,0.05-1.4,0.08-2.05c0.03-0.65,0.05-1.15,0.06-1.5h-0.1l-4.29,13.99H823.96z"/>
	<path class="st7" d="M853.78,314.25c0,2.39-0.63,4.23-1.89,5.51c-1.26,1.28-2.98,1.92-5.16,1.92c-1.35,0-2.55-0.29-3.6-0.87
		c-1.05-0.58-1.87-1.42-2.47-2.52c-0.6-1.1-0.9-2.45-0.9-4.04c0-2.36,0.63-4.17,1.88-5.45s2.98-1.91,5.16-1.91
		c1.35,0,2.55,0.29,3.6,0.86c1.05,0.57,1.87,1.4,2.47,2.5C853.48,311.34,853.78,312.68,853.78,314.25z M844.22,314.25
		c0,1.33,0.2,2.34,0.6,3.03c0.4,0.69,1.06,1.03,1.98,1.03c0.9,0,1.55-0.34,1.95-1.03c0.4-0.68,0.6-1.69,0.6-3.03
		c0-1.32-0.2-2.31-0.6-2.98c-0.4-0.67-1.06-1-1.98-1c-0.9,0-1.55,0.33-1.95,1C844.42,311.94,844.22,312.94,844.22,314.25z"/>
	<path class="st7" d="M865.09,306.89c0.23,0,0.48,0.01,0.75,0.04s0.49,0.06,0.65,0.09l-0.36,4.11c-0.16-0.03-0.36-0.07-0.6-0.09
		c-0.24-0.03-0.51-0.04-0.81-0.04c-0.55,0-1.1,0.09-1.65,0.26c-0.55,0.17-1,0.5-1.35,0.97c-0.36,0.48-0.53,1.16-0.53,2.04v7.15
		h-4.39v-14.27h3.3l0.68,2.34h0.18c0.42-0.71,0.99-1.32,1.72-1.83C863.4,307.15,864.21,306.89,865.09,306.89z"/>
	<path class="st7" d="M874.66,306.87c1.85,0,3.29,0.43,4.32,1.3s1.53,2.13,1.53,3.8v9.46h-3.04l-0.86-1.92h-0.1
		c-0.61,0.78-1.25,1.34-1.92,1.68s-1.6,0.51-2.78,0.51c-1.27,0-2.31-0.37-3.15-1.12c-0.83-0.75-1.25-1.9-1.25-3.46
		c0-1.51,0.53-2.63,1.6-3.37c1.07-0.74,2.63-1.15,4.69-1.24l2.44-0.08v-0.42c0-0.69-0.18-1.2-0.53-1.51
		c-0.36-0.31-0.84-0.47-1.47-0.47s-1.27,0.1-1.95,0.3c-0.68,0.2-1.36,0.45-2.05,0.74l-1.33-2.91c0.78-0.42,1.66-0.74,2.65-0.96
		S873.52,306.87,874.66,306.87z M874.82,314.98c-1.09,0.04-1.85,0.23-2.29,0.58c-0.43,0.36-0.65,0.84-0.65,1.44
		c0,0.54,0.16,0.93,0.47,1.17c0.31,0.24,0.71,0.36,1.2,0.36c0.73,0,1.34-0.22,1.85-0.66c0.5-0.44,0.75-1.04,0.75-1.81v-1.14
		L874.82,314.98z"/>
	<path class="st7" d="M888.7,321.69c-1.54,0-2.8-0.62-3.77-1.87s-1.46-3.08-1.46-5.51c0-2.44,0.49-4.29,1.48-5.54
		c0.99-1.25,2.28-1.87,3.87-1.87c1,0,1.82,0.2,2.44,0.6c0.62,0.4,1.13,0.89,1.51,1.48h0.1c-0.05-0.31-0.11-0.76-0.17-1.34
		c-0.06-0.58-0.09-1.16-0.09-1.73v-4.24h4.39v19.76h-3.33l-0.88-1.85h-0.18c-0.36,0.59-0.86,1.09-1.48,1.5
		C890.52,321.48,889.71,321.69,888.7,321.69z M890.37,318.21c0.94,0,1.6-0.29,1.99-0.86c0.39-0.57,0.59-1.44,0.61-2.6v-0.39
		c0-1.26-0.19-2.24-0.56-2.91c-0.37-0.68-1.07-1.01-2.09-1.01c-0.75,0-1.33,0.33-1.77,0.99c-0.43,0.66-0.65,1.65-0.65,2.96
		c0,1.3,0.22,2.26,0.66,2.89C889,317.89,889.6,318.21,890.37,318.21z"/>
	<path class="st7" d="M914.08,314.25c0,2.39-0.63,4.23-1.88,5.51c-1.26,1.28-2.98,1.92-5.16,1.92c-1.35,0-2.55-0.29-3.6-0.87
		c-1.05-0.58-1.87-1.42-2.47-2.52c-0.6-1.1-0.9-2.45-0.9-4.04c0-2.36,0.63-4.17,1.88-5.45s2.98-1.91,5.16-1.91
		c1.35,0,2.55,0.29,3.6,0.86s1.87,1.4,2.47,2.5C913.78,311.34,914.08,312.68,914.08,314.25z M904.51,314.25
		c0,1.33,0.2,2.34,0.6,3.03c0.4,0.69,1.06,1.03,1.98,1.03c0.9,0,1.55-0.34,1.95-1.03c0.4-0.68,0.6-1.69,0.6-3.03
		c0-1.32-0.2-2.31-0.6-2.98c-0.4-0.67-1.06-1-1.98-1c-0.9,0-1.55,0.33-1.95,1C904.71,311.94,904.51,312.94,904.51,314.25z"/>
	<path class="st7" d="M925.39,306.89c0.22,0,0.48,0.01,0.75,0.04s0.49,0.06,0.65,0.09l-0.36,4.11c-0.16-0.03-0.36-0.07-0.6-0.09
		c-0.24-0.03-0.51-0.04-0.81-0.04c-0.55,0-1.11,0.09-1.65,0.26c-0.55,0.17-1,0.5-1.35,0.97c-0.36,0.48-0.53,1.16-0.53,2.04v7.15
		h-4.39v-14.27h3.3l0.68,2.34h0.18c0.42-0.71,0.99-1.32,1.72-1.83C923.7,307.15,924.5,306.89,925.39,306.89z"/>
	<path class="st7" d="M940.34,321.69c-1.54,0-2.8-0.62-3.77-1.87c-0.97-1.25-1.46-3.08-1.46-5.51c0-2.44,0.49-4.29,1.48-5.54
		c0.99-1.25,2.28-1.87,3.87-1.87c1,0,1.82,0.2,2.44,0.6c0.62,0.4,1.13,0.89,1.51,1.48h0.1c-0.05-0.31-0.11-0.76-0.17-1.34
		c-0.06-0.58-0.09-1.16-0.09-1.73v-4.24h4.39v19.76h-3.33l-0.88-1.85h-0.18c-0.36,0.59-0.86,1.09-1.48,1.5
		C942.16,321.48,941.34,321.69,940.34,321.69z M942,318.21c0.94,0,1.6-0.29,1.99-0.86c0.39-0.57,0.59-1.44,0.61-2.6v-0.39
		c0-1.26-0.19-2.24-0.56-2.91c-0.37-0.68-1.07-1.01-2.09-1.01c-0.75,0-1.33,0.33-1.77,0.99c-0.43,0.66-0.65,1.65-0.65,2.96
		c0,1.3,0.22,2.26,0.66,2.89C940.64,317.89,941.24,318.21,942,318.21z"/>
	<path class="st7" d="M958.59,306.89c2.01,0,3.61,0.55,4.78,1.65s1.77,2.72,1.77,4.85v2.03h-9.02c0.03,0.94,0.34,1.68,0.91,2.24
		c0.57,0.55,1.39,0.83,2.44,0.83c0.9,0,1.73-0.09,2.48-0.26c0.75-0.17,1.53-0.45,2.33-0.83v3.25c-0.71,0.36-1.46,0.63-2.25,0.79
		c-0.79,0.17-1.76,0.25-2.92,0.25c-1.44,0-2.72-0.26-3.83-0.78c-1.12-0.52-1.99-1.32-2.63-2.41s-0.95-2.46-0.95-4.12
		c0-1.68,0.29-3.08,0.86-4.19c0.57-1.11,1.37-1.94,2.41-2.48S957.2,306.89,958.59,306.89z M958.67,309.94
		c-0.68,0-1.24,0.21-1.68,0.64c-0.44,0.43-0.71,1.1-0.79,2.02h4.91c-0.02-0.75-0.23-1.37-0.62-1.88
		C960.09,310.19,959.48,309.94,958.67,309.94z"/>
	<path class="st7" d="M983.16,306.89c0.23,0,0.48,0.01,0.75,0.04s0.49,0.06,0.65,0.09l-0.36,4.11c-0.16-0.03-0.36-0.07-0.6-0.09
		c-0.24-0.03-0.51-0.04-0.81-0.04c-0.55,0-1.1,0.09-1.65,0.26c-0.55,0.17-1,0.5-1.35,0.97c-0.36,0.48-0.53,1.16-0.53,2.04v7.15
		h-4.39v-14.27h3.3l0.68,2.34h0.18c0.42-0.71,0.99-1.32,1.72-1.83C981.47,307.15,982.27,306.89,983.16,306.89z"/>
	<path class="st7" d="M1000.34,307.15v14.27h-3.33l-0.57-1.82h-0.26c-0.45,0.73-1.07,1.26-1.85,1.59s-1.61,0.49-2.5,0.49
		c-1.47,0-2.68-0.42-3.63-1.25c-0.95-0.83-1.42-2.16-1.42-3.98v-9.31h4.39v8.09c0,0.97,0.16,1.71,0.48,2.21
		c0.32,0.5,0.84,0.75,1.55,0.75c1.06,0,1.78-0.39,2.16-1.17c0.38-0.78,0.57-1.91,0.57-3.38v-6.5H1000.34z"/>
	<path class="st7" d="M1010.48,306.87c1.85,0,3.29,0.43,4.32,1.3c1.02,0.87,1.53,2.13,1.53,3.8v9.46h-3.04l-0.86-1.92h-0.1
		c-0.61,0.78-1.25,1.34-1.92,1.68c-0.68,0.34-1.6,0.51-2.78,0.51c-1.27,0-2.31-0.37-3.15-1.12c-0.83-0.75-1.25-1.9-1.25-3.46
		c0-1.51,0.53-2.63,1.6-3.37c1.07-0.74,2.63-1.15,4.69-1.24l2.44-0.08v-0.42c0-0.69-0.18-1.2-0.53-1.51
		c-0.36-0.31-0.84-0.47-1.47-0.47s-1.27,0.1-1.95,0.3s-1.36,0.45-2.05,0.74l-1.33-2.91c0.78-0.42,1.66-0.74,2.65-0.96
		C1008.27,306.98,1009.34,306.87,1010.48,306.87z M1010.64,314.98c-1.09,0.04-1.86,0.23-2.29,0.58c-0.43,0.36-0.65,0.84-0.65,1.44
		c0,0.54,0.16,0.93,0.47,1.17c0.31,0.24,0.71,0.36,1.2,0.36c0.73,0,1.34-0.22,1.85-0.66c0.5-0.44,0.75-1.04,0.75-1.81v-1.14
		L1010.64,314.98z"/>
	<path class="st7" d="M1023.64,303.15c-0.16,0.62-0.36,1.33-0.6,2.11c-0.24,0.78-0.5,1.56-0.78,2.34c-0.28,0.78-0.56,1.49-0.86,2.13
		h-3.12c0.24-1.09,0.48-2.27,0.71-3.52c0.23-1.26,0.41-2.37,0.53-3.34h3.93L1023.64,303.15z M1029.83,303.15
		c-0.16,0.62-0.36,1.33-0.6,2.11c-0.24,0.78-0.51,1.56-0.79,2.34s-0.57,1.49-0.84,2.13h-3.15c0.26-1.09,0.51-2.27,0.74-3.52
		c0.23-1.26,0.41-2.37,0.53-3.34h3.93L1029.83,303.15z"/>
</g>
<g class="st5">
	<path class="st7" d="M1043.84,320.42c0.38,0,0.75-0.03,1.09-0.08s0.65-0.13,0.91-0.23v1.2c-0.26,0.1-0.58,0.2-0.96,0.27
		c-0.38,0.08-0.79,0.12-1.22,0.12c-1.16,0-2.05-0.32-2.68-0.96c-0.62-0.64-0.94-1.69-0.94-3.15v-8.79h-2.05v-0.83l2.05-0.49
		l0.52-3.17h0.96v3.3h4.24v1.2h-4.24v8.71C1041.53,319.44,1042.3,320.42,1043.84,320.42z"/>
	<path class="st7" d="M1054.47,307.36c0.68,0,1.3,0.07,1.87,0.21l-0.23,1.38c-0.55-0.16-1.13-0.23-1.72-0.23
		c-1.27,0-2.27,0.47-3.02,1.4c-0.75,0.94-1.12,2.17-1.12,3.72v7.59h-1.48V307.6h1.25l0.16,2.57h0.08c0.35-0.78,0.88-1.44,1.59-1.99
		C1052.56,307.64,1053.43,307.36,1054.47,307.36z"/>
	<path class="st7" d="M1063.39,307.36c1.56,0,2.72,0.38,3.48,1.14c0.76,0.76,1.14,1.97,1.14,3.61v9.31h-1.12l-0.26-2.34h-0.08
		c-0.5,0.78-1.11,1.41-1.83,1.88c-0.72,0.48-1.72,0.71-3,0.71c-1.33,0-2.38-0.33-3.15-1c-0.76-0.67-1.14-1.62-1.14-2.87
		c0-1.39,0.56-2.44,1.69-3.16c1.13-0.72,2.76-1.12,4.91-1.21l2.52-0.13v-0.96c0-1.35-0.27-2.31-0.82-2.89
		c-0.55-0.57-1.35-0.86-2.4-0.86c-0.71,0-1.4,0.1-2.05,0.29c-0.66,0.19-1.32,0.44-1.98,0.75l-0.47-1.2
		c0.66-0.31,1.37-0.57,2.14-0.78S1062.56,307.36,1063.39,307.36z M1064.22,314.54c-1.77,0.09-3.08,0.39-3.94,0.92
		c-0.86,0.53-1.29,1.31-1.29,2.35c0,0.87,0.26,1.52,0.79,1.96c0.53,0.44,1.26,0.66,2.2,0.66c1.44,0,2.56-0.41,3.35-1.23
		c0.8-0.82,1.2-1.96,1.22-3.42v-1.35L1064.22,314.54z"/>
	<path class="st7" d="M1081.12,321.43h-9.93v-0.99l8.11-11.65h-7.54v-1.2h9.31v1.04l-8.09,11.57h8.14V321.43z"/>
	<path class="st7" d="M1102.13,307.6v13.83h-1.2l-0.23-2.37h-0.08c-0.38,0.76-0.97,1.39-1.75,1.88c-0.79,0.49-1.77,0.74-2.95,0.74
		c-3.24,0-4.86-1.68-4.86-5.04v-9.05h1.48v8.92c0,1.33,0.3,2.32,0.9,2.95s1.49,0.95,2.67,0.95c3.03,0,4.55-1.76,4.55-5.28v-7.54
		H1102.13z"/>
	<path class="st7" d="M1121.19,307.34c1.37,0,2.44,0.39,3.21,1.17c0.77,0.78,1.16,2.01,1.16,3.69v9.23h-1.46v-9.18
		c0-1.23-0.28-2.15-0.84-2.74s-1.32-0.9-2.27-0.9c-1.32,0-2.33,0.39-3.04,1.16c-0.71,0.77-1.07,1.96-1.07,3.58v8.09h-1.46v-9.18
		c0-1.23-0.28-2.15-0.84-2.74c-0.56-0.6-1.32-0.9-2.28-0.9c-1.32,0-2.33,0.41-3.03,1.22c-0.7,0.81-1.05,2.06-1.05,3.74v7.85h-1.48
		V307.6h1.2l0.21,2.18h0.1c0.35-0.68,0.87-1.25,1.57-1.73c0.7-0.48,1.6-0.71,2.69-0.71c1,0,1.85,0.22,2.55,0.65
		c0.69,0.43,1.19,1.08,1.48,1.92h0.08c0.4-0.82,0.99-1.45,1.78-1.9C1119.18,307.56,1120.12,307.34,1121.19,307.34z"/>
	<path class="st7" d="M1134.87,307.36c1.56,0,2.72,0.38,3.48,1.14c0.76,0.76,1.14,1.97,1.14,3.61v9.31h-1.12l-0.26-2.34h-0.08
		c-0.5,0.78-1.11,1.41-1.83,1.88c-0.72,0.48-1.72,0.71-3,0.71c-1.33,0-2.38-0.33-3.15-1c-0.76-0.67-1.14-1.62-1.14-2.87
		c0-1.39,0.56-2.44,1.69-3.16c1.13-0.72,2.76-1.12,4.91-1.21l2.52-0.13v-0.96c0-1.35-0.27-2.31-0.82-2.89
		c-0.55-0.57-1.35-0.86-2.4-0.86c-0.71,0-1.4,0.1-2.05,0.29c-0.66,0.19-1.32,0.44-1.98,0.75l-0.47-1.2
		c0.66-0.31,1.37-0.57,2.14-0.78S1134.03,307.36,1134.87,307.36z M1135.7,314.54c-1.77,0.09-3.08,0.39-3.94,0.92
		c-0.86,0.53-1.29,1.31-1.29,2.35c0,0.87,0.26,1.52,0.79,1.96c0.53,0.44,1.26,0.66,2.2,0.66c1.44,0,2.56-0.41,3.35-1.23
		c0.8-0.82,1.2-1.96,1.22-3.42v-1.35L1135.7,314.54z"/>
	<path class="st7" d="M1151.43,302.47c0.68,0,1.01,0.37,1.01,1.12c0,0.76-0.34,1.14-1.01,1.14s-1.01-0.38-1.01-1.14
		C1150.41,302.85,1150.75,302.47,1151.43,302.47z M1152.16,307.6v13.83h-1.48V307.6H1152.16z"/>
	<path class="st7" d="M1161.7,321.69c-1.85,0-3.28-0.59-4.28-1.78c-1-1.19-1.5-2.94-1.5-5.26c0-2.37,0.52-4.19,1.56-5.43
		s2.49-1.87,4.34-1.87c1.16,0,2.1,0.26,2.82,0.77c0.72,0.51,1.26,1.13,1.62,1.86h0.1c-0.02-0.4-0.04-0.84-0.07-1.34
		s-0.04-0.95-0.04-1.37v-5.59h1.48v19.76h-1.2l-0.21-2.42h-0.08c-0.36,0.75-0.91,1.38-1.64,1.9
		C1163.91,321.43,1162.93,321.69,1161.7,321.69z M1161.88,320.42c1.59,0,2.73-0.49,3.41-1.46c0.68-0.97,1.01-2.38,1.01-4.21v-0.23
		c0-1.91-0.33-3.37-1-4.38c-0.67-1.01-1.77-1.52-3.32-1.52c-1.49,0-2.62,0.52-3.38,1.57s-1.14,2.54-1.14,4.49
		c0,1.87,0.36,3.3,1.09,4.28C1159.28,319.92,1160.39,320.42,1161.88,320.42z"/>
	<path class="st7" d="M1177.56,307.34c1.18,0,2.16,0.27,2.95,0.82c0.79,0.55,1.39,1.3,1.79,2.25c0.41,0.95,0.61,2.05,0.61,3.28v1.01
		h-9.88c0,1.84,0.43,3.25,1.29,4.23s2.08,1.47,3.68,1.47c0.85,0,1.59-0.07,2.24-0.22c0.64-0.15,1.34-0.39,2.11-0.71v1.35
		c-0.69,0.31-1.38,0.54-2.05,0.68s-1.46,0.21-2.34,0.21c-2.08,0-3.67-0.63-4.78-1.9s-1.66-2.99-1.66-5.17c0-1.4,0.24-2.65,0.71-3.74
		c0.48-1.09,1.17-1.95,2.07-2.59S1176.27,307.34,1177.56,307.34z M1177.53,308.58c-1.27,0-2.29,0.42-3.08,1.27
		c-0.79,0.85-1.24,2.05-1.37,3.61h8.29c0-1.46-0.32-2.63-0.95-3.54C1179.8,309.04,1178.83,308.58,1177.53,308.58z"/>
	<path class="st7" d="M1187.41,302.47c0.68,0,1.01,0.37,1.01,1.12c0,0.76-0.34,1.14-1.01,1.14s-1.01-0.38-1.01-1.14
		C1186.4,302.85,1186.74,302.47,1187.41,302.47z M1188.14,307.6v13.83h-1.48V307.6H1188.14z"/>
	<path class="st7" d="M1197.6,307.36c1.56,0,2.72,0.38,3.48,1.14s1.14,1.97,1.14,3.61v9.31h-1.12l-0.26-2.34h-0.08
		c-0.5,0.78-1.11,1.41-1.83,1.88c-0.72,0.48-1.72,0.71-3,0.71c-1.33,0-2.38-0.33-3.15-1c-0.76-0.67-1.14-1.62-1.14-2.87
		c0-1.39,0.56-2.44,1.69-3.16c1.13-0.72,2.76-1.12,4.91-1.21l2.52-0.13v-0.96c0-1.35-0.27-2.31-0.82-2.89s-1.35-0.86-2.41-0.86
		c-0.71,0-1.4,0.1-2.05,0.29c-0.66,0.19-1.32,0.44-1.98,0.75l-0.47-1.2c0.66-0.31,1.37-0.57,2.15-0.78
		C1195.97,307.47,1196.77,307.36,1197.6,307.36z M1198.43,314.54c-1.77,0.09-3.08,0.39-3.94,0.92c-0.86,0.53-1.29,1.31-1.29,2.35
		c0,0.87,0.26,1.52,0.79,1.96c0.53,0.44,1.26,0.66,2.2,0.66c1.44,0,2.56-0.41,3.35-1.23s1.21-1.96,1.22-3.42v-1.35L1198.43,314.54z"
		/>
</g>
<g class="st5">
	<path class="st7" d="M808.86,352.89c-1.86,0-3.28-0.59-4.28-1.78c-1-1.19-1.5-2.94-1.5-5.26c0-2.37,0.52-4.19,1.56-5.43
		s2.49-1.87,4.34-1.87c1.16,0,2.1,0.26,2.82,0.77c0.72,0.51,1.26,1.13,1.62,1.86h0.1c-0.02-0.4-0.04-0.84-0.06-1.34
		c-0.03-0.49-0.04-0.95-0.04-1.37v-5.59h1.48v19.76h-1.2l-0.21-2.42h-0.08c-0.36,0.75-0.91,1.38-1.64,1.9
		C811.07,352.63,810.09,352.89,808.86,352.89z M809.04,351.61c1.59,0,2.73-0.49,3.41-1.46s1.01-2.38,1.01-4.21v-0.23
		c0-1.91-0.33-3.37-1-4.38s-1.77-1.52-3.31-1.52c-1.49,0-2.62,0.52-3.38,1.57c-0.76,1.05-1.14,2.54-1.14,4.49
		c0,1.87,0.36,3.3,1.09,4.28C806.44,351.12,807.55,351.61,809.04,351.61z"/>
	<path class="st7" d="M824.72,338.54c1.18,0,2.16,0.27,2.95,0.82c0.79,0.55,1.39,1.3,1.79,2.25c0.41,0.95,0.61,2.05,0.61,3.28v1.01
		h-9.88c0,1.84,0.43,3.25,1.29,4.23s2.08,1.47,3.68,1.47c0.85,0,1.59-0.07,2.24-0.22c0.64-0.15,1.34-0.39,2.11-0.71V352
		c-0.69,0.31-1.38,0.54-2.05,0.68s-1.46,0.21-2.34,0.21c-2.08,0-3.67-0.63-4.78-1.9s-1.66-2.99-1.66-5.17c0-1.4,0.24-2.65,0.71-3.74
		c0.48-1.09,1.17-1.95,2.07-2.59S823.43,338.54,824.72,338.54z M824.69,339.78c-1.27,0-2.29,0.42-3.08,1.27
		c-0.79,0.85-1.24,2.05-1.37,3.61h8.29c0-1.46-0.32-2.63-0.95-3.54C826.96,340.24,825.99,339.78,824.69,339.78z"/>
	<path class="st7" d="M846.79,338.54c1.77,0,3.15,0.6,4.13,1.79s1.48,2.96,1.48,5.3s-0.52,4.13-1.55,5.38s-2.44,1.87-4.22,1.87
		c-1.21,0-2.19-0.26-2.94-0.78c-0.75-0.52-1.29-1.14-1.64-1.87h-0.1c0.03,0.43,0.06,0.91,0.08,1.42c0.02,0.51,0.03,0.98,0.03,1.42
		v5.69h-1.48V338.8h1.22l0.18,2.57h0.08c0.35-0.75,0.9-1.4,1.66-1.98C844.48,338.82,845.51,338.54,846.79,338.54z M846.58,339.81
		c-1.54,0-2.68,0.49-3.41,1.46c-0.73,0.97-1.1,2.37-1.12,4.19v0.26c0,1.98,0.36,3.45,1.08,4.43c0.72,0.98,1.83,1.47,3.34,1.47
		c1.42,0,2.51-0.53,3.26-1.6c0.75-1.07,1.13-2.54,1.13-4.41c0-1.86-0.36-3.29-1.08-4.29C849.07,340.31,848,339.81,846.58,339.81z"/>
	<path class="st7" d="M861.4,338.54c1.18,0,2.16,0.27,2.95,0.82c0.79,0.55,1.39,1.3,1.79,2.25c0.41,0.95,0.61,2.05,0.61,3.28v1.01
		h-9.88c0,1.84,0.43,3.25,1.29,4.23c0.86,0.98,2.08,1.47,3.68,1.47c0.85,0,1.59-0.07,2.24-0.22c0.64-0.15,1.34-0.39,2.11-0.71V352
		c-0.69,0.31-1.38,0.54-2.05,0.68s-1.46,0.21-2.34,0.21c-2.08,0-3.68-0.63-4.78-1.9c-1.11-1.27-1.66-2.99-1.66-5.17
		c0-1.4,0.24-2.65,0.71-3.74c0.48-1.09,1.17-1.95,2.07-2.59C859.03,338.85,860.12,338.54,861.4,338.54z M861.38,339.78
		c-1.27,0-2.29,0.42-3.08,1.27c-0.79,0.85-1.24,2.05-1.37,3.61h8.29c0-1.46-0.32-2.63-0.95-3.54
		C863.64,340.24,862.68,339.78,861.38,339.78z"/>
	<path class="st7" d="M876.2,338.56c0.68,0,1.3,0.07,1.87,0.21l-0.23,1.38c-0.56-0.16-1.13-0.23-1.72-0.23
		c-1.26,0-2.27,0.47-3.02,1.4c-0.75,0.94-1.12,2.17-1.12,3.72v7.59h-1.48V338.8h1.25l0.16,2.57h0.08c0.35-0.78,0.88-1.44,1.59-1.99
		S875.16,338.56,876.2,338.56z"/>
	<path class="st7" d="M895.2,338.54c1.37,0,2.44,0.39,3.21,1.17s1.16,2.01,1.16,3.69v9.23h-1.46v-9.18c0-1.23-0.28-2.15-0.84-2.74
		c-0.56-0.6-1.32-0.9-2.28-0.9c-1.32,0-2.33,0.39-3.04,1.16c-0.71,0.77-1.07,1.96-1.07,3.58v8.09h-1.46v-9.18
		c0-1.23-0.28-2.15-0.85-2.74s-1.32-0.9-2.27-0.9c-1.32,0-2.33,0.41-3.03,1.22s-1.05,2.06-1.05,3.74v7.85h-1.48V338.8h1.2l0.21,2.18
		h0.1c0.35-0.68,0.87-1.25,1.57-1.73s1.6-0.71,2.69-0.71c1,0,1.85,0.22,2.55,0.65c0.69,0.43,1.19,1.08,1.48,1.92h0.08
		c0.4-0.82,0.99-1.45,1.78-1.9C893.19,338.76,894.13,338.54,895.2,338.54z"/>
	<path class="st7" d="M908.88,338.56c1.56,0,2.72,0.38,3.48,1.14s1.14,1.97,1.14,3.61v9.31h-1.12l-0.26-2.34h-0.08
		c-0.5,0.78-1.11,1.41-1.83,1.88c-0.72,0.48-1.72,0.71-3,0.71c-1.33,0-2.38-0.33-3.15-1c-0.76-0.67-1.14-1.62-1.14-2.87
		c0-1.39,0.56-2.44,1.69-3.16c1.13-0.72,2.76-1.12,4.91-1.21l2.52-0.13v-0.96c0-1.35-0.27-2.31-0.82-2.89s-1.35-0.86-2.41-0.86
		c-0.71,0-1.4,0.1-2.05,0.29c-0.66,0.19-1.32,0.44-1.98,0.75l-0.47-1.2c0.66-0.31,1.37-0.57,2.15-0.78
		C907.24,338.67,908.05,338.56,908.88,338.56z M909.71,345.74c-1.77,0.09-3.08,0.39-3.94,0.92c-0.86,0.53-1.29,1.31-1.29,2.35
		c0,0.87,0.26,1.52,0.79,1.96c0.53,0.44,1.26,0.66,2.2,0.66c1.44,0,2.56-0.41,3.35-1.23s1.21-1.96,1.22-3.42v-1.35L909.71,345.74z"
		/>
	<path class="st7" d="M924.11,338.54c1.58,0,2.78,0.41,3.61,1.22c0.83,0.82,1.25,2.09,1.25,3.82v9.05h-1.46v-8.94
		c0-1.32-0.3-2.29-0.91-2.92c-0.61-0.63-1.49-0.95-2.65-0.95c-3.03,0-4.55,1.76-4.55,5.28v7.54h-1.48V338.8h1.2l0.21,2.39h0.1
		c0.36-0.76,0.95-1.39,1.74-1.9S922.95,338.54,924.11,338.54z"/>
	<path class="st7" d="M938.67,338.54c1.18,0,2.16,0.27,2.95,0.82c0.79,0.55,1.39,1.3,1.79,2.25c0.41,0.95,0.61,2.05,0.61,3.28v1.01
		h-9.88c0,1.84,0.43,3.25,1.29,4.23c0.86,0.98,2.08,1.47,3.68,1.47c0.85,0,1.59-0.07,2.24-0.22c0.64-0.15,1.34-0.39,2.11-0.71V352
		c-0.69,0.31-1.38,0.54-2.05,0.68s-1.46,0.21-2.34,0.21c-2.08,0-3.68-0.63-4.78-1.9c-1.11-1.27-1.66-2.99-1.66-5.17
		c0-1.4,0.24-2.65,0.71-3.74c0.48-1.09,1.17-1.95,2.07-2.59C936.3,338.85,937.39,338.54,938.67,338.54z M938.65,339.78
		c-1.27,0-2.29,0.42-3.08,1.27c-0.79,0.85-1.24,2.05-1.37,3.61h8.29c0-1.46-0.32-2.63-0.95-3.54
		C940.91,340.24,939.95,339.78,938.65,339.78z M939.09,332.74c0.21,0.38,0.49,0.81,0.86,1.29s0.75,0.95,1.14,1.42
		c0.4,0.47,0.76,0.87,1.09,1.2v0.23h-1.07c-0.47-0.38-0.95-0.82-1.43-1.33c-0.49-0.5-0.94-1-1.35-1.48
		c-0.42,0.49-0.86,0.98-1.34,1.48s-0.95,0.95-1.42,1.33h-1.07v-0.23c0.33-0.35,0.69-0.75,1.09-1.21c0.4-0.46,0.78-0.93,1.14-1.4
		s0.66-0.91,0.88-1.29H939.09z"/>
	<path class="st7" d="M953.96,338.54c1.58,0,2.78,0.41,3.61,1.22c0.83,0.82,1.25,2.09,1.25,3.82v9.05h-1.46v-8.94
		c0-1.32-0.3-2.29-0.91-2.92c-0.61-0.63-1.49-0.95-2.65-0.95c-3.03,0-4.55,1.76-4.55,5.28v7.54h-1.48V338.8h1.2l0.21,2.39h0.1
		c0.36-0.76,0.95-1.39,1.74-1.9S952.8,338.54,953.96,338.54z"/>
	<path class="st7" d="M968.81,352.89c-2.03,0-3.59-0.62-4.69-1.87s-1.65-2.99-1.65-5.23c0-1.56,0.28-2.88,0.83-3.95
		c0.55-1.07,1.33-1.89,2.33-2.46s2.16-0.84,3.5-0.84c0.66,0,1.28,0.06,1.87,0.18c0.59,0.12,1.11,0.29,1.56,0.49l-0.42,1.27
		c-0.47-0.19-0.97-0.34-1.51-0.46c-0.54-0.11-1.05-0.17-1.53-0.17c-1.65,0-2.91,0.53-3.78,1.59c-0.88,1.06-1.31,2.5-1.31,4.32
		c0,1.73,0.39,3.13,1.17,4.2s1.99,1.6,3.64,1.6c0.68,0,1.32-0.07,1.92-0.21c0.61-0.14,1.15-0.31,1.64-0.52v1.33
		c-0.45,0.23-0.97,0.4-1.55,0.53C970.24,352.82,969.57,352.89,968.81,352.89z"/>
	<path class="st7" d="M976.4,333.67c0.68,0,1.01,0.37,1.01,1.12c0,0.76-0.34,1.14-1.01,1.14s-1.01-0.38-1.01-1.14
		C975.38,334.05,975.72,333.67,976.4,333.67z M977.13,338.8v13.83h-1.48V338.8H977.13z"/>
	<path class="st7" d="M986.59,338.56c1.56,0,2.72,0.38,3.48,1.14c0.76,0.76,1.14,1.97,1.14,3.61v9.31h-1.12l-0.26-2.34h-0.08
		c-0.5,0.78-1.11,1.41-1.83,1.88c-0.72,0.48-1.72,0.71-3,0.71c-1.33,0-2.38-0.33-3.15-1c-0.76-0.67-1.14-1.62-1.14-2.87
		c0-1.39,0.56-2.44,1.69-3.16c1.13-0.72,2.76-1.12,4.91-1.21l2.52-0.13v-0.96c0-1.35-0.27-2.31-0.82-2.89
		c-0.55-0.57-1.35-0.86-2.4-0.86c-0.71,0-1.4,0.1-2.05,0.29c-0.66,0.19-1.32,0.44-1.98,0.75l-0.47-1.2
		c0.66-0.31,1.37-0.57,2.14-0.78S985.76,338.56,986.59,338.56z M987.42,345.74c-1.77,0.09-3.08,0.39-3.94,0.92
		c-0.86,0.53-1.29,1.31-1.29,2.35c0,0.87,0.26,1.52,0.79,1.96c0.53,0.44,1.26,0.66,2.2,0.66c1.44,0,2.56-0.41,3.35-1.23
		c0.8-0.82,1.2-1.96,1.22-3.42v-1.35L987.42,345.74z"/>
	<path class="st7" d="M997.48,349.9c-0.22,0.95-0.51,1.98-0.86,3.07s-0.72,2.1-1.12,3.02h-1.12c0.62-2.3,1.08-4.43,1.38-6.37h1.59
		L997.48,349.9z"/>
	<path class="st7" d="M1019.84,345.69c0,1.46-0.24,2.72-0.71,3.8c-0.48,1.08-1.18,1.91-2.11,2.51c-0.93,0.6-2.06,0.9-3.39,0.9
		c-1.28,0-2.38-0.29-3.3-0.88c-0.92-0.59-1.62-1.43-2.12-2.51c-0.49-1.08-0.74-2.35-0.74-3.81c0-2.24,0.55-3.99,1.66-5.25
		c1.11-1.26,2.64-1.9,4.6-1.9c1.32,0,2.43,0.3,3.34,0.9c0.91,0.6,1.6,1.43,2.07,2.51C1019.61,343.02,1019.84,344.26,1019.84,345.69z
		 M1009,345.69c0,1.79,0.38,3.22,1.13,4.3s1.93,1.62,3.52,1.62c1.61,0,2.79-0.55,3.54-1.64c0.75-1.09,1.12-2.52,1.12-4.29
		c0-1.14-0.16-2.16-0.47-3.04c-0.31-0.88-0.81-1.58-1.48-2.08c-0.68-0.5-1.56-0.75-2.65-0.75c-1.56,0-2.74,0.52-3.52,1.56
		C1009.4,342.41,1009,343.85,1009,345.69z"/>
	<path class="st7" d="M1034.51,338.8v13.83h-1.2l-0.23-2.37H1033c-0.38,0.76-0.97,1.39-1.75,1.88c-0.79,0.49-1.77,0.74-2.95,0.74
		c-3.24,0-4.86-1.68-4.86-5.04v-9.05h1.48v8.92c0,1.33,0.3,2.32,0.9,2.95s1.49,0.95,2.67,0.95c3.03,0,4.55-1.76,4.55-5.28v-7.54
		H1034.51z"/>
	<path class="st7" d="M1054.58,348.96c0,1.25-0.47,2.21-1.4,2.9c-0.94,0.68-2.25,1.03-3.95,1.03c-0.97,0-1.83-0.08-2.57-0.25
		c-0.75-0.16-1.37-0.38-1.87-0.64v-1.43c0.61,0.31,1.3,0.57,2.08,0.77s1.58,0.3,2.39,0.3c1.35,0,2.34-0.23,2.95-0.69
		s0.92-1.09,0.92-1.88c0-0.76-0.32-1.35-0.96-1.76c-0.64-0.41-1.59-0.83-2.83-1.26c-0.87-0.29-1.62-0.59-2.27-0.9
		c-0.65-0.3-1.16-0.69-1.52-1.16s-0.55-1.11-0.55-1.92c0-1.11,0.45-1.98,1.35-2.6s2.11-0.94,3.61-0.94c0.83,0,1.61,0.08,2.33,0.23
		c0.72,0.16,1.38,0.36,1.99,0.62l-0.55,1.22c-0.54-0.23-1.14-0.42-1.82-0.58s-1.35-0.25-2.03-0.25c-1.09,0-1.94,0.19-2.55,0.57
		c-0.61,0.38-0.91,0.94-0.91,1.66c0,0.56,0.15,0.99,0.44,1.31c0.29,0.32,0.72,0.59,1.27,0.82c0.55,0.22,1.23,0.48,2.03,0.75
		c0.83,0.29,1.58,0.6,2.24,0.91c0.66,0.31,1.19,0.71,1.59,1.2C1054.38,347.5,1054.58,348.15,1054.58,348.96z"/>
	<path class="st7" d="M1063.32,338.54c1.18,0,2.16,0.27,2.95,0.82c0.79,0.55,1.39,1.3,1.79,2.25c0.41,0.95,0.61,2.05,0.61,3.28v1.01
		h-9.88c0,1.84,0.43,3.25,1.29,4.23s2.08,1.47,3.68,1.47c0.85,0,1.59-0.07,2.24-0.22c0.64-0.15,1.34-0.39,2.11-0.71V352
		c-0.69,0.31-1.38,0.54-2.05,0.68s-1.46,0.21-2.34,0.21c-2.08,0-3.67-0.63-4.78-1.9s-1.66-2.99-1.66-5.17c0-1.4,0.24-2.65,0.71-3.74
		c0.48-1.09,1.17-1.95,2.07-2.59S1062.03,338.54,1063.32,338.54z M1063.29,339.78c-1.27,0-2.29,0.42-3.08,1.27
		c-0.79,0.85-1.24,2.05-1.37,3.61h8.29c0-1.46-0.32-2.63-0.95-3.54C1065.56,340.24,1064.59,339.78,1063.29,339.78z"/>
	<path class="st7" d="M1070.57,358.87c-0.4,0-0.75-0.03-1.04-0.08c-0.29-0.05-0.55-0.12-0.75-0.21v-1.27
		c0.49,0.19,1.03,0.29,1.64,0.29c0.62,0,1.11-0.19,1.47-0.57c0.35-0.38,0.53-0.99,0.53-1.82V338.8h1.48v16.43
		c0,1.18-0.29,2.08-0.88,2.7C1072.42,358.56,1071.61,358.87,1070.57,358.87z M1072.15,334.79c0-0.75,0.34-1.12,1.01-1.12
		s1.01,0.37,1.01,1.12c0,0.76-0.34,1.14-1.01,1.14S1072.15,335.55,1072.15,334.79z"/>
	<path class="st7" d="M1083.36,338.56c1.56,0,2.72,0.38,3.48,1.14c0.76,0.76,1.14,1.97,1.14,3.61v9.31h-1.12l-0.26-2.34h-0.08
		c-0.5,0.78-1.11,1.41-1.83,1.88c-0.72,0.48-1.72,0.71-3,0.71c-1.33,0-2.38-0.33-3.15-1c-0.76-0.67-1.14-1.62-1.14-2.87
		c0-1.39,0.56-2.44,1.69-3.16c1.13-0.72,2.76-1.12,4.91-1.21l2.52-0.13v-0.96c0-1.35-0.27-2.31-0.82-2.89
		c-0.55-0.57-1.35-0.86-2.4-0.86c-0.71,0-1.4,0.1-2.05,0.29c-0.66,0.19-1.32,0.44-1.98,0.75l-0.47-1.2
		c0.66-0.31,1.37-0.57,2.14-0.78S1082.53,338.56,1083.36,338.56z M1084.19,345.74c-1.77,0.09-3.08,0.39-3.94,0.92
		c-0.86,0.53-1.29,1.31-1.29,2.35c0,0.87,0.26,1.52,0.79,1.96c0.53,0.44,1.26,0.66,2.2,0.66c1.44,0,2.56-0.41,3.35-1.23
		c0.8-0.82,1.2-1.96,1.22-3.42v-1.35L1084.19,345.74z"/>
	<path class="st7" d="M1094.25,349.9c-0.22,0.95-0.51,1.98-0.86,3.07s-0.72,2.1-1.12,3.02h-1.12c0.62-2.3,1.08-4.43,1.38-6.37h1.59
		L1094.25,349.9z"/>
	<path class="st7" d="M1110.58,352.89c-2.03,0-3.59-0.62-4.69-1.87s-1.65-2.99-1.65-5.23c0-1.56,0.28-2.88,0.83-3.95
		c0.55-1.07,1.33-1.89,2.33-2.46c1-0.56,2.16-0.84,3.5-0.84c0.66,0,1.28,0.06,1.87,0.18c0.59,0.12,1.11,0.29,1.56,0.49l-0.42,1.27
		c-0.47-0.19-0.97-0.34-1.51-0.46c-0.54-0.11-1.05-0.17-1.53-0.17c-1.65,0-2.91,0.53-3.78,1.59s-1.31,2.5-1.31,4.32
		c0,1.73,0.39,3.13,1.17,4.2c0.78,1.07,1.99,1.6,3.64,1.6c0.68,0,1.32-0.07,1.92-0.21c0.61-0.14,1.15-0.31,1.64-0.52v1.33
		c-0.45,0.23-0.97,0.4-1.55,0.53C1112.02,352.82,1111.34,352.89,1110.58,352.89z"/>
	<path class="st7" d="M1128.99,345.69c0,1.46-0.24,2.72-0.71,3.8c-0.48,1.08-1.18,1.91-2.11,2.51c-0.93,0.6-2.06,0.9-3.39,0.9
		c-1.28,0-2.38-0.29-3.3-0.88c-0.92-0.59-1.62-1.43-2.12-2.51c-0.49-1.08-0.74-2.35-0.74-3.81c0-2.24,0.55-3.99,1.66-5.25
		c1.11-1.26,2.64-1.9,4.6-1.9c1.32,0,2.43,0.3,3.34,0.9c0.91,0.6,1.6,1.43,2.07,2.51C1128.76,343.02,1128.99,344.26,1128.99,345.69z
		 M1118.15,345.69c0,1.79,0.38,3.22,1.13,4.3s1.93,1.62,3.52,1.62c1.61,0,2.79-0.55,3.54-1.64c0.75-1.09,1.12-2.52,1.12-4.29
		c0-1.14-0.16-2.16-0.47-3.04c-0.31-0.88-0.81-1.58-1.48-2.08c-0.68-0.5-1.56-0.75-2.65-0.75c-1.56,0-2.74,0.52-3.52,1.56
		C1118.54,342.41,1118.15,343.85,1118.15,345.69z"/>
	<path class="st7" d="M1138.95,338.54c1.58,0,2.78,0.41,3.61,1.22c0.83,0.82,1.25,2.09,1.25,3.82v9.05h-1.46v-8.94
		c0-1.32-0.3-2.29-0.91-2.92c-0.61-0.63-1.49-0.95-2.65-0.95c-3.03,0-4.55,1.76-4.55,5.28v7.54h-1.48V338.8h1.2l0.21,2.39h0.1
		c0.36-0.76,0.95-1.39,1.74-1.9S1137.79,338.54,1138.95,338.54z"/>
	<path class="st7" d="M1153.22,352.89c-1.85,0-3.28-0.59-4.28-1.78c-1-1.19-1.5-2.94-1.5-5.26c0-2.37,0.52-4.19,1.56-5.43
		s2.49-1.87,4.34-1.87c1.16,0,2.1,0.26,2.82,0.77c0.72,0.51,1.26,1.13,1.62,1.86h0.1c-0.02-0.4-0.04-0.84-0.07-1.34
		s-0.04-0.95-0.04-1.37v-5.59h1.48v19.76h-1.2l-0.21-2.42h-0.08c-0.36,0.75-0.91,1.38-1.64,1.9
		C1155.43,352.63,1154.45,352.89,1153.22,352.89z M1153.4,351.61c1.59,0,2.73-0.49,3.41-1.46c0.68-0.97,1.01-2.38,1.01-4.21v-0.23
		c0-1.91-0.33-3.37-1-4.38c-0.67-1.01-1.77-1.52-3.32-1.52c-1.49,0-2.62,0.52-3.38,1.57s-1.14,2.54-1.14,4.49
		c0,1.87,0.36,3.3,1.09,4.28C1150.8,351.12,1151.91,351.61,1153.4,351.61z"/>
	<path class="st7" d="M1164.58,333.67c0.68,0,1.01,0.37,1.01,1.12c0,0.76-0.34,1.14-1.01,1.14s-1.01-0.38-1.01-1.14
		C1163.57,334.05,1163.91,333.67,1164.58,333.67z M1165.31,338.8v13.83h-1.48V338.8H1165.31z"/>
	<path class="st7" d="M1175.43,352.89c-2.03,0-3.59-0.62-4.69-1.87s-1.65-2.99-1.65-5.23c0-1.56,0.28-2.88,0.83-3.95
		c0.55-1.07,1.33-1.89,2.33-2.46s2.16-0.84,3.5-0.84c0.66,0,1.28,0.06,1.87,0.18c0.59,0.12,1.11,0.29,1.56,0.49l-0.42,1.27
		c-0.47-0.19-0.97-0.34-1.51-0.46c-0.54-0.11-1.05-0.17-1.53-0.17c-1.65,0-2.91,0.53-3.78,1.59c-0.88,1.06-1.31,2.5-1.31,4.32
		c0,1.73,0.39,3.13,1.17,4.2s1.99,1.6,3.64,1.6c0.68,0,1.32-0.07,1.92-0.21c0.61-0.14,1.15-0.31,1.64-0.52v1.33
		c-0.45,0.23-0.97,0.4-1.55,0.53C1176.86,352.82,1176.19,352.89,1175.43,352.89z M1177.22,356.32c0,0.8-0.3,1.42-0.9,1.87
		c-0.6,0.45-1.43,0.68-2.48,0.68c-0.59,0-1.06-0.05-1.4-0.16v-1.01c0.35,0.09,0.82,0.13,1.43,0.13c0.64,0,1.15-0.12,1.53-0.35
		c0.38-0.23,0.57-0.61,0.57-1.13c0-0.49-0.22-0.84-0.66-1.08c-0.44-0.23-1.06-0.38-1.86-0.43l1.14-2.21h1.07l-0.75,1.53
		c0.68,0.09,1.23,0.31,1.66,0.66C1177,355.18,1177.22,355.68,1177.22,356.32z"/>
	<path class="st7" d="M1187.15,338.56c1.56,0,2.72,0.38,3.48,1.14c0.76,0.76,1.14,1.97,1.14,3.61v9.31h-1.12l-0.26-2.34h-0.08
		c-0.5,0.78-1.11,1.41-1.83,1.88c-0.72,0.48-1.72,0.71-3,0.71c-1.33,0-2.38-0.33-3.15-1c-0.76-0.67-1.14-1.62-1.14-2.87
		c0-1.39,0.56-2.44,1.69-3.16c1.13-0.72,2.76-1.12,4.91-1.21l2.52-0.13v-0.96c0-1.35-0.27-2.31-0.82-2.89
		c-0.55-0.57-1.35-0.86-2.4-0.86c-0.71,0-1.4,0.1-2.05,0.29c-0.66,0.19-1.32,0.44-1.98,0.75l-0.47-1.2
		c0.66-0.31,1.37-0.57,2.14-0.78S1186.32,338.56,1187.15,338.56z M1182.47,336.72c0.09-0.94,0.35-1.66,0.81-2.17
		c0.45-0.51,1.05-0.77,1.79-0.77c0.4,0,0.77,0.09,1.11,0.26c0.34,0.17,0.66,0.37,0.96,0.6c0.3,0.23,0.6,0.42,0.9,0.6
		c0.29,0.17,0.6,0.26,0.91,0.26c0.38,0,0.71-0.13,0.99-0.38c0.28-0.25,0.47-0.71,0.57-1.37h0.96c-0.09,0.94-0.36,1.66-0.82,2.18
		c-0.46,0.52-1.05,0.78-1.78,0.78c-0.4,0-0.77-0.09-1.1-0.26c-0.34-0.17-0.66-0.37-0.95-0.6c-0.29-0.23-0.59-0.42-0.88-0.6
		c-0.29-0.17-0.61-0.26-0.94-0.26c-0.4,0-0.73,0.13-0.99,0.38c-0.26,0.25-0.44,0.7-0.55,1.34H1182.47z M1187.98,345.74
		c-1.77,0.09-3.08,0.39-3.94,0.92c-0.86,0.53-1.29,1.31-1.29,2.35c0,0.87,0.26,1.52,0.79,1.96c0.53,0.44,1.26,0.66,2.2,0.66
		c1.44,0,2.56-0.41,3.35-1.23c0.8-0.82,1.2-1.96,1.22-3.42v-1.35L1187.98,345.74z"/>
	<path class="st7" d="M1207.77,345.69c0,1.46-0.24,2.72-0.71,3.8c-0.48,1.08-1.18,1.91-2.11,2.51c-0.93,0.6-2.06,0.9-3.39,0.9
		c-1.28,0-2.38-0.29-3.3-0.88c-0.92-0.59-1.62-1.43-2.12-2.51c-0.49-1.08-0.74-2.35-0.74-3.81c0-2.24,0.55-3.99,1.66-5.25
		c1.11-1.26,2.64-1.9,4.6-1.9c1.32,0,2.43,0.3,3.34,0.9c0.91,0.6,1.6,1.43,2.07,2.51C1207.54,343.02,1207.77,344.26,1207.77,345.69z
		 M1196.93,345.69c0,1.79,0.38,3.22,1.13,4.3s1.93,1.62,3.52,1.62c1.61,0,2.79-0.55,3.54-1.64c0.75-1.09,1.12-2.52,1.12-4.29
		c0-1.14-0.16-2.16-0.47-3.04c-0.31-0.88-0.81-1.58-1.48-2.08c-0.68-0.5-1.56-0.75-2.65-0.75c-1.56,0-2.74,0.52-3.52,1.56
		C1197.32,342.41,1196.93,343.85,1196.93,345.69z"/>
</g>
<g class="st5">
	<path class="st7" d="M808.86,384.09c-1.86,0-3.28-0.59-4.28-1.78c-1-1.19-1.5-2.94-1.5-5.26c0-2.37,0.52-4.19,1.56-5.43
		s2.49-1.87,4.34-1.87c1.16,0,2.1,0.26,2.82,0.77c0.72,0.51,1.26,1.13,1.62,1.86h0.1c-0.02-0.4-0.04-0.84-0.06-1.34
		c-0.03-0.49-0.04-0.95-0.04-1.37v-5.59h1.48v19.76h-1.2l-0.21-2.42h-0.08c-0.36,0.75-0.91,1.38-1.64,1.9
		C811.07,383.83,810.09,384.09,808.86,384.09z M809.04,382.81c1.59,0,2.73-0.49,3.41-1.46s1.01-2.38,1.01-4.21v-0.23
		c0-1.91-0.33-3.37-1-4.38s-1.77-1.52-3.31-1.52c-1.49,0-2.62,0.52-3.38,1.57c-0.76,1.05-1.14,2.54-1.14,4.49
		c0,1.87,0.36,3.3,1.09,4.28C806.44,382.32,807.55,382.81,809.04,382.81z"/>
	<path class="st7" d="M824.72,369.74c1.18,0,2.16,0.27,2.95,0.82c0.79,0.55,1.39,1.3,1.79,2.25c0.41,0.95,0.61,2.05,0.61,3.28v1.01
		h-9.88c0,1.84,0.43,3.25,1.29,4.23s2.08,1.47,3.68,1.47c0.85,0,1.59-0.07,2.24-0.22c0.64-0.15,1.34-0.39,2.11-0.71v1.35
		c-0.69,0.31-1.38,0.54-2.05,0.68s-1.46,0.21-2.34,0.21c-2.08,0-3.67-0.63-4.78-1.9s-1.66-2.99-1.66-5.17c0-1.4,0.24-2.65,0.71-3.74
		c0.48-1.09,1.17-1.95,2.07-2.59S823.43,369.74,824.72,369.74z M824.69,370.98c-1.27,0-2.29,0.42-3.08,1.27
		c-0.79,0.85-1.24,2.05-1.37,3.61h8.29c0-1.46-0.32-2.63-0.95-3.54C826.96,371.44,825.99,370.98,824.69,370.98z"/>
	<path class="st7" d="M839.2,371.19h-3.3v12.64h-1.48v-12.64h-2.55v-0.81l2.55-0.44v-1.38c0-3.08,1.38-4.63,4.13-4.63
		c0.49,0,0.93,0.04,1.33,0.12c0.4,0.08,0.76,0.17,1.09,0.27l-0.34,1.22c-0.31-0.1-0.65-0.19-1-0.26s-0.71-0.1-1.05-0.1
		c-0.94,0-1.62,0.27-2.04,0.81s-0.64,1.4-0.64,2.57V370h3.3V371.19z M842.6,364.87c0.68,0,1.01,0.37,1.01,1.12
		c0,0.76-0.34,1.14-1.01,1.14c-0.68,0-1.01-0.38-1.01-1.14C841.59,365.25,841.93,364.87,842.6,364.87z M843.33,370v13.83h-1.48V370
		H843.33z"/>
	<path class="st7" d="M854.1,369.74c1.58,0,2.78,0.41,3.61,1.22c0.83,0.82,1.25,2.09,1.25,3.82v9.05h-1.46v-8.94
		c0-1.32-0.3-2.29-0.91-2.92s-1.49-0.95-2.65-0.95c-3.03,0-4.55,1.76-4.55,5.28v7.54h-1.48V370h1.2l0.21,2.39h0.1
		c0.36-0.76,0.94-1.39,1.74-1.9C851.96,369.99,852.93,369.74,854.1,369.74z"/>
	<path class="st7" d="M864.16,364.87c0.68,0,1.01,0.37,1.01,1.12c0,0.76-0.34,1.14-1.01,1.14s-1.01-0.38-1.01-1.14
		C863.14,365.25,863.48,364.87,864.16,364.87z M864.89,370v13.83h-1.48V370H864.89z"/>
	<path class="st7" d="M873.36,382.81c0.38,0,0.75-0.03,1.09-0.08s0.65-0.13,0.91-0.23v1.2c-0.26,0.1-0.58,0.2-0.96,0.27
		c-0.38,0.08-0.79,0.12-1.22,0.12c-1.16,0-2.05-0.32-2.68-0.96c-0.62-0.64-0.94-1.69-0.94-3.15v-8.79h-2.05v-0.83l2.05-0.49
		l0.52-3.17h0.96v3.3h4.24v1.2h-4.24v8.71C871.05,381.84,871.82,382.81,873.36,382.81z"/>
	<path class="st7" d="M879.05,364.87c0.68,0,1.01,0.37,1.01,1.12c0,0.76-0.34,1.14-1.01,1.14s-1.01-0.38-1.01-1.14
		C878.04,365.25,878.38,364.87,879.05,364.87z M879.78,370v13.83h-1.48V370H879.78z"/>
	<path class="st7" d="M887.38,383.83l-5.3-13.83h1.59l3.43,9.18c0.21,0.57,0.4,1.14,0.58,1.69c0.18,0.55,0.33,1.05,0.46,1.48h0.08
		c0.12-0.43,0.28-0.93,0.47-1.49c0.19-0.56,0.39-1.12,0.6-1.68l3.43-9.18h1.56l-5.3,13.83H887.38z"/>
	<path class="st7" d="M901.44,369.76c1.56,0,2.72,0.38,3.48,1.14c0.76,0.76,1.14,1.97,1.14,3.61v9.31h-1.12l-0.26-2.34h-0.08
		c-0.5,0.78-1.11,1.41-1.83,1.88c-0.72,0.48-1.72,0.71-3,0.71c-1.33,0-2.38-0.33-3.15-1c-0.76-0.67-1.14-1.62-1.14-2.87
		c0-1.39,0.56-2.44,1.69-3.16c1.13-0.72,2.76-1.12,4.91-1.21l2.52-0.13v-0.96c0-1.35-0.27-2.31-0.82-2.89
		c-0.55-0.57-1.35-0.86-2.4-0.86c-0.71,0-1.4,0.1-2.05,0.29c-0.66,0.19-1.32,0.44-1.98,0.75l-0.47-1.2
		c0.66-0.31,1.37-0.57,2.14-0.78S900.61,369.76,901.44,369.76z M902.27,376.94c-1.77,0.09-3.08,0.39-3.94,0.92
		c-0.86,0.53-1.29,1.31-1.29,2.35c0,0.87,0.26,1.52,0.79,1.96c0.53,0.44,1.26,0.66,2.2,0.66c1.44,0,2.56-0.41,3.35-1.23
		c0.8-0.82,1.2-1.96,1.22-3.42v-1.35L902.27,376.94z"/>
	<path class="st7" d="M922.21,384.09c-1.85,0-3.28-0.59-4.28-1.78c-1-1.19-1.5-2.94-1.5-5.26c0-2.37,0.52-4.19,1.56-5.43
		s2.49-1.87,4.34-1.87c1.16,0,2.1,0.26,2.82,0.77c0.72,0.51,1.26,1.13,1.62,1.86h0.1c-0.02-0.4-0.04-0.84-0.07-1.34
		s-0.04-0.95-0.04-1.37v-5.59h1.48v19.76h-1.2l-0.21-2.42h-0.08c-0.36,0.75-0.91,1.38-1.64,1.9
		C924.42,383.83,923.44,384.09,922.21,384.09z M922.4,382.81c1.59,0,2.73-0.49,3.41-1.46c0.68-0.97,1.01-2.38,1.01-4.21v-0.23
		c0-1.91-0.33-3.37-1-4.38c-0.67-1.01-1.77-1.52-3.32-1.52c-1.49,0-2.62,0.52-3.38,1.57s-1.14,2.54-1.14,4.49
		c0,1.87,0.36,3.3,1.09,4.28C919.8,382.32,920.91,382.81,922.4,382.81z"/>
	<path class="st7" d="M938.07,369.74c1.18,0,2.16,0.27,2.95,0.82c0.79,0.55,1.39,1.3,1.79,2.25c0.41,0.95,0.61,2.05,0.61,3.28v1.01
		h-9.88c0,1.84,0.43,3.25,1.29,4.23c0.86,0.98,2.08,1.47,3.68,1.47c0.85,0,1.59-0.07,2.24-0.22c0.64-0.15,1.34-0.39,2.11-0.71v1.35
		c-0.69,0.31-1.38,0.54-2.05,0.68s-1.46,0.21-2.34,0.21c-2.08,0-3.68-0.63-4.78-1.9c-1.11-1.27-1.66-2.99-1.66-5.17
		c0-1.4,0.24-2.65,0.71-3.74c0.48-1.09,1.17-1.95,2.07-2.59C935.7,370.05,936.79,369.74,938.07,369.74z M938.05,370.98
		c-1.27,0-2.29,0.42-3.08,1.27c-0.79,0.85-1.24,2.05-1.37,3.61h8.29c0-1.46-0.32-2.63-0.95-3.54
		C940.31,371.44,939.35,370.98,938.05,370.98z"/>
	<path class="st7" d="M968.39,369.74c1.37,0,2.44,0.39,3.21,1.17s1.16,2.01,1.16,3.69v9.23h-1.46v-9.18c0-1.23-0.28-2.15-0.84-2.74
		c-0.56-0.6-1.32-0.9-2.28-0.9c-1.32,0-2.33,0.39-3.04,1.16c-0.71,0.77-1.07,1.96-1.07,3.58v8.09h-1.46v-9.18
		c0-1.23-0.28-2.15-0.85-2.74s-1.32-0.9-2.27-0.9c-1.32,0-2.33,0.41-3.03,1.22s-1.05,2.06-1.05,3.74v7.85h-1.48V370h1.2l0.21,2.18
		h0.1c0.35-0.68,0.87-1.25,1.57-1.73s1.6-0.71,2.69-0.71c1,0,1.85,0.22,2.55,0.65c0.69,0.43,1.19,1.08,1.48,1.92h0.08
		c0.4-0.82,0.99-1.45,1.78-1.9C966.38,369.96,967.31,369.74,968.39,369.74z"/>
	<path class="st7" d="M988.75,376.89c0,1.46-0.24,2.72-0.71,3.8c-0.48,1.08-1.18,1.91-2.11,2.51c-0.93,0.6-2.06,0.9-3.39,0.9
		c-1.28,0-2.38-0.29-3.3-0.88c-0.92-0.59-1.62-1.43-2.12-2.51c-0.49-1.08-0.74-2.35-0.74-3.81c0-2.24,0.55-3.99,1.66-5.25
		c1.11-1.26,2.64-1.9,4.6-1.9c1.32,0,2.43,0.3,3.34,0.9c0.91,0.6,1.6,1.43,2.07,2.51C988.51,374.22,988.75,375.46,988.75,376.89z
		 M977.91,376.89c0,1.79,0.38,3.22,1.13,4.3s1.93,1.62,3.52,1.62c1.61,0,2.79-0.55,3.54-1.64c0.75-1.09,1.12-2.52,1.12-4.29
		c0-1.14-0.16-2.16-0.47-3.04c-0.31-0.88-0.81-1.58-1.48-2.08c-0.68-0.5-1.56-0.75-2.65-0.75c-1.56,0-2.74,0.52-3.52,1.56
		C978.3,373.61,977.91,375.05,977.91,376.89z"/>
	<path class="st7" d="M998.21,369.76c0.68,0,1.3,0.07,1.87,0.21l-0.23,1.38c-0.55-0.16-1.13-0.23-1.72-0.23
		c-1.27,0-2.27,0.47-3.02,1.4c-0.75,0.94-1.12,2.17-1.12,3.72v7.59h-1.48V370h1.25l0.16,2.57H994c0.35-0.78,0.88-1.44,1.59-1.99
		C996.3,370.04,997.17,369.76,998.21,369.76z"/>
	<path class="st7" d="M1007.13,369.76c1.56,0,2.72,0.38,3.48,1.14c0.76,0.76,1.14,1.97,1.14,3.61v9.31h-1.12l-0.26-2.34h-0.08
		c-0.5,0.78-1.11,1.41-1.83,1.88c-0.72,0.48-1.72,0.71-3,0.71c-1.33,0-2.38-0.33-3.15-1c-0.76-0.67-1.14-1.62-1.14-2.87
		c0-1.39,0.56-2.44,1.69-3.16c1.13-0.72,2.76-1.12,4.91-1.21l2.52-0.13v-0.96c0-1.35-0.27-2.31-0.82-2.89
		c-0.55-0.57-1.35-0.86-2.4-0.86c-0.71,0-1.4,0.1-2.05,0.29c-0.66,0.19-1.32,0.44-1.98,0.75l-0.47-1.2
		c0.66-0.31,1.37-0.57,2.14-0.78S1006.3,369.76,1007.13,369.76z M1007.96,376.94c-1.77,0.09-3.08,0.39-3.94,0.92
		c-0.86,0.53-1.29,1.31-1.29,2.35c0,0.87,0.26,1.52,0.79,1.96c0.53,0.44,1.26,0.66,2.2,0.66c1.44,0,2.56-0.41,3.35-1.23
		c0.8-0.82,1.2-1.96,1.22-3.42v-1.35L1007.96,376.94z"/>
	<path class="st7" d="M1021.87,369.76c0.68,0,1.3,0.07,1.87,0.21l-0.23,1.38c-0.55-0.16-1.13-0.23-1.72-0.23
		c-1.27,0-2.27,0.47-3.02,1.4c-0.75,0.94-1.12,2.17-1.12,3.72v7.59h-1.48V370h1.25l0.16,2.57h0.08c0.35-0.78,0.88-1.44,1.59-1.99
		C1019.96,370.04,1020.83,369.76,1021.87,369.76z"/>
	<path class="st7" d="M1039.37,369.74c1.58,0,2.78,0.41,3.61,1.22c0.83,0.82,1.25,2.09,1.25,3.82v9.05h-1.46v-8.94
		c0-1.32-0.3-2.29-0.91-2.92s-1.49-0.95-2.65-0.95c-3.03,0-4.55,1.76-4.55,5.28v7.54h-1.48V370h1.2l0.21,2.39h0.1
		c0.36-0.76,0.94-1.39,1.74-1.9C1037.23,369.99,1038.21,369.74,1039.37,369.74z"/>
	<path class="st7" d="M1053.57,369.76c1.56,0,2.72,0.38,3.48,1.14c0.76,0.76,1.14,1.97,1.14,3.61v9.31h-1.12l-0.26-2.34h-0.08
		c-0.5,0.78-1.11,1.41-1.83,1.88c-0.72,0.48-1.72,0.71-3,0.71c-1.33,0-2.38-0.33-3.15-1c-0.76-0.67-1.14-1.62-1.14-2.87
		c0-1.39,0.56-2.44,1.69-3.16c1.13-0.72,2.76-1.12,4.91-1.21l2.52-0.13v-0.96c0-1.35-0.27-2.31-0.82-2.89
		c-0.55-0.57-1.35-0.86-2.4-0.86c-0.71,0-1.4,0.1-2.05,0.29c-0.66,0.19-1.32,0.44-1.98,0.75l-0.47-1.2
		c0.66-0.31,1.37-0.57,2.14-0.78S1052.73,369.76,1053.57,369.76z M1054.4,376.94c-1.77,0.09-3.08,0.39-3.94,0.92
		c-0.86,0.53-1.29,1.31-1.29,2.35c0,0.87,0.26,1.52,0.79,1.96c0.53,0.44,1.26,0.66,2.2,0.66c1.44,0,2.56-0.41,3.35-1.23
		c0.8-0.82,1.2-1.96,1.22-3.42v-1.35L1054.4,376.94z"/>
	<path class="st7" d="M1075.07,369.76c0.68,0,1.3,0.07,1.87,0.21l-0.23,1.38c-0.55-0.16-1.13-0.23-1.72-0.23
		c-1.27,0-2.27,0.47-3.02,1.4c-0.75,0.94-1.12,2.17-1.12,3.72v7.59h-1.48V370h1.25l0.16,2.57h0.08c0.35-0.78,0.88-1.44,1.59-1.99
		C1073.15,370.04,1074.03,369.76,1075.07,369.76z"/>
	<path class="st7" d="M1090.51,370v13.83h-1.2l-0.23-2.37H1089c-0.38,0.76-0.97,1.39-1.75,1.88c-0.79,0.49-1.77,0.74-2.95,0.74
		c-3.24,0-4.86-1.68-4.86-5.04V370h1.48v8.92c0,1.33,0.3,2.32,0.9,2.95c0.6,0.63,1.49,0.95,2.67,0.95c3.03,0,4.55-1.76,4.55-5.28
		V370H1090.51z"/>
	<path class="st7" d="M1100,369.76c1.56,0,2.72,0.38,3.48,1.14c0.76,0.76,1.14,1.97,1.14,3.61v9.31h-1.12l-0.26-2.34h-0.08
		c-0.5,0.78-1.11,1.41-1.83,1.88c-0.72,0.48-1.72,0.71-3,0.71c-1.33,0-2.38-0.33-3.15-1c-0.76-0.67-1.14-1.62-1.14-2.87
		c0-1.39,0.56-2.44,1.69-3.16c1.13-0.72,2.76-1.12,4.91-1.21l2.52-0.13v-0.96c0-1.35-0.27-2.31-0.82-2.89
		c-0.55-0.57-1.35-0.86-2.4-0.86c-0.71,0-1.4,0.1-2.05,0.29c-0.66,0.19-1.32,0.44-1.98,0.75l-0.47-1.2
		c0.66-0.31,1.37-0.57,2.14-0.78S1099.17,369.76,1100,369.76z M1100.83,376.94c-1.77,0.09-3.08,0.39-3.94,0.92
		c-0.86,0.53-1.29,1.31-1.29,2.35c0,0.87,0.26,1.52,0.79,1.96c0.53,0.44,1.26,0.66,2.2,0.66c1.44,0,2.56-0.41,3.35-1.23
		c0.8-0.82,1.2-1.96,1.22-3.42v-1.35L1100.83,376.94z"/>
	<path class="st7" d="M1108.81,382.81c0-0.85,0.37-1.27,1.12-1.27c0.78,0,1.17,0.42,1.17,1.27c0,0.87-0.39,1.3-1.17,1.3
		C1109.19,384.11,1108.81,383.68,1108.81,382.81z"/>
</g>
<text transform="matrix(1 0 0 1 198.3714 659.4659)" class="st6" style="font-family:'NotoSans-ExtraBold'; font-size:26px;">Situao de rua </text>
<text transform="matrix(1 0 0 1 434.0015 659.4659)" class="st6" style="font-family:'NotoSans-Light'; font-size:26px;">traz a </text>
<text transform="matrix(1 0 0 1 246.0515 690.666)" class="st6" style="font-family:'NotoSans-Light'; font-size:26px;">ideia de algo pontual, </text>
<text transform="matrix(1 0 0 1 183.3214 721.866)" class="st6" style="font-family:'NotoSans-Light'; font-size:26px;">momentneo e transitrio.</text>
<text transform="matrix(1 0 0 1 842.4318 659.1422)" class="st7" style="font-family:'NotoSans-ExtraBold'; font-size:26px;">Morador de rua </text>
<text transform="matrix(1 0 0 1 1078.4818 659.1422)" class="st7" style="font-family:'NotoSans-Light'; font-size:26px;">traz uma ideia </text>
<text transform="matrix(1 0 0 1 842.4318 690.3422)" class="st7" style="font-family:'NotoSans-Light'; font-size:26px;">de permanncia, ou seja, condio </text>
<text transform="matrix(1 0 0 1 842.4318 721.5421)" class="st7" style="font-family:'NotoSans-Light'; font-size:26px;">definitiva de morar na rua.</text>
</svg>
