<?xml version="1.0" encoding="utf-8"?>
<!-- Generator: Adobe Illustrator 26.3.1, SVG Export Plug-In . SVG Version: 6.00 Build 0)  -->
<svg version="1.1" id="Layer_1" xmlns="http://www.w3.org/2000/svg" xmlns:xlink="http://www.w3.org/1999/xlink" x="0px" y="0px"
	 viewBox="0 0 120 120" style="enable-background:new 0 0 120 120;" xml:space="preserve">
<style type="text/css">
	.st0{fill:#B7A1B3;}
	.st1{fill:none;stroke:#000000;stroke-width:3.5;stroke-miterlimit:10;}
	.st2{fill:#FFFFFF;}
</style>
<rect x="-13" y="-16" class="st0" width="146" height="146"/>
<path class="st1" d="M27.03,58.39"/>
<path class="st1" d="M23.31,72.55"/>
<path class="st1" d="M27.03,76.15"/>
<path class="st2" d="M100.3,92.28c-1.13-0.74-1.83-1.98-1.88-3.32V78.6c-0.01-3.44-1.16-6.77-3.28-9.48
	c-2.12-2.71-5.08-4.63-8.41-5.47c0.48-0.92,0.59-1.98,0.32-2.98c-0.27-1-0.9-1.86-1.78-2.42l7.25-9.66c0.32-0.43,0.37-1,0.13-1.47
	c-0.23-0.48-0.72-0.78-1.25-0.77c-0.71,0.1-1.43-0.06-2.02-0.46c-1.05-0.72-2.32-1.05-3.59-0.94c-1.62-0.01-3.19,0.6-4.38,1.71
	c-0.7,0.7-1.64,1.09-2.63,1.09c-0.99,0-1.93-0.39-2.63-1.09c-1.19-1.11-2.76-1.72-4.39-1.71c-0.45,0-0.9,0.02-1.35,0.08
	c-2.97-2.25-6.48-3.68-10.18-4.12c0.38-0.93,0.41-1.97,0.08-2.93c-0.33-0.95-0.99-1.76-1.86-2.26l7.5-12.5v0
	c0.26-0.43,0.26-0.97,0.01-1.41c-0.25-0.44-0.71-0.71-1.22-0.71c-0.99,0.01-1.94-0.38-2.62-1.09c-1.19-1.1-2.76-1.71-4.38-1.71
	c-1.62,0-3.19,0.61-4.38,1.71c-0.7,0.7-1.64,1.09-2.63,1.09c-0.99,0-1.93-0.39-2.63-1.09c-1.19-1.1-2.76-1.71-4.38-1.71
	c-1.62,0-3.19,0.61-4.38,1.71c-0.69,0.71-1.65,1.1-2.64,1.09c-0.5,0-0.97,0.27-1.22,0.71c-0.25,0.44-0.24,0.98,0.01,1.41l7.5,12.5v0
	c-0.87,0.5-1.54,1.31-1.86,2.26c-0.33,0.95-0.3,1.99,0.08,2.93c-5.11,0.61-9.81,3.07-13.23,6.92c-3.42,3.84-5.31,8.81-5.31,13.95
	v15.96c-0.06,1.35-0.75,2.59-1.87,3.34c-1.56,1.11-2.45,2.94-2.34,4.85c0.11,1.46,0.78,2.83,1.87,3.81
	c1.09,0.99,2.51,1.52,3.98,1.49h4.22c0.19,0.52,0.48,0.99,0.84,1.4c-0.7,0.77-1.09,1.77-1.09,2.81v2.81c0,1.12,0.45,2.18,1.24,2.97
	c0.79,0.79,1.86,1.23,2.97,1.24h16.83c1.12,0,2.18-0.45,2.97-1.24c0.79-0.79,1.23-1.86,1.24-2.97v-2.81c0-1.04-0.39-2.04-1.09-2.81
	c0.36-0.41,0.65-0.89,0.84-1.4h5.04h0c-0.29,0.4-0.65,0.76-1.05,1.05c-1.55,1.11-2.43,2.95-2.31,4.85c0.1,1.47,0.77,2.84,1.85,3.83
	c1.09,0.99,2.51,1.52,3.98,1.49h35.99c1.47,0.03,2.89-0.5,3.98-1.49c1.09-0.99,1.75-2.36,1.85-3.83
	C102.72,95.22,101.85,93.39,100.3,92.28L100.3,92.28z M69.74,48.2c0.59-0.4,1.31-0.56,2.02-0.46c0.99-0.01,1.94,0.39,2.64,1.09
	c1.19,1.1,2.76,1.71,4.38,1.71c1.62,0,3.19-0.61,4.38-1.71c0.69-0.71,1.64-1.1,2.62-1.09c0.71-0.1,1.44,0.06,2.03,0.46
	c0.33,0.23,0.68,0.42,1.05,0.58l-6.59,8.78h-7.01l-6.59-8.78C69.05,48.62,69.41,48.43,69.74,48.2L69.74,48.2z M84.39,61.77
	c0,0.37-0.15,0.73-0.41,0.99c-0.26,0.26-0.62,0.41-0.99,0.41h-8.42c-0.77,0-1.4-0.63-1.4-1.4c0-0.77,0.63-1.4,1.4-1.4h8.42
	c0.37,0,0.73,0.15,0.99,0.41C84.24,61.04,84.39,61.39,84.39,61.77z M38.94,23.52c0.78-0.32,1.51-0.77,2.15-1.33
	c0.69-0.71,1.64-1.11,2.62-1.09c0.99-0.01,1.94,0.39,2.64,1.09c1.19,1.1,2.76,1.71,4.38,1.71c1.62,0,3.19-0.61,4.38-1.71
	c0.7-0.7,1.64-1.09,2.63-1.09c0.99,0,1.93,0.39,2.63,1.09c0.63,0.56,1.35,1.01,2.13,1.32l-6.97,11.61h-9.62L38.94,23.52z
	 M57.74,39.32c0,0.37-0.15,0.73-0.41,0.99c-0.26,0.26-0.62,0.41-0.99,0.41H45.11c-0.77,0-1.4-0.63-1.4-1.4c0-0.77,0.63-1.4,1.4-1.4
	h11.22c0.37,0,0.73,0.15,0.99,0.41C57.59,38.6,57.74,38.95,57.74,39.32z M50.72,98.24c0,0.37-0.15,0.73-0.41,0.99
	c-0.26,0.26-0.62,0.41-0.99,0.41H32.49c-0.77,0-1.4-0.63-1.4-1.4v-2.81c0-0.77,0.63-1.4,1.4-1.4h1.4v2.81h2.81v-2.81h2.81v2.81h2.81
	v-2.81h2.81v2.81h2.81v-2.81h1.4c0.37,0,0.73,0.15,0.99,0.41c0.26,0.26,0.41,0.62,0.41,0.99V98.24z M50.72,89.82
	c0,0.37-0.15,0.73-0.41,0.99c-0.26,0.26-0.62,0.41-0.99,0.41H32.49c-0.77,0-1.4-0.63-1.4-1.4v-2.81c0-0.77,0.63-1.4,1.4-1.4h1.4
	v2.81h2.81v-2.81h2.81v2.81h2.81v-2.81h2.81v2.81h2.81v-2.81h1.4c0.37,0,0.73,0.15,0.99,0.41c0.26,0.26,0.41,0.62,0.41,0.99V89.82z
	 M50.72,81.4c0,0.37-0.15,0.73-0.41,0.99c-0.26,0.26-0.62,0.41-0.99,0.41H32.49c-0.77,0-1.4-0.63-1.4-1.4V78.6
	c0-0.77,0.63-1.4,1.4-1.4h1.4V80h2.81V77.2h2.81V80h2.81V77.2h2.81V80h2.81V77.2h1.4c0.37,0,0.73,0.15,0.99,0.41
	c0.26,0.26,0.41,0.62,0.41,0.99V81.4z M31.09,64.57c0-2.6,1.03-5.1,2.88-6.94c1.84-1.84,4.34-2.88,6.94-2.88
	c2.6,0,5.1,1.03,6.94,2.88c1.84,1.84,2.88,4.34,2.88,6.94c0,2.6-1.03,5.1-2.88,6.94c-1.84,1.84-4.34,2.88-6.94,2.88
	c-2.6,0-5.1-1.04-6.94-2.88C32.13,69.67,31.09,67.18,31.09,64.57z M53.53,88.42v-1.4c0-1.04-0.39-2.04-1.09-2.81
	c0.7-0.77,1.09-1.77,1.09-2.81V78.6c0-1.12-0.45-2.18-1.24-2.97c-0.79-0.79-1.86-1.23-2.97-1.24h-0.5c2.73-2.2,4.43-5.43,4.68-8.93
	c0.25-3.5-0.96-6.94-3.35-9.51c-2.39-2.57-5.74-4.02-9.24-4.02s-6.85,1.46-9.24,4.02s-3.6,6.01-3.35,9.51
	c0.25,3.5,1.95,6.73,4.68,8.93h-0.5c-1.12,0-2.18,0.45-2.97,1.24c-0.79,0.79-1.23,1.86-1.24,2.97v2.81c0,1.04,0.39,2.04,1.09,2.81
	c-0.7,0.77-1.09,1.77-1.09,2.81v1.4h-3.97c-0.75,0.02-1.47-0.24-2.04-0.73c-0.56-0.49-0.92-1.18-1.01-1.92
	c-0.05-0.96,0.4-1.87,1.18-2.43c1.85-1.28,2.98-3.36,3.03-5.61V61.77c0-4.83,1.93-9.47,5.35-12.89c3.42-3.42,8.05-5.34,12.89-5.35
	h0.76c-1.39,1.54-2.16,3.54-2.16,5.61v1.4h2.81v-1.4c0-2,1.07-3.86,2.81-4.86c1.74-1,3.87-1,5.61,0c1.74,1,2.81,2.85,2.81,4.86v1.4
	h2.81v-1.4c0-2.07-0.77-4.07-2.16-5.61h0.76c3.38-0.01,6.69,0.93,9.55,2.72c-0.38,0.06-0.76,0.09-1.14,0.08
	c-0.53-0.01-1.02,0.29-1.25,0.77c-0.24,0.48-0.19,1.05,0.13,1.47l7.25,9.66c-0.87,0.55-1.51,1.42-1.78,2.42
	c-0.27,1-0.16,2.06,0.32,2.98c-3.33,0.84-6.29,2.76-8.41,5.47c-2.12,2.71-3.27,6.04-3.28,9.48v9.82L53.53,88.42z M96.77,99.64H60.78
	c-0.75,0.02-1.47-0.24-2.04-0.73c-0.56-0.49-0.92-1.18-1.01-1.92c-0.05-0.95,0.39-1.87,1.16-2.43c1.86-1.27,3-3.36,3.04-5.61V78.6
	c0-2.96,1.05-5.82,2.94-8.09c1.9-2.27,4.53-3.8,7.44-4.33c-1.27,1.51-1.96,3.43-1.96,5.4v1.4h2.81v-1.4c0-2,1.07-3.86,2.81-4.86
	c1.74-1,3.87-1,5.61,0c1.74,1,2.81,2.85,2.81,4.86v1.4h2.81v-1.4c0-1.97-0.7-3.89-1.96-5.4c2.91,0.53,5.54,2.06,7.44,4.33
	c1.9,2.27,2.94,5.13,2.94,8.09v10.35c0.04,2.25,1.18,4.35,3.04,5.61c0.77,0.56,1.21,1.47,1.16,2.43c-0.08,0.74-0.44,1.43-1.01,1.92
	C98.25,99.4,97.52,99.66,96.77,99.64L96.77,99.64z"/>
<path class="st2" d="M77.37,81.4h2.81c0.37,0,0.73,0.15,0.99,0.41c0.26,0.26,0.41,0.62,0.41,0.99h2.81c0-1.12-0.44-2.19-1.23-2.98
	s-1.86-1.23-2.98-1.23v-1.4h-2.81v1.4c-1.5,0-2.89,0.8-3.64,2.1c-0.75,1.3-0.75,2.91,0,4.21c0.75,1.3,2.14,2.1,3.64,2.1h2.81
	c0.77,0,1.4,0.63,1.4,1.4c0,0.77-0.63,1.4-1.4,1.4h-2.81c-0.77,0-1.4-0.63-1.4-1.4h-2.81c0,1.12,0.44,2.19,1.23,2.98
	s1.86,1.23,2.98,1.23v1.4h2.81v-1.4c1.5,0,2.89-0.8,3.64-2.1c0.75-1.3,0.75-2.91,0-4.21c-0.75-1.3-2.14-2.1-3.64-2.1h-2.81
	c-0.77,0-1.4-0.63-1.4-1.4C75.97,82.03,76.6,81.4,77.37,81.4z"/>
<path class="st2" d="M87.19,84.21H90v2.81h-2.81V84.21z"/>
<path class="st2" d="M67.56,84.21h2.81v2.81h-2.81V84.21z"/>
<path class="st2" d="M40.91,57.56v2.81c1.12,0,2.19,0.44,2.98,1.23c0.79,0.79,1.23,1.86,1.23,2.98h2.81c0-1.86-0.74-3.64-2.06-4.96
	C44.55,58.3,42.76,57.56,40.91,57.56L40.91,57.56z"/>
</svg>
