<?xml version="1.0" encoding="utf-8"?>
<!-- Generator: Adobe Illustrator 26.3.1, SVG Export Plug-In . SVG Version: 6.00 Build 0)  -->
<svg version="1.1" id="Layer_1" xmlns="http://www.w3.org/2000/svg" xmlns:xlink="http://www.w3.org/1999/xlink" x="0px" y="0px"
	 viewBox="0 0 120 120" style="enable-background:new 0 0 120 120;" xml:space="preserve">
<style type="text/css">
	.st0{fill:#B7A1B3;}
	.st1{fill:#FFFFFF;}
</style>
<rect x="-13" y="-16" class="st0" width="146" height="146"/>
<path class="st1" d="M19.18,19.8c-0.99,0.11-1.73,0.95-1.71,1.95v71.03c0,1.06,0.86,1.92,1.92,1.92h80.63
	c0.51,0.01,1.01-0.19,1.38-0.55c0.37-0.36,0.57-0.85,0.57-1.37c0-0.51-0.21-1.01-0.57-1.37c-0.37-0.36-0.86-0.56-1.38-0.55H21.31
	V21.75c0.01-0.55-0.21-1.08-0.62-1.46C20.28,19.92,19.73,19.74,19.18,19.8L19.18,19.8z M72,40.95c-0.51,0.02-0.99,0.25-1.33,0.63
	c-0.34,0.38-0.52,0.88-0.5,1.38c0.02,0.51,0.25,0.99,0.63,1.33c0.38,0.34,0.87,0.52,1.38,0.5h8.94L66.87,59.7
	c-0.73-0.33-1.52-0.51-2.37-0.51c-1.29,0-2.48,0.44-3.45,1.17l-5.37-3.6c0.12-0.45,0.18-0.92,0.18-1.41c0-3.16-2.6-5.76-5.76-5.76
	c-3.16,0-5.76,2.6-5.76,5.76c0,0.93,0.23,1.8,0.63,2.58l-8.37,8.73c-0.84-0.48-1.8-0.75-2.82-0.75c-3.16,0-5.76,2.6-5.76,5.76
	s2.6,5.76,5.76,5.76c3.16,0,5.76-2.6,5.76-5.76c0-0.74-0.13-1.45-0.39-2.1l8.58-8.97c0.73,0.33,1.52,0.51,2.37,0.51
	c1.29,0,2.48-0.44,3.45-1.17l5.37,3.6c-0.12,0.45-0.18,0.92-0.18,1.41c0,3.16,2.6,5.76,5.76,5.76c3.16,0,5.76-2.6,5.76-5.76
	c0-0.93-0.23-1.8-0.63-2.58L83.7,47.64v8.67c-0.01,0.51,0.19,1.01,0.55,1.38c0.36,0.37,0.85,0.57,1.37,0.57
	c0.51,0,1.01-0.21,1.37-0.57c0.36-0.37,0.56-0.86,0.55-1.38V42.87c0-1.06-0.86-1.92-1.92-1.92H72.18
	C72.12,40.95,72.06,40.95,72,40.95L72,40.95z M50.1,53.43c1.08,0,1.92,0.84,1.92,1.92c0,1.08-0.84,1.92-1.92,1.92
	s-1.92-0.84-1.92-1.92C48.19,54.27,49.02,53.43,50.1,53.43z M64.5,63.03c1.08,0,1.92,0.84,1.92,1.92c0,1.08-0.84,1.92-1.92,1.92
	c-1.08,0-1.92-0.84-1.92-1.92C62.58,63.87,63.42,63.03,64.5,63.03z M33.79,69.75c1.08,0,1.92,0.84,1.92,1.92
	c0,1.08-0.84,1.92-1.92,1.92c-1.08,0-1.92-0.84-1.92-1.92C31.87,70.58,32.7,69.75,33.79,69.75z"/>
</svg>
