<?xml version="1.0" encoding="utf-8"?>
<!-- Generator: Adobe Illustrator 26.3.1, SVG Export Plug-In . SVG Version: 6.00 Build 0)  -->
<svg version="1.1" id="Layer_1" xmlns="http://www.w3.org/2000/svg" xmlns:xlink="http://www.w3.org/1999/xlink" x="0px" y="0px"
	 viewBox="0 0 120 120" style="enable-background:new 0 0 120 120;" xml:space="preserve">
<style type="text/css">
	.st0{fill:#B7A1B3;}
	.st1{fill:#FFFFFF;}
</style>
<rect x="-13" y="-16" class="st0" width="146" height="146"/>
<g>
	<path class="st1" d="M71.61,39.24l1.25-5.13l3.42,0.84l-1.25,5.13L71.61,39.24z"/>
	<g>
		<path class="st1" d="M15.6,73h3.57l-0.02,17.61c0,0.47,0.19,0.91,0.52,1.25c0.33,0.33,0.78,0.52,1.25,0.52h10.56
			c0.47,0,0.91-0.19,1.25-0.52c0.33-0.33,0.52-0.78,0.52-1.25V73h3.52c0.47,0,0.91-0.19,1.25-0.52c0.33-0.33,0.52-0.78,0.52-1.25
			V57.15c0-1.87-0.74-3.66-2.06-4.98c-1.32-1.32-3.11-2.06-4.98-2.06h-0.59c1.46-1.26,2.33-3.06,2.43-4.99
			c0.09-1.92-0.61-3.8-1.94-5.2c-1.33-1.39-3.17-2.18-5.1-2.18c-1.93,0-3.77,0.79-5.1,2.18c-1.33,1.39-2.03,3.27-1.94,5.2
			c0.09,1.92,0.97,3.73,2.43,4.99h-0.79c-1.87,0-3.66,0.74-4.98,2.06c-1.32,1.32-2.06,3.11-2.06,4.98v14.09
			c0,0.47,0.19,0.91,0.52,1.25C14.69,72.81,15.13,73,15.6,73L15.6,73z M26.28,41.31c0.93,0,1.83,0.37,2.49,1.03
			c0.66,0.66,1.03,1.56,1.03,2.49c0,0.93-0.37,1.83-1.03,2.49c-0.66,0.66-1.56,1.03-2.49,1.03c-0.93,0-1.83-0.37-2.49-1.03
			c-0.66-0.66-1.03-1.56-1.03-2.49c0-0.93,0.37-1.83,1.03-2.49C24.45,41.68,25.35,41.31,26.28,41.31z M17.36,57.15
			c0-0.93,0.37-1.83,1.03-2.49c0.66-0.66,1.56-1.03,2.49-1.03h10.59c0.93,0,1.83,0.37,2.49,1.03c0.66,0.66,1.03,1.56,1.03,2.49
			v12.33h-1.76V58.91h-3.52v29.93h-1.76V69.48h-3.52v19.37h-1.76l0.03-29.93h-3.52l-0.01,10.56h-1.81L17.36,57.15z"/>
		<path class="st1" d="M63.74,36.88l3.01-1.83l2.74,4.52l-3.01,1.83L63.74,36.88z"/>
		<path class="st1" d="M59.26,45.28l0.84-3.42l5.13,1.25l-0.84,3.42L59.26,45.28z"/>
		<path class="st1" d="M97.5,48.35H96.9c1.46-1.26,2.33-3.06,2.42-4.99c0.09-1.92-0.61-3.8-1.94-5.2c-1.33-1.39-3.17-2.18-5.1-2.18
			c-1.93,0-3.77,0.79-5.1,2.18c-1.33,1.39-2.03,3.27-1.94,5.2c0.09,1.92,0.97,3.73,2.42,4.99H72.81c-0.97,0-1.76,0.79-1.76,1.76
			v0.21c-0.54-0.14-1.09-0.21-1.65-0.21c-1.92-0.01-3.77,0.77-5.1,2.16c-1.33,1.39-2.03,3.26-1.94,5.19
			c0.09,1.92,0.97,3.72,2.43,4.98H49.92c-0.97,0-1.76,0.79-1.76,1.76v5.28c0,0.47,0.19,0.91,0.52,1.25
			c0.33,0.33,0.78,0.52,1.25,0.52h12.36l-0.03,21.13h3.52l0.04-22.89c0-0.47-0.19-0.91-0.52-1.25c-0.33-0.33-0.78-0.52-1.25-0.52
			H51.68v-1.76H74.6c0.87,0,3.52,0,3.52,5.28V81.8h-1.78l0.02-10.56h-3.52l-0.03,21.13h3.52l0.01-7.04h3.54
			c0.47,0,0.91-0.19,1.25-0.52c0.33-0.33,0.52-0.78,0.52-1.25V71.24c0-5.51-2.64-8.8-7.04-8.8h-0.59c1.54-1.32,2.43-3.25,2.43-5.28
			h8.69v31.69c0,0.47,0.19,0.91,0.52,1.25c0.33,0.33,0.78,0.52,1.25,0.52h10.56c0.47,0,0.91-0.19,1.25-0.52
			c0.33-0.33,0.52-0.78,0.52-1.25V71.24h3.56c0.47,0,0.91-0.19,1.25-0.52c0.33-0.33,0.52-0.78,0.52-1.25V57.15
			C104.54,51.64,101.91,48.35,97.5,48.35L97.5,48.35z M69.4,60.67c-0.93,0-1.83-0.37-2.49-1.03c-0.66-0.66-1.03-1.56-1.03-2.49
			s0.37-1.83,1.03-2.49c0.66-0.66,1.56-1.03,2.49-1.03c0.93,0,1.83,0.37,2.49,1.03c0.66,0.66,1.03,1.56,1.03,2.49
			s-0.37,1.83-1.03,2.49C71.23,60.3,70.34,60.67,69.4,60.67z M92.29,39.55c0.93,0,1.83,0.37,2.49,1.03
			c0.66,0.66,1.03,1.56,1.03,2.49s-0.37,1.83-1.03,2.49c-0.66,0.66-1.56,1.03-2.49,1.03c-0.93,0-1.83-0.37-2.49-1.03
			c-0.66-0.66-1.03-1.56-1.03-2.49s0.37-1.83,1.03-2.49C90.46,39.92,91.36,39.55,92.29,39.55z M101.02,67.72h-1.8V57.15H95.7v29.93
			h-1.73V67.72h-3.52v19.37h-1.79V55.39c0-0.47-0.19-0.91-0.52-1.25c-0.33-0.33-0.78-0.52-1.25-0.52H75.47
			c-0.25-0.44-0.55-0.86-0.89-1.23v-0.53H97.5c0.87,0,3.52,0,3.52,5.28L101.02,67.72z"/>
		<path class="st1" d="M67.53,92.36l0.03-10.56l3.52,0.01l-0.03,10.56L67.53,92.36z"/>
	</g>
</g>
</svg>
