<?xml version="1.0" encoding="UTF-8"?><svg id="Layer_2" xmlns="http://www.w3.org/2000/svg" viewBox="0 0 48 48"><defs><style>.cls-1{fill:#d27f7d;}.cls-2{fill:none;}</style></defs><g id="Layer_1-2"><rect class="cls-2" width="48" height="48"/><path class="cls-1" d="M43.5,16.93l-.05-.17c-.47-1.61-1.81-2.16-2.85-1.99-1.02,.17-2.01,1.04-1.94,2.63l.43,5.9c-.61,.09-1.18,.41-1.57,.93-1,1.34-3.36,4.6-3.6,6.03-.11,.67-.05,1.57,.03,2.61,.11,1.48,.24,3.32-.16,4.83-.1,.37,.13,.76,.5,.85,.06,.02,.12,.02,.18,.02,.31,0,.6-.21,.68-.53,.45-1.74,.31-3.71,.2-5.29-.07-.91-.13-1.77-.04-2.27,.14-.86,1.83-3.41,3.35-5.43,.35-.47,.95-.48,1.34-.26,.48,.27,.59,.82,.31,1.51-1.1,2.67-1.71,3.83-1.71,3.84-.18,.34-.05,.77,.29,.95,.34,.18,.77,.05,.95-.29,.03-.05,.64-1.21,1.77-3.96,.68-1.64-.07-2.78-.91-3.26-.05-.03-.11-.05-.17-.08l-.45-6.19c-.03-.76,.37-1.1,.77-1.16,.47-.08,1.05,.2,1.28,.99l.05,.17c1.9,6.52,2.19,7.53,1.8,9.86-.12,.71-.72,1.99-1.36,3.34-.9,1.91-1.92,4.07-2.23,5.9l-.2,1.19s0,0,0,.01c0,0,0,.01,0,.02l-.02,.13h0c-.04,.65,.42,.79,.57,.81,.05,0,.1,.01,.15,.01,.41,0,.57-.32,.65-.59h.01s.02-.15,.02-.15c0,0,0-.02,0-.02,0-.03,.01-.06,.01-.08l.18-1.09c.27-1.64,1.25-3.71,2.11-5.53,.71-1.5,1.32-2.8,1.47-3.7,.44-2.65,.1-3.85-1.83-10.49h0Zm-29.93,15.94c.07-1.04,.14-1.94,.03-2.61-.23-1.36-2.35-4.35-3.61-6.04-.39-.52-.96-.84-1.57-.93l.43-5.92c.07-1.57-.92-2.44-1.94-2.61-1.05-.17-2.39,.37-2.85,1.99l-.06,.19c-1.92,6.62-2.27,7.82-1.83,10.47,.15,.9,.76,2.2,1.47,3.7,.86,1.82,1.84,3.89,2.11,5.53l.18,1.09s0,.05,.01,.08c0,0,0,.02,0,.02l.02,.15h.01c.07,.27,.24,.59,.65,.59,.05,0,.1,0,.15-.01,.15-.03,.61-.16,.57-.81h0s-.02-.13-.02-.13c0,0,0-.01,0-.02,0,0,0,0,0-.01l-.2-1.19c-.31-1.83-1.33-3.99-2.23-5.9-.64-1.35-1.24-2.63-1.36-3.34-.39-2.34-.1-3.34,1.79-9.85l.06-.19c.23-.79,.81-1.07,1.28-.99,.39,.06,.8,.4,.77,1.14l-.45,6.21c-.06,.03-.11,.04-.17,.08-.84,.48-1.59,1.62-.91,3.26,1.13,2.75,1.74,3.91,1.77,3.96,.18,.34,.6,.47,.95,.29,.34-.18,.47-.6,.29-.95,0-.01-.61-1.16-1.71-3.84-.28-.69-.17-1.23,.31-1.51,.39-.22,.99-.2,1.36,.29,1.87,2.5,3.2,4.67,3.33,5.4,.08,.5,.02,1.36-.04,2.28-.11,1.58-.25,3.54,.2,5.29,.08,.32,.37,.53,.68,.53,.06,0,.12,0,.18-.02,.37-.1,.6-.48,.5-.85-.39-1.52-.26-3.36-.15-4.83h0Zm21-9.08v-6.74c0-.39-.31-.7-.7-.7h-6.04v-6.04c0-.39-.31-.7-.7-.7h-6.74c-.39,0-.7,.31-.7,.7v6.04h-6.04c-.39,0-.7,.31-.7,.7v6.74c0,.39,.31,.7,.7,.7h6.04v6.05c0,.39,.31,.7,.7,.7h6.74c.39,0,.7-.31,.7-.7v-6.05h6.04c.39,0,.7-.31,.7-.7h0Zm-1.4-.7h-6.04c-.39,0-.7,.31-.7,.7v6.05h-5.34s0-6.05,0-6.05c0-.39-.31-.7-.7-.7h-6.04v-5.34h6.04c.39,0,.7-.31,.7-.7v-6.04h5.34v6.04c0,.39,.31,.7,.7,.7h6.04v5.34Z"/></g></svg>