<?xml version="1.0" encoding="UTF-8"?><svg id="Layer_2" xmlns="http://www.w3.org/2000/svg" viewBox="0 0 48 48"><defs><style>.cls-1{fill:#d27f7d;}.cls-2{fill:none;}</style></defs><g id="Layer_1-2"><rect class="cls-2" width="48" height="48"/><path class="cls-1" d="M21.84,41.2H8.63c-.22,0-.4-.18-.4-.4V7.87c0-.22,.52-.4,.75-.4h25.52c.22,0,.4,.18,.4,.4V26.64c0,.22-.18,.4-.4,.4s-.73-.18-.73-.4V8.56H9.37v31.49h12.47c.22,0,.4,.53,.4,.75s-.18,.4-.4,.4h0Z"/><path class="cls-1" d="M15.83,28.79c-2.51,0-4.56-2.04-4.56-4.56s2.04-4.56,4.56-4.56,4.56,2.04,4.56,4.56-2.05,4.56-4.56,4.56Zm0-8.31c-2.07,0-3.76,1.69-3.76,3.76s1.69,3.76,3.76,3.76,3.76-1.69,3.76-3.76-1.69-3.76-3.76-3.76h0Z"/><path class="cls-1" d="M15.83,27.53c-.22,0-.4-.18-.4-.4v-5.8c0-.22,.18-.4,.4-.4s.4,.18,.4,.4v5.8c0,.22-.18,.4-.4,.4Z"/><path class="cls-1" d="M15.75,26.92c-.66,0-1.28-.3-1.61-.78-.12-.18-.07-.43,.1-.55,.18-.12,.43-.07,.55,.1,.18,.26,.55,.43,.94,.43,.57,0,1.05-.34,1.05-.75,0-.36-.38-.68-.88-.74-1.52-.18-1.84-.94-1.84-1.55,0-.86,.83-1.55,1.85-1.55,.66,0,1.28,.3,1.61,.78,.12,.18,.07,.43-.1,.55-.18,.12-.43,.07-.55-.1-.18-.26-.55-.43-.94-.43-.57,0-1.05,.34-1.05,.75,0,.17,0,.62,1.14,.76,.9,.1,1.59,.77,1.59,1.54,0,.86-.84,1.55-1.86,1.55h0Z"/><path class="cls-1" d="M32.23,21.61h-10.01c-.22,0-.4-.18-.4-.4s.18-.4,.4-.4h10.01c.22,0,.4,.18,.4,.4s-.18,.4-.4,.4Z"/><path class="cls-1" d="M32.23,24.64h-10.01c-.22,0-.4-.18-.4-.4s.18-.4,.4-.4h10.01c.22,0,.4,.18,.4,.4s-.18,.4-.4,.4Z"/><path class="cls-1" d="M32.23,27.66h-10.01c-.22,0-.4-.18-.4-.4s.18-.4,.4-.4h10.01c.22,0,.4,.18,.4,.4s-.18,.4-.4,.4Z"/><path class="cls-1" d="M23.3,19.04h-2.7c-.22,0-.4-.18-.4-.4v-2.25h-2.25c-.22,0-.4-.18-.4-.4v-2.71c0-.22,.18-.4,.4-.4h2.25v-2.25c0-.22,.18-.4,.4-.4h2.7c.22,0,.4,.18,.4,.4v2.25h2.25c.22,0,.4,.18,.4,.4v2.7c0,.22-.18,.4-.4,.4h-2.25v2.25c0,.22-.18,.41-.4,.41h0Zm-2.3-.8h1.9v-2.25c0-.22,.18-.4,.4-.4h2.25v-1.91h-2.25c-.22,0-.4-.18-.4-.4v-2.25h-1.9v2.25c0,.22-.18,.4-.4,.4h-2.25v1.9h2.25c.22,0,.4,.18,.4,.4v2.26Z"/><path class="cls-1" d="M19.69,33.25h-7.72c-.22,0-.4-.18-.4-.4s.18-.4,.4-.4h7.72c.22,0,.4,.18,.4,.4,0,.22-.18,.4-.4,.4h0Z"/><path class="cls-1" d="M19.69,35.82h-7.72c-.22,0-.4-.18-.4-.4s.18-.4,.4-.4h7.72c.22,0,.4,.18,.4,.4,0,.22-.18,.4-.4,.4h0Z"/><path class="cls-1" d="M19.69,38.39h-7.72c-.22,0-.4-.18-.4-.4s.18-.4,.4-.4h7.72c.22,0,.4,.18,.4,.4,0,.22-.18,.4-.4,.4h0Z"/><path class="cls-1" d="M31,38.06c-.22,0-.4-.18-.4-.4v-5.37c0-.22,.18-.4,.4-.4s.4,.18,.4,.4v5.37c0,.22-.18,.4-.4,.4Z"/><path class="cls-1" d="M30.92,37.5c-.62,0-1.21-.28-1.51-.74-.12-.18-.07-.43,.1-.55,.18-.12,.43-.07,.55,.1,.16,.23,.5,.38,.85,.38,.51,0,.94-.3,.94-.66,0-.32-.34-.6-.79-.66-1.43-.17-1.73-.89-1.73-1.46,0-.81,.78-1.46,1.74-1.46,.62,0,1.21,.28,1.51,.74,.12,.18,.07,.43-.1,.55-.18,.12-.43,.07-.55-.1-.16-.23-.5-.38-.85-.38-.51,0-.94,.3-.94,.66,0,.17,0,.55,1.02,.67,.87,.1,1.5,.71,1.5,1.45,0,.81-.78,1.46-1.73,1.46h0Z"/><path class="cls-1" d="M38.84,41.23H22.22c-.22,0-.4-.18-.4-.4v-11.32c0-.22,.18-.4,.4-.4h11.71c.22,0,.4,.18,.4,.4s-.18,.4-.4,.4h-11.31v10.15h16.22c.22,0,.4,.55,.4,.78s-.18,.39-.4,.39h0Z"/><path class="cls-1" d="M34.12,39.28h-10.45c-.22,0-.4-.18-.4-.4v-7.8c0-.22,.18-.4,.4-.4h10.27c.22,0,.4,.18,.4,.4s-.18,.4-.4,.4h-9.87v7h10.05c.22,0,.4,.18,.4,.4s-.18,.4-.4,.4h0Z"/><path class="cls-1" d="M25.85,39.28c-.22,0-.4-.18-.4-.4,0-.47-.18-.9-.52-1.23-.34-.33-.78-.5-1.25-.48-.22,0-.41-.17-.42-.38,0-.22,.17-.41,.38-.42,.69-.02,1.34,.22,1.83,.7,.5,.48,.77,1.12,.77,1.81,0,.22-.18,.4-.4,.4h0Z"/><path class="cls-1" d="M23.74,33.59h-.09c-.22,0-.39-.19-.38-.42s.19-.39,.42-.38c.47,.02,.91-.15,1.25-.48,.34-.33,.52-.77,.52-1.23,0-.22,.18-.4,.4-.4s.4,.18,.4,.4c0,.69-.27,1.33-.77,1.81-.47,.46-1.09,.7-1.74,.7h0Z"/><path class="cls-1" d="M27.75,35.37h-1.38c-.22,0-.4-.18-.4-.4s.18-.4,.4-.4h1.38c.22,0,.4,.18,.4,.4s-.18,.4-.4,.4Z"/><path class="cls-1" d="M38.84,30.24c-1.36,0-2.65-.24-3.63-.66-1.08-.48-1.68-1.14-1.68-1.89s.6-1.42,1.68-1.89c.98-.43,2.26-.66,3.63-.66s2.65,.24,3.63,.66c1.08,.48,1.68,1.14,1.68,1.89s-.6,1.42-1.68,1.89c-.98,.42-2.26,.66-3.63,.66Zm0-4.32c-2.58,0-4.51,.93-4.51,1.76s1.93,1.76,4.51,1.76,4.51-.93,4.51-1.76-1.93-1.76-4.51-1.76Z"/><path class="cls-1" d="M38.84,33.77c-3.02,0-5.31-1.1-5.31-2.56,0-.22,.18-.4,.4-.4s.4,.18,.4,.4c0,.83,1.85,1.76,4.51,1.76s4.51-.93,4.51-1.76c0-.22,.18-.4,.4-.4s.4,.18,.4,.4c0,1.46-2.28,2.56-5.31,2.56h0Z"/><path class="cls-1" d="M38.84,37.32c-3.02,0-5.31-1.1-5.31-2.56,0-.22,.18-.4,.4-.4s.4,.18,.4,.4c0,.83,1.85,1.76,4.51,1.76s4.51-.93,4.51-1.76c0-.22,.18-.4,.4-.4s.4,.18,.4,.4c0,1.46-2.28,2.56-5.31,2.56h0Z"/><path class="cls-1" d="M38.84,40.85c-3.02,0-5.31-1.1-5.31-2.56v-10.61c0-.22,.18-.4,.4-.4s.4,.18,.4,.4v10.61c0,.83,1.85,1.76,4.51,1.76s4.51-.93,4.51-1.76v-10.61c0-.22,.18-.4,.4-.4s.4,.18,.4,.4v10.99c0,1.46-2.28,2.56-5.31,2.56v-.38Z"/></g></svg>