<?xml version="1.0" encoding="UTF-8"?><svg id="Layer_2" xmlns="http://www.w3.org/2000/svg" viewBox="0 0 48 48"><defs><style>.cls-1{fill:#d27f7d;}.cls-2{fill:none;}</style></defs><g id="Layer_1-2"><rect class="cls-2" width="48" height="48"/><path class="cls-1" d="M35.11,21.06c.96-.53,1.71-1.37,2.12-2.38,.47-1.13,.49-2.39,.07-3.53-.42-1.14-1.26-2.09-2.35-2.64-1.09-.55-2.35-.67-3.52-.34l-2.71-6.54c-.1-.23-.33-.37-.58-.34-.25,.03-.44,.22-.48,.46-.33,1.48-.91,2.88-1.73,4.16-1.96,3.11-4.88,5.49-8.32,6.77l-7.91,3.28c-.48,.2-.86,.58-1.05,1.05s-.2,1.01,0,1.49l.06,.16-1.63,.68c-.36,.15-.65,.44-.8,.8-.15,.36-.15,.77,0,1.13l1.95,4.7c.11,.27,.3,.5,.55,.67,.24,.16,.53,.25,.82,.25,.19,0,.38-.04,.55-.11l1.63-.68,.07,.16h0c.2,.48,.58,.86,1.05,1.06,.48,.2,1.01,.2,1.49,0l.37-.16,.9,2.16c.12,.28,.44,.41,.72,.3l.88-.36,2.77,6.66c.29,.71,.85,1.26,1.56,1.55,.71,.3,1.51,.3,2.22,0,.7-.29,1.26-.85,1.55-1.56,.29-.7,.29-1.5,0-2.2l-2.77-6.66,.83-.35c.14-.06,.24-.16,.3-.3,.06-.14,.06-.29,0-.42l-.92-2.16c8.32-3.33,14.27,.79,14.32,.84,.1,.07,.21,.1,.33,.1,.18,0,.36-.09,.46-.25,.1-.15,.12-.35,.05-.52l-2.86-6.95Zm-11.75,19.42c-.43,.18-.92,.18-1.35,0-.43-.18-.78-.53-.95-.96l-2.77-6.66,3.27-1.35,2.77,6.66c.18,.43,.18,.92,0,1.35-.18,.43-.52,.78-.96,.96h0ZM31.85,13.2c.9-.22,1.85-.1,2.67,.33s1.44,1.16,1.75,2.04c.31,.87,.29,1.83-.07,2.69-.3,.74-.84,1.36-1.53,1.77l-1.31-3.18-1.52-3.65ZM9.74,29.76c-.19,.08-.41-.01-.49-.2l-1.95-4.7c-.04-.09-.04-.2,0-.29,.04-.09,.11-.16,.2-.2l1.63-.68,2.22,5.39-1.62,.68Zm4.24,.55c-.21,.09-.44,.09-.65,0s-.37-.25-.46-.46l-.28-.66-2.64-6.45-.28-.67h0c-.08-.2-.08-.43,0-.64,.08-.21,.25-.37,.45-.45l7.4-3.07,1.95,4.65,1.93,4.65-5.45,2.25-1.98,.83Zm1.82,.45l6-2.49,.68,1.66-6,2.44-.68-1.61Zm13.59-5.35h0c-2.4,.02-4.77,.5-6.99,1.41l-1.36-3.33-2.49-6c6.45-2.77,8.88-7.48,9.76-9.96l8.04,19.42c-2.17-1.04-4.55-1.57-6.96-1.56v.02Z"/><path class="cls-1" d="M39.45,14.63c.07,0,.14-.02,.21-.04l2.77-1.15c.28-.12,.42-.44,.3-.72-.12-.28-.44-.42-.72-.3l-2.77,1.14c-.26,.09-.41,.36-.36,.63,.05,.27,.29,.46,.57,.45h0Z"/><path class="cls-1" d="M42.43,20.23l-2.77-1.15h0c-.28-.12-.61,.02-.73,.3-.12,.28,.02,.61,.3,.73l2.77,1.15h0c.07,.02,.14,.03,.22,.03,.27,0,.5-.18,.55-.45,.05-.26-.09-.52-.34-.62v.02Z"/><path class="cls-1" d="M35.31,10.64c.07,.03,.14,.04,.22,.04,.22,0,.43-.14,.51-.34l1.15-2.77h0c.12-.28-.02-.61-.3-.73-.28-.12-.61,.02-.73,.3l-1.15,2.77c-.06,.14-.06,.29,0,.43,.06,.14,.17,.24,.3,.3h0Z"/><path class="cls-1" d="M16.98,21.51c-.06-.14-.16-.24-.3-.3-.14-.06-.29-.06-.43,0l-3.67,1.52h0c-.25,.1-.39,.37-.33,.63,.06,.26,.3,.44,.57,.43,.07,0,.14-.01,.21-.04l3.67-1.53c.27-.13,.39-.45,.27-.72h0Z"/><path class="cls-1" d="M18.15,25.81c.28-.12,.42-.44,.3-.72-.12-.28-.44-.42-.72-.3l-3.67,1.52h0c-.27,.09-.43,.36-.38,.63,.05,.28,.31,.47,.59,.45,.08,0,.15-.02,.22-.06l3.67-1.52Z"/></g></svg>