<?xml version="1.0" encoding="UTF-8"?><svg id="Layer_2" xmlns="http://www.w3.org/2000/svg" viewBox="0 0 48 48"><defs><style>.cls-1{fill:#d27f7d;}.cls-2{fill:none;}</style></defs><g id="Layer_1-2"><rect class="cls-2" width="48" height="48"/><g><path class="cls-1" d="M27.22,13.36h-1.71v-1.71c0-.14-.05-.27-.15-.36-.1-.1-.23-.15-.36-.15h-2.3c-.28,0-.51,.23-.51,.51v1.71h-1.71c-.28,0-.51,.23-.51,.51v2.3c0,.14,.05,.27,.15,.36,.1,.1,.23,.15,.36,.15h1.71v1.71c0,.14,.05,.27,.15,.36,.1,.1,.23,.15,.36,.15h2.3c.14,0,.27-.05,.36-.15,.1-.1,.15-.23,.15-.36v-1.71h1.71c.14,0,.27-.05,.36-.15,.1-.1,.15-.23,.15-.36v-2.3c0-.14-.05-.27-.15-.37-.1-.1-.23-.15-.37-.15h0Zm-.51,2.3h-1.71c-.28,0-.51,.23-.51,.51v1.71h-1.28v-1.71c0-.14-.05-.27-.15-.36-.1-.1-.23-.15-.36-.15h-1.71v-1.27h1.71c.14,0,.27-.05,.36-.15,.1-.1,.15-.23,.15-.36v-1.71h1.27v1.71c0,.14,.05,.27,.15,.36,.1,.1,.23,.15,.36,.15h1.71v1.27Z"/><path class="cls-1" d="M41.59,21.42h-8.87V9.68c0-.73-.29-1.42-.8-1.94-.51-.51-1.21-.8-1.94-.8h-12.26c-.73,0-1.42,.29-1.94,.8-.51,.51-.8,1.21-.8,1.94v11.74H6.11c-.28,0-.51,.23-.51,.51v18.32c0,.14,.05,.27,.15,.36,.1,.1,.23,.15,.36,.15H41.59c.14,0,.27-.05,.36-.15,.1-.1,.15-.23,.15-.36V21.93c0-.14-.05-.27-.15-.36-.1-.1-.23-.15-.36-.15h0ZM14.98,39.74H6.63V22.44H14.98v17.29Zm8.35-5.09c-.1-.11-.24-.18-.39-.19-.28,0-.51,.23-.51,.51v1.33c0,.14,.05,.27,.15,.36,.1,.1,.23,.15,.36,.15,.15,0,.29-.07,.39-.19v3.08h-3.66v-8.15h3.66v3.08Zm4.69,5.07h-3.67v-3.09h0c.1,.12,.24,.18,.39,.19,.14,0,.27-.05,.36-.15,.1-.1,.15-.23,.15-.36v-1.32c0-.14-.05-.27-.15-.36-.1-.1-.23-.15-.36-.15-.15,0-.29,.06-.39,.17v-3.08h3.67v8.16Zm3.67-17.8v17.81h-2.64v-8.69c0-.14-.05-.27-.15-.36-.1-.1-.23-.15-.36-.15h-9.38c-.28,0-.51,.23-.51,.51v8.69h-2.64V9.68c0-.45,.18-.89,.5-1.21,.32-.32,.76-.5,1.21-.5h12.26c.45,0,.89,.18,1.21,.5,.32,.32,.5,.76,.5,1.21v12.24Zm9.38,17.81h-8.35V22.45h8.35v17.29Z"/><path class="cls-1" d="M7.85,36.83h5.91c.14,0,.27-.05,.36-.15,.1-.1,.15-.23,.15-.36v-7.71c0-.14-.05-.27-.15-.36-.1-.1-.23-.15-.36-.15H7.85c-.28,0-.51,.23-.51,.51v7.71c0,.14,.05,.27,.15,.36,.1,.1,.23,.15,.36,.15h0Zm.51-7.71h4.88v6.68h-4.88v-6.68Z"/><path class="cls-1" d="M33.94,36.83h5.91c.14,0,.27-.05,.36-.15,.1-.1,.15-.23,.15-.36v-7.71c0-.14-.05-.27-.15-.36-.1-.1-.23-.15-.36-.15h-5.91c-.28,0-.51,.23-.51,.51v7.71c0,.14,.05,.27,.15,.36,.1,.1,.23,.15,.36,.15h0Zm.51-7.71h4.88v6.68h-4.88v-6.68Z"/><path class="cls-1" d="M11.09,29.99c-.24-.15-.55-.09-.71,.15l-1.35,2.06c-.08,.11-.11,.25-.08,.39,.03,.14,.11,.25,.22,.33,.12,.08,.26,.1,.39,.07,.13-.03,.25-.11,.33-.23l1.35-2.06h0c.07-.12,.1-.26,.07-.39-.03-.13-.11-.25-.23-.33h0Z"/><path class="cls-1" d="M12.15,31.01c-.24-.15-.55-.09-.71,.15l-1.35,2.06c-.08,.11-.11,.25-.08,.39,.03,.14,.11,.25,.22,.33,.12,.08,.26,.1,.39,.07,.13-.03,.25-.11,.33-.23l1.35-2.06c.08-.12,.1-.26,.07-.39-.03-.13-.11-.25-.23-.33h0Z"/><path class="cls-1" d="M37.79,30.5c-.24-.15-.55-.09-.71,.15l-1.35,2.06h0c-.08,.11-.11,.25-.08,.39,.03,.14,.11,.25,.22,.33,.12,.08,.26,.1,.39,.07,.13-.03,.25-.11,.33-.23l1.35-2.06h0c.08-.12,.1-.26,.07-.39-.03-.13-.11-.25-.23-.33h0Z"/><path class="cls-1" d="M38.85,31.52c-.24-.15-.55-.09-.71,.15l-1.35,2.06h0c-.08,.11-.11,.25-.08,.39,.03,.14,.11,.25,.22,.33,.12,.08,.26,.1,.39,.07,.13-.03,.25-.11,.33-.23l1.35-2.06h0c.07-.12,.1-.26,.07-.39-.03-.13-.11-.25-.23-.32h0Z"/></g></g></svg>