<?xml version="1.0" encoding="UTF-8"?><svg id="Layer_2" xmlns="http://www.w3.org/2000/svg" viewBox="0 0 48 48"><defs><style>.cls-1{fill:#d27f7d;}.cls-2{fill:none;}</style></defs><g id="Layer_1-2"><rect class="cls-2" width="48" height="48"/><path class="cls-1" d="M36.3,28.1c-.46-.85-1.12-1.56-1.87-2.14-.23-.74-1.3-4.46-1.03-7,.99-9.32-.43-13.24-5.43-14.97-2.58-.89-5.29-.71-7.45,.5-1.75,.98-2.91,2.53-3.29,4.34-.79,3.74-1.56,6.48-1.56,6.51-.04,.15,0,.3,.09,.43,.1,.12,.24,.18,.4,.18,.22-.01,.44-.03,.65-.05,.2,1.02,.96,5.87-2.02,10.03-.77,.59-1.45,1.31-1.92,2.18-1.85,3.43-1.56,12.26-1.55,12.63,0,.25,.22,.46,.48,.46h.02c.26,0,.47-.23,.46-.5,0-.09-.29-8.95,1.43-12.15,.72-1.35,2.06-2.29,3.45-2.94-.13,.7-.08,1.47,.15,2.29-1.69,.5-2.96,2.39-2.96,4.64,0,.58,.13,1.1,.25,1.54,0,.01,.01,.02,.01,.03-.2,.2-.32,.46-.32,.76,0,.59,.48,1.07,1.07,1.07s1.07-.48,1.07-1.07c0-.53-.39-.97-.91-1.05-.11-.39-.21-.83-.21-1.28,0-2.11,1.3-3.82,2.89-3.82s2.88,1.71,2.88,3.82c0,.41-.08,.8-.18,1.16-.53,.06-.93,.51-.93,1.05,0,.59,.48,1.07,1.07,1.07s1.07-.48,1.07-1.07c0-.29-.11-.55-.3-.74,.11-.43,.23-.93,.23-1.48,0-2.6-1.68-4.72-3.76-4.77-.29-1-.28-1.89,.03-2.63,1.31-.48,2.52-.73,3.15-.84v1.4l-.48-.6c-.16-.2-.46-.23-.67-.07-.2,.16-.23,.46-.07,.67l3.8,4.67v8.51c0,.26,.22,.48,.48,.48s.48-.22,.48-.48v-8.52s3.77-4.63,3.77-4.63c.16-.2,.13-.5-.07-.67-.2-.16-.5-.13-.67,.07l-.39,.48v-1.3c.53,.09,1.59,.29,2.79,.69,.46,.87,.57,1.91,.31,3.11-.48,2.25-1.21,3.35-1.24,3.38h0c-.13-.02-.27-.04-.41-.04-1.09,0-1.98,.89-1.98,1.98s.89,1.98,1.98,1.98,1.98-.89,1.98-1.98c0-.61-.28-1.15-.72-1.51,.21-.34,.87-1.52,1.31-3.62,.22-1.04,.2-2-.04-2.85,1.52,.66,3.05,1.65,3.85,3.12,1.73,3.2,1.44,12.06,1.43,12.15,0,.26,.2,.48,.46,.5h.02c.25,0,.47-.2,.48-.46,.02-.39,.31-9.22-1.54-12.65h0Zm-21.07,6.79c0-.06,.05-.11,.11-.11s.11,.05,.11,.11c0,.13-.23,.13-.23,0Zm5.67-.12c0-.06,.05-.11,.11-.11s.11,.05,.11,.11c0,.13-.23,.13-.23,0h0Zm8.16-.32c-.57,0-1.03-.46-1.03-1.03s.46-1.03,1.03-1.03,1.03,.46,1.03,1.03-.46,1.03-1.03,1.03Zm-12.52-9.6c2-3.93,1.44-7.9,1.21-9.06,.52-.07,1.01-.16,1.48-.27,0,.17,0,.34,0,.54v.1c0,2.27,.88,4.29,2.22,5.54v.1c-.71,.16-2.74,.76-3.76,2.44-.03,.04-.05,.1-.08,.15-.36,.14-.71,.29-1.06,.47h0Zm8.85-12.66c.39,.86,1.38,2.46,3.64,3.58,0,.02,0,.04,0,.05,.02,.1,.03,.16,.03,.33,0,3.27-2,5.93-4.45,5.93s-4.45-2.66-4.45-5.93v-.1c0-.31,0-.54,.03-.8,2.5-.74,4.14-1.96,5.19-3.07h0Zm-6.07,11.62c.74-.58,1.61-.89,2.11-1.02v.57c-.43,.06-1.19,.2-2.11,.46Zm5.15,5.65l-2.09-2.56v-4.48c.69,.4,1.44,.63,2.24,.63,.72,0,1.4-.18,2.03-.51v4.22h0s-2.18,2.7-2.18,2.7Zm3.14-6.65c.4,.13,1.03,.39,1.63,.85-.72-.18-1.31-.27-1.63-.32v-.53Zm3.41,1.36c-1-1.52-2.67-2.15-3.35-2.34,1.41-1.24,2.34-3.3,2.35-5.64,.22,.08,.44,.16,.68,.23,.04,.01,.09,.02,.13,.02,.2,0,.39-.13,.46-.34,.08-.25-.07-.51-.32-.59-4.03-1.19-4.85-4.02-4.88-4.15,.68-.91,.94-1.62,.96-1.7,.08-.25-.04-.52-.29-.6-.25-.09-.52,.04-.61,.29-.07,.2-1.83,4.91-9.41,5.6,.28-1.03,.84-3.22,1.4-5.92,.32-1.54,1.33-2.85,2.83-3.7,1.92-1.09,4.34-1.24,6.67-.43,3.83,1.33,5.85,4.05,4.79,13.97-.22,2.07,.36,4.75,.76,6.3-.71-.4-1.45-.72-2.16-.98-.01,0-.02-.01-.02-.02h0Z"/></g></svg>