<?xml version="1.0" encoding="UTF-8"?><svg id="Layer_2" xmlns="http://www.w3.org/2000/svg" viewBox="0 0 48 48"><defs><style>.cls-1{fill:#d27f7d;}.cls-2{fill:none;}</style></defs><g id="Layer_1-2"><rect class="cls-2" width="48" height="48"/><g><path class="cls-1" d="M25.75,12.26H11.75c-.28,0-.51-.23-.51-.51v-2.86c0-1.28,1.04-2.32,2.32-2.32h10.38c1.28,0,2.32,1.04,2.32,2.32v2.86c0,.28-.23,.51-.51,.51h0Zm-13.48-1.03h12.97v-2.34c0-.71-.58-1.29-1.29-1.29H13.56c-.71,0-1.29,.58-1.29,1.29v2.34Z"/><path class="cls-1" d="M23.3,20.46H8.64c-.28,0-.51-.23-.51-.51s.23-.51,.51-.51h14.66c.28,0,.51,.23,.51,.51s-.23,.51-.51,.51Z"/><path class="cls-1" d="M21.86,12.26c-.28,0-.51-.23-.51-.51v-2.33c0-.28,.23-.51,.51-.51s.51,.23,.51,.51v2.33c0,.28-.23,.51-.51,.51h0Z"/><path class="cls-1" d="M18.75,12.26c-.28,0-.51-.23-.51-.51v-2.33c0-.28,.23-.51,.51-.51s.51,.23,.51,.51v2.33c0,.28-.23,.51-.51,.51h0Z"/><path class="cls-1" d="M15.64,12.26c-.28,0-.51-.23-.51-.51v-2.33c0-.28,.23-.51,.51-.51s.51,.23,.51,.51v2.33c0,.28-.23,.51-.51,.51h0Z"/><path class="cls-1" d="M18.01,35.89H7.79c-.28,0-.51-.23-.51-.51v-11.15c0-.28,.23-.51,.51-.51h10.22c1.74,0,3.15,1.41,3.15,3.15v5.87c0,1.74-1.41,3.15-3.15,3.15h0Zm-9.71-1.03h9.71c1.17,0,2.12-.95,2.12-2.12v-5.87c0-1.17-.95-2.12-2.12-2.12H8.3v10.12Z"/><path class="cls-1" d="M27.2,41.04H10.23c-1.63,0-2.96-1.33-2.96-2.96v-14.7s0-.05,0-.07l.11-.72c.26-2.92,2.07-5.49,4.74-6.72,.88-.4,1.44-1.28,1.44-2.23v-1.89c0-.28,.23-.51,.51-.51h9.33c.28,0,.51,.23,.51,.51v1.89c0,.96,.55,1.82,1.4,2.21,2.93,1.32,4.82,4.25,4.82,7.46v5.09c0,.14-.05,.27-.15,.36l-3.77,3.77c-.21,.21-.33,.49-.33,.79s.12,.58,.33,.79l3.77,3.77c.1,.1,.16,.25,.15,.4-.1,1.55-1.39,2.77-2.95,2.77h0ZM8.3,23.41v14.67c0,1.06,.87,1.93,1.93,1.93H27.2c.94,0,1.74-.68,1.9-1.59l-3.59-3.59c-.4-.4-.63-.94-.63-1.52s.22-1.11,.63-1.52l3.62-3.62v-4.88c0-2.81-1.65-5.36-4.21-6.52-1.22-.55-2.01-1.78-2.01-3.14v-1.37H14.6v1.37c0,1.35-.8,2.59-2.05,3.16-2.34,1.07-3.93,3.33-4.15,5.88,0,.01,0,.02,0,.03l-.1,.7Z"/><path class="cls-1" d="M32.6,41.04c-.57,0-1.11-.22-1.52-.63l-5.58-5.58c-.84-.84-.84-2.2,0-3.03l10.43-10.43c.4-.4,.94-.63,1.52-.63s1.11,.22,1.52,.63l5.58,5.58c.84,.84,.84,2.2,0,3.03l-10.43,10.43c-.4,.4-.94,.63-1.52,.63h0Zm4.85-19.26c-.3,0-.58,.12-.79,.33l-10.43,10.43c-.43,.43-.43,1.14,0,1.58l5.58,5.58c.21,.21,.49,.33,.79,.33s.58-.12,.79-.33l10.43-10.43c.21-.21,.33-.49,.33-.79s-.12-.58-.33-.79l-5.58-5.58c-.21-.21-.49-.33-.79-.33h0Z"/><path class="cls-1" d="M30.78,33.83c-.05,0-.11,0-.16-.03l-1.82-.61c-.27-.09-.42-.38-.33-.65s.38-.42,.65-.33l1.82,.61c.27,.09,.42,.38,.33,.65-.07,.22-.27,.35-.49,.35h0Z"/><path class="cls-1" d="M33.2,31.4c-.05,0-.11,0-.16-.03l-1.82-.61c-.27-.09-.42-.38-.33-.65s.38-.42,.65-.33l1.82,.61c.27,.09,.42,.38,.33,.65-.07,.22-.27,.35-.49,.35h0Z"/><path class="cls-1" d="M35.63,28.98c-.05,0-.11,0-.16-.03l-1.82-.61c-.27-.09-.42-.38-.33-.65s.38-.42,.65-.33l1.82,.61c.27,.09,.42,.38,.33,.65-.07,.22-.27,.35-.49,.35h0Z"/><path class="cls-1" d="M38.05,26.55c-.05,0-.11,0-.16-.03l-1.82-.61c-.27-.09-.42-.38-.33-.65,.09-.27,.38-.42,.65-.33l1.82,.61c.27,.09,.42,.38,.33,.65-.07,.22-.27,.35-.49,.35h0Z"/><path class="cls-1" d="M33.81,36.86c-.05,0-.11,0-.16-.03l-1.82-.61c-.27-.09-.42-.38-.33-.65s.38-.42,.65-.33l1.82,.61c.27,.09,.42,.38,.33,.65-.07,.22-.27,.35-.49,.35h0Z"/><path class="cls-1" d="M36.24,34.44c-.05,0-.11,0-.16-.03l-1.82-.61c-.27-.09-.42-.38-.33-.65s.38-.42,.65-.33l1.82,.61c.27,.09,.42,.38,.33,.65-.07,.22-.27,.35-.49,.35h0Z"/><path class="cls-1" d="M38.66,32.01c-.05,0-.11,0-.16-.03l-1.82-.61c-.27-.09-.42-.38-.33-.65s.38-.42,.65-.33l1.82,.61c.27,.09,.42,.38,.33,.65-.07,.22-.27,.35-.49,.35h0Z"/><path class="cls-1" d="M41.09,29.59c-.05,0-.11,0-.16-.03l-1.82-.61c-.27-.09-.42-.38-.33-.65s.38-.42,.65-.33l1.82,.61c.27,.09,.42,.38,.33,.65-.07,.22-.27,.35-.49,.35h0Z"/><path class="cls-1" d="M15.5,32.46H7.79c-.28,0-.51-.23-.51-.51s.23-.51,.51-.51h7.72c.28,0,.51,.23,.51,.51s-.23,.51-.51,.51Z"/></g></g></svg>