<?xml version="1.0" encoding="UTF-8"?><svg id="Layer_2" xmlns="http://www.w3.org/2000/svg" viewBox="0 0 48 48"><defs><style>.cls-1{fill:#d27f7d;}.cls-2{fill:none;}</style></defs><g id="Layer_1-2"><rect class="cls-2" width="48" height="48"/><g><path class="cls-1" d="M31.49,19.08c0-2.23-.97-4.35-2.69-5.78-.17-.17-.4-.17-.63-.06l-4.29,2.06-4.29-2.12c-.23-.11-.46-.06-.63,.06-1.72,1.43-2.69,3.55-2.69,5.78,0,4.69,15.23,4.69,15.23,.06h0Zm-3.49,1.78v-2.4c0-.34-.23-.57-.57-.57s-.57,.23-.57,.57v2.69c-1.83,.34-4.06,.34-5.9,0v-2.69c0-.34-.23-.57-.57-.57s-.57,.23-.57,.57v2.4c-1.43-.4-2.35-1.09-2.35-1.83,0-1.78,.74-3.49,2-4.69l4.18,2.06c.17,.06,.34,.06,.52,0l4.18-2.06c1.26,1.2,2,2.92,2,4.69,0,.8-.92,1.43-2.35,1.83h0Z"/><path class="cls-1" d="M23.88,13.01c2.06,0,3.72-1.66,3.72-3.72s-1.66-3.72-3.72-3.72-3.72,1.66-3.72,3.72,1.66,3.72,3.72,3.72Zm0-6.3c1.43,0,2.58,1.15,2.58,2.58s-1.15,2.58-2.58,2.58-2.58-1.15-2.58-2.58,1.15-2.58,2.58-2.58Z"/><path class="cls-1" d="M18.21,32.93c-.17-.17-.4-.17-.63-.06l-4.29,2.12-4.29-2.18c-.23-.11-.46-.06-.63,.06-1.72,1.43-2.69,3.55-2.69,5.78,0,4.64,15.17,4.64,15.17,0,.06-2.18-.92-4.29-2.63-5.73h0Zm-.8,7.61v-2.4c0-.34-.23-.57-.57-.57s-.57,.23-.57,.57v2.69c-1.83,.34-4.06,.34-5.9,0v-2.69c0-.34-.23-.57-.57-.57s-.57,.23-.57,.57v2.4c-1.43-.4-2.35-1.09-2.35-1.83,0-1.78,.74-3.49,2-4.69l4.18,2.06c.17,.06,.34,.06,.52,0l4.18-2.06c1.26,1.2,2,2.92,2,4.69,0,.74-.92,1.37-2.35,1.83h0Z"/><path class="cls-1" d="M9.56,28.93c0,2.06,1.66,3.72,3.72,3.72s3.72-1.66,3.72-3.72-1.66-3.72-3.72-3.72-3.72,1.66-3.72,3.72Zm6.3,0c0,1.43-1.15,2.58-2.58,2.58s-2.58-1.15-2.58-2.58,1.15-2.58,2.58-2.58,2.58,1.15,2.58,2.58Z"/><path class="cls-1" d="M39.39,32.93c-.17-.17-.4-.17-.63-.06l-4.29,2.12-4.29-2.18c-.23-.11-.46-.06-.63,.06-1.72,1.43-2.69,3.55-2.69,5.78,0,4.64,15.17,4.64,15.17,0,.06-2.18-.92-4.29-2.63-5.73h0Zm-.8,7.61v-2.4c0-.34-.23-.57-.57-.57s-.57,.23-.57,.57v2.69c-1.83,.34-4.06,.34-5.9,0v-2.69c0-.34-.23-.57-.57-.57s-.57,.23-.57,.57v2.4c-1.43-.4-2.35-1.09-2.35-1.83,0-1.78,.74-3.49,2-4.69l4.18,2.06c.17,.06,.34,.06,.52,0l4.18-2.06c1.26,1.2,2,2.92,2,4.69,0,.74-.92,1.37-2.35,1.83h0Z"/><path class="cls-1" d="M34.47,32.65c2.06,0,3.72-1.66,3.72-3.72s-1.66-3.72-3.72-3.72-3.72,1.66-3.72,3.72,1.66,3.72,3.72,3.72Zm0-6.3c1.43,0,2.58,1.15,2.58,2.58s-1.15,2.58-2.58,2.58-2.58-1.15-2.58-2.58c0-1.43,1.15-2.58,2.58-2.58Z"/><path class="cls-1" d="M9.05,23.49q.06,0,0,0c.23,.23,.57,.17,.8-.06l1.6-1.78c.23-.23,.17-.57-.06-.8s-.57-.17-.8,.06l-.74,.8c-.06-2.92,1.95-5.61,4.98-6.3,.29-.06,.52-.34,.46-.69-.06-.29-.34-.52-.69-.46-3.49,.8-5.9,3.95-5.84,7.33l-.63-.57c-.23-.23-.57-.17-.8,.06-.23,.23-.17,.57,.06,.8l1.66,1.6Z"/><path class="cls-1" d="M32.87,15.47c3.03,.63,5.04,3.38,4.98,6.3l-.74-.8c-.23-.23-.57-.23-.8-.06-.23,.23-.23,.57-.06,.8l1.6,1.78h.06c.17,.17,.46,.23,.69,.06,0,0,.06,0,.06-.06l1.78-1.6c.23-.23,.23-.57,.06-.8-.23-.23-.57-.23-.8-.06l-.63,.57c0-3.44-2.4-6.53-5.9-7.27-.29-.06-.63,.11-.69,.46-.06,.29,.11,.57,.4,.69h0Z"/></g></g></svg>