<?xml version="1.0" encoding="UTF-8"?><svg id="Layer_2" xmlns="http://www.w3.org/2000/svg" viewBox="0 0 48 48"><defs><style>.cls-1{fill:#d27f7d;}.cls-2{fill:none;}</style></defs><g id="Layer_1-2"><rect class="cls-2" width="48" height="48"/><g><path class="cls-1" d="M35.78,3.97H11.92c-1.1,0-1.99,.89-1.99,1.99V41.75c0,1.1,.89,1.99,1.99,1.99h23.86c1.1,0,1.99-.89,1.99-1.99V5.96c0-1.1-.89-1.99-1.99-1.99Zm-23.86,1.33h23.86c.37,0,.66,.3,.66,.66v5.96H11.26V5.96c0-.37,.3-.66,.66-.66h0Zm23.86,37.11H11.92c-.37,0-.66-.3-.66-.66V13.25h25.18v28.5c0,.37-.3,.66-.66,.66h0Z"/><path class="cls-1" d="M23.85,26.5c3.29,0,5.96-2.67,5.96-5.96s-2.67-5.96-5.96-5.96-5.96,2.67-5.96,5.96c0,3.29,2.67,5.96,5.96,5.96Zm0-10.6c2.56,0,4.64,2.08,4.64,4.64s-2.08,4.64-4.64,4.64-4.64-2.08-4.64-4.64c0-2.56,2.08-4.64,4.64-4.64h0Z"/><path class="cls-1" d="M33.13,28.49H14.57c-.37,0-.66,.3-.66,.66s.3,.66,.66,.66h18.56c.37,0,.66-.3,.66-.66s-.3-.66-.66-.66Z"/><path class="cls-1" d="M31.14,32.47c.37,0,.66-.3,.66-.66s-.3-.66-.66-.66h-14.58c-.37,0-.66,.3-.66,.66s.3,.66,.66,.66h14.58Z"/><path class="cls-1" d="M29.15,33.79h-10.6c-1.83,0-3.31,1.48-3.31,3.31s1.48,3.31,3.31,3.31h10.6c1.83,0,3.31-1.48,3.31-3.31s-1.48-3.31-3.31-3.31h0Zm0,5.3h-10.6c-1.1,0-1.99-.89-1.99-1.99s.89-1.99,1.99-1.99h10.6c1.1,0,1.99,.89,1.99,1.99s-.89,1.99-1.99,1.99Z"/><path class="cls-1" d="M27.83,36.44h-7.95c-.37,0-.66,.3-.66,.66s.3,.66,.66,.66h7.95c.37,0,.66-.3,.66-.66s-.3-.66-.66-.66Z"/><path class="cls-1" d="M23.85,21.86c.37,0,.66-.3,.66-.66v-3.31c0-.37-.3-.66-.66-.66s-.66,.3-.66,.66v3.31c0,.37,.3,.66,.66,.66Z"/><path class="cls-1" d="M23.85,23.85c.09,0,.17-.02,.25-.05,.08-.03,.15-.08,.22-.14,.26-.26,.26-.68,0-.94-.06-.06-.14-.11-.22-.14-.25-.1-.53-.05-.72,.14-.26,.26-.26,.68,0,.94,.13,.12,.29,.19,.47,.19h0Z"/></g></g></svg>