<?xml version="1.0" encoding="UTF-8"?><svg id="Layer_2" xmlns="http://www.w3.org/2000/svg" viewBox="0 0 48 48"><defs><style>.cls-1{fill:#d27f7d;}.cls-2{fill:none;}</style></defs><g id="Layer_1-2"><rect class="cls-2" width="48" height="48"/><g><path class="cls-1" d="M38.17,13.56h.65v-1.57l-3.64-3.64h-.34c-3.98,0-7.73-1.55-10.54-4.37l-.46-.46-.46,.46c-2.82,2.82-6.56,4.37-10.54,4.37h-.34l-3.64,3.64v1.57h.65c1.41,0,2.6,1.79,2.6,3.91,0,1.42-.53,2.74-1.37,3.43-1.2,.98-1.88,2.35-1.88,3.77v.09c0,9.03,6.09,17,14.8,19.38l.17,.05,.17-.05c8.71-2.38,14.8-10.34,14.8-19.38v-.09c0-1.41-.69-2.78-1.88-3.77-.85-.7-1.37-2.01-1.37-3.43,0-2.12,1.19-3.91,2.6-3.91h0Zm-3.91,3.91c0,1.83,.69,3.49,1.85,4.44,.89,.73,1.4,1.74,1.4,2.76v.09c0,8.39-5.61,15.79-13.67,18.07-8.06-2.28-13.67-9.69-13.67-18.07v-.09c0-1.02,.51-2.03,1.4-2.76,1.16-.95,1.85-2.61,1.85-4.44,0-2.5-1.33-4.6-3.1-5.1l2.72-2.72c4.04-.05,7.84-1.57,10.8-4.3,2.95,2.73,6.76,4.25,10.8,4.3l2.72,2.72c-1.77,.5-3.1,2.59-3.1,5.1h0Z"/><path class="cls-1" d="M14.09,16.16h19.53v-5.21H14.09v5.21Zm1.3-3.91h16.92v2.6H15.39v-2.6Z"/><path class="cls-1" d="M23.85,18.77c-5.38,0-9.76,4.38-9.76,9.76s4.38,9.76,9.76,9.76,9.76-4.38,9.76-9.76-4.38-9.76-9.76-9.76Zm0,18.23c-4.67,0-8.46-3.8-8.46-8.46s3.8-8.46,8.46-8.46,8.46,3.8,8.46,8.46-3.8,8.46-8.46,8.46Z"/><path class="cls-1" d="M27.8,26.26c-.09-.19,.03-.89,.1-1.32,.17-1,.35-2.13-.47-2.61-.81-.47-1.64,.22-2.44,.88-.32,.27-.93,.76-1.14,.77-.21,0-.82-.5-1.14-.77-.8-.66-1.64-1.34-2.44-.88-.82,.48-.63,1.61-.47,2.61,.07,.42,.19,1.13,.11,1.31-.12,.16-.76,.4-1.15,.54-.97,.36-2.07,.77-2.07,1.75s1.1,1.39,2.07,1.75c.38,.14,1.03,.38,1.14,.53,.09,.19-.03,.89-.1,1.32-.17,1-.35,2.13,.47,2.61,.18,.11,.37,.15,.56,.15,.63,0,1.26-.52,1.89-1.03,.32-.27,.93-.76,1.14-.77,.21,0,.82,.5,1.14,.77,.8,.66,1.64,1.34,2.44,.88,.82-.48,.63-1.61,.47-2.61-.07-.42-.19-1.13-.11-1.31,.12-.16,.76-.4,1.15-.54,.97-.36,2.07-.77,2.07-1.75s-1.1-1.39-2.07-1.75c-.38-.14-1.03-.38-1.14-.53h0Zm.69,2.8c-.77,.29-1.51,.56-1.82,1.1-.32,.56-.19,1.35-.05,2.18,.06,.36,.15,.91,.13,1.19-.25-.12-.66-.46-.93-.68-.67-.55-1.3-1.06-1.96-1.06s-1.3,.52-1.97,1.06c-.27,.22-.68,.56-.93,.68-.02-.28,.07-.84,.13-1.19,.14-.83,.27-1.62-.05-2.18-.31-.54-1.04-.81-1.82-1.1-.34-.13-.95-.35-1.17-.53,.22-.18,.83-.4,1.17-.53,.77-.29,1.51-.56,1.82-1.1,.32-.56,.19-1.35,.05-2.18-.06-.36-.15-.91-.13-1.19,.25,.12,.66,.46,.93,.68,.67,.54,1.3,1.06,1.97,1.06s1.3-.52,1.97-1.06c.27-.22,.68-.56,.93-.68,.02,.28-.07,.84-.13,1.19-.14,.83-.27,1.62,.05,2.18,.31,.54,1.04,.81,1.82,1.1,.34,.13,.95,.35,1.17,.53-.22,.18-.83,.4-1.17,.53h0Z"/></g></g></svg>