<?xml version="1.0" encoding="UTF-8"?>
<svg id="BACKGROUND" xmlns="http://www.w3.org/2000/svg" viewBox="0 0 1280 640">
  <g>
    <path d="M437.87,368.56l-19.74-143.02c6.23-.22,13.49-.35,19.74-.35v143.37Z" fill="#ee9b9b"/>
    <path d="M437.87,368.56l-53.98-140.73c12.27-1.21,21.78-1.84,34.25-2.28l19.74,143.02Z" fill="#f4d4e6"/>
    <path d="M437.87,368.56l-105.99-132.93c17.39-3.56,33.59-5.99,52-7.81l53.98,140.73Z" fill="#d79ec7" fill-rule="evenodd"/>
    <path d="M437.87,368.56l-219.87-90.22c31.47-19.69,67.53-33.21,113.89-42.7l105.99,132.93Z" fill="#b279aa"/>
    <path d="M437.87,394.56l-87.43,136.35c-119.58-19.69-195.6-75.91-195.57-136.35,0-10.38,.31-21.96,.31-32.63,11.59-18.07,39.22-42.83,62.82-57.59l219.87,90.22Z" fill="#442a3d"/>
    <path d="M437.87,368.56l-87.43,136.35c-148.61-24.47-229.93-105.35-181.65-180.66,11.59-18.07,25.6-31.15,49.2-45.92l219.87,90.22Z" fill="#5a3851"/>
    <path d="M437.87,394.56V251.2c133.08,0,252.44,48.01,282.62,110.74,0,10.89,.3,24.02,.3,32.63,0,79.18-126.67,143.37-282.92,143.37-31.25,0-57.71-2.12-87.43-7.02v-26l87.43-110.35Z" fill="#5e3f56"/>
    <path d="M437.87,368.56V225.2c156.25,0,282.92,64.19,282.92,143.37s-126.67,143.37-282.92,143.37c-31.25,0-57.71-2.12-87.43-7.02l87.43-136.35Z" fill="#7d5473"/>
  </g>
  <g>
    <rect x="898.62" y="216.14" width="88.71" height="33.68" fill="#ee9b9b"/>
    <rect x="898.62" y="269.82" width="88.71" height="33.68" fill="#f4d4e6"/>
    <rect x="898.62" y="323.5" width="88.71" height="33.68" fill="#d79ec7"/>
    <rect x="898.62" y="377.17" width="88.71" height="33.68" fill="#b279aa"/>
    <rect x="898.62" y="430.85" width="88.71" height="33.68" fill="#5a3851"/>
    <rect x="898.62" y="484.53" width="88.71" height="33.68" fill="#7d5473"/>
    <g>
      <path d="M1020.44,235.74c0,1.51-.55,2.68-1.64,3.53s-2.58,1.27-4.45,1.27c-2.03,0-3.59-.26-4.69-.79v-1.92c.7,.3,1.47,.53,2.3,.7s1.65,.26,2.46,.26c1.33,0,2.33-.25,3-.76s1.01-1.21,1.01-2.1c0-.59-.12-1.08-.36-1.46s-.64-.73-1.2-1.05-1.41-.68-2.55-1.09c-1.59-.57-2.73-1.25-3.42-2.03s-1.03-1.8-1.03-3.06c0-1.32,.5-2.37,1.49-3.15s2.3-1.17,3.94-1.17,3.27,.31,4.7,.94l-.62,1.73c-1.41-.59-2.79-.89-4.12-.89-1.05,0-1.88,.23-2.47,.68s-.89,1.08-.89,1.89c0,.59,.11,1.08,.33,1.46s.59,.73,1.11,1.04,1.31,.67,2.38,1.05c1.8,.64,3.03,1.33,3.71,2.06s1.01,1.69,1.01,2.86Z" fill="#292b2b"/>
      <path d="M1029.07,240.54c-1.9,0-3.4-.58-4.49-1.73s-1.65-2.76-1.65-4.82,.51-3.71,1.53-4.93,2.39-1.83,4.11-1.83c1.61,0,2.88,.53,3.82,1.59s1.41,2.46,1.41,4.19v1.23h-8.85c.04,1.51,.42,2.65,1.14,3.43s1.74,1.17,3.05,1.17c1.38,0,2.75-.29,4.1-.87v1.73c-.69,.3-1.34,.51-1.95,.64s-1.35,.19-2.22,.19Zm-.53-11.68c-1.03,0-1.85,.34-2.47,1.01s-.97,1.6-1.08,2.79h6.71c0-1.23-.27-2.17-.82-2.82s-1.33-.98-2.34-.98Z" fill="#292b2b"/>
      <path d="M1053.48,240.3v-8.36c0-1.02-.22-1.79-.66-2.3s-1.12-.77-2.04-.77c-1.21,0-2.11,.35-2.68,1.04s-.87,1.77-.87,3.21v7.17h-1.95v-8.36c0-1.02-.22-1.79-.66-2.3s-1.12-.77-2.05-.77c-1.22,0-2.11,.37-2.68,1.1s-.85,1.93-.85,3.59v6.74h-1.95v-12.84h1.58l.32,1.76h.09c.37-.62,.88-1.11,1.55-1.46s1.42-.53,2.24-.53c2.01,0,3.32,.73,3.94,2.18h.09c.38-.67,.94-1.2,1.66-1.59s1.55-.59,2.48-.59c1.45,0,2.54,.37,3.26,1.12s1.08,1.94,1.08,3.58v8.38h-1.95Z" fill="#292b2b"/>
      <path d="M1065.51,223.98c0-.45,.11-.77,.33-.98s.49-.31,.82-.31,.58,.11,.81,.32,.34,.54,.34,.97-.11,.76-.34,.98-.5,.32-.81,.32c-.33,0-.6-.11-.82-.32s-.33-.54-.33-.98Zm2.11,16.32h-1.95v-12.84h1.95v12.84Z" fill="#292b2b"/>
      <path d="M1080.53,240.3v-8.31c0-1.05-.24-1.83-.71-2.34s-1.22-.77-2.24-.77c-1.34,0-2.33,.36-2.95,1.09s-.94,1.93-.94,3.6v6.74h-1.95v-12.84h1.58l.32,1.76h.09c.4-.63,.96-1.12,1.68-1.47s1.52-.52,2.4-.52c1.55,0,2.71,.37,3.49,1.12s1.17,1.94,1.17,3.58v8.38h-1.95Z" fill="#292b2b"/>
      <path d="M1092.26,228.97h-3.27v11.33h-1.95v-11.33h-2.3v-.88l2.3-.7v-.71c0-3.16,1.38-4.73,4.14-4.73,.68,0,1.48,.14,2.39,.41l-.5,1.56c-.75-.24-1.39-.36-1.92-.36-.73,0-1.28,.24-1.63,.73s-.53,1.27-.53,2.35v.83h3.27v1.51Z" fill="#292b2b"/>
      <path d="M1105.69,233.87c0,2.09-.53,3.73-1.58,4.9s-2.51,1.76-4.37,1.76c-1.15,0-2.17-.27-3.06-.81s-1.58-1.31-2.06-2.32-.73-2.19-.73-3.54c0-2.09,.52-3.72,1.57-4.89s2.5-1.75,4.36-1.75,3.22,.6,4.28,1.79,1.59,2.81,1.59,4.85Zm-9.79,0c0,1.64,.33,2.89,.98,3.75s1.62,1.29,2.89,1.29,2.24-.43,2.9-1.28,.99-2.11,.99-3.76-.33-2.87-.99-3.72-1.63-1.27-2.92-1.27-2.23,.42-2.88,1.25-.97,2.08-.97,3.74Z" fill="#292b2b"/>
      <path d="M1114.96,227.22c.57,0,1.08,.05,1.54,.14l-.27,1.8c-.53-.12-1-.18-1.41-.18-1.04,0-1.93,.42-2.67,1.27s-1.11,1.89-1.11,3.15v6.89h-1.95v-12.84h1.61l.22,2.38h.09c.48-.84,1.05-1.48,1.72-1.93s1.41-.68,2.21-.68Z" fill="#292b2b"/>
      <path d="M1135.27,240.3v-8.36c0-1.02-.22-1.79-.66-2.3s-1.12-.77-2.04-.77c-1.21,0-2.11,.35-2.68,1.04s-.87,1.77-.87,3.21v7.17h-1.95v-8.36c0-1.02-.22-1.79-.66-2.3s-1.12-.77-2.05-.77c-1.22,0-2.11,.37-2.68,1.1s-.85,1.93-.85,3.59v6.74h-1.95v-12.84h1.58l.32,1.76h.09c.37-.62,.88-1.11,1.55-1.46s1.42-.53,2.24-.53c2.01,0,3.32,.73,3.94,2.18h.09c.38-.67,.94-1.2,1.66-1.59s1.55-.59,2.48-.59c1.45,0,2.54,.37,3.26,1.12s1.08,1.94,1.08,3.58v8.38h-1.95Z" fill="#292b2b"/>
      <path d="M1149.12,240.3l-.39-1.83h-.09c-.64,.8-1.28,1.35-1.92,1.63s-1.43,.43-2.38,.43c-1.27,0-2.27-.33-2.99-.98s-1.08-1.59-1.08-2.8c0-2.59,2.07-3.95,6.22-4.08l2.18-.07v-.8c0-1.01-.22-1.75-.65-2.23s-1.13-.72-2.08-.72c-1.07,0-2.28,.33-3.63,.98l-.6-1.49c.63-.34,1.33-.61,2.08-.81s1.51-.29,2.27-.29c1.53,0,2.67,.34,3.4,1.02s1.11,1.77,1.11,3.27v8.77h-1.44Zm-4.39-1.37c1.21,0,2.16-.33,2.85-1s1.04-1.59,1.04-2.79v-1.16l-1.95,.08c-1.55,.05-2.66,.29-3.35,.72s-1.03,1.09-1.03,1.99c0,.7,.21,1.24,.64,1.61s1.02,.55,1.79,.55Z" fill="#292b2b"/>
      <path d="M1159.7,240.54c-1.86,0-3.3-.57-4.32-1.72s-1.53-2.76-1.53-4.86,.52-3.81,1.55-4.98,2.51-1.76,4.42-1.76c.62,0,1.23,.07,1.85,.2s1.1,.29,1.45,.47l-.6,1.65c-.43-.17-.9-.31-1.41-.43s-.96-.17-1.35-.17c-2.61,0-3.91,1.66-3.91,4.99,0,1.58,.32,2.79,.96,3.63s1.58,1.27,2.83,1.27c1.07,0,2.17-.23,3.29-.69v1.72c-.86,.45-1.94,.67-3.25,.67Zm1.73,3.15c0,.76-.3,1.34-.9,1.76s-1.48,.62-2.65,.62c-.4,0-.77-.04-1.12-.11v-1.24c.35,.06,.76,.09,1.22,.09,.62,0,1.08-.08,1.4-.23s.47-.45,.47-.87c0-.34-.15-.61-.46-.81s-.89-.38-1.74-.51l1.03-2.09h1.29l-.64,1.35c1.41,.3,2.11,.98,2.11,2.04Z" fill="#292b2b"/>
      <path d="M1177.08,233.87c0,2.09-.53,3.73-1.58,4.9s-2.51,1.76-4.37,1.76c-1.15,0-2.17-.27-3.06-.81s-1.58-1.31-2.06-2.32-.73-2.19-.73-3.54c0-2.09,.52-3.72,1.57-4.89s2.5-1.75,4.36-1.75,3.22,.6,4.28,1.79,1.59,2.81,1.59,4.85Zm-4.09-8.13c-.34,0-.66-.07-.98-.22s-.63-.3-.94-.48-.61-.34-.89-.48-.56-.22-.83-.22c-.39,0-.69,.12-.88,.35s-.35,.59-.46,1.07h-1.15c.1-.95,.38-1.69,.83-2.22s1.03-.8,1.74-.8c.36,0,.71,.07,1.04,.22s.66,.3,.96,.48,.6,.34,.88,.48,.55,.22,.8,.22c.38,0,.67-.12,.86-.35s.34-.59,.46-1.07h1.16c-.1,.95-.37,1.69-.81,2.22s-1.03,.8-1.76,.8Zm-5.7,8.13c0,1.64,.33,2.89,.98,3.75s1.62,1.29,2.89,1.29,2.24-.43,2.9-1.28,.99-2.11,.99-3.76-.33-2.87-.99-3.72-1.63-1.27-2.92-1.27-2.23,.42-2.88,1.25-.97,2.08-.97,3.74Z" fill="#292b2b"/>
      <path d="M1185.92,240.54c-1.9,0-3.4-.58-4.49-1.73s-1.65-2.76-1.65-4.82,.51-3.71,1.53-4.93,2.39-1.83,4.11-1.83c1.61,0,2.88,.53,3.82,1.59s1.41,2.46,1.41,4.19v1.23h-8.85c.04,1.51,.42,2.65,1.14,3.43s1.74,1.17,3.05,1.17c1.38,0,2.75-.29,4.1-.87v1.73c-.69,.3-1.34,.51-1.95,.64s-1.35,.19-2.22,.19Zm-.53-11.68c-1.03,0-1.85,.34-2.47,1.01s-.97,1.6-1.08,2.79h6.71c0-1.23-.27-2.17-.82-2.82s-1.33-.98-2.34-.98Z" fill="#292b2b"/>
      <path d="M1202.24,236.8c0,1.2-.45,2.12-1.34,2.77s-2.14,.97-3.75,.97c-1.7,0-3.03-.27-3.98-.81v-1.8c.62,.31,1.28,.56,1.99,.74s1.39,.27,2.04,.27c1.02,0,1.8-.16,2.34-.49s.82-.82,.82-1.48c0-.5-.22-.93-.65-1.28s-1.28-.78-2.54-1.26c-1.2-.45-2.04-.83-2.55-1.17s-.88-.71-1.12-1.13-.37-.93-.37-1.51c0-1.05,.43-1.87,1.28-2.48s2.02-.91,3.5-.91c1.38,0,2.73,.28,4.05,.84l-.69,1.58c-1.29-.53-2.46-.8-3.5-.8-.92,0-1.62,.14-2.09,.43s-.7,.69-.7,1.2c0,.34,.09,.64,.26,.88s.46,.47,.85,.69,1.14,.54,2.25,.95c1.52,.55,2.55,1.11,3.09,1.68s.8,1.27,.8,2.12Z" fill="#292b2b"/>
    </g>
    <g>
      <path d="M1024.45,285.25c0,2.83-.77,4.99-2.3,6.49s-3.74,2.24-6.63,2.24h-4.75v-17.13h5.25c2.66,0,4.73,.74,6.21,2.21s2.21,3.54,2.21,6.19Zm-2.11,.07c0-2.23-.56-3.92-1.68-5.05s-2.79-1.7-5-1.7h-2.89v13.69h2.43c2.38,0,4.16-.58,5.36-1.75s1.79-2.9,1.79-5.19Z" fill="#292b2b"/>
      <path d="M1027.81,277.66c0-.45,.11-.77,.33-.98s.49-.31,.82-.31,.58,.11,.81,.32,.34,.54,.34,.97-.11,.76-.34,.98-.5,.32-.81,.32c-.33,0-.6-.11-.82-.32s-.33-.54-.33-.98Zm2.11,16.32h-1.95v-12.84h1.95v12.84Z" fill="#292b2b"/>
      <path d="M1041.94,293.98l-.39-1.83h-.09c-.64,.8-1.28,1.35-1.92,1.63s-1.43,.43-2.38,.43c-1.27,0-2.27-.33-2.99-.98s-1.08-1.59-1.08-2.8c0-2.59,2.07-3.95,6.22-4.08l2.18-.07v-.8c0-1.01-.22-1.75-.65-2.23s-1.13-.72-2.08-.72c-1.07,0-2.28,.33-3.63,.98l-.6-1.49c.63-.34,1.33-.61,2.08-.81s1.51-.29,2.27-.29c1.53,0,2.67,.34,3.4,1.02s1.11,1.77,1.11,3.27v8.77h-1.44Zm-4.39-1.37c1.21,0,2.16-.33,2.85-1s1.04-1.59,1.04-2.79v-1.16l-1.95,.08c-1.55,.05-2.66,.29-3.35,.72s-1.03,1.09-1.03,1.99c0,.7,.21,1.24,.64,1.61s1.02,.55,1.79,.55Z" fill="#292b2b"/>
      <path d="M1057.9,281.14v1.23l-2.38,.28c.22,.27,.41,.63,.59,1.07s.26,.94,.26,1.49c0,1.26-.43,2.26-1.29,3.01s-2.04,1.12-3.54,1.12c-.38,0-.74-.03-1.08-.09-.83,.44-1.24,.99-1.24,1.65,0,.35,.14,.61,.43,.78s.79,.25,1.49,.25h2.27c1.39,0,2.46,.29,3.21,.88s1.12,1.44,1.12,2.55c0,1.42-.57,2.51-1.71,3.25s-2.8,1.12-4.99,1.12c-1.68,0-2.97-.31-3.88-.94s-1.37-1.51-1.37-2.65c0-.78,.25-1.46,.75-2.03s1.2-.96,2.11-1.16c-.33-.15-.6-.38-.83-.69s-.33-.68-.33-1.09c0-.47,.12-.88,.38-1.23s.64-.69,1.18-1.02c-.66-.27-1.21-.74-1.62-1.39s-.63-1.41-.63-2.25c0-1.41,.42-2.49,1.27-3.25s2.04-1.14,3.59-1.14c.67,0,1.28,.08,1.82,.23h4.44Zm-10.24,15c0,.7,.29,1.22,.88,1.58s1.43,.54,2.52,.54c1.63,0,2.84-.24,3.63-.73s1.18-1.15,1.18-1.99c0-.7-.21-1.18-.64-1.45s-1.24-.4-2.43-.4h-2.33c-.88,0-1.57,.21-2.06,.63s-.74,1.03-.74,1.82Zm1.05-10.89c0,.9,.25,1.58,.76,2.04s1.21,.69,2.12,.69c1.9,0,2.85-.92,2.85-2.77s-.96-2.89-2.88-2.89c-.91,0-1.62,.25-2.11,.74s-.74,1.22-.74,2.19Z" fill="#292b2b"/>
      <path d="M1069.33,293.98v-8.31c0-1.05-.24-1.83-.71-2.34s-1.22-.77-2.24-.77c-1.34,0-2.33,.36-2.95,1.09s-.94,1.93-.94,3.6v6.74h-1.95v-12.84h1.58l.32,1.76h.09c.4-.63,.96-1.12,1.68-1.47s1.52-.52,2.4-.52c1.55,0,2.71,.37,3.49,1.12s1.17,1.94,1.17,3.58v8.38h-1.95Z" fill="#292b2b"/>
      <path d="M1086.36,287.55c0,2.09-.53,3.73-1.58,4.9s-2.51,1.76-4.37,1.76c-1.15,0-2.17-.27-3.06-.81s-1.58-1.31-2.06-2.32-.73-2.19-.73-3.54c0-2.09,.52-3.72,1.57-4.89s2.5-1.75,4.36-1.75,3.22,.6,4.28,1.79,1.59,2.81,1.59,4.85Zm-9.79,0c0,1.64,.33,2.89,.98,3.75s1.62,1.29,2.89,1.29,2.24-.43,2.9-1.28,.99-2.11,.99-3.76-.33-2.87-.99-3.72-1.63-1.27-2.92-1.27-2.23,.42-2.88,1.25-.97,2.08-.97,3.74Zm2.25-8.4c.38-.48,.78-1.07,1.21-1.76s.78-1.29,1.03-1.79h2.37v.25c-.34,.51-.86,1.13-1.54,1.88s-1.27,1.32-1.77,1.72h-1.3v-.29Z" fill="#292b2b"/>
      <path d="M1098.05,290.48c0,1.2-.45,2.12-1.34,2.77s-2.14,.97-3.75,.97c-1.7,0-3.03-.27-3.98-.81v-1.8c.62,.31,1.28,.56,1.99,.74s1.39,.27,2.04,.27c1.02,0,1.8-.16,2.34-.49s.82-.82,.82-1.48c0-.5-.22-.93-.65-1.28s-1.28-.78-2.54-1.26c-1.2-.45-2.04-.83-2.55-1.17s-.88-.71-1.12-1.13-.37-.93-.37-1.51c0-1.05,.43-1.87,1.28-2.48s2.02-.91,3.5-.91c1.38,0,2.73,.28,4.05,.84l-.69,1.58c-1.29-.53-2.46-.8-3.5-.8-.92,0-1.62,.14-2.09,.43s-.7,.69-.7,1.2c0,.34,.09,.64,.26,.88s.46,.47,.85,.69,1.14,.54,2.25,.95c1.52,.55,2.55,1.11,3.09,1.68s.8,1.27,.8,2.12Z" fill="#292b2b"/>
      <path d="M1105.36,292.61c.34,0,.68-.03,1-.08s.57-.1,.76-.16v1.49c-.21,.1-.52,.19-.93,.25s-.78,.1-1.11,.1c-2.48,0-3.73-1.31-3.73-3.93v-7.64h-1.84v-.94l1.84-.81,.82-2.74h1.12v2.98h3.73v1.51h-3.73v7.56c0,.77,.18,1.37,.55,1.78s.87,.62,1.51,.62Z" fill="#292b2b"/>
      <path d="M1109.52,277.66c0-.45,.11-.77,.33-.98s.49-.31,.82-.31,.58,.11,.81,.32,.34,.54,.34,.97-.11,.76-.34,.98-.5,.32-.81,.32c-.33,0-.6-.11-.82-.32s-.33-.54-.33-.98Zm2.11,16.32h-1.95v-12.84h1.95v12.84Z" fill="#292b2b"/>
      <path d="M1120.89,294.22c-1.86,0-3.3-.57-4.32-1.72s-1.53-2.76-1.53-4.86,.52-3.81,1.55-4.98,2.51-1.76,4.42-1.76c.62,0,1.23,.07,1.85,.2s1.1,.29,1.45,.47l-.6,1.65c-.43-.17-.9-.31-1.41-.43s-.96-.17-1.35-.17c-2.61,0-3.91,1.66-3.91,4.99,0,1.58,.32,2.79,.96,3.63s1.58,1.27,2.83,1.27c1.07,0,2.17-.23,3.29-.69v1.72c-.86,.45-1.94,.67-3.25,.67Z" fill="#292b2b"/>
      <path d="M1138.27,287.55c0,2.09-.53,3.73-1.58,4.9s-2.51,1.76-4.37,1.76c-1.15,0-2.17-.27-3.06-.81s-1.58-1.31-2.06-2.32-.73-2.19-.73-3.54c0-2.09,.52-3.72,1.57-4.89s2.5-1.75,4.36-1.75,3.22,.6,4.28,1.79,1.59,2.81,1.59,4.85Zm-9.79,0c0,1.64,.33,2.89,.98,3.75s1.62,1.29,2.89,1.29,2.24-.43,2.9-1.28,.99-2.11,.99-3.76-.33-2.87-.99-3.72-1.63-1.27-2.92-1.27-2.23,.42-2.88,1.25-.97,2.08-.97,3.74Z" fill="#292b2b"/>
      <path d="M1153.89,294.22c-.84,0-1.6-.15-2.29-.46s-1.27-.78-1.74-1.42h-.14c.09,.75,.14,1.46,.14,2.13v5.29h-1.95v-18.61h1.58l.27,1.76h.09c.5-.7,1.08-1.21,1.75-1.52s1.43-.47,2.29-.47c1.7,0,3.02,.58,3.94,1.75s1.39,2.8,1.39,4.9-.47,3.75-1.41,4.92-2.25,1.75-3.92,1.75Zm-.28-11.66c-1.31,0-2.26,.36-2.85,1.09s-.89,1.88-.9,3.47v.43c0,1.8,.3,3.1,.9,3.87s1.57,1.17,2.89,1.17c1.11,0,1.98-.45,2.61-1.35s.94-2.14,.94-3.71-.31-2.83-.94-3.69-1.51-1.28-2.65-1.28Z" fill="#292b2b"/>
      <path d="M1173.71,287.55c0,2.09-.53,3.73-1.58,4.9s-2.51,1.76-4.37,1.76c-1.15,0-2.17-.27-3.06-.81s-1.58-1.31-2.06-2.32-.73-2.19-.73-3.54c0-2.09,.52-3.72,1.57-4.89s2.5-1.75,4.36-1.75,3.22,.6,4.28,1.79,1.59,2.81,1.59,4.85Zm-9.79,0c0,1.64,.33,2.89,.98,3.75s1.62,1.29,2.89,1.29,2.24-.43,2.9-1.28,.99-2.11,.99-3.76-.33-2.87-.99-3.72-1.63-1.27-2.92-1.27-2.23,.42-2.88,1.25-.97,2.08-.97,3.74Zm2.25-8.4c.38-.48,.78-1.07,1.21-1.76s.78-1.29,1.03-1.79h2.37v.25c-.34,.51-.86,1.13-1.54,1.88s-1.27,1.32-1.77,1.72h-1.3v-.29Z" fill="#292b2b"/>
      <path d="M1185.4,290.48c0,1.2-.45,2.12-1.34,2.77s-2.14,.97-3.75,.97c-1.7,0-3.03-.27-3.98-.81v-1.8c.62,.31,1.28,.56,1.99,.74s1.39,.27,2.04,.27c1.02,0,1.8-.16,2.34-.49s.82-.82,.82-1.48c0-.5-.22-.93-.65-1.28s-1.28-.78-2.54-1.26c-1.2-.45-2.04-.83-2.55-1.17s-.88-.71-1.12-1.13-.37-.93-.37-1.51c0-1.05,.43-1.87,1.28-2.48s2.02-.91,3.5-.91c1.38,0,2.73,.28,4.05,.84l-.69,1.58c-1.29-.53-2.46-.8-3.5-.8-.92,0-1.62,.14-2.09,.43s-.7,.69-.7,1.2c0,.34,.09,.64,.26,.88s.46,.47,.85,.69,1.14,.54,2.25,.95c1.52,.55,2.55,1.11,3.09,1.68s.8,1.27,.8,2.12Z" fill="#292b2b"/>
      <path d="M1187.49,288.44v-1.78h5.75v1.78h-5.75Z" fill="#292b2b"/>
      <path d="M1207.37,287.55c0,2.09-.53,3.73-1.58,4.9s-2.51,1.76-4.37,1.76c-1.15,0-2.17-.27-3.06-.81s-1.58-1.31-2.06-2.32-.73-2.19-.73-3.54c0-2.09,.52-3.72,1.57-4.89s2.5-1.75,4.36-1.75,3.22,.6,4.28,1.79,1.59,2.81,1.59,4.85Zm-9.79,0c0,1.64,.33,2.89,.98,3.75s1.62,1.29,2.89,1.29,2.24-.43,2.9-1.28,.99-2.11,.99-3.76-.33-2.87-.99-3.72-1.63-1.27-2.92-1.27-2.23,.42-2.88,1.25-.97,2.08-.97,3.74Zm2.25-8.4c.38-.48,.78-1.07,1.21-1.76s.78-1.29,1.03-1.79h2.37v.25c-.34,.51-.86,1.13-1.54,1.88s-1.27,1.32-1.77,1.72h-1.3v-.29Z" fill="#292b2b"/>
      <path d="M1216.76,280.93c1.69,0,3,.58,3.93,1.73s1.4,2.78,1.4,4.89-.47,3.75-1.41,4.92-2.25,1.75-3.92,1.75c-.84,0-1.6-.15-2.29-.46s-1.27-.78-1.74-1.42h-.14l-.41,1.65h-1.39v-18.23h1.95v4.43c0,.99-.03,1.88-.09,2.67h.09c.91-1.28,2.25-1.92,4.03-1.92Zm-.28,1.63c-1.33,0-2.29,.38-2.87,1.14s-.88,2.04-.88,3.85,.3,3.1,.9,3.87,1.57,1.17,2.89,1.17c1.2,0,2.09-.44,2.67-1.31s.88-2.12,.88-3.76-.29-2.92-.88-3.74-1.49-1.23-2.72-1.23Z" fill="#292b2b"/>
      <path d="M1225.33,277.66c0-.45,.11-.77,.33-.98s.49-.31,.82-.31,.58,.11,.81,.32,.34,.54,.34,.97-.11,.76-.34,.98-.5,.32-.81,.32c-.33,0-.6-.11-.82-.32s-.33-.54-.33-.98Zm2.11,16.32h-1.95v-12.84h1.95v12.84Z" fill="#292b2b"/>
      <path d="M1235.71,292.61c.34,0,.68-.03,1-.08s.57-.1,.76-.16v1.49c-.21,.1-.52,.19-.93,.25s-.78,.1-1.11,.1c-2.48,0-3.73-1.31-3.73-3.93v-7.64h-1.84v-.94l1.84-.81,.82-2.74h1.12v2.98h3.73v1.51h-3.73v7.56c0,.77,.18,1.37,.55,1.78s.87,.62,1.51,.62Z" fill="#292b2b"/>
      <path d="M1251.12,287.55c0,2.09-.53,3.73-1.58,4.9s-2.51,1.76-4.37,1.76c-1.15,0-2.17-.27-3.06-.81s-1.58-1.31-2.06-2.32-.73-2.19-.73-3.54c0-2.09,.52-3.72,1.57-4.89s2.5-1.75,4.36-1.75,3.22,.6,4.28,1.79,1.59,2.81,1.59,4.85Zm-9.79,0c0,1.64,.33,2.89,.98,3.75s1.62,1.29,2.89,1.29,2.24-.43,2.9-1.28,.99-2.11,.99-3.76-.33-2.87-.99-3.72-1.63-1.27-2.92-1.27-2.23,.42-2.88,1.25-.97,2.08-.97,3.74Z" fill="#292b2b"/>
    </g>
    <g>
      <path d="M1016.04,347.66h-1.99v-15.36h-5.43v-1.77h12.84v1.77h-5.43v15.36Z" fill="#292b2b"/>
      <path d="M1029.61,334.58c.57,0,1.08,.05,1.54,.14l-.27,1.8c-.53-.12-1-.18-1.41-.18-1.04,0-1.93,.42-2.67,1.27s-1.11,1.89-1.11,3.15v6.89h-1.95v-12.84h1.61l.22,2.38h.09c.48-.84,1.05-1.48,1.72-1.93s1.41-.68,2.21-.68Z" fill="#292b2b"/>
      <path d="M1041.45,347.66l-.39-1.83h-.09c-.64,.8-1.28,1.35-1.92,1.63s-1.43,.43-2.38,.43c-1.27,0-2.27-.33-2.99-.98s-1.08-1.59-1.08-2.8c0-2.59,2.07-3.95,6.22-4.08l2.18-.07v-.8c0-1.01-.22-1.75-.65-2.23s-1.13-.72-2.08-.72c-1.07,0-2.28,.33-3.63,.98l-.6-1.49c.63-.34,1.33-.61,2.08-.81s1.51-.29,2.27-.29c1.53,0,2.67,.34,3.4,1.02s1.11,1.77,1.11,3.27v8.77h-1.44Zm-4.39-1.37c1.21,0,2.16-.33,2.85-1s1.04-1.59,1.04-2.79v-1.16l-1.95,.08c-1.55,.05-2.66,.29-3.35,.72s-1.03,1.09-1.03,1.99c0,.7,.21,1.24,.64,1.61s1.02,.55,1.79,.55Z" fill="#292b2b"/>
      <path d="M1055.69,347.66v-8.31c0-1.05-.24-1.83-.71-2.34s-1.22-.77-2.24-.77c-1.34,0-2.33,.36-2.95,1.09s-.94,1.93-.94,3.6v6.74h-1.95v-12.84h1.58l.32,1.76h.09c.4-.63,.96-1.12,1.68-1.47s1.52-.52,2.4-.52c1.55,0,2.71,.37,3.49,1.12s1.17,1.94,1.17,3.58v8.38h-1.95Z" fill="#292b2b"/>
      <path d="M1069.91,344.16c0,1.2-.45,2.12-1.34,2.77s-2.14,.97-3.75,.97c-1.7,0-3.03-.27-3.98-.81v-1.8c.62,.31,1.28,.56,1.99,.74s1.39,.27,2.04,.27c1.02,0,1.8-.16,2.34-.49s.82-.82,.82-1.48c0-.5-.22-.93-.65-1.28s-1.28-.78-2.54-1.26c-1.2-.45-2.04-.83-2.55-1.17s-.88-.71-1.12-1.13-.37-.93-.37-1.51c0-1.05,.43-1.87,1.28-2.48s2.02-.91,3.5-.91c1.38,0,2.73,.28,4.05,.84l-.69,1.58c-1.29-.53-2.46-.8-3.5-.8-.92,0-1.62,.14-2.09,.43s-.7,.69-.7,1.2c0,.34,.09,.64,.26,.88s.46,.47,.85,.69,1.14,.54,2.25,.95c1.52,.55,2.55,1.11,3.09,1.68s.8,1.27,.8,2.12Z" fill="#292b2b"/>
      <path d="M1078.87,336.33h-3.27v11.33h-1.95v-11.33h-2.3v-.88l2.3-.7v-.71c0-3.16,1.38-4.73,4.14-4.73,.68,0,1.48,.14,2.39,.41l-.5,1.56c-.75-.24-1.39-.36-1.92-.36-.73,0-1.28,.24-1.63,.73s-.53,1.27-.53,2.35v.83h3.27v1.51Z" fill="#292b2b"/>
      <path d="M1086.64,347.89c-1.9,0-3.4-.58-4.49-1.73s-1.65-2.76-1.65-4.82,.51-3.71,1.53-4.93,2.39-1.83,4.11-1.83c1.61,0,2.88,.53,3.82,1.59s1.41,2.46,1.41,4.19v1.23h-8.85c.04,1.51,.42,2.65,1.14,3.43s1.74,1.17,3.05,1.17c1.38,0,2.75-.29,4.1-.87v1.73c-.69,.3-1.34,.51-1.95,.64s-1.35,.19-2.22,.19Zm-.53-11.68c-1.03,0-1.85,.34-2.47,1.01s-.97,1.6-1.08,2.79h6.71c0-1.23-.27-2.17-.82-2.82s-1.33-.98-2.34-.98Z" fill="#292b2b"/>
      <path d="M1100.53,334.58c.57,0,1.08,.05,1.54,.14l-.27,1.8c-.53-.12-1-.18-1.41-.18-1.04,0-1.93,.42-2.67,1.27s-1.11,1.89-1.11,3.15v6.89h-1.95v-12.84h1.61l.22,2.38h.09c.48-.84,1.05-1.48,1.72-1.93s1.41-.68,2.21-.68Z" fill="#292b2b"/>
      <path d="M1109.9,347.89c-1.9,0-3.4-.58-4.49-1.73s-1.65-2.76-1.65-4.82,.51-3.71,1.53-4.93,2.39-1.83,4.11-1.83c1.61,0,2.88,.53,3.82,1.59s1.41,2.46,1.41,4.19v1.23h-8.85c.04,1.51,.42,2.65,1.14,3.43s1.74,1.17,3.05,1.17c1.38,0,2.75-.29,4.1-.87v1.73c-.69,.3-1.34,.51-1.95,.64s-1.35,.19-2.22,.19Zm-4.45-15.05c.99-1.06,1.69-1.84,2.09-2.34s.69-.91,.87-1.23h1.95c.17,.33,.47,.75,.9,1.27s1.13,1.29,2.1,2.3v.27h-1.39c-.69-.43-1.55-1.16-2.59-2.18-1.06,1.05-1.92,1.77-2.57,2.18h-1.35v-.27Zm3.93,3.36c-1.03,0-1.85,.34-2.47,1.01s-.97,1.6-1.08,2.79h6.71c0-1.23-.27-2.17-.82-2.82s-1.33-.98-2.34-.98Z" fill="#292b2b"/>
      <path d="M1126.73,347.66v-8.31c0-1.05-.24-1.83-.71-2.34s-1.22-.77-2.24-.77c-1.34,0-2.33,.36-2.95,1.09s-.94,1.93-.94,3.6v6.74h-1.95v-12.84h1.58l.32,1.76h.09c.4-.63,.96-1.12,1.68-1.47s1.52-.52,2.4-.52c1.55,0,2.71,.37,3.49,1.12s1.17,1.94,1.17,3.58v8.38h-1.95Z" fill="#292b2b"/>
      <path d="M1137.8,347.89c-1.86,0-3.3-.57-4.32-1.72s-1.53-2.76-1.53-4.86,.52-3.81,1.55-4.98,2.51-1.76,4.42-1.76c.62,0,1.23,.07,1.85,.2s1.1,.29,1.45,.47l-.6,1.65c-.43-.17-.9-.31-1.41-.43s-.96-.17-1.35-.17c-2.61,0-3.91,1.66-3.91,4.99,0,1.58,.32,2.79,.96,3.63s1.58,1.27,2.83,1.27c1.07,0,2.17-.23,3.29-.69v1.72c-.86,.45-1.94,.67-3.25,.67Z" fill="#292b2b"/>
      <path d="M1143.93,331.33c0-.45,.11-.77,.33-.98s.49-.31,.82-.31,.58,.11,.81,.32,.34,.54,.34,.97-.11,.76-.34,.98-.5,.32-.81,.32c-.33,0-.6-.11-.82-.32s-.33-.54-.33-.98Zm2.11,16.32h-1.95v-12.84h1.95v12.84Z" fill="#292b2b"/>
      <path d="M1158.06,347.66l-.39-1.83h-.09c-.64,.8-1.28,1.35-1.92,1.63s-1.43,.43-2.38,.43c-1.27,0-2.27-.33-2.99-.98s-1.08-1.59-1.08-2.8c0-2.59,2.07-3.95,6.22-4.08l2.18-.07v-.8c0-1.01-.22-1.75-.65-2.23s-1.13-.72-2.08-.72c-1.07,0-2.28,.33-3.63,.98l-.6-1.49c.63-.34,1.33-.61,2.08-.81s1.51-.29,2.27-.29c1.53,0,2.67,.34,3.4,1.02s1.11,1.77,1.11,3.27v8.77h-1.44Zm-4.39-1.37c1.21,0,2.16-.33,2.85-1s1.04-1.59,1.04-2.79v-1.16l-1.95,.08c-1.55,.05-2.66,.29-3.35,.72s-1.03,1.09-1.03,1.99c0,.7,.21,1.24,.64,1.61s1.02,.55,1.79,.55Z" fill="#292b2b"/>
    </g>
    <g>
      <path d="M1012.76,394.21v7.12h-1.99v-17.13h4.7c2.1,0,3.65,.4,4.66,1.21s1.51,2.02,1.51,3.63c0,2.27-1.15,3.8-3.45,4.59l4.65,7.7h-2.36l-4.15-7.12h-3.57Zm0-1.71h2.73c1.41,0,2.44-.28,3.09-.84s.98-1.4,.98-2.51-.33-1.95-1-2.45-1.74-.75-3.22-.75h-2.59v6.55Z" fill="#292b2b"/>
      <path d="M1030.74,401.57c-1.9,0-3.4-.58-4.49-1.73s-1.65-2.76-1.65-4.82,.51-3.71,1.53-4.93,2.39-1.83,4.11-1.83c1.61,0,2.88,.53,3.82,1.59s1.41,2.46,1.41,4.19v1.23h-8.85c.04,1.51,.42,2.65,1.14,3.43s1.74,1.17,3.05,1.17c1.38,0,2.75-.29,4.1-.87v1.73c-.69,.3-1.34,.51-1.95,.64s-1.35,.19-2.22,.19Zm-.53-11.68c-1.03,0-1.85,.34-2.47,1.01s-.97,1.6-1.08,2.79h6.71c0-1.23-.27-2.17-.82-2.82s-1.33-.98-2.34-.98Z" fill="#292b2b"/>
      <path d="M1043.91,401.57c-1.86,0-3.3-.57-4.32-1.72s-1.53-2.76-1.53-4.86,.52-3.81,1.55-4.98,2.51-1.76,4.42-1.76c.62,0,1.23,.07,1.85,.2s1.1,.29,1.45,.47l-.6,1.65c-.43-.17-.9-.31-1.41-.43s-.96-.17-1.35-.17c-2.61,0-3.91,1.66-3.91,4.99,0,1.58,.32,2.79,.96,3.63s1.58,1.27,2.83,1.27c1.07,0,2.17-.23,3.29-.69v1.72c-.86,.45-1.94,.67-3.25,.67Z" fill="#292b2b"/>
      <path d="M1050.04,385.01c0-.45,.11-.77,.33-.98s.49-.31,.82-.31,.58,.11,.81,.32,.34,.54,.34,.97-.11,.76-.34,.98-.5,.32-.81,.32c-.33,0-.6-.11-.82-.32s-.33-.54-.33-.98Zm2.11,16.32h-1.95v-12.84h1.95v12.84Z" fill="#292b2b"/>
      <path d="M1064.56,397.83c0,1.2-.45,2.12-1.34,2.77s-2.14,.97-3.75,.97c-1.7,0-3.03-.27-3.98-.81v-1.8c.62,.31,1.28,.56,1.99,.74s1.39,.27,2.04,.27c1.02,0,1.8-.16,2.34-.49s.82-.82,.82-1.48c0-.5-.22-.93-.65-1.28s-1.28-.78-2.54-1.26c-1.2-.45-2.04-.83-2.55-1.17s-.88-.71-1.12-1.13-.37-.93-.37-1.51c0-1.05,.43-1.87,1.28-2.48s2.02-.91,3.5-.91c1.38,0,2.73,.28,4.05,.84l-.69,1.58c-1.29-.53-2.46-.8-3.5-.8-.92,0-1.62,.14-2.09,.43s-.7,.69-.7,1.2c0,.34,.09,.64,.26,.88s.46,.47,.85,.69,1.14,.54,2.25,.95c1.52,.55,2.55,1.11,3.09,1.68s.8,1.27,.8,2.12Z" fill="#292b2b"/>
      <path d="M1067.56,385.01c0-.45,.11-.77,.33-.98s.49-.31,.82-.31,.58,.11,.81,.32,.34,.54,.34,.97-.11,.76-.34,.98-.5,.32-.81,.32c-.33,0-.6-.11-.82-.32s-.33-.54-.33-.98Zm2.11,16.32h-1.95v-12.84h1.95v12.84Z" fill="#292b2b"/>
      <path d="M1076.61,401.34l-4.88-12.84h2.09l2.77,7.62c.62,1.78,.99,2.94,1.1,3.47h.09c.09-.41,.36-1.27,.81-2.57s1.48-4.14,3.08-8.51h2.09l-4.88,12.84h-2.27Z" fill="#292b2b"/>
      <path d="M1093.71,401.34l-.39-1.83h-.09c-.64,.8-1.28,1.35-1.92,1.63s-1.43,.43-2.38,.43c-1.27,0-2.27-.33-2.99-.98s-1.08-1.59-1.08-2.8c0-2.59,2.07-3.95,6.22-4.08l2.18-.07v-.8c0-1.01-.22-1.75-.65-2.23s-1.13-.72-2.08-.72c-1.07,0-2.28,.33-3.63,.98l-.6-1.49c.63-.34,1.33-.61,2.08-.81s1.51-.29,2.27-.29c1.53,0,2.67,.34,3.4,1.02s1.11,1.77,1.11,3.27v8.77h-1.44Zm-4.39-1.37c1.21,0,2.16-.33,2.85-1s1.04-1.59,1.04-2.79v-1.16l-1.95,.08c-1.55,.05-2.66,.29-3.35,.72s-1.03,1.09-1.03,1.99c0,.7,.21,1.24,.64,1.61s1.02,.55,1.79,.55Z" fill="#292b2b"/>
    </g>
    <g>
      <path d="M1012.76,447.89v7.12h-1.99v-17.13h4.7c2.1,0,3.65,.4,4.66,1.21s1.51,2.02,1.51,3.63c0,2.27-1.15,3.8-3.45,4.59l4.65,7.7h-2.36l-4.15-7.12h-3.57Zm0-1.71h2.73c1.41,0,2.44-.28,3.09-.84s.98-1.4,.98-2.51-.33-1.95-1-2.45-1.74-.75-3.22-.75h-2.59v6.55Z" fill="#292b2b"/>
      <path d="M1030.74,455.25c-1.9,0-3.4-.58-4.49-1.73s-1.65-2.76-1.65-4.82,.51-3.71,1.53-4.93,2.39-1.83,4.11-1.83c1.61,0,2.88,.53,3.82,1.59s1.41,2.46,1.41,4.19v1.23h-8.85c.04,1.51,.42,2.65,1.14,3.43s1.74,1.17,3.05,1.17c1.38,0,2.75-.29,4.1-.87v1.73c-.69,.3-1.34,.51-1.95,.64s-1.35,.19-2.22,.19Zm-.53-11.68c-1.03,0-1.85,.34-2.47,1.01s-.97,1.6-1.08,2.79h6.71c0-1.23-.27-2.17-.82-2.82s-1.33-.98-2.34-.98Z" fill="#292b2b"/>
      <path d="M1038.61,438.69c0-.45,.11-.77,.33-.98s.49-.31,.82-.31,.58,.11,.81,.32,.34,.54,.34,.97-.11,.76-.34,.98-.5,.32-.81,.32c-.33,0-.6-.11-.82-.32s-.33-.54-.33-.98Zm2.11,16.32h-1.95v-12.84h1.95v12.84Z" fill="#292b2b"/>
      <path d="M1053.64,455.01v-8.31c0-1.05-.24-1.83-.71-2.34s-1.22-.77-2.24-.77c-1.34,0-2.33,.36-2.95,1.09s-.94,1.93-.94,3.6v6.74h-1.95v-12.84h1.58l.32,1.76h.09c.4-.63,.96-1.12,1.68-1.47s1.52-.52,2.4-.52c1.55,0,2.71,.37,3.49,1.12s1.17,1.94,1.17,3.58v8.38h-1.95Z" fill="#292b2b"/>
      <path d="M1070.09,442.17v1.23l-2.38,.28c.22,.27,.41,.63,.59,1.07s.26,.94,.26,1.49c0,1.26-.43,2.26-1.29,3.01s-2.04,1.12-3.54,1.12c-.38,0-.74-.03-1.08-.09-.83,.44-1.24,.99-1.24,1.65,0,.35,.14,.61,.43,.78s.79,.25,1.49,.25h2.27c1.39,0,2.46,.29,3.21,.88s1.12,1.44,1.12,2.55c0,1.42-.57,2.51-1.71,3.25s-2.8,1.12-4.99,1.12c-1.68,0-2.97-.31-3.88-.94s-1.37-1.51-1.37-2.65c0-.78,.25-1.46,.75-2.03s1.2-.96,2.11-1.16c-.33-.15-.6-.38-.83-.69s-.33-.68-.33-1.09c0-.47,.12-.88,.38-1.23s.64-.69,1.18-1.02c-.66-.27-1.21-.74-1.62-1.39s-.63-1.41-.63-2.25c0-1.41,.42-2.49,1.27-3.25s2.04-1.14,3.59-1.14c.67,0,1.28,.08,1.82,.23h4.44Zm-10.24,15c0,.7,.29,1.22,.88,1.58s1.43,.54,2.52,.54c1.63,0,2.84-.24,3.63-.73s1.18-1.15,1.18-1.99c0-.7-.21-1.18-.64-1.45s-1.24-.4-2.43-.4h-2.33c-.88,0-1.57,.21-2.06,.63s-.74,1.03-.74,1.82Zm1.05-10.89c0,.9,.25,1.58,.76,2.04s1.21,.69,2.12,.69c1.9,0,2.85-.92,2.85-2.77s-.96-2.89-2.88-2.89c-.91,0-1.62,.25-2.11,.74s-.74,1.22-.74,2.19Z" fill="#292b2b"/>
      <path d="M1078.59,441.94c.57,0,1.08,.05,1.54,.14l-.27,1.8c-.53-.12-1-.18-1.41-.18-1.04,0-1.93,.42-2.67,1.27s-1.11,1.89-1.11,3.15v6.89h-1.95v-12.84h1.61l.22,2.38h.09c.48-.84,1.05-1.48,1.72-1.93s1.41-.68,2.21-.68Z" fill="#292b2b"/>
      <path d="M1087.95,455.25c-1.9,0-3.4-.58-4.49-1.73s-1.65-2.76-1.65-4.82,.51-3.71,1.53-4.93,2.39-1.83,4.11-1.83c1.61,0,2.88,.53,3.82,1.59s1.41,2.46,1.41,4.19v1.23h-8.85c.04,1.51,.42,2.65,1.14,3.43s1.74,1.17,3.05,1.17c1.38,0,2.75-.29,4.1-.87v1.73c-.69,.3-1.34,.51-1.95,.64s-1.35,.19-2.22,.19Zm-.53-11.68c-1.03,0-1.85,.34-2.47,1.01s-.97,1.6-1.08,2.79h6.71c0-1.23-.27-2.17-.82-2.82s-1.33-.98-2.34-.98Z" fill="#292b2b"/>
      <path d="M1104.27,451.51c0,1.2-.45,2.12-1.34,2.77s-2.14,.97-3.75,.97c-1.7,0-3.03-.27-3.98-.81v-1.8c.62,.31,1.28,.56,1.99,.74s1.39,.27,2.04,.27c1.02,0,1.8-.16,2.34-.49s.82-.82,.82-1.48c0-.5-.22-.93-.65-1.28s-1.28-.78-2.54-1.26c-1.2-.45-2.04-.83-2.55-1.17s-.88-.71-1.12-1.13-.37-.93-.37-1.51c0-1.05,.43-1.87,1.28-2.48s2.02-.91,3.5-.91c1.38,0,2.73,.28,4.05,.84l-.69,1.58c-1.29-.53-2.46-.8-3.5-.8-.92,0-1.62,.14-2.09,.43s-.7,.69-.7,1.2c0,.34,.09,.64,.26,.88s.46,.47,.85,.69,1.14,.54,2.25,.95c1.52,.55,2.55,1.11,3.09,1.68s.8,1.27,.8,2.12Z" fill="#292b2b"/>
      <path d="M1115.72,451.51c0,1.2-.45,2.12-1.34,2.77s-2.14,.97-3.75,.97c-1.7,0-3.03-.27-3.98-.81v-1.8c.62,.31,1.28,.56,1.99,.74s1.39,.27,2.04,.27c1.02,0,1.8-.16,2.34-.49s.82-.82,.82-1.48c0-.5-.22-.93-.65-1.28s-1.28-.78-2.54-1.26c-1.2-.45-2.04-.83-2.55-1.17s-.88-.71-1.12-1.13-.37-.93-.37-1.51c0-1.05,.43-1.87,1.28-2.48s2.02-.91,3.5-.91c1.38,0,2.73,.28,4.05,.84l-.69,1.58c-1.29-.53-2.46-.8-3.5-.8-.92,0-1.62,.14-2.09,.43s-.7,.69-.7,1.2c0,.34,.09,.64,.26,.88s.46,.47,.85,.69,1.14,.54,2.25,.95c1.52,.55,2.55,1.11,3.09,1.68s.8,1.27,.8,2.12Z" fill="#292b2b"/>
      <path d="M1129.97,448.58c0,2.09-.53,3.73-1.58,4.9s-2.51,1.76-4.37,1.76c-1.15,0-2.17-.27-3.06-.81s-1.58-1.31-2.06-2.32-.73-2.19-.73-3.54c0-2.09,.52-3.72,1.57-4.89s2.5-1.75,4.36-1.75,3.22,.6,4.28,1.79,1.59,2.81,1.59,4.85Zm-9.79,0c0,1.64,.33,2.89,.98,3.75s1.62,1.29,2.89,1.29,2.24-.43,2.9-1.28,.99-2.11,.99-3.76-.33-2.87-.99-3.72-1.63-1.27-2.92-1.27-2.23,.42-2.88,1.25-.97,2.08-.97,3.74Z" fill="#292b2b"/>
    </g>
    <g>
      <path d="M1018.11,493.1c-1.88,0-3.37,.63-4.46,1.88s-1.63,2.97-1.63,5.15,.53,3.97,1.58,5.2,2.55,1.83,4.49,1.83c1.2,0,2.56-.21,4.09-.64v1.75c-1.19,.45-2.65,.67-4.39,.67-2.52,0-4.47-.77-5.84-2.3s-2.06-3.71-2.06-6.53c0-1.77,.33-3.31,.99-4.64s1.61-2.35,2.86-3.07,2.71-1.08,4.4-1.08c1.8,0,3.37,.33,4.71,.98l-.84,1.71c-1.3-.61-2.59-.91-3.89-.91Z" fill="#292b2b"/>
      <path d="M1033.52,508.69l-.39-1.83h-.09c-.64,.8-1.28,1.35-1.92,1.63s-1.43,.43-2.38,.43c-1.27,0-2.27-.33-2.99-.98s-1.08-1.59-1.08-2.8c0-2.59,2.07-3.95,6.22-4.08l2.18-.07v-.8c0-1.01-.22-1.75-.65-2.23s-1.13-.72-2.08-.72c-1.07,0-2.28,.33-3.63,.98l-.6-1.49c.63-.34,1.33-.61,2.08-.81s1.51-.29,2.27-.29c1.53,0,2.67,.34,3.4,1.02s1.11,1.77,1.11,3.27v8.77h-1.44Zm-4.39-1.37c1.21,0,2.16-.33,2.85-1s1.04-1.59,1.04-2.79v-1.16l-1.95,.08c-1.55,.05-2.66,.29-3.35,.72s-1.03,1.09-1.03,1.99c0,.7,.21,1.24,.64,1.61s1.02,.55,1.79,.55Z" fill="#292b2b"/>
      <path d="M1047.25,505.19c0,1.2-.45,2.12-1.34,2.77s-2.14,.97-3.75,.97c-1.7,0-3.03-.27-3.98-.81v-1.8c.62,.31,1.28,.56,1.99,.74s1.39,.27,2.04,.27c1.02,0,1.8-.16,2.34-.49s.82-.82,.82-1.48c0-.5-.22-.93-.65-1.28s-1.28-.78-2.54-1.26c-1.2-.45-2.04-.83-2.55-1.17s-.88-.71-1.12-1.13-.37-.93-.37-1.51c0-1.05,.43-1.87,1.28-2.48s2.02-.91,3.5-.91c1.38,0,2.73,.28,4.05,.84l-.69,1.58c-1.29-.53-2.46-.8-3.5-.8-.92,0-1.62,.14-2.09,.43s-.7,.69-.7,1.2c0,.34,.09,.64,.26,.88s.46,.47,.85,.69,1.14,.54,2.25,.95c1.52,.55,2.55,1.11,3.09,1.68s.8,1.27,.8,2.12Z" fill="#292b2b"/>
      <path d="M1061.5,502.26c0,2.09-.53,3.73-1.58,4.9s-2.51,1.76-4.37,1.76c-1.15,0-2.17-.27-3.06-.81s-1.58-1.31-2.06-2.32-.73-2.19-.73-3.54c0-2.09,.52-3.72,1.57-4.89s2.5-1.75,4.36-1.75,3.22,.6,4.28,1.79,1.59,2.81,1.59,4.85Zm-9.79,0c0,1.64,.33,2.89,.98,3.75s1.62,1.29,2.89,1.29,2.24-.43,2.9-1.28,.99-2.11,.99-3.76-.33-2.87-.99-3.72-1.63-1.27-2.92-1.27-2.23,.42-2.88,1.25-.97,2.08-.97,3.74Z" fill="#292b2b"/>
      <path d="M1073.2,505.19c0,1.2-.45,2.12-1.34,2.77s-2.14,.97-3.75,.97c-1.7,0-3.03-.27-3.98-.81v-1.8c.62,.31,1.28,.56,1.99,.74s1.39,.27,2.04,.27c1.02,0,1.8-.16,2.34-.49s.82-.82,.82-1.48c0-.5-.22-.93-.65-1.28s-1.28-.78-2.54-1.26c-1.2-.45-2.04-.83-2.55-1.17s-.88-.71-1.12-1.13-.37-.93-.37-1.51c0-1.05,.43-1.87,1.28-2.48s2.02-.91,3.5-.91c1.38,0,2.73,.28,4.05,.84l-.69,1.58c-1.29-.53-2.46-.8-3.5-.8-.92,0-1.62,.14-2.09,.43s-.7,.69-.7,1.2c0,.34,.09,.64,.26,.88s.46,.47,.85,.69,1.14,.54,2.25,.95c1.52,.55,2.55,1.11,3.09,1.68s.8,1.27,.8,2.12Z" fill="#292b2b"/>
      <path d="M1091.38,508.69v-8.31c0-1.05-.24-1.83-.71-2.34s-1.22-.77-2.24-.77c-1.34,0-2.33,.36-2.95,1.09s-.94,1.93-.94,3.6v6.74h-1.95v-12.84h1.58l.32,1.76h.09c.4-.63,.96-1.12,1.68-1.47s1.52-.52,2.4-.52c1.55,0,2.71,.37,3.49,1.12s1.17,1.94,1.17,3.58v8.38h-1.95Z" fill="#292b2b"/>
      <path d="M1108.41,502.26c0,2.09-.53,3.73-1.58,4.9s-2.51,1.76-4.37,1.76c-1.15,0-2.17-.27-3.06-.81s-1.58-1.31-2.06-2.32-.73-2.19-.73-3.54c0-2.09,.52-3.72,1.57-4.89s2.5-1.75,4.36-1.75,3.22,.6,4.28,1.79,1.59,2.81,1.59,4.85Zm-9.79,0c0,1.64,.33,2.89,.98,3.75s1.62,1.29,2.89,1.29,2.24-.43,2.9-1.28,.99-2.11,.99-3.76-.33-2.87-.99-3.72-1.63-1.27-2.92-1.27-2.23,.42-2.88,1.25-.97,2.08-.97,3.74Z" fill="#292b2b"/>
      <path d="M1114.63,508.69l-4.88-12.84h2.09l2.77,7.62c.62,1.78,.99,2.94,1.1,3.47h.09c.09-.41,.36-1.27,.81-2.57s1.48-4.14,3.08-8.51h2.09l-4.88,12.84h-2.27Z" fill="#292b2b"/>
      <path d="M1134.93,502.26c0,2.09-.53,3.73-1.58,4.9s-2.51,1.76-4.37,1.76c-1.15,0-2.17-.27-3.06-.81s-1.58-1.31-2.06-2.32-.73-2.19-.73-3.54c0-2.09,.52-3.72,1.57-4.89s2.5-1.75,4.36-1.75,3.22,.6,4.28,1.79,1.59,2.81,1.59,4.85Zm-9.79,0c0,1.64,.33,2.89,.98,3.75s1.62,1.29,2.89,1.29,2.24-.43,2.9-1.28,.99-2.11,.99-3.76-.33-2.87-.99-3.72-1.63-1.27-2.92-1.27-2.23,.42-2.88,1.25-.97,2.08-.97,3.74Z" fill="#292b2b"/>
      <path d="M1146.62,505.19c0,1.2-.45,2.12-1.34,2.77s-2.14,.97-3.75,.97c-1.7,0-3.03-.27-3.98-.81v-1.8c.62,.31,1.28,.56,1.99,.74s1.39,.27,2.04,.27c1.02,0,1.8-.16,2.34-.49s.82-.82,.82-1.48c0-.5-.22-.93-.65-1.28s-1.28-.78-2.54-1.26c-1.2-.45-2.04-.83-2.55-1.17s-.88-.71-1.12-1.13-.37-.93-.37-1.51c0-1.05,.43-1.87,1.28-2.48s2.02-.91,3.5-.91c1.38,0,2.73,.28,4.05,.84l-.69,1.58c-1.29-.53-2.46-.8-3.5-.8-.92,0-1.62,.14-2.09,.43s-.7,.69-.7,1.2c0,.34,.09,.64,.26,.88s.46,.47,.85,.69,1.14,.54,2.25,.95c1.52,.55,2.55,1.11,3.09,1.68s.8,1.27,.8,2.12Z" fill="#292b2b"/>
    </g>
  </g>
  <g>
    <path d="M627.09,551.34c2.26,0,4.03,.56,5.33,1.68,1.29,1.12,1.94,2.65,1.94,4.59,0,2.22-.71,3.96-2.12,5.21-1.41,1.26-3.36,1.89-5.84,1.89s-4.25-.39-5.52-1.16v-2.34c.68,.44,1.53,.78,2.55,1.03s2.02,.37,3,.37c1.72,0,3.05-.41,4.01-1.22,.95-.81,1.43-1.98,1.43-3.52,0-2.99-1.83-4.48-5.49-4.48-.93,0-2.17,.14-3.72,.42l-1.26-.81,.81-10.02h10.65v2.24h-8.57l-.54,6.43c1.12-.22,2.24-.34,3.35-.34Z" fill="#4c4c4d"/>
    <path d="M644.24,551.34c2.26,0,4.03,.56,5.33,1.68,1.29,1.12,1.94,2.65,1.94,4.59,0,2.22-.71,3.96-2.12,5.21-1.41,1.26-3.36,1.89-5.84,1.89s-4.25-.39-5.52-1.16v-2.34c.68,.44,1.53,.78,2.55,1.03s2.02,.37,3,.37c1.72,0,3.05-.41,4.01-1.22,.95-.81,1.43-1.98,1.43-3.52,0-2.99-1.83-4.48-5.49-4.48-.93,0-2.17,.14-3.72,.42l-1.26-.81,.81-10.02h10.65v2.24h-8.57l-.54,6.43c1.12-.22,2.24-.34,3.35-.34Z" fill="#4c4c4d"/>
    <path d="M663.49,549.39c0,2.23-.37,3.91-1.12,5.05-.75,1.14-1.84,1.71-3.29,1.71-1.37,0-2.43-.58-3.19-1.74s-1.13-2.83-1.13-5.01,.36-3.89,1.09-5.01c.73-1.12,1.8-1.68,3.23-1.68s2.5,.58,3.27,1.74,1.14,2.81,1.14,4.95Zm-6.71,0c0,1.66,.18,2.91,.54,3.74s.95,1.25,1.76,1.25c1.6,0,2.4-1.66,2.4-4.98s-.8-4.95-2.4-4.95c-.81,0-1.4,.41-1.76,1.23s-.54,2.06-.54,3.72Zm15.83-6.39l-11.88,21.42h-2.15l11.88-21.42h2.15Zm3.78,14.97c0,2.22-.37,3.89-1.12,5.03-.75,1.14-1.84,1.71-3.29,1.71s-2.45-.58-3.2-1.74c-.75-1.16-1.12-2.83-1.12-5s.36-3.89,1.09-5.01,1.8-1.68,3.23-1.68,2.47,.57,3.24,1.72c.78,1.15,1.17,2.81,1.17,4.97Zm-6.72,0c0,1.67,.18,2.92,.54,3.74s.95,1.24,1.77,1.24,1.43-.41,1.82-1.22,.59-2.07,.59-3.76-.2-2.91-.59-3.71-1-1.21-1.82-1.21-1.41,.4-1.77,1.21-.54,2.04-.54,3.71Z" fill="#4c4c4d"/>
  </g>
  <g>
    <path d="M624.03,601.79l7.1-15.34h-9.34v-1.79h11.4v1.56l-7.01,15.57h-2.16Z" fill="#4c4c4d"/>
    <path d="M636.19,600.55c0-.52,.12-.92,.36-1.19s.58-.4,1.03-.4,.81,.13,1.06,.4,.38,.67,.38,1.19-.13,.9-.39,1.17-.61,.41-1.05,.41c-.4,0-.73-.12-.99-.37s-.39-.65-.39-1.21Z" fill="#4c4c4d"/>
    <path d="M644.13,601.79l7.1-15.34h-9.34v-1.79h11.4v1.56l-7.01,15.57h-2.16Z" fill="#4c4c4d"/>
    <path d="M667.04,593.2c0,2.96-.47,5.17-1.4,6.63s-2.36,2.19-4.28,2.19-3.25-.75-4.21-2.24-1.44-3.69-1.44-6.58,.46-5.2,1.39-6.64,2.35-2.17,4.25-2.17,3.27,.75,4.24,2.26,1.45,3.69,1.45,6.55Zm-9.36,0c0,2.49,.29,4.31,.88,5.44s1.52,1.71,2.8,1.71,2.24-.58,2.82-1.73,.87-2.96,.87-5.42-.29-4.26-.87-5.41-1.52-1.72-2.82-1.72-2.21,.56-2.8,1.69-.88,2.94-.88,5.43Z" fill="#4c4c4d"/>
    <path d="M681.48,597.86h-2.54v3.94h-1.86v-3.94h-8.33v-1.7l8.13-11.59h2.06v11.52h2.54v1.77Zm-4.41-1.77v-5.7c0-1.12,.04-2.38,.12-3.79h-.09c-.38,.75-.73,1.37-1.05,1.86l-5.36,7.62h6.39Z" fill="#4c4c4d"/>
  </g>
  <g>
    <path d="M102.02,586.15h-2.54v3.94h-1.86v-3.94h-8.33v-1.7l8.13-11.59h2.06v11.52h2.54v1.77Zm-4.41-1.77v-5.7c0-1.12,.04-2.38,.12-3.79h-.09c-.38,.75-.73,1.37-1.05,1.86l-5.36,7.62h6.39Z" fill="#4c4c4d"/>
    <path d="M104.28,588.84c0-.52,.12-.92,.36-1.19s.58-.4,1.03-.4,.81,.13,1.06,.4,.38,.67,.38,1.19-.13,.9-.39,1.17-.61,.41-1.05,.41c-.4,0-.73-.12-.99-.37s-.39-.65-.39-1.21Z" fill="#4c4c4d"/>
    <path d="M122.13,586.15h-2.54v3.94h-1.86v-3.94h-8.33v-1.7l8.13-11.59h2.06v11.52h2.54v1.77Zm-4.41-1.77v-5.7c0-1.12,.04-2.38,.12-3.79h-.09c-.38,.75-.73,1.37-1.05,1.86l-5.36,7.62h6.39Z" fill="#4c4c4d"/>
    <path d="M135.04,590.08h-11.26v-1.68l4.51-4.54c1.38-1.39,2.28-2.38,2.72-2.98s.77-1.17,.98-1.73,.33-1.17,.33-1.82c0-.91-.28-1.64-.83-2.17s-1.32-.8-2.31-.8c-.71,0-1.38,.12-2.02,.35s-1.35,.66-2.13,1.28l-1.03-1.32c1.58-1.31,3.3-1.97,5.16-1.97,1.61,0,2.87,.41,3.79,1.24s1.37,1.93,1.37,3.32c0,1.09-.3,2.16-.91,3.22s-1.75,2.41-3.42,4.03l-3.75,3.67v.09h8.81v1.8Z" fill="#4c4c4d"/>
    <path d="M142.86,579.62c1.8,0,3.22,.45,4.26,1.34s1.55,2.12,1.55,3.67c0,1.77-.56,3.16-1.69,4.17s-2.69,1.51-4.67,1.51-3.4-.31-4.42-.93v-1.88c.55,.35,1.23,.63,2.04,.83s1.61,.3,2.4,.3c1.38,0,2.44-.32,3.21-.97s1.14-1.59,1.14-2.81c0-2.39-1.46-3.59-4.39-3.59-.74,0-1.73,.11-2.98,.34l-1.01-.64,.64-8.02h8.52v1.79h-6.86l-.43,5.14c.9-.18,1.79-.27,2.68-.27Z" fill="#4c4c4d"/>
  </g>
  <g>
    <path d="M56.02,349.18h-1.9v-12.21c0-1.02,.03-1.98,.09-2.88-.16,.16-.35,.34-.55,.52s-1.13,.94-2.79,2.29l-1.03-1.34,4.54-3.5h1.64v17.13Z" fill="#4c4c4d"/>
    <path d="M63.14,347.94c0-.52,.12-.92,.36-1.19s.58-.4,1.03-.4,.81,.13,1.06,.4,.38,.67,.38,1.19-.13,.9-.39,1.17-.61,.41-1.05,.41c-.4,0-.73-.12-.99-.37s-.39-.65-.39-1.21Z" fill="#4c4c4d"/>
    <path d="M76.13,349.18h-1.9v-12.21c0-1.02,.03-1.98,.09-2.88-.16,.16-.35,.34-.55,.52s-1.13,.94-2.79,2.29l-1.03-1.34,4.54-3.5h1.64v17.13Z" fill="#4c4c4d"/>
    <path d="M93.9,339.36c0,6.7-2.59,10.05-7.78,10.05-.91,0-1.62-.08-2.16-.23v-1.68c.62,.2,1.34,.3,2.13,.3,1.88,0,3.29-.58,4.25-1.74s1.48-2.94,1.56-5.34h-.14c-.43,.65-1,1.14-1.71,1.48s-1.51,.51-2.4,.51c-1.52,0-2.72-.45-3.61-1.36s-1.34-2.17-1.34-3.8c0-1.78,.5-3.19,1.49-4.22s2.31-1.55,3.93-1.55c1.16,0,2.18,.3,3.05,.9s1.54,1.47,2.01,2.61,.7,2.49,.7,4.05Zm-5.77-5.89c-1.12,0-1.98,.36-2.59,1.08s-.91,1.72-.91,3c0,1.12,.28,2.01,.84,2.65s1.42,.97,2.57,.97c.71,0,1.37-.14,1.96-.43s1.07-.68,1.41-1.18,.52-1.02,.52-1.57c0-.82-.16-1.58-.48-2.27s-.77-1.24-1.34-1.64-1.23-.6-1.97-.6Z" fill="#4c4c4d"/>
    <path d="M98.53,349.18l7.1-15.34h-9.34v-1.79h11.4v1.56l-7.01,15.57h-2.16Z" fill="#4c4c4d"/>
  </g>
  <g>
    <path d="M98.05,227.89h-2.54v3.94h-1.86v-3.94h-8.33v-1.7l8.13-11.59h2.06v11.52h2.54v1.77Zm-4.41-1.77v-5.7c0-1.12,.04-2.38,.12-3.79h-.09c-.38,.75-.73,1.37-1.05,1.86l-5.36,7.62h6.39Z" fill="#4c4c4d"/>
    <path d="M111.06,223.24c0,2.96-.47,5.17-1.4,6.63s-2.36,2.19-4.28,2.19-3.25-.75-4.21-2.24-1.44-3.69-1.44-6.58,.46-5.2,1.39-6.64,2.35-2.17,4.25-2.17,3.27,.75,4.24,2.26,1.45,3.69,1.45,6.55Zm-9.36,0c0,2.49,.29,4.31,.88,5.44s1.52,1.71,2.8,1.71,2.24-.58,2.82-1.73,.87-2.96,.87-5.42-.29-4.26-.87-5.41-1.52-1.72-2.82-1.72-2.21,.56-2.8,1.69-.88,2.94-.88,5.43Z" fill="#4c4c4d"/>
    <path d="M124.04,218.73c0,1.09-.31,1.99-.92,2.68s-1.48,1.16-2.61,1.39v.09c1.38,.17,2.39,.61,3.06,1.31s1,1.62,1,2.77c0,1.63-.57,2.89-1.7,3.77s-2.74,1.32-4.83,1.32c-.91,0-1.74-.07-2.49-.21s-1.49-.38-2.2-.72v-1.85c.74,.37,1.53,.65,2.37,.84s1.63,.29,2.38,.29c2.96,0,4.44-1.16,4.44-3.48,0-2.08-1.63-3.12-4.9-3.12h-1.69v-1.68h1.71c1.34,0,2.39-.29,3.18-.88s1.17-1.41,1.17-2.46c0-.84-.29-1.49-.86-1.97s-1.35-.71-2.34-.71c-.75,0-1.46,.1-2.12,.3s-1.42,.58-2.27,1.12l-.98-1.31c.7-.55,1.51-.99,2.43-1.31s1.88-.47,2.9-.47c1.66,0,2.96,.38,3.88,1.14s1.38,1.81,1.38,3.13Z" fill="#4c4c4d"/>
  </g>
  <g>
    <path d="M330.18,212.39h-11.26v-1.68l4.51-4.54c1.38-1.39,2.28-2.38,2.72-2.98s.77-1.17,.98-1.73,.33-1.17,.33-1.82c0-.91-.28-1.64-.83-2.17s-1.32-.8-2.31-.8c-.71,0-1.38,.12-2.02,.35s-1.35,.66-2.13,1.28l-1.03-1.32c1.58-1.31,3.3-1.97,5.16-1.97,1.61,0,2.87,.41,3.79,1.24s1.37,1.93,1.37,3.32c0,1.09-.3,2.16-.91,3.22s-1.75,2.41-3.42,4.03l-3.75,3.67v.09h8.81v1.8Z" fill="#4c4c4d"/>
    <path d="M343.26,199.29c0,1.09-.31,1.99-.92,2.68s-1.48,1.16-2.61,1.39v.09c1.38,.17,2.39,.61,3.06,1.31s1,1.62,1,2.77c0,1.63-.57,2.89-1.7,3.77s-2.74,1.32-4.83,1.32c-.91,0-1.74-.07-2.49-.21s-1.49-.38-2.2-.72v-1.85c.74,.37,1.53,.65,2.37,.84s1.63,.29,2.38,.29c2.96,0,4.44-1.16,4.44-3.48,0-2.08-1.63-3.12-4.9-3.12h-1.69v-1.68h1.71c1.34,0,2.39-.29,3.18-.88s1.17-1.41,1.17-2.46c0-.84-.29-1.49-.86-1.97s-1.35-.71-2.34-.71c-.75,0-1.46,.1-2.12,.3s-1.42,.58-2.27,1.12l-.98-1.31c.7-.55,1.51-.99,2.43-1.31s1.88-.47,2.9-.47c1.66,0,2.96,.38,3.88,1.14s1.38,1.81,1.38,3.13Z" fill="#4c4c4d"/>
    <path d="M352.03,195.02c1.56,0,2.8,.36,3.71,1.09s1.37,1.73,1.37,3.01c0,.84-.26,1.61-.79,2.31s-1.36,1.33-2.51,1.9c1.39,.66,2.38,1.36,2.96,2.09s.88,1.58,.88,2.54c0,1.42-.5,2.56-1.49,3.4s-2.35,1.27-4.08,1.27c-1.83,0-3.23-.4-4.22-1.2s-1.48-1.94-1.48-3.4c0-1.96,1.2-3.49,3.59-4.58-1.08-.61-1.85-1.27-2.32-1.97s-.7-1.5-.7-2.37c0-1.24,.46-2.23,1.38-2.97s2.15-1.11,3.69-1.11Zm-3.7,13.05c0,.94,.33,1.67,.98,2.19s1.57,.79,2.75,.79,2.07-.27,2.72-.82,.97-1.3,.97-2.25c0-.76-.3-1.43-.91-2.02s-1.67-1.16-3.19-1.72c-1.16,.5-2.01,1.05-2.53,1.66s-.79,1.33-.79,2.17Zm3.68-11.47c-.98,0-1.74,.23-2.3,.7s-.83,1.09-.83,1.88c0,.72,.23,1.34,.69,1.85s1.31,1.03,2.55,1.55c1.12-.47,1.91-.97,2.37-1.51s.7-1.17,.7-1.89c0-.79-.28-1.42-.85-1.88s-1.35-.7-2.34-.7Z" fill="#4c4c4d"/>
  </g>
  <g>
    <path d="M658.08,215.37c0,6.7-2.59,10.05-7.78,10.05-.91,0-1.62-.08-2.16-.23v-1.68c.62,.2,1.34,.3,2.13,.3,1.88,0,3.29-.58,4.25-1.74s1.48-2.94,1.56-5.34h-.14c-.43,.65-1,1.14-1.71,1.48s-1.51,.51-2.4,.51c-1.52,0-2.72-.45-3.61-1.36s-1.34-2.17-1.34-3.8c0-1.78,.5-3.19,1.49-4.22s2.31-1.55,3.93-1.55c1.16,0,2.18,.3,3.05,.9s1.54,1.47,2.01,2.61,.7,2.49,.7,4.05Zm-5.77-5.89c-1.12,0-1.98,.36-2.59,1.08s-.91,1.72-.91,3c0,1.12,.28,2.01,.84,2.65s1.42,.97,2.57,.97c.71,0,1.37-.14,1.96-.43s1.07-.68,1.41-1.18,.52-1.02,.52-1.57c0-.82-.16-1.58-.48-2.27s-.77-1.24-1.34-1.64-1.23-.6-1.97-.6Z" fill="#4c4c4d"/>
    <path d="M671.8,225.2h-11.26v-1.68l4.51-4.54c1.38-1.39,2.28-2.38,2.72-2.98s.77-1.17,.98-1.73,.33-1.17,.33-1.82c0-.91-.28-1.64-.83-2.17s-1.32-.8-2.31-.8c-.71,0-1.38,.12-2.02,.35s-1.35,.66-2.13,1.28l-1.03-1.32c1.58-1.31,3.3-1.97,5.16-1.97,1.61,0,2.87,.41,3.79,1.24s1.37,1.93,1.37,3.32c0,1.09-.3,2.16-.91,3.22s-1.75,2.41-3.42,4.03l-3.75,3.67v.09h8.81v1.8Z" fill="#4c4c4d"/>
  </g>
  <g>
    <path d="M64.44,291.95c1.95,0,3.5,.45,4.64,1.36s1.71,2.16,1.71,3.76c0,1.05-.33,2.02-.98,2.89s-1.7,1.66-3.13,2.37c1.74,.83,2.97,1.7,3.71,2.61s1.1,1.97,1.1,3.17c0,1.78-.62,3.2-1.86,4.25s-2.94,1.59-5.1,1.59c-2.29,0-4.04-.5-5.27-1.5s-1.85-2.42-1.85-4.25c0-2.45,1.49-4.36,4.48-5.73-1.35-.76-2.31-1.58-2.9-2.47s-.88-1.87-.88-2.97c0-1.55,.57-2.79,1.72-3.71s2.68-1.38,4.61-1.38Zm-4.63,16.32c0,1.17,.41,2.08,1.22,2.74s1.96,.98,3.44,.98,2.59-.34,3.4-1.03,1.22-1.62,1.22-2.81c0-.95-.38-1.79-1.14-2.53s-2.09-1.45-3.98-2.15c-1.46,.62-2.51,1.32-3.16,2.07s-.98,1.66-.98,2.72Zm4.6-14.34c-1.22,0-2.18,.29-2.87,.88s-1.04,1.37-1.04,2.34c0,.9,.29,1.67,.86,2.31s1.64,1.29,3.19,1.93c1.4-.59,2.38-1.22,2.97-1.89,.58-.67,.87-1.46,.87-2.36,0-.99-.35-1.77-1.06-2.35s-1.68-.87-2.92-.87Z" fill="#4c4c4d"/>
    <path d="M83.29,298.64c0,2.23-.37,3.91-1.12,5.05-.75,1.14-1.84,1.71-3.29,1.71-1.37,0-2.43-.58-3.19-1.74s-1.13-2.83-1.13-5.01,.36-3.89,1.09-5.01c.73-1.12,1.8-1.68,3.23-1.68s2.5,.58,3.27,1.74,1.14,2.81,1.14,4.95Zm-6.71,0c0,1.66,.18,2.91,.54,3.74s.95,1.25,1.76,1.25c1.6,0,2.4-1.66,2.4-4.98s-.8-4.95-2.4-4.95c-.81,0-1.4,.41-1.76,1.23s-.54,2.06-.54,3.72Zm15.83-6.39l-11.88,21.42h-2.15l11.88-21.42h2.15Zm3.78,14.97c0,2.22-.37,3.89-1.12,5.03-.75,1.14-1.84,1.71-3.29,1.71s-2.45-.58-3.2-1.74c-.75-1.16-1.12-2.83-1.12-5s.36-3.89,1.09-5.01,1.8-1.68,3.23-1.68,2.47,.57,3.24,1.72c.78,1.15,1.17,2.81,1.17,4.97Zm-6.72,0c0,1.67,.18,2.92,.54,3.74s.95,1.24,1.77,1.24,1.43-.41,1.82-1.22,.59-2.07,.59-3.76-.2-2.91-.59-3.71-1-1.21-1.82-1.21-1.41,.4-1.77,1.21-.54,2.04-.54,3.71Z" fill="#4c4c4d"/>
  </g>
  <g>
    <path d="M115.29,64h-5.38l-8.71-15.12h-.11c.04,.95,.08,1.9,.13,2.86,.05,.95,.09,1.9,.13,2.86v9.41h-3.78v-19.99h5.35l8.68,14.98h.08c-.02-.93-.05-1.86-.08-2.77-.04-.91-.07-1.83-.11-2.74v-9.46h3.81v19.99Z" fill="#4c4c4d"/>
    <path d="M134.02,48.71v15.29h-3.19l-.56-1.96h-.22c-.49,.78-1.15,1.35-2,1.71-.85,.35-1.75,.53-2.7,.53-1.64,0-2.96-.44-3.95-1.33s-1.48-2.31-1.48-4.27v-9.97h4.17v8.93c0,1.08,.2,1.9,.59,2.46,.39,.56,1.02,.84,1.88,.84,1.27,0,2.14-.43,2.6-1.3s.7-2.11,.7-3.74v-7.2h4.17Zm-1.09-5.88c-.26,.26-.61,.58-1.04,.95-.43,.37-.89,.77-1.39,1.18-.5,.41-.98,.8-1.46,1.16-.48,.36-.89,.67-1.25,.91h-2.77v-.36c.3-.35,.65-.77,1.05-1.25,.4-.48,.8-.97,1.19-1.48,.39-.51,.72-.97,.98-1.39h4.68v.28Z" fill="#4c4c4d"/>
    <path d="M156.33,48.43c1.74,0,3.05,.44,3.93,1.33,.89,.89,1.33,2.31,1.33,4.27v9.97h-4.17v-8.93c0-2.2-.77-3.3-2.3-3.3-1.1,0-1.89,.39-2.35,1.18-.47,.78-.7,1.91-.7,3.39v7.67h-4.17v-8.93c0-2.2-.77-3.3-2.3-3.3-1.16,0-1.96,.43-2.39,1.3-.44,.87-.66,2.11-.66,3.74v7.2h-4.17v-15.29h3.19l.56,1.96h.22c.47-.78,1.11-1.35,1.92-1.71,.81-.35,1.66-.53,2.53-.53,1.12,0,2.07,.18,2.86,.55s1.38,.93,1.79,1.69h.36c.47-.78,1.12-1.35,1.95-1.71,.83-.35,1.68-.53,2.56-.53Z" fill="#4c4c4d"/>
    <path d="M172.18,48.43c2.11,0,3.78,.6,5.01,1.81,1.23,1.2,1.85,2.92,1.85,5.14v2.02h-9.86c.04,1.18,.39,2.1,1.05,2.77,.66,.67,1.58,1.01,2.76,1.01,.99,0,1.89-.1,2.69-.29,.8-.2,1.63-.5,2.49-.91v3.22c-.75,.37-1.54,.65-2.37,.83-.83,.18-1.83,.27-3.01,.27-1.53,0-2.88-.28-4.06-.85s-2.1-1.43-2.77-2.59c-.67-1.16-1.01-2.61-1.01-4.37s.3-3.28,.91-4.47,1.45-2.08,2.53-2.67c1.08-.6,2.34-.9,3.78-.9Zm.03,2.97c-.8,0-1.47,.26-2,.78-.53,.52-.84,1.33-.94,2.44h5.85c-.02-.93-.26-1.7-.73-2.31-.47-.61-1.2-.91-2.18-.91Z" fill="#4c4c4d"/>
    <path d="M190.97,48.43c.21,0,.45,0,.73,.03s.5,.05,.67,.08l-.31,3.92c-.13-.04-.32-.07-.57-.1-.25-.03-.47-.04-.66-.04-.71,0-1.39,.13-2.04,.38s-1.18,.66-1.58,1.22c-.4,.56-.6,1.33-.6,2.3v7.78h-4.17v-15.29h3.16l.62,2.58h.2c.45-.78,1.06-1.46,1.85-2.02,.78-.56,1.69-.84,2.72-.84Z" fill="#4c4c4d"/>
    <path d="M208.47,56.32c0,2.54-.67,4.5-2,5.88-1.33,1.38-3.15,2.07-5.45,2.07-1.42,0-2.68-.31-3.79-.92-1.11-.62-1.98-1.52-2.62-2.7-.63-1.18-.95-2.63-.95-4.33,0-2.54,.66-4.49,1.99-5.85,1.33-1.36,3.15-2.04,5.46-2.04,1.44,0,2.71,.31,3.81,.92,1.1,.62,1.97,1.51,2.6,2.67,.63,1.17,.95,2.6,.95,4.3Zm-10.56,0c0,1.51,.25,2.66,.74,3.43s1.3,1.16,2.42,1.16,1.9-.39,2.39-1.16c.49-.77,.74-1.92,.74-3.43s-.25-2.65-.74-3.4c-.5-.76-1.3-1.13-2.42-1.13s-1.9,.38-2.39,1.13-.74,1.89-.74,3.4Z" fill="#4c4c4d"/>
    <path d="M225.5,48.43c2.11,0,3.78,.6,5.01,1.81,1.23,1.2,1.85,2.92,1.85,5.14v2.02h-9.86c.04,1.18,.39,2.1,1.05,2.77,.66,.67,1.58,1.01,2.76,1.01,.99,0,1.89-.1,2.69-.29,.8-.2,1.63-.5,2.49-.91v3.22c-.75,.37-1.54,.65-2.37,.83-.83,.18-1.83,.27-3.01,.27-1.53,0-2.88-.28-4.06-.85s-2.1-1.43-2.77-2.59c-.67-1.16-1.01-2.61-1.01-4.37s.3-3.28,.91-4.47,1.45-2.08,2.53-2.67c1.08-.6,2.34-.9,3.78-.9Zm.03,2.97c-.8,0-1.47,.26-2,.78-.53,.52-.84,1.33-.94,2.44h5.85c-.02-.93-.26-1.7-.73-2.31-.47-.61-1.2-.91-2.18-.91Z" fill="#4c4c4d"/>
    <path d="M251.54,48.43c1.72,0,3.11,.67,4.17,2,1.06,1.33,1.6,3.3,1.6,5.89s-.55,4.57-1.65,5.92-2.51,2.03-4.23,2.03c-1.1,0-1.98-.2-2.63-.6s-1.19-.85-1.6-1.36h-.22c.15,.78,.22,1.53,.22,2.24v6.16h-4.17v-22.01h3.39l.59,1.99h.2c.41-.62,.96-1.15,1.65-1.6s1.59-.67,2.69-.67Zm-1.34,3.33c-1.08,0-1.84,.34-2.28,1.01-.44,.67-.68,1.7-.71,3.08v.45c0,1.47,.22,2.61,.66,3.4,.44,.79,1.24,1.19,2.39,1.19,.95,0,1.66-.4,2.11-1.19,.46-.79,.69-1.94,.69-3.43,0-3-.95-4.51-2.86-4.51Z" fill="#4c4c4d"/>
    <path d="M269.29,48.43c.21,0,.45,0,.73,.03s.5,.05,.67,.08l-.31,3.92c-.13-.04-.32-.07-.57-.1-.25-.03-.47-.04-.66-.04-.71,0-1.39,.13-2.04,.38s-1.18,.66-1.58,1.22c-.4,.56-.6,1.33-.6,2.3v7.78h-4.17v-15.29h3.16l.62,2.58h.2c.45-.78,1.06-1.46,1.85-2.02,.78-.56,1.69-.84,2.72-.84Z" fill="#4c4c4d"/>
    <path d="M286.79,56.32c0,2.54-.67,4.5-2,5.88-1.33,1.38-3.15,2.07-5.45,2.07-1.42,0-2.68-.31-3.79-.92-1.11-.62-1.98-1.52-2.62-2.7-.63-1.18-.95-2.63-.95-4.33,0-2.54,.66-4.49,1.99-5.85,1.33-1.36,3.15-2.04,5.46-2.04,1.44,0,2.71,.31,3.81,.92,1.1,.62,1.97,1.51,2.6,2.67,.63,1.17,.95,2.6,.95,4.3Zm-10.56,0c0,1.51,.25,2.66,.74,3.43s1.3,1.16,2.42,1.16,1.9-.39,2.39-1.16c.49-.77,.74-1.92,.74-3.43s-.25-2.65-.74-3.4c-.5-.76-1.3-1.13-2.42-1.13s-1.9,.38-2.39,1.13-.74,1.89-.74,3.4Z" fill="#4c4c4d"/>
    <path d="M298.74,48.43c1.72,0,3.11,.67,4.17,2,1.06,1.33,1.6,3.3,1.6,5.89s-.55,4.57-1.65,5.92-2.51,2.03-4.23,2.03c-1.1,0-1.98-.2-2.63-.6s-1.19-.85-1.6-1.36h-.22c.15,.78,.22,1.53,.22,2.24v6.16h-4.17v-22.01h3.39l.59,1.99h.2c.41-.62,.96-1.15,1.65-1.6s1.59-.67,2.69-.67Zm-1.34,3.33c-1.08,0-1.84,.34-2.28,1.01-.44,.67-.68,1.7-.71,3.08v.45c0,1.47,.22,2.61,.66,3.4,.44,.79,1.24,1.19,2.39,1.19,.95,0,1.66-.4,2.11-1.19,.46-.79,.69-1.94,.69-3.43,0-3-.95-4.51-2.86-4.51Z" fill="#4c4c4d"/>
    <path d="M321.84,56.32c0,2.54-.67,4.5-2,5.88-1.33,1.38-3.15,2.07-5.45,2.07-1.42,0-2.68-.31-3.79-.92-1.11-.62-1.98-1.52-2.62-2.7-.63-1.18-.95-2.63-.95-4.33,0-2.54,.66-4.49,1.99-5.85,1.33-1.36,3.15-2.04,5.46-2.04,1.44,0,2.71,.31,3.81,.92,1.1,.62,1.97,1.51,2.6,2.67,.63,1.17,.95,2.6,.95,4.3Zm-10.56,0c0,1.51,.25,2.66,.74,3.43s1.3,1.16,2.42,1.16,1.9-.39,2.39-1.16c.49-.77,.74-1.92,.74-3.43s-.25-2.65-.74-3.4c-.5-.76-1.3-1.13-2.42-1.13s-1.9,.38-2.39,1.13-.74,1.89-.74,3.4Z" fill="#4c4c4d"/>
    <path d="M333.83,48.43c.21,0,.45,0,.73,.03s.5,.05,.67,.08l-.31,3.92c-.13-.04-.32-.07-.57-.1-.25-.03-.47-.04-.66-.04-.71,0-1.39,.13-2.04,.38s-1.18,.66-1.58,1.22c-.4,.56-.6,1.33-.6,2.3v7.78h-4.17v-15.29h3.16l.62,2.58h.2c.45-.78,1.06-1.46,1.85-2.02,.78-.56,1.69-.84,2.72-.84Z" fill="#4c4c4d"/>
    <path d="M343.66,64.28c-2.28,0-4.04-.63-5.28-1.89s-1.86-3.24-1.86-5.95c0-1.87,.32-3.39,.95-4.56s1.52-2.04,2.65-2.6c1.13-.56,2.43-.84,3.91-.84,1.05,0,1.96,.1,2.73,.31,.77,.21,1.45,.45,2.03,.73l-1.23,3.22c-.65-.26-1.26-.48-1.83-.64s-1.13-.25-1.69-.25c-2.17,0-3.25,1.54-3.25,4.62,0,1.53,.29,2.66,.85,3.39,.57,.73,1.37,1.09,2.39,1.09,.88,0,1.65-.12,2.32-.35s1.33-.56,1.96-.97v3.56c-.63,.41-1.3,.71-2,.88-.7,.18-1.58,.27-2.65,.27Zm3,3.14c0,1.04-.3,1.86-.91,2.44-.61,.58-1.71,.87-3.32,.87-.41,0-.78-.03-1.11-.08-.33-.06-.62-.12-.88-.2v-2.3c.26,.07,.58,.14,.97,.2,.38,.06,.71,.08,.99,.08,.26,0,.49-.06,.69-.18,.2-.12,.29-.34,.29-.66,0-.34-.17-.63-.5-.9s-.92-.46-1.76-.59l1.06-2.1h2.63l-.36,.84c.56,.19,1.07,.49,1.53,.91,.46,.42,.69,.97,.69,1.67Z" fill="#4c4c4d"/>
    <path d="M358.1,48.4c2.05,0,3.63,.44,4.72,1.33,1.09,.89,1.64,2.25,1.64,4.07v10.19h-2.91l-.81-2.07h-.11c-.65,.82-1.34,1.42-2.07,1.79-.73,.37-1.73,.56-3,.56-1.36,0-2.49-.4-3.39-1.19-.9-.79-1.34-2.01-1.34-3.65s.57-2.82,1.71-3.6,2.85-1.2,5.12-1.27l2.66-.08v-.67c0-.8-.21-1.39-.63-1.76s-1-.56-1.75-.56-1.47,.11-2.18,.32c-.71,.21-1.42,.48-2.13,.8l-1.37-2.83c.82-.43,1.73-.76,2.73-1.01,1-.24,2.04-.36,3.12-.36Zm-5.66-1.34c.11-1.46,.52-2.52,1.22-3.21,.7-.68,1.54-1.02,2.51-1.02,.5,0,.99,.12,1.47,.36,.48,.24,.94,.48,1.4,.71,.46,.23,.9,.35,1.33,.35,.28,0,.55-.12,.81-.36,.26-.24,.45-.61,.56-1.09h2.04c-.11,1.44-.52,2.5-1.23,3.19-.71,.69-1.54,1.04-2.49,1.04-.49,0-.97-.12-1.44-.35-.48-.23-.94-.47-1.4-.71-.46-.24-.91-.36-1.36-.36-.28,0-.55,.12-.81,.36-.26,.24-.45,.61-.56,1.09h-2.04Zm6.24,9.91c-1.34,.04-2.28,.28-2.8,.73-.52,.45-.78,1.04-.78,1.76,0,.63,.19,1.09,.56,1.36,.37,.27,.86,.41,1.46,.41,.9,0,1.65-.27,2.27-.8s.92-1.28,.92-2.25v-1.26l-1.62,.06Z" fill="#4c4c4d"/>
    <path d="M382.63,56.32c0,2.54-.67,4.5-2,5.88-1.33,1.38-3.15,2.07-5.45,2.07-1.42,0-2.68-.31-3.79-.92-1.11-.62-1.98-1.52-2.62-2.7-.63-1.18-.95-2.63-.95-4.33,0-2.54,.66-4.49,1.99-5.85,1.33-1.36,3.15-2.04,5.46-2.04,1.44,0,2.71,.31,3.81,.92,1.1,.62,1.97,1.51,2.6,2.67,.63,1.17,.95,2.6,.95,4.3Zm-10.56,0c0,1.51,.25,2.66,.74,3.43s1.3,1.16,2.42,1.16,1.9-.39,2.39-1.16c.49-.77,.74-1.92,.74-3.43s-.25-2.65-.74-3.4c-.5-.76-1.3-1.13-2.42-1.13s-1.9,.38-2.39,1.13-.74,1.89-.74,3.4Z" fill="#4c4c4d"/>
    <path d="M398.2,64.28c-1.7,0-3.08-.67-4.16-2-1.07-1.33-1.61-3.3-1.61-5.89s.54-4.59,1.62-5.94c1.08-1.34,2.5-2.02,4.26-2.02,1.1,0,2.01,.21,2.72,.64,.71,.43,1.27,.96,1.68,1.6h.14c-.06-.3-.12-.73-.2-1.3-.08-.57-.11-1.15-.11-1.75v-4.9h4.17v21.28h-3.19l-.81-1.99h-.17c-.41,.63-.96,1.17-1.65,1.61s-1.59,.66-2.69,.66Zm1.46-3.33c1.16,0,1.97-.34,2.44-1.02s.71-1.7,.73-3.07v-.45c0-1.49-.23-2.63-.69-3.42-.46-.78-1.3-1.18-2.53-1.18-.91,0-1.63,.4-2.16,1.19-.52,.79-.78,1.94-.78,3.43s.26,2.62,.78,3.37c.52,.76,1.26,1.13,2.21,1.13Z" fill="#4c4c4d"/>
    <path d="M417.38,48.43c2.11,0,3.78,.6,5.01,1.81,1.23,1.2,1.85,2.92,1.85,5.14v2.02h-9.86c.04,1.18,.39,2.1,1.05,2.77,.66,.67,1.58,1.01,2.76,1.01,.99,0,1.89-.1,2.69-.29,.8-.2,1.63-.5,2.49-.91v3.22c-.75,.37-1.54,.65-2.37,.83-.83,.18-1.83,.27-3.01,.27-1.53,0-2.88-.28-4.06-.85s-2.1-1.43-2.77-2.59c-.67-1.16-1.01-2.61-1.01-4.37s.3-3.28,.91-4.47,1.45-2.08,2.53-2.67c1.08-.6,2.34-.9,3.78-.9Zm.03,2.97c-.8,0-1.47,.26-2,.78-.53,.52-.84,1.33-.94,2.44h5.85c-.02-.93-.26-1.7-.73-2.31-.47-.61-1.2-.91-2.18-.91Z" fill="#4c4c4d"/>
    <path d="M441.12,64.28c-2.28,0-4.04-.63-5.28-1.89s-1.86-3.24-1.86-5.95c0-1.87,.32-3.39,.95-4.56s1.52-2.04,2.65-2.6c1.13-.56,2.43-.84,3.91-.84,1.05,0,1.96,.1,2.73,.31,.77,.21,1.45,.45,2.03,.73l-1.23,3.22c-.65-.26-1.26-.48-1.83-.64s-1.13-.25-1.69-.25c-2.17,0-3.25,1.54-3.25,4.62,0,1.53,.29,2.66,.85,3.39,.57,.73,1.37,1.09,2.39,1.09,.88,0,1.65-.12,2.32-.35s1.33-.56,1.96-.97v3.56c-.63,.41-1.3,.71-2,.88-.7,.18-1.58,.27-2.65,.27Z" fill="#4c4c4d"/>
    <path d="M455.57,48.4c2.05,0,3.63,.44,4.72,1.33,1.09,.89,1.64,2.25,1.64,4.07v10.19h-2.91l-.81-2.07h-.11c-.65,.82-1.34,1.42-2.07,1.79-.73,.37-1.73,.56-3,.56-1.36,0-2.49-.4-3.39-1.19-.9-.79-1.34-2.01-1.34-3.65s.57-2.82,1.71-3.6,2.85-1.2,5.12-1.27l2.66-.08v-.67c0-.8-.21-1.39-.63-1.76s-1-.56-1.75-.56-1.47,.11-2.18,.32c-.71,.21-1.42,.48-2.13,.8l-1.37-2.83c.82-.43,1.73-.76,2.73-1.01,1-.24,2.04-.36,3.12-.36Zm.59,8.57c-1.34,.04-2.28,.28-2.8,.73-.52,.45-.78,1.04-.78,1.76,0,.63,.19,1.09,.56,1.36,.37,.27,.86,.41,1.46,.41,.9,0,1.65-.27,2.27-.8s.92-1.28,.92-2.25v-1.26l-1.62,.06Z" fill="#4c4c4d"/>
    <path d="M476.88,59.46c0,1.55-.55,2.74-1.64,3.57-1.09,.83-2.72,1.25-4.89,1.25-1.06,0-1.98-.07-2.74-.21-.77-.14-1.53-.37-2.3-.69v-3.44c.82,.37,1.71,.68,2.66,.92,.95,.24,1.79,.36,2.52,.36,.82,0,1.4-.12,1.75-.36,.35-.24,.52-.56,.52-.95,0-.26-.07-.5-.21-.7-.14-.21-.44-.44-.91-.7-.47-.26-1.2-.6-2.18-1.01-.95-.41-1.74-.82-2.35-1.22s-1.07-.89-1.37-1.46-.45-1.28-.45-2.14c0-1.42,.55-2.48,1.65-3.19,1.1-.71,2.57-1.06,4.4-1.06,.95,0,1.86,.09,2.72,.28,.86,.19,1.75,.5,2.66,.92l-1.26,3c-.75-.32-1.46-.58-2.13-.8s-1.35-.32-2.04-.32c-1.23,0-1.85,.34-1.85,1.01,0,.24,.08,.46,.24,.66,.16,.2,.47,.41,.92,.63,.46,.22,1.13,.52,2.03,.9,.88,.35,1.63,.72,2.27,1.11,.63,.38,1.12,.86,1.47,1.43,.34,.57,.52,1.31,.52,2.23Z" fill="#4c4c4d"/>
    <path d="M494.02,56.32c0,2.54-.67,4.5-2,5.88-1.33,1.38-3.15,2.07-5.45,2.07-1.42,0-2.68-.31-3.79-.92-1.11-.62-1.98-1.52-2.62-2.7-.63-1.18-.95-2.63-.95-4.33,0-2.54,.66-4.49,1.99-5.85,1.33-1.36,3.15-2.04,5.46-2.04,1.44,0,2.71,.31,3.81,.92,1.1,.62,1.97,1.51,2.6,2.67,.63,1.17,.95,2.6,.95,4.3Zm-10.56,0c0,1.51,.25,2.66,.74,3.43s1.3,1.16,2.42,1.16,1.9-.39,2.39-1.16c.49-.77,.74-1.92,.74-3.43s-.25-2.65-.74-3.4c-.5-.76-1.3-1.13-2.42-1.13s-1.9,.38-2.39,1.13-.74,1.89-.74,3.4Z" fill="#4c4c4d"/>
    <path d="M508.13,59.46c0,1.55-.55,2.74-1.64,3.57-1.09,.83-2.72,1.25-4.89,1.25-1.06,0-1.98-.07-2.74-.21-.77-.14-1.53-.37-2.3-.69v-3.44c.82,.37,1.71,.68,2.66,.92,.95,.24,1.79,.36,2.52,.36,.82,0,1.4-.12,1.75-.36,.35-.24,.52-.56,.52-.95,0-.26-.07-.5-.21-.7-.14-.21-.44-.44-.91-.7-.47-.26-1.2-.6-2.18-1.01-.95-.41-1.74-.82-2.35-1.22s-1.07-.89-1.37-1.46-.45-1.28-.45-2.14c0-1.42,.55-2.48,1.65-3.19,1.1-.71,2.57-1.06,4.4-1.06,.95,0,1.86,.09,2.72,.28,.86,.19,1.75,.5,2.66,.92l-1.26,3c-.75-.32-1.46-.58-2.13-.8s-1.35-.32-2.04-.32c-1.23,0-1.85,.34-1.85,1.01,0,.24,.08,.46,.24,.66,.16,.2,.47,.41,.92,.63,.46,.22,1.13,.52,2.03,.9,.88,.35,1.63,.72,2.27,1.11,.63,.38,1.12,.86,1.47,1.43,.34,.57,.52,1.31,.52,2.23Z" fill="#4c4c4d"/>
    <path d="M523.5,64.28c-1.7,0-3.08-.67-4.16-2-1.07-1.33-1.61-3.3-1.61-5.89s.54-4.59,1.62-5.94c1.08-1.34,2.5-2.02,4.26-2.02,1.1,0,2.01,.21,2.72,.64,.71,.43,1.27,.96,1.68,1.6h.14c-.06-.3-.12-.73-.2-1.3-.08-.57-.11-1.15-.11-1.75v-4.9h4.17v21.28h-3.19l-.81-1.99h-.17c-.41,.63-.96,1.17-1.65,1.61s-1.59,.66-2.69,.66Zm1.46-3.33c1.16,0,1.97-.34,2.44-1.02s.71-1.7,.73-3.07v-.45c0-1.49-.23-2.63-.69-3.42-.46-.78-1.3-1.18-2.53-1.18-.91,0-1.63,.4-2.16,1.19-.52,.79-.78,1.94-.78,3.43s.26,2.62,.78,3.37c.52,.76,1.26,1.13,2.21,1.13Z" fill="#4c4c4d"/>
    <path d="M542.68,48.43c2.11,0,3.78,.6,5.01,1.81,1.23,1.2,1.85,2.92,1.85,5.14v2.02h-9.86c.04,1.18,.39,2.1,1.05,2.77,.66,.67,1.58,1.01,2.76,1.01,.99,0,1.89-.1,2.69-.29,.8-.2,1.63-.5,2.49-.91v3.22c-.75,.37-1.54,.65-2.37,.83-.83,.18-1.83,.27-3.01,.27-1.53,0-2.88-.28-4.06-.85s-2.1-1.43-2.77-2.59c-.67-1.16-1.01-2.61-1.01-4.37s.3-3.28,.91-4.47,1.45-2.08,2.53-2.67c1.08-.6,2.34-.9,3.78-.9Zm.03,2.97c-.8,0-1.47,.26-2,.78-.53,.52-.84,1.33-.94,2.44h5.85c-.02-.93-.26-1.7-.73-2.31-.47-.61-1.2-.91-2.18-.91Z" fill="#4c4c4d"/>
    <path d="M568.24,64h-4.23v-16.46h-5.43v-3.53h15.09v3.53h-5.43v16.46Z" fill="#4c4c4d"/>
    <path d="M582.97,44c2.67,0,4.68,.37,6.05,1.12,1.36,.75,2.04,2.06,2.04,3.95,0,1.14-.27,2.1-.8,2.88-.53,.78-1.29,1.26-2.28,1.43v.14c.67,.13,1.28,.36,1.82,.7,.54,.34,.97,.82,1.29,1.46,.32,.63,.48,1.47,.48,2.52,0,1.81-.65,3.23-1.96,4.26s-3.1,1.54-5.38,1.54h-7.48v-19.99h6.22Zm.48,7.92c1.23,0,2.09-.2,2.56-.59,.48-.39,.71-.96,.71-1.71s-.28-1.32-.84-1.65c-.56-.34-1.45-.5-2.66-.5h-2.24v4.45h2.46Zm-2.46,3.36v5.21h2.77c1.27,0,2.16-.25,2.66-.74,.5-.49,.76-1.15,.76-1.97,0-.75-.26-1.35-.77-1.81-.51-.46-1.44-.69-2.79-.69h-2.63Z" fill="#4c4c4d"/>
    <path d="M611.2,48.43c1.64,0,2.96,.44,3.95,1.33s1.48,2.31,1.48,4.27v9.97h-4.17v-8.93c0-1.1-.2-1.93-.59-2.48-.39-.55-1.02-.83-1.88-.83-1.27,0-2.14,.43-2.6,1.3-.47,.87-.7,2.11-.7,3.74v7.2h-4.17v-15.29h3.19l.56,1.96h.22c.49-.78,1.15-1.35,2-1.71,.85-.35,1.75-.53,2.7-.53Z" fill="#4c4c4d"/>
    <path d="M627.18,48.4c2.05,0,3.63,.44,4.72,1.33,1.09,.89,1.64,2.25,1.64,4.07v10.19h-2.91l-.81-2.07h-.11c-.65,.82-1.34,1.42-2.07,1.79-.73,.37-1.73,.56-3,.56-1.36,0-2.49-.4-3.39-1.19-.9-.79-1.34-2.01-1.34-3.65s.57-2.82,1.71-3.6,2.85-1.2,5.12-1.27l2.66-.08v-.67c0-.8-.21-1.39-.63-1.76s-1-.56-1.75-.56-1.47,.11-2.18,.32c-.71,.21-1.42,.48-2.13,.8l-1.37-2.83c.82-.43,1.73-.76,2.73-1.01,1-.24,2.04-.36,3.12-.36Zm.59,8.57c-1.34,.04-2.28,.28-2.8,.73-.52,.45-.78,1.04-.78,1.76,0,.63,.19,1.09,.56,1.36,.37,.27,.86,.41,1.46,.41,.9,0,1.65-.27,2.27-.8s.92-1.28,.92-2.25v-1.26l-1.62,.06Z" fill="#4c4c4d"/>
    <path d="M651.82,44c2.58,0,4.46,.56,5.64,1.67s1.78,2.64,1.78,4.58c0,1.16-.24,2.24-.73,3.26s-1.29,1.83-2.42,2.45c-1.13,.62-2.67,.92-4.61,.92h-1.82v7.11h-4.23v-19.99h6.38Zm-.22,3.47h-1.93v5.94h1.4c1.19,0,2.14-.24,2.84-.71,.7-.48,1.05-1.25,1.05-2.31,0-1.94-1.12-2.91-3.36-2.91Z" fill="#4c4c4d"/>
    <path d="M674.81,58.45c0,1.77-.64,3.19-1.92,4.24s-3.09,1.58-5.45,1.58c-2.11,0-4-.4-5.66-1.2v-3.95c.95,.41,1.94,.79,2.95,1.13,1.02,.35,2.03,.52,3.04,.52s1.79-.2,2.23-.6,.66-.91,.66-1.53c0-.5-.17-.93-.52-1.29-.35-.35-.81-.69-1.39-.99-.58-.31-1.24-.64-1.99-.99-.47-.22-.97-.49-1.51-.8-.54-.31-1.06-.69-1.55-1.15-.5-.46-.9-1.01-1.22-1.67-.32-.65-.48-1.44-.48-2.35,0-1.79,.61-3.19,1.82-4.19,1.21-1,2.87-1.5,4.96-1.5,1.04,0,2.04,.12,2.98,.36,.94,.24,1.93,.59,2.95,1.04l-1.37,3.3c-.91-.37-1.74-.66-2.46-.87-.73-.21-1.47-.31-2.24-.31-.8,0-1.42,.19-1.85,.56-.43,.37-.64,.86-.64,1.46,0,.71,.32,1.27,.95,1.68,.63,.41,1.58,.91,2.83,1.51,1.03,.49,1.9,.99,2.62,1.51,.72,.52,1.27,1.14,1.67,1.85,.39,.71,.59,1.59,.59,2.63Z" fill="#4c4c4d"/>
    <path d="M684.28,44c2.73,0,4.74,.5,6.03,1.48,1.3,.99,1.95,2.49,1.95,4.51,0,.92-.17,1.71-.52,2.39-.35,.68-.8,1.26-1.37,1.74-.57,.48-1.18,.86-1.83,1.16l5.88,8.71h-4.7l-4.76-7.67h-2.27v7.67h-4.23v-19.99h5.82Zm-.31,3.47h-1.29v5.4h1.37c1.4,0,2.4-.23,3.01-.7,.61-.47,.91-1.16,.91-2.07s-.32-1.63-.97-2.03c-.64-.4-1.66-.6-3.04-.6Z" fill="#4c4c4d"/>
    <path d="M700.68,61.06c-.24,.99-.59,2.07-1.04,3.25-.45,1.18-.91,2.28-1.37,3.3h-3c.26-1.1,.52-2.28,.78-3.53,.26-1.25,.46-2.36,.59-3.33h3.84l.2,.31Z" fill="#4c4c4d"/>
    <path d="M716.7,64.28c-1.7,0-3.08-.67-4.16-2-1.07-1.33-1.61-3.3-1.61-5.89s.54-4.59,1.62-5.94c1.08-1.34,2.5-2.02,4.26-2.02,1.1,0,2.01,.21,2.72,.64,.71,.43,1.27,.96,1.68,1.6h.14c-.06-.3-.12-.73-.2-1.3-.08-.57-.11-1.15-.11-1.75v-4.9h4.17v21.28h-3.19l-.81-1.99h-.17c-.41,.63-.96,1.17-1.65,1.61s-1.59,.66-2.69,.66Zm1.46-3.33c1.16,0,1.97-.34,2.44-1.02s.71-1.7,.73-3.07v-.45c0-1.49-.23-2.63-.69-3.42-.46-.78-1.3-1.18-2.53-1.18-.91,0-1.63,.4-2.16,1.19-.52,.79-.78,1.94-.78,3.43s.26,2.62,.78,3.37c.52,.76,1.26,1.13,2.21,1.13Z" fill="#4c4c4d"/>
    <path d="M735.88,48.43c2.11,0,3.78,.6,5.01,1.81,1.23,1.2,1.85,2.92,1.85,5.14v2.02h-9.86c.04,1.18,.39,2.1,1.05,2.77,.66,.67,1.58,1.01,2.76,1.01,.99,0,1.89-.1,2.69-.29,.8-.2,1.63-.5,2.49-.91v3.22c-.75,.37-1.54,.65-2.37,.83-.83,.18-1.83,.27-3.01,.27-1.53,0-2.88-.28-4.06-.85s-2.1-1.43-2.77-2.59c-.67-1.16-1.01-2.61-1.01-4.37s.3-3.28,.91-4.47,1.45-2.08,2.53-2.67c1.08-.6,2.34-.9,3.78-.9Zm.03,2.97c-.8,0-1.47,.26-2,.78-.53,.52-.84,1.33-.94,2.44h5.85c-.02-.93-.26-1.7-.73-2.31-.47-.61-1.2-.91-2.18-.91Z" fill="#4c4c4d"/>
    <path d="M759.68,48.4c2.05,0,3.63,.44,4.72,1.33,1.09,.89,1.64,2.25,1.64,4.07v10.19h-2.91l-.81-2.07h-.11c-.65,.82-1.34,1.42-2.07,1.79-.73,.37-1.73,.56-3,.56-1.36,0-2.49-.4-3.39-1.19-.9-.79-1.34-2.01-1.34-3.65s.57-2.82,1.71-3.6,2.85-1.2,5.12-1.27l2.66-.08v-.67c0-.8-.21-1.39-.63-1.76s-1-.56-1.75-.56-1.47,.11-2.18,.32c-.71,.21-1.42,.48-2.13,.8l-1.37-2.83c.82-.43,1.73-.76,2.73-1.01,1-.24,2.04-.36,3.12-.36Zm.59,8.57c-1.34,.04-2.28,.28-2.8,.73-.52,.45-.78,1.04-.78,1.76,0,.63,.19,1.09,.56,1.36,.37,.27,.86,.41,1.46,.41,.9,0,1.65-.27,2.27-.8s.92-1.28,.92-2.25v-1.26l-1.62,.06Z" fill="#4c4c4d"/>
    <path d="M776.53,64.28c-2.28,0-4.04-.63-5.28-1.89s-1.86-3.24-1.86-5.95c0-1.87,.32-3.39,.95-4.56s1.52-2.04,2.65-2.6c1.13-.56,2.43-.84,3.91-.84,1.05,0,1.96,.1,2.73,.31,.77,.21,1.45,.45,2.03,.73l-1.23,3.22c-.65-.26-1.26-.48-1.83-.64s-1.13-.25-1.69-.25c-2.17,0-3.25,1.54-3.25,4.62,0,1.53,.29,2.66,.85,3.39,.57,.73,1.37,1.09,2.39,1.09,.88,0,1.65-.12,2.32-.35s1.33-.56,1.96-.97v3.56c-.63,.41-1.3,.71-2,.88-.7,.18-1.58,.27-2.65,.27Z" fill="#4c4c4d"/>
    <path d="M798.6,56.32c0,2.54-.67,4.5-2,5.88-1.33,1.38-3.15,2.07-5.45,2.07-1.42,0-2.68-.31-3.79-.92-1.11-.62-1.98-1.52-2.62-2.7-.63-1.18-.95-2.63-.95-4.33,0-2.54,.66-4.49,1.99-5.85,1.33-1.36,3.15-2.04,5.46-2.04,1.44,0,2.71,.31,3.81,.92,1.1,.62,1.97,1.51,2.6,2.67,.63,1.17,.95,2.6,.95,4.3Zm-10.56,0c0,1.51,.25,2.66,.74,3.43s1.3,1.16,2.42,1.16,1.9-.39,2.39-1.16c.49-.77,.74-1.92,.74-3.43s-.25-2.65-.74-3.4c-.5-.76-1.3-1.13-2.42-1.13s-1.9,.38-2.39,1.13-.74,1.89-.74,3.4Z" fill="#4c4c4d"/>
    <path d="M810.58,48.43c.21,0,.45,0,.73,.03s.5,.05,.67,.08l-.31,3.92c-.13-.04-.32-.07-.57-.1-.25-.03-.47-.04-.66-.04-.71,0-1.39,.13-2.04,.38s-1.18,.66-1.58,1.22c-.4,.56-.6,1.33-.6,2.3v7.78h-4.17v-15.29h3.16l.62,2.58h.2c.45-.78,1.06-1.46,1.85-2.02,.78-.56,1.69-.84,2.72-.84Z" fill="#4c4c4d"/>
    <path d="M819.04,64.28c-1.7,0-3.08-.67-4.16-2-1.07-1.33-1.61-3.3-1.61-5.89s.54-4.59,1.62-5.94c1.08-1.34,2.5-2.02,4.26-2.02,1.1,0,2.01,.21,2.72,.64,.71,.43,1.27,.96,1.68,1.6h.14c-.06-.3-.12-.73-.2-1.3-.08-.57-.11-1.15-.11-1.75v-4.9h4.17v21.28h-3.19l-.81-1.99h-.17c-.41,.63-.96,1.17-1.65,1.61s-1.59,.66-2.69,.66Zm1.46-3.33c1.16,0,1.97-.34,2.44-1.02s.71-1.7,.73-3.07v-.45c0-1.49-.23-2.63-.69-3.42-.46-.78-1.3-1.18-2.53-1.18-.91,0-1.63,.4-2.16,1.19-.52,.79-.78,1.94-.78,3.43s.26,2.62,.78,3.37c.52,.76,1.26,1.13,2.21,1.13Z" fill="#4c4c4d"/>
    <path d="M845.81,56.32c0,2.54-.67,4.5-2,5.88-1.33,1.38-3.15,2.07-5.45,2.07-1.42,0-2.68-.31-3.79-.92-1.11-.62-1.98-1.52-2.62-2.7-.63-1.18-.95-2.63-.95-4.33,0-2.54,.66-4.49,1.99-5.85,1.33-1.36,3.15-2.04,5.46-2.04,1.44,0,2.71,.31,3.81,.92,1.1,.62,1.97,1.51,2.6,2.67,.63,1.17,.95,2.6,.95,4.3Zm-10.56,0c0,1.51,.25,2.66,.74,3.43s1.3,1.16,2.42,1.16,1.9-.39,2.39-1.16c.49-.77,.74-1.92,.74-3.43s-.25-2.65-.74-3.4c-.5-.76-1.3-1.13-2.42-1.13s-1.9,.38-2.39,1.13-.74,1.89-.74,3.4Z" fill="#4c4c4d"/>
    <path d="M862.75,64.28c-2.28,0-4.04-.63-5.28-1.89s-1.86-3.24-1.86-5.95c0-1.87,.32-3.39,.95-4.56s1.52-2.04,2.65-2.6c1.13-.56,2.43-.84,3.91-.84,1.05,0,1.96,.1,2.73,.31,.77,.21,1.45,.45,2.03,.73l-1.23,3.22c-.65-.26-1.26-.48-1.83-.64s-1.13-.25-1.69-.25c-2.17,0-3.25,1.54-3.25,4.62,0,1.53,.29,2.66,.85,3.39,.57,.73,1.37,1.09,2.39,1.09,.88,0,1.65-.12,2.32-.35s1.33-.56,1.96-.97v3.56c-.63,.41-1.3,.71-2,.88-.7,.18-1.58,.27-2.65,.27Z" fill="#4c4c4d"/>
    <path d="M884.81,56.32c0,2.54-.67,4.5-2,5.88-1.33,1.38-3.15,2.07-5.45,2.07-1.42,0-2.68-.31-3.79-.92-1.11-.62-1.98-1.52-2.62-2.7-.63-1.18-.95-2.63-.95-4.33,0-2.54,.66-4.49,1.99-5.85,1.33-1.36,3.15-2.04,5.46-2.04,1.44,0,2.71,.31,3.81,.92,1.1,.62,1.97,1.51,2.6,2.67,.63,1.17,.95,2.6,.95,4.3Zm-10.56,0c0,1.51,.25,2.66,.74,3.43s1.3,1.16,2.42,1.16,1.9-.39,2.39-1.16c.49-.77,.74-1.92,.74-3.43s-.25-2.65-.74-3.4c-.5-.76-1.3-1.13-2.42-1.13s-1.9,.38-2.39,1.13-.74,1.89-.74,3.4Z" fill="#4c4c4d"/>
    <path d="M906.2,48.43c1.74,0,3.05,.44,3.93,1.33,.89,.89,1.33,2.31,1.33,4.27v9.97h-4.17v-8.93c0-2.2-.77-3.3-2.3-3.3-1.1,0-1.89,.39-2.35,1.18-.47,.78-.7,1.91-.7,3.39v7.67h-4.17v-8.93c0-2.2-.77-3.3-2.3-3.3-1.16,0-1.96,.43-2.39,1.3-.44,.87-.66,2.11-.66,3.74v7.2h-4.17v-15.29h3.19l.56,1.96h.22c.47-.78,1.11-1.35,1.92-1.71,.81-.35,1.66-.53,2.53-.53,1.12,0,2.07,.18,2.86,.55s1.38,.93,1.79,1.69h.36c.47-.78,1.12-1.35,1.95-1.71,.83-.35,1.68-.53,2.56-.53Z" fill="#4c4c4d"/>
    <path d="M936.92,56.32c0,2.54-.67,4.5-2,5.88-1.33,1.38-3.15,2.07-5.45,2.07-1.42,0-2.68-.31-3.79-.92-1.11-.62-1.98-1.52-2.62-2.7-.63-1.18-.95-2.63-.95-4.33,0-2.54,.66-4.49,1.99-5.85,1.33-1.36,3.15-2.04,5.46-2.04,1.44,0,2.71,.31,3.81,.92,1.1,.62,1.97,1.51,2.6,2.67,.63,1.17,.95,2.6,.95,4.3Zm-10.56,0c0,1.51,.25,2.66,.74,3.43s1.3,1.16,2.42,1.16,1.9-.39,2.39-1.16c.49-.77,.74-1.92,.74-3.43s-.25-2.65-.74-3.4c-.5-.76-1.3-1.13-2.42-1.13s-1.9,.38-2.39,1.13-.74,1.89-.74,3.4Z" fill="#4c4c4d"/>
    <path d="M965.59,48.43c1.74,0,3.05,.44,3.93,1.33,.89,.89,1.33,2.31,1.33,4.27v9.97h-4.17v-8.93c0-2.2-.77-3.3-2.3-3.3-1.1,0-1.89,.39-2.35,1.18-.47,.78-.7,1.91-.7,3.39v7.67h-4.17v-8.93c0-2.2-.77-3.3-2.3-3.3-1.16,0-1.96,.43-2.39,1.3-.44,.87-.66,2.11-.66,3.74v7.2h-4.17v-15.29h3.19l.56,1.96h.22c.47-.78,1.11-1.35,1.92-1.71,.81-.35,1.66-.53,2.53-.53,1.12,0,2.07,.18,2.86,.55s1.38,.93,1.79,1.69h.36c.47-.78,1.12-1.35,1.95-1.71,.83-.35,1.68-.53,2.56-.53Z" fill="#4c4c4d"/>
    <path d="M989.03,56.32c0,2.54-.67,4.5-2,5.88-1.33,1.38-3.15,2.07-5.45,2.07-1.42,0-2.68-.31-3.79-.92-1.11-.62-1.98-1.52-2.62-2.7-.63-1.18-.95-2.63-.95-4.33,0-2.54,.66-4.49,1.99-5.85,1.33-1.36,3.15-2.04,5.46-2.04,1.44,0,2.71,.31,3.81,.92,1.1,.62,1.97,1.51,2.6,2.67,.63,1.17,.95,2.6,.95,4.3Zm-10.56,0c0,1.51,.25,2.66,.74,3.43s1.3,1.16,2.42,1.16,1.9-.39,2.39-1.16c.49-.77,.74-1.92,.74-3.43s-.25-2.65-.74-3.4c-.5-.76-1.3-1.13-2.42-1.13s-1.9,.38-2.39,1.13-.74,1.89-.74,3.4Z" fill="#4c4c4d"/>
    <path d="M997.32,64.28c-1.7,0-3.08-.67-4.16-2-1.07-1.33-1.61-3.3-1.61-5.89s.54-4.59,1.62-5.94c1.08-1.34,2.5-2.02,4.26-2.02,1.1,0,2.01,.21,2.72,.64,.71,.43,1.27,.96,1.68,1.6h.14c-.06-.3-.12-.73-.2-1.3-.08-.57-.11-1.15-.11-1.75v-4.9h4.17v21.28h-3.19l-.81-1.99h-.17c-.41,.63-.96,1.17-1.65,1.61s-1.59,.66-2.69,.66Zm1.46-3.33c1.16,0,1.97-.34,2.44-1.02s.71-1.7,.73-3.07v-.45c0-1.49-.23-2.63-.69-3.42-.46-.78-1.3-1.18-2.53-1.18-.91,0-1.63,.4-2.16,1.19-.52,.79-.78,1.94-.78,3.43s.26,2.62,.78,3.37c.52,.76,1.26,1.13,2.21,1.13Z" fill="#4c4c4d"/>
    <path d="M1024.08,56.32c0,2.54-.67,4.5-2,5.88-1.33,1.38-3.15,2.07-5.45,2.07-1.42,0-2.68-.31-3.79-.92-1.11-.62-1.98-1.52-2.62-2.7-.63-1.18-.95-2.63-.95-4.33,0-2.54,.66-4.49,1.99-5.85,1.33-1.36,3.15-2.04,5.46-2.04,1.44,0,2.71,.31,3.81,.92,1.1,.62,1.97,1.51,2.6,2.67,.63,1.17,.95,2.6,.95,4.3Zm-10.56,0c0,1.51,.25,2.66,.74,3.43s1.3,1.16,2.42,1.16,1.9-.39,2.39-1.16c.49-.77,.74-1.92,.74-3.43s-.25-2.65-.74-3.4c-.5-.76-1.3-1.13-2.42-1.13s-1.9,.38-2.39,1.13-.74,1.89-.74,3.4Z" fill="#4c4c4d"/>
    <path d="M1039.65,64.28c-1.7,0-3.08-.67-4.16-2-1.07-1.33-1.61-3.3-1.61-5.89s.54-4.59,1.62-5.94c1.08-1.34,2.5-2.02,4.26-2.02,1.1,0,2.01,.21,2.72,.64,.71,.43,1.27,.96,1.68,1.6h.14c-.06-.3-.12-.73-.2-1.3-.08-.57-.11-1.15-.11-1.75v-4.9h4.17v21.28h-3.19l-.81-1.99h-.17c-.41,.63-.96,1.17-1.65,1.61s-1.59,.66-2.69,.66Zm1.46-3.33c1.16,0,1.97-.34,2.44-1.02s.71-1.7,.73-3.07v-.45c0-1.49-.23-2.63-.69-3.42-.46-.78-1.3-1.18-2.53-1.18-.91,0-1.63,.4-2.16,1.19-.52,.79-.78,1.94-.78,3.43s.26,2.62,.78,3.37c.52,.76,1.26,1.13,2.21,1.13Z" fill="#4c4c4d"/>
    <path d="M1058.83,48.43c2.11,0,3.78,.6,5.01,1.81,1.23,1.2,1.85,2.92,1.85,5.14v2.02h-9.86c.04,1.18,.39,2.1,1.05,2.77,.66,.67,1.58,1.01,2.76,1.01,.99,0,1.89-.1,2.69-.29,.8-.2,1.63-.5,2.49-.91v3.22c-.75,.37-1.54,.65-2.37,.83-.83,.18-1.83,.27-3.01,.27-1.53,0-2.88-.28-4.06-.85s-2.1-1.43-2.77-2.59c-.67-1.16-1.01-2.61-1.01-4.37s.3-3.28,.91-4.47,1.45-2.08,2.53-2.67c1.08-.6,2.34-.9,3.78-.9Zm.03,2.97c-.8,0-1.47,.26-2,.78-.53,.52-.84,1.33-.94,2.44h5.85c-.02-.93-.26-1.7-.73-2.31-.47-.61-1.2-.91-2.18-.91Z" fill="#4c4c4d"/>
    <path d="M1082.66,48.43c2.11,0,3.78,.6,5.01,1.81,1.23,1.2,1.85,2.92,1.85,5.14v2.02h-9.86c.04,1.18,.39,2.1,1.05,2.77,.66,.67,1.58,1.01,2.76,1.01,.99,0,1.89-.1,2.69-.29,.8-.2,1.63-.5,2.49-.91v3.22c-.75,.37-1.54,.65-2.37,.83-.83,.18-1.83,.27-3.01,.27-1.53,0-2.88-.28-4.06-.85s-2.1-1.43-2.77-2.59c-.67-1.16-1.01-2.61-1.01-4.37s.3-3.28,.91-4.47,1.45-2.08,2.53-2.67c1.08-.6,2.34-.9,3.78-.9Zm.03,2.97c-.8,0-1.47,.26-2,.78-.53,.52-.84,1.33-.94,2.44h5.85c-.02-.93-.26-1.7-.73-2.31-.47-.61-1.2-.91-2.18-.91Z" fill="#4c4c4d"/>
    <path d="M1101.59,48.43c1.64,0,2.96,.44,3.95,1.33s1.48,2.31,1.48,4.27v9.97h-4.17v-8.93c0-1.1-.2-1.93-.59-2.48-.39-.55-1.02-.83-1.88-.83-1.27,0-2.14,.43-2.6,1.3-.47,.87-.7,2.11-.7,3.74v7.2h-4.17v-15.29h3.19l.56,1.96h.22c.49-.78,1.15-1.35,2-1.71,.85-.35,1.75-.53,2.7-.53Z" fill="#4c4c4d"/>
    <path d="M1117.74,60.94c.47,0,.91-.05,1.34-.14,.43-.09,.86-.21,1.29-.34v3.11c-.45,.19-1,.35-1.67,.49-.66,.14-1.39,.21-2.17,.21-.92,0-1.73-.15-2.45-.45-.72-.3-1.29-.82-1.71-1.55-.42-.74-.63-1.76-.63-3.07v-7.36h-1.99v-1.76l2.3-1.4,1.2-3.22h2.66v3.25h4.28v3.14h-4.28v7.36c0,.58,.17,1.01,.5,1.3,.34,.29,.77,.43,1.32,.43Z" fill="#4c4c4d"/>
    <path d="M1131.99,48.43c.21,0,.45,0,.73,.03s.5,.05,.67,.08l-.31,3.92c-.13-.04-.32-.07-.57-.1-.25-.03-.47-.04-.66-.04-.71,0-1.39,.13-2.04,.38s-1.18,.66-1.58,1.22c-.4,.56-.6,1.33-.6,2.3v7.78h-4.17v-15.29h3.16l.62,2.58h.2c.45-.78,1.06-1.46,1.85-2.02,.78-.56,1.69-.84,2.72-.84Z" fill="#4c4c4d"/>
    <path d="M1141.88,48.4c2.05,0,3.63,.44,4.72,1.33,1.09,.89,1.64,2.25,1.64,4.07v10.19h-2.91l-.81-2.07h-.11c-.65,.82-1.34,1.42-2.07,1.79-.73,.37-1.73,.56-3,.56-1.36,0-2.49-.4-3.39-1.19-.9-.79-1.34-2.01-1.34-3.65s.57-2.82,1.71-3.6,2.85-1.2,5.12-1.27l2.66-.08v-.67c0-.8-.21-1.39-.63-1.76s-1-.56-1.75-.56-1.47,.11-2.18,.32c-.71,.21-1.42,.48-2.13,.8l-1.37-2.83c.82-.43,1.73-.76,2.73-1.01,1-.24,2.04-.36,3.12-.36Zm.59,8.57c-1.34,.04-2.28,.28-2.8,.73-.52,.45-.78,1.04-.78,1.76,0,.63,.19,1.09,.56,1.36,.37,.27,.86,.41,1.46,.41,.9,0,1.65-.27,2.27-.8s.92-1.28,.92-2.25v-1.26l-1.62,.06Z" fill="#4c4c4d"/>
    <path d="M1157.36,64.28c-1.7,0-3.08-.67-4.16-2-1.07-1.33-1.61-3.3-1.61-5.89s.54-4.59,1.62-5.94c1.08-1.34,2.5-2.02,4.26-2.02,1.1,0,2.01,.21,2.72,.64,.71,.43,1.27,.96,1.68,1.6h.14c-.06-.3-.12-.73-.2-1.3-.08-.57-.11-1.15-.11-1.75v-4.9h4.17v21.28h-3.19l-.81-1.99h-.17c-.41,.63-.96,1.17-1.65,1.61s-1.59,.66-2.69,.66Zm1.46-3.33c1.16,0,1.97-.34,2.44-1.02s.71-1.7,.73-3.07v-.45c0-1.49-.23-2.63-.69-3.42-.46-.78-1.3-1.18-2.53-1.18-.91,0-1.63,.4-2.16,1.19-.52,.79-.78,1.94-.78,3.43s.26,2.62,.78,3.37c.52,.76,1.26,1.13,2.21,1.13Z" fill="#4c4c4d"/>
    <path d="M1176.51,48.4c2.05,0,3.63,.44,4.72,1.33,1.09,.89,1.64,2.25,1.64,4.07v10.19h-2.91l-.81-2.07h-.11c-.65,.82-1.34,1.42-2.07,1.79-.73,.37-1.73,.56-3,.56-1.36,0-2.49-.4-3.39-1.19-.9-.79-1.34-2.01-1.34-3.65s.57-2.82,1.71-3.6,2.85-1.2,5.12-1.27l2.66-.08v-.67c0-.8-.21-1.39-.63-1.76s-1-.56-1.75-.56-1.47,.11-2.18,.32c-.71,.21-1.42,.48-2.13,.8l-1.37-2.83c.82-.43,1.73-.76,2.73-1.01,1-.24,2.04-.36,3.12-.36Zm.59,8.57c-1.34,.04-2.28,.28-2.8,.73-.52,.45-.78,1.04-.78,1.76,0,.63,.19,1.09,.56,1.36,.37,.27,.86,.41,1.46,.41,.9,0,1.65-.27,2.27-.8s.92-1.28,.92-2.25v-1.26l-1.62,.06Z" fill="#4c4c4d"/>
    <path d="M360.96,97.87c-1.7,0-3.08-.67-4.16-2-1.07-1.33-1.61-3.3-1.61-5.89s.54-4.59,1.62-5.94c1.08-1.34,2.5-2.02,4.26-2.02,1.1,0,2.01,.21,2.72,.64,.71,.43,1.27,.96,1.68,1.6h.14c-.06-.3-.12-.73-.2-1.3-.08-.57-.11-1.15-.11-1.75v-4.9h4.17v21.28h-3.19l-.81-1.99h-.17c-.41,.63-.96,1.17-1.65,1.61s-1.59,.66-2.69,.66Zm1.46-3.33c1.16,0,1.97-.34,2.44-1.02s.71-1.7,.73-3.07v-.45c0-1.49-.23-2.63-.69-3.42-.46-.78-1.3-1.18-2.53-1.18-.91,0-1.63,.4-2.16,1.19-.52,.79-.78,1.94-.78,3.43s.26,2.62,.78,3.37c.52,.76,1.26,1.13,2.21,1.13Z" fill="#4c4c4d"/>
    <path d="M380.11,82c2.05,0,3.63,.44,4.72,1.33,1.09,.89,1.64,2.25,1.64,4.07v10.19h-2.91l-.81-2.07h-.11c-.65,.82-1.34,1.42-2.07,1.79-.73,.37-1.73,.56-3,.56-1.36,0-2.49-.4-3.39-1.19-.9-.79-1.34-2.01-1.34-3.65s.57-2.82,1.71-3.6,2.85-1.2,5.12-1.27l2.66-.08v-.67c0-.8-.21-1.39-.63-1.76s-1-.56-1.75-.56-1.47,.11-2.18,.32c-.71,.21-1.42,.48-2.13,.8l-1.37-2.83c.82-.43,1.73-.76,2.73-1.01,1-.24,2.04-.36,3.12-.36Zm.59,8.57c-1.34,.04-2.28,.28-2.8,.73-.52,.45-.78,1.04-.78,1.76,0,.63,.19,1.09,.56,1.36,.37,.27,.86,.41,1.46,.41,.9,0,1.65-.27,2.27-.8s.92-1.28,.92-2.25v-1.26l-1.62,.06Z" fill="#4c4c4d"/>
    <path d="M406.71,82.03c1.64,0,2.96,.44,3.95,1.33s1.48,2.31,1.48,4.27v9.97h-4.17v-8.93c0-1.1-.2-1.93-.59-2.48-.39-.55-1.02-.83-1.88-.83-1.27,0-2.14,.43-2.6,1.3-.47,.87-.7,2.11-.7,3.74v7.2h-4.17v-15.29h3.19l.56,1.96h.22c.49-.78,1.15-1.35,2-1.71,.85-.35,1.75-.53,2.7-.53Z" fill="#4c4c4d"/>
    <path d="M430.31,89.92c0,2.54-.67,4.5-2,5.88-1.33,1.38-3.15,2.07-5.45,2.07-1.42,0-2.68-.31-3.79-.92-1.11-.62-1.98-1.52-2.62-2.7-.63-1.18-.95-2.63-.95-4.33,0-2.54,.66-4.49,1.99-5.85,1.33-1.36,3.15-2.04,5.46-2.04,1.44,0,2.71,.31,3.81,.92,1.1,.62,1.97,1.51,2.6,2.67,.63,1.17,.95,2.6,.95,4.3Zm-10.56,0c0,1.51,.25,2.66,.74,3.43s1.3,1.16,2.42,1.16,1.9-.39,2.39-1.16c.49-.77,.74-1.92,.74-3.43s-.25-2.65-.74-3.4c-.5-.76-1.3-1.13-2.42-1.13s-1.9,.38-2.39,1.13-.74,1.89-.74,3.4Z" fill="#4c4c4d"/>
    <path d="M440.2,94.54c.47,0,.91-.05,1.34-.14,.43-.09,.86-.21,1.29-.34v3.11c-.45,.19-1,.35-1.67,.49-.66,.14-1.39,.21-2.17,.21-.92,0-1.73-.15-2.45-.45-.72-.3-1.29-.82-1.71-1.55-.42-.74-.63-1.76-.63-3.07v-7.36h-1.99v-1.76l2.3-1.4,1.2-3.22h2.66v3.25h4.28v3.14h-4.28v7.36c0,.58,.17,1.01,.5,1.3,.34,.29,.77,.43,1.32,.43Z" fill="#4c4c4d"/>
    <path d="M448.01,76.32c.62,0,1.15,.14,1.6,.43,.45,.29,.67,.83,.67,1.61s-.22,1.3-.67,1.6c-.45,.3-.98,.45-1.6,.45s-1.17-.15-1.61-.45c-.44-.3-.66-.83-.66-1.6s.22-1.32,.66-1.61c.44-.29,.98-.43,1.61-.43Zm2.07,5.99v15.29h-4.17v-15.29h4.17Z" fill="#4c4c4d"/>
    <path d="M462.9,85.44h-3.61v12.15h-4.17v-12.15h-2.3v-2.02l2.3-1.12v-1.12c0-1.31,.22-2.32,.66-3.04s1.06-1.23,1.88-1.53c.81-.3,1.77-.45,2.87-.45,.82,0,1.56,.07,2.23,.2,.66,.13,1.2,.28,1.61,.45l-1.06,3.05c-.32-.09-.66-.18-1.04-.27-.37-.08-.8-.13-1.29-.13-.58,0-1,.18-1.27,.53s-.41,.8-.41,1.34v.95h3.61v3.14Zm4.48-9.13c.62,0,1.15,.14,1.6,.43,.45,.29,.67,.83,.67,1.61s-.22,1.3-.67,1.6c-.45,.3-.98,.45-1.6,.45s-1.17-.15-1.61-.45c-.44-.3-.66-.83-.66-1.6s.22-1.32,.66-1.61c.44-.29,.98-.43,1.61-.43Zm2.07,5.99v15.29h-4.17v-15.29h4.17Z" fill="#4c4c4d"/>
    <path d="M480.04,97.87c-2.28,0-4.04-.63-5.28-1.89s-1.86-3.24-1.86-5.95c0-1.87,.32-3.39,.95-4.56s1.52-2.04,2.65-2.6c1.13-.56,2.43-.84,3.91-.84,1.05,0,1.96,.1,2.73,.31,.77,.21,1.45,.45,2.03,.73l-1.23,3.22c-.65-.26-1.26-.48-1.83-.64s-1.13-.25-1.69-.25c-2.17,0-3.25,1.54-3.25,4.62,0,1.53,.29,2.66,.85,3.39,.57,.73,1.37,1.09,2.39,1.09,.88,0,1.65-.12,2.32-.35s1.33-.56,1.96-.97v3.56c-.63,.41-1.3,.71-2,.88-.7,.18-1.58,.27-2.65,.27Z" fill="#4c4c4d"/>
    <path d="M494.49,82c2.05,0,3.63,.44,4.72,1.33,1.09,.89,1.64,2.25,1.64,4.07v10.19h-2.91l-.81-2.07h-.11c-.65,.82-1.34,1.42-2.07,1.79-.73,.37-1.73,.56-3,.56-1.36,0-2.49-.4-3.39-1.19-.9-.79-1.34-2.01-1.34-3.65s.57-2.82,1.71-3.6,2.85-1.2,5.12-1.27l2.66-.08v-.67c0-.8-.21-1.39-.63-1.76s-1-.56-1.75-.56-1.47,.11-2.18,.32c-.71,.21-1.42,.48-2.13,.8l-1.37-2.83c.82-.43,1.73-.76,2.73-1.01,1-.24,2.04-.36,3.12-.36Zm.59,8.57c-1.34,.04-2.28,.28-2.8,.73-.52,.45-.78,1.04-.78,1.76,0,.63,.19,1.09,.56,1.36,.37,.27,.86,.41,1.46,.41,.9,0,1.65-.27,2.27-.8s.92-1.28,.92-2.25v-1.26l-1.62,.06Z" fill="#4c4c4d"/>
    <path d="M511.34,97.87c-2.28,0-4.04-.63-5.28-1.89s-1.86-3.24-1.86-5.95c0-1.87,.32-3.39,.95-4.56s1.52-2.04,2.65-2.6c1.13-.56,2.43-.84,3.91-.84,1.05,0,1.96,.1,2.73,.31,.77,.21,1.45,.45,2.03,.73l-1.23,3.22c-.65-.26-1.26-.48-1.83-.64s-1.13-.25-1.69-.25c-2.17,0-3.25,1.54-3.25,4.62,0,1.53,.29,2.66,.85,3.39,.57,.73,1.37,1.09,2.39,1.09,.88,0,1.65-.12,2.32-.35s1.33-.56,1.96-.97v3.56c-.63,.41-1.3,.71-2,.88-.7,.18-1.58,.27-2.65,.27Zm3,3.14c0,1.04-.3,1.86-.91,2.44-.61,.58-1.71,.87-3.32,.87-.41,0-.78-.03-1.11-.08-.33-.06-.62-.12-.88-.2v-2.3c.26,.07,.58,.14,.97,.2,.38,.06,.71,.08,.99,.08,.26,0,.49-.06,.69-.18,.2-.12,.29-.34,.29-.66,0-.34-.17-.63-.5-.9s-.92-.46-1.76-.59l1.06-2.1h2.63l-.36,.84c.56,.19,1.07,.49,1.53,.91,.46,.42,.69,.97,.69,1.67Z" fill="#4c4c4d"/>
    <path d="M525.79,82c2.05,0,3.63,.44,4.72,1.33,1.09,.89,1.64,2.25,1.64,4.07v10.19h-2.91l-.81-2.07h-.11c-.65,.82-1.34,1.42-2.07,1.79-.73,.37-1.73,.56-3,.56-1.36,0-2.49-.4-3.39-1.19-.9-.79-1.34-2.01-1.34-3.65s.57-2.82,1.71-3.6,2.85-1.2,5.12-1.27l2.66-.08v-.67c0-.8-.21-1.39-.63-1.76s-1-.56-1.75-.56-1.47,.11-2.18,.32c-.71,.21-1.42,.48-2.13,.8l-1.37-2.83c.82-.43,1.73-.76,2.73-1.01,1-.24,2.04-.36,3.12-.36Zm-5.66-1.34c.11-1.46,.52-2.52,1.22-3.21,.7-.68,1.54-1.02,2.51-1.02,.5,0,.99,.12,1.47,.36,.48,.24,.94,.48,1.4,.71,.46,.23,.9,.35,1.33,.35,.28,0,.55-.12,.81-.36,.26-.24,.45-.61,.56-1.09h2.04c-.11,1.44-.52,2.5-1.23,3.19-.71,.69-1.54,1.04-2.49,1.04-.49,0-.97-.12-1.44-.35-.48-.23-.94-.47-1.4-.71-.46-.24-.91-.36-1.36-.36-.28,0-.55,.12-.81,.36-.26,.24-.45,.61-.56,1.09h-2.04Zm6.24,9.91c-1.34,.04-2.28,.28-2.8,.73-.52,.45-.78,1.04-.78,1.76,0,.63,.19,1.09,.56,1.36,.37,.27,.86,.41,1.46,.41,.9,0,1.65-.27,2.27-.8s.92-1.28,.92-2.25v-1.26l-1.62,.06Z" fill="#4c4c4d"/>
    <path d="M550.32,89.92c0,2.54-.67,4.5-2,5.88-1.33,1.38-3.15,2.07-5.45,2.07-1.42,0-2.68-.31-3.79-.92-1.11-.62-1.98-1.52-2.62-2.7-.63-1.18-.95-2.63-.95-4.33,0-2.54,.66-4.49,1.99-5.85,1.33-1.36,3.15-2.04,5.46-2.04,1.44,0,2.71,.31,3.81,.92,1.1,.62,1.97,1.51,2.6,2.67,.63,1.17,.95,2.6,.95,4.3Zm-10.56,0c0,1.51,.25,2.66,.74,3.43s1.3,1.16,2.42,1.16,1.9-.39,2.39-1.16c.49-.77,.74-1.92,.74-3.43s-.25-2.65-.74-3.4c-.5-.76-1.3-1.13-2.42-1.13s-1.9,.38-2.39,1.13-.74,1.89-.74,3.4Z" fill="#4c4c4d"/>
    <path d="M569.72,82.03c1.64,0,2.96,.44,3.95,1.33s1.48,2.31,1.48,4.27v9.97h-4.17v-8.93c0-1.1-.2-1.93-.59-2.48-.39-.55-1.02-.83-1.88-.83-1.27,0-2.14,.43-2.6,1.3-.47,.87-.7,2.11-.7,3.74v7.2h-4.17v-15.29h3.19l.56,1.96h.22c.49-.78,1.15-1.35,2-1.71,.85-.35,1.75-.53,2.7-.53Z" fill="#4c4c4d"/>
    <path d="M593.33,89.92c0,2.54-.67,4.5-2,5.88-1.33,1.38-3.15,2.07-5.45,2.07-1.42,0-2.68-.31-3.79-.92-1.11-.62-1.98-1.52-2.62-2.7-.63-1.18-.95-2.63-.95-4.33,0-2.54,.66-4.49,1.99-5.85,1.33-1.36,3.15-2.04,5.46-2.04,1.44,0,2.71,.31,3.81,.92,1.1,.62,1.97,1.51,2.6,2.67,.63,1.17,.95,2.6,.95,4.3Zm-10.56,0c0,1.51,.25,2.66,.74,3.43s1.3,1.16,2.42,1.16,1.9-.39,2.39-1.16c.49-.77,.74-1.92,.74-3.43s-.25-2.65-.74-3.4c-.5-.76-1.3-1.13-2.42-1.13s-1.9,.38-2.39,1.13-.74,1.89-.74,3.4Z" fill="#4c4c4d"/>
    <path d="M616.17,92.05c0,1.77-.64,3.19-1.92,4.24s-3.09,1.58-5.45,1.58c-2.11,0-4-.4-5.66-1.2v-3.95c.95,.41,1.94,.79,2.95,1.13,1.02,.35,2.03,.52,3.04,.52s1.79-.2,2.23-.6,.66-.91,.66-1.53c0-.5-.17-.93-.52-1.29-.35-.35-.81-.69-1.39-.99-.58-.31-1.24-.64-1.99-.99-.47-.22-.97-.49-1.51-.8-.54-.31-1.06-.69-1.55-1.15-.5-.46-.9-1.01-1.22-1.67-.32-.65-.48-1.44-.48-2.35,0-1.79,.61-3.19,1.82-4.19,1.21-1,2.87-1.5,4.96-1.5,1.04,0,2.04,.12,2.98,.36,.94,.24,1.93,.59,2.95,1.04l-1.37,3.3c-.91-.37-1.74-.66-2.46-.87-.73-.21-1.47-.31-2.24-.31-.8,0-1.42,.19-1.85,.56-.43,.37-.64,.86-.64,1.46,0,.71,.32,1.27,.95,1.68,.63,.41,1.58,.91,2.83,1.51,1.03,.49,1.9,.99,2.62,1.51,.72,.52,1.27,1.14,1.67,1.85,.39,.71,.59,1.59,.59,2.63Z" fill="#4c4c4d"/>
    <path d="M621.58,76.32c.62,0,1.15,.14,1.6,.43,.45,.29,.67,.83,.67,1.61s-.22,1.3-.67,1.6c-.45,.3-.98,.45-1.6,.45s-1.17-.15-1.61-.45c-.44-.3-.66-.83-.66-1.6s.22-1.32,.66-1.61c.44-.29,.98-.43,1.61-.43Zm2.07,5.99v15.29h-4.17v-15.29h4.17Z" fill="#4c4c4d"/>
    <path d="M636.7,82.03c1.64,0,2.96,.44,3.95,1.33s1.48,2.31,1.48,4.27v9.97h-4.17v-8.93c0-1.1-.2-1.93-.59-2.48-.39-.55-1.02-.83-1.88-.83-1.27,0-2.14,.43-2.6,1.3-.47,.87-.7,2.11-.7,3.74v7.2h-4.17v-15.29h3.19l.56,1.96h.22c.49-.78,1.15-1.35,2-1.71,.85-.35,1.75-.53,2.7-.53Z" fill="#4c4c4d"/>
    <path d="M652.69,82c2.05,0,3.63,.44,4.72,1.33,1.09,.89,1.64,2.25,1.64,4.07v10.19h-2.91l-.81-2.07h-.11c-.65,.82-1.34,1.42-2.07,1.79-.73,.37-1.73,.56-3,.56-1.36,0-2.49-.4-3.39-1.19-.9-.79-1.34-2.01-1.34-3.65s.57-2.82,1.71-3.6,2.85-1.2,5.12-1.27l2.66-.08v-.67c0-.8-.21-1.39-.63-1.76s-1-.56-1.75-.56-1.47,.11-2.18,.32c-.71,.21-1.42,.48-2.13,.8l-1.37-2.83c.82-.43,1.73-.76,2.73-1.01,1-.24,2.04-.36,3.12-.36Zm.59,8.57c-1.34,.04-2.28,.28-2.8,.73-.52,.45-.78,1.04-.78,1.76,0,.63,.19,1.09,.56,1.36,.37,.27,.86,.41,1.46,.41,.9,0,1.65-.27,2.27-.8s.92-1.28,.92-2.25v-1.26l-1.62,.06Z" fill="#4c4c4d"/>
    <path d="M672.01,82.03c1.64,0,2.96,.44,3.95,1.33s1.48,2.31,1.48,4.27v9.97h-4.17v-8.93c0-1.1-.2-1.93-.59-2.48-.39-.55-1.02-.83-1.88-.83-1.27,0-2.14,.43-2.6,1.3-.47,.87-.7,2.11-.7,3.74v7.2h-4.17v-15.29h3.19l.56,1.96h.22c.49-.78,1.15-1.35,2-1.71,.85-.35,1.75-.53,2.7-.53Z" fill="#4c4c4d"/>
    <path d="M685.81,94.66c-.24,.99-.59,2.07-1.04,3.25-.45,1.18-.91,2.28-1.37,3.3h-3c.26-1.1,.52-2.28,.78-3.53,.26-1.25,.46-2.36,.59-3.33h3.84l.2,.31Z" fill="#4c4c4d"/>
    <path d="M703.53,77.6c2.67,0,4.68,.37,6.05,1.12,1.36,.75,2.04,2.06,2.04,3.95,0,1.14-.27,2.1-.8,2.88-.53,.78-1.29,1.26-2.28,1.43v.14c.67,.13,1.28,.36,1.82,.7,.54,.34,.97,.82,1.29,1.46,.32,.63,.48,1.47,.48,2.52,0,1.81-.65,3.23-1.96,4.26s-3.1,1.54-5.38,1.54h-7.48v-19.99h6.22Zm.48,7.92c1.23,0,2.09-.2,2.56-.59,.48-.39,.71-.96,.71-1.71s-.28-1.32-.84-1.65c-.56-.34-1.45-.5-2.66-.5h-2.24v4.45h2.46Zm-2.46,3.36v5.21h2.77c1.27,0,2.16-.25,2.66-.74,.5-.49,.76-1.15,.76-1.97,0-.75-.26-1.35-.77-1.81-.51-.46-1.44-.69-2.79-.69h-2.63Z" fill="#4c4c4d"/>
    <path d="M724.34,82.03c.21,0,.45,0,.73,.03s.5,.05,.67,.08l-.31,3.92c-.13-.04-.32-.07-.57-.1-.25-.03-.47-.04-.66-.04-.71,0-1.39,.13-2.04,.38s-1.18,.66-1.58,1.22c-.4,.56-.6,1.33-.6,2.3v7.78h-4.17v-15.29h3.16l.62,2.58h.2c.45-.78,1.06-1.46,1.85-2.02,.78-.56,1.69-.84,2.72-.84Z" fill="#4c4c4d"/>
    <path d="M734.22,82c2.05,0,3.63,.44,4.72,1.33,1.09,.89,1.64,2.25,1.64,4.07v10.19h-2.91l-.81-2.07h-.11c-.65,.82-1.34,1.42-2.07,1.79-.73,.37-1.73,.56-3,.56-1.36,0-2.49-.4-3.39-1.19-.9-.79-1.34-2.01-1.34-3.65s.57-2.82,1.71-3.6,2.85-1.2,5.12-1.27l2.66-.08v-.67c0-.8-.21-1.39-.63-1.76s-1-.56-1.75-.56-1.47,.11-2.18,.32c-.71,.21-1.42,.48-2.13,.8l-1.37-2.83c.82-.43,1.73-.76,2.73-1.01,1-.24,2.04-.36,3.12-.36Zm.59,8.57c-1.34,.04-2.28,.28-2.8,.73-.52,.45-.78,1.04-.78,1.76,0,.63,.19,1.09,.56,1.36,.37,.27,.86,.41,1.46,.41,.9,0,1.65-.27,2.27-.8s.92-1.28,.92-2.25v-1.26l-1.62,.06Z" fill="#4c4c4d"/>
    <path d="M755.53,93.06c0,1.55-.55,2.74-1.64,3.57-1.09,.83-2.72,1.25-4.89,1.25-1.06,0-1.98-.07-2.74-.21-.77-.14-1.53-.37-2.3-.69v-3.44c.82,.37,1.71,.68,2.66,.92,.95,.24,1.79,.36,2.52,.36,.82,0,1.4-.12,1.75-.36,.35-.24,.52-.56,.52-.95,0-.26-.07-.5-.21-.7-.14-.21-.44-.44-.91-.7-.47-.26-1.2-.6-2.18-1.01-.95-.41-1.74-.82-2.35-1.22s-1.07-.89-1.37-1.46-.45-1.28-.45-2.14c0-1.42,.55-2.48,1.65-3.19,1.1-.71,2.57-1.06,4.4-1.06,.95,0,1.86,.09,2.72,.28,.86,.19,1.75,.5,2.66,.92l-1.26,3c-.75-.32-1.46-.58-2.13-.8s-1.35-.32-2.04-.32c-1.23,0-1.85,.34-1.85,1.01,0,.24,.08,.46,.24,.66,.16,.2,.47,.41,.92,.63,.46,.22,1.13,.52,2.03,.9,.88,.35,1.63,.72,2.27,1.11,.63,.38,1.12,.86,1.47,1.43,.34,.57,.52,1.31,.52,2.23Z" fill="#4c4c4d"/>
    <path d="M760.88,76.32c.62,0,1.15,.14,1.6,.43,.45,.29,.67,.83,.67,1.61s-.22,1.3-.67,1.6c-.45,.3-.98,.45-1.6,.45s-1.17-.15-1.61-.45c-.44-.3-.66-.83-.66-1.6s.22-1.32,.66-1.61c.44-.29,.98-.43,1.61-.43Zm2.07,5.99v15.29h-4.17v-15.29h4.17Z" fill="#4c4c4d"/>
    <path d="M771.49,97.6h-4.17v-21.28h4.17v21.28Z" fill="#4c4c4d"/>
    <path d="M779.95,94.66c-.24,.99-.59,2.07-1.04,3.25-.45,1.18-.91,2.28-1.37,3.3h-3c.26-1.1,.52-2.28,.78-3.53,.26-1.25,.46-2.36,.59-3.33h3.84l.2,.31Z" fill="#4c4c4d"/>
    <path d="M804.03,97.6h-13.97v-2.94l5.01-5.07c1.01-1.05,1.82-1.92,2.44-2.62,.62-.7,1.06-1.33,1.34-1.9s.42-1.18,.42-1.83c0-.8-.22-1.4-.66-1.79s-1.03-.59-1.78-.59-1.51,.18-2.24,.53c-.73,.35-1.49,.86-2.3,1.51l-2.3-2.72c.58-.5,1.19-.97,1.83-1.4,.64-.43,1.39-.78,2.24-1.05s1.87-.41,3.07-.41c1.31,0,2.43,.24,3.37,.71,.94,.48,1.67,1.12,2.18,1.93,.51,.81,.77,1.73,.77,2.76,0,1.1-.22,2.11-.66,3.02-.44,.92-1.07,1.82-1.9,2.72-.83,.9-1.83,1.89-3.01,2.97l-2.58,2.41v.2h8.71v3.56Z" fill="#4c4c4d"/>
    <path d="M819.93,87.6c0,2.15-.23,3.99-.69,5.52-.46,1.53-1.19,2.71-2.21,3.53s-2.38,1.23-4.1,1.23c-2.41,0-4.17-.91-5.29-2.73-1.12-1.82-1.68-4.33-1.68-7.55,0-2.17,.22-4.01,.67-5.54,.45-1.53,1.19-2.71,2.21-3.53s2.39-1.23,4.09-1.23c2.39,0,4.15,.91,5.29,2.72,1.14,1.81,1.71,4.34,1.71,7.59Zm-9.77,0c0,2.28,.2,3.99,.59,5.14,.39,1.15,1.12,1.72,2.18,1.72s1.77-.57,2.18-1.71c.41-1.14,.62-2.86,.62-5.15s-.21-3.99-.62-5.15c-.41-1.16-1.14-1.74-2.18-1.74s-1.79,.58-2.18,1.74c-.39,1.16-.59,2.88-.59,5.15Z" fill="#4c4c4d"/>
    <path d="M832.53,97.6h-4.23v-11.56c0-.49,.01-1.12,.04-1.9,.03-.78,.05-1.47,.07-2.07-.09,.11-.29,.31-.6,.6-.31,.29-.59,.55-.85,.77l-2.3,1.85-2.04-2.55,6.44-5.12h3.47v19.99Z" fill="#4c4c4d"/>
    <path d="M852.52,93.45h-2.41v4.14h-4.12v-4.14h-8.54v-2.94l8.76-12.91h3.89v12.57h2.41v3.28Zm-6.52-6.66c0-.43,0-.95,.03-1.57s.04-1.19,.07-1.72c.03-.53,.05-.88,.07-1.05h-.11c-.17,.37-.35,.74-.53,1.09-.19,.36-.41,.72-.67,1.09l-3.67,5.54h4.82v-3.39Z" fill="#4c4c4d"/>
    <path d="M853.84,91.8v-3.42h7.34v3.42h-7.34Z" fill="#4c4c4d"/>
    <path d="M877.1,97.6h-13.97v-2.94l5.01-5.07c1.01-1.05,1.82-1.92,2.44-2.62,.62-.7,1.06-1.33,1.34-1.9s.42-1.18,.42-1.83c0-.8-.22-1.4-.66-1.79s-1.03-.59-1.78-.59-1.51,.18-2.24,.53c-.73,.35-1.49,.86-2.3,1.51l-2.3-2.72c.58-.5,1.19-.97,1.83-1.4,.64-.43,1.39-.78,2.24-1.05s1.87-.41,3.07-.41c1.31,0,2.43,.24,3.37,.71,.94,.48,1.67,1.12,2.18,1.93,.51,.81,.77,1.73,.77,2.76,0,1.1-.22,2.11-.66,3.02-.44,.92-1.07,1.82-1.9,2.72-.83,.9-1.83,1.89-3.01,2.97l-2.58,2.41v.2h8.71v3.56Z" fill="#4c4c4d"/>
    <path d="M893.01,87.6c0,2.15-.23,3.99-.69,5.52-.46,1.53-1.19,2.71-2.21,3.53s-2.38,1.23-4.1,1.23c-2.41,0-4.17-.91-5.29-2.73-1.12-1.82-1.68-4.33-1.68-7.55,0-2.17,.22-4.01,.67-5.54,.45-1.53,1.19-2.71,2.21-3.53s2.39-1.23,4.09-1.23c2.39,0,4.15,.91,5.29,2.72,1.14,1.81,1.71,4.34,1.71,7.59Zm-9.77,0c0,2.28,.2,3.99,.59,5.14,.39,1.15,1.12,1.72,2.18,1.72s1.77-.57,2.18-1.71c.41-1.14,.62-2.86,.62-5.15s-.21-3.99-.62-5.15c-.41-1.16-1.14-1.74-2.18-1.74s-1.79,.58-2.18,1.74c-.39,1.16-.59,2.88-.59,5.15Z" fill="#4c4c4d"/>
    <path d="M905.61,97.6h-4.23v-11.56c0-.49,.01-1.12,.04-1.9,.03-.78,.05-1.47,.07-2.07-.09,.11-.29,.31-.6,.6-.31,.29-.59,.55-.85,.77l-2.3,1.85-2.04-2.55,6.44-5.12h3.47v19.99Z" fill="#4c4c4d"/>
    <path d="M918.07,77.35c1.16,0,2.22,.18,3.18,.53,.96,.35,1.74,.89,2.32,1.6,.59,.71,.88,1.61,.88,2.69,0,1.2-.34,2.18-1.02,2.95-.68,.78-1.54,1.41-2.56,1.92,.71,.37,1.39,.81,2.03,1.3,.64,.49,1.17,1.07,1.57,1.74,.4,.66,.6,1.44,.6,2.34,0,1.1-.29,2.06-.88,2.88s-1.41,1.46-2.46,1.9c-1.05,.45-2.27,.67-3.65,.67-2.24,0-3.97-.48-5.19-1.43-1.22-.95-1.83-2.26-1.83-3.92,0-1.38,.37-2.49,1.12-3.33,.75-.84,1.65-1.52,2.72-2.04-.9-.56-1.66-1.24-2.28-2.03-.63-.79-.94-1.79-.94-2.98,0-1.06,.3-1.95,.9-2.66,.6-.71,1.39-1.24,2.37-1.6,.98-.35,2.03-.53,3.15-.53Zm-3.11,14.92c0,.73,.26,1.33,.77,1.79,.51,.47,1.27,.7,2.28,.7s1.83-.22,2.35-.67,.78-1.05,.78-1.79c0-.5-.15-.95-.45-1.33s-.67-.73-1.11-1.04c-.44-.31-.89-.59-1.36-.85l-.36-.2c-.86,.41-1.56,.89-2.1,1.43s-.81,1.2-.81,1.96Zm3.08-11.84c-.69,0-1.27,.18-1.72,.53s-.69,.86-.69,1.51c0,.69,.24,1.25,.73,1.68,.49,.43,1.05,.8,1.71,1.12,.63-.3,1.19-.66,1.68-1.08,.48-.42,.73-.99,.73-1.72,0-.65-.23-1.16-.69-1.51-.46-.35-1.04-.53-1.75-.53Z" fill="#4c4c4d"/>
  </g>
  <g>
    <path d="M106.57,536.68c0,1.37-.38,2.49-1.15,3.35-.77,.87-1.85,1.45-3.26,1.74v.12c1.72,.21,2.99,.76,3.82,1.64s1.24,2.03,1.24,3.46c0,2.04-.71,3.61-2.12,4.71s-3.43,1.65-6.04,1.65c-1.13,0-2.17-.09-3.11-.26-.94-.17-1.86-.47-2.75-.9v-2.31c.93,.46,1.92,.81,2.97,1.05,1.05,.24,2.04,.36,2.98,.36,3.7,0,5.55-1.45,5.55-4.35,0-2.6-2.04-3.9-6.12-3.9h-2.11v-2.09h2.14c1.67,0,2.99-.37,3.97-1.11s1.46-1.76,1.46-3.07c0-1.04-.36-1.87-1.08-2.46-.72-.6-1.69-.89-2.92-.89-.94,0-1.82,.13-2.65,.38s-1.78,.72-2.84,1.41l-1.23-1.64c.88-.69,1.89-1.24,3.04-1.63,1.15-.4,2.36-.59,3.62-.59,2.08,0,3.7,.48,4.85,1.43s1.73,2.26,1.73,3.92Z" fill="#4c4c4d"/>
    <path d="M119.46,553.05h-2.37v-15.26c0-1.27,.04-2.47,.12-3.6-.21,.21-.44,.42-.69,.64s-1.42,1.18-3.49,2.86l-1.29-1.67,5.67-4.38h2.05v21.42Z" fill="#4c4c4d"/>
    <path d="M136.39,538.02c0,2.23-.37,3.91-1.12,5.05-.75,1.14-1.84,1.71-3.29,1.71-1.37,0-2.43-.58-3.19-1.74-.76-1.16-1.13-2.83-1.13-5.01s.36-3.89,1.09-5.01c.73-1.12,1.8-1.68,3.23-1.68s2.51,.58,3.27,1.74,1.14,2.81,1.14,4.95Zm-6.71,0c0,1.66,.18,2.91,.54,3.74s.95,1.25,1.76,1.25c1.6,0,2.4-1.66,2.4-4.98s-.8-4.95-2.4-4.95c-.81,0-1.4,.41-1.76,1.23s-.54,2.06-.54,3.72Zm15.83-6.39l-11.88,21.42h-2.15l11.88-21.42h2.15Zm3.78,14.97c0,2.22-.37,3.89-1.12,5.03-.75,1.14-1.84,1.71-3.29,1.71s-2.45-.58-3.2-1.74c-.75-1.16-1.12-2.83-1.12-5s.36-3.89,1.09-5.01c.73-1.12,1.8-1.68,3.23-1.68s2.47,.57,3.24,1.72c.78,1.15,1.16,2.81,1.16,4.97Zm-6.72,0c0,1.67,.18,2.92,.54,3.74s.95,1.24,1.77,1.24,1.43-.41,1.82-1.22,.59-2.07,.59-3.76-.2-2.91-.59-3.71-1-1.21-1.82-1.21-1.41,.4-1.77,1.21-.54,2.04-.54,3.71Z" fill="#4c4c4d"/>
  </g>
  <g>
    <path d="M335.59,177.85h-14.08v-2.09l5.64-5.67c1.72-1.74,2.85-2.98,3.4-3.72s.96-1.46,1.23-2.17,.41-1.46,.41-2.27c0-1.14-.35-2.05-1.04-2.72s-1.66-1-2.89-1c-.89,0-1.73,.15-2.53,.44-.8,.29-1.68,.83-2.66,1.6l-1.29-1.66c1.97-1.64,4.12-2.46,6.45-2.46,2.01,0,3.59,.51,4.73,1.54s1.71,2.42,1.71,4.15c0,1.36-.38,2.7-1.14,4.03s-2.19,3.01-4.28,5.04l-4.69,4.58v.12h11.02v2.26Z" fill="#4c4c4d"/>
    <path d="M347.45,162.82c0,2.23-.37,3.91-1.12,5.05-.75,1.14-1.84,1.71-3.29,1.71-1.37,0-2.43-.58-3.19-1.74-.76-1.16-1.13-2.83-1.13-5.01s.36-3.89,1.09-5.01c.73-1.12,1.8-1.68,3.23-1.68s2.5,.58,3.27,1.74,1.14,2.81,1.14,4.95Zm-6.71,0c0,1.66,.18,2.91,.54,3.74s.95,1.25,1.76,1.25c1.6,0,2.4-1.66,2.4-4.98s-.8-4.95-2.4-4.95c-.81,0-1.4,.41-1.76,1.23s-.54,2.06-.54,3.72Zm15.84-6.39l-11.88,21.42h-2.15l11.88-21.42h2.15Zm3.78,14.97c0,2.22-.38,3.89-1.12,5.03-.75,1.14-1.84,1.71-3.29,1.71s-2.45-.58-3.2-1.74c-.75-1.16-1.12-2.83-1.12-5s.36-3.89,1.09-5.01c.73-1.12,1.8-1.68,3.23-1.68s2.47,.57,3.24,1.72c.78,1.15,1.17,2.81,1.17,4.97Zm-6.72,0c0,1.67,.18,2.92,.54,3.74s.95,1.24,1.77,1.24,1.43-.41,1.82-1.22,.59-2.07,.59-3.76-.2-2.91-.59-3.71-1-1.21-1.82-1.21-1.41,.4-1.77,1.21-.54,2.04-.54,3.71Z" fill="#4c4c4d"/>
  </g>
  <polyline points="409.25 255.67 380.68 186.9 307.04 186.9" fill="none" stroke="#4c4c4d" stroke-miterlimit="10" stroke-width="3"/>
  <g>
    <path d="M103.62,180.45c0,1.37-.38,2.49-1.15,3.35s-1.85,1.45-3.26,1.74v.12c1.72,.21,2.99,.76,3.82,1.64s1.25,2.03,1.25,3.46c0,2.04-.71,3.61-2.12,4.71s-3.43,1.65-6.04,1.65c-1.13,0-2.17-.08-3.11-.26s-1.86-.47-2.75-.9v-2.31c.93,.46,1.92,.81,2.97,1.05,1.05,.24,2.04,.36,2.98,.36,3.7,0,5.55-1.45,5.55-4.35,0-2.6-2.04-3.9-6.12-3.9h-2.11v-2.09h2.14c1.67,0,2.99-.37,3.97-1.11s1.46-1.76,1.46-3.07c0-1.04-.36-1.87-1.08-2.46-.72-.6-1.69-.89-2.92-.89-.94,0-1.82,.13-2.65,.38s-1.78,.72-2.84,1.41l-1.23-1.64c.88-.69,1.89-1.24,3.04-1.63s2.36-.59,3.63-.59c2.08,0,3.7,.48,4.85,1.43s1.73,2.26,1.73,3.92Z" fill="#4c4c4d"/>
    <path d="M116.29,181.79c0,2.23-.37,3.91-1.12,5.05-.75,1.14-1.84,1.71-3.29,1.71-1.37,0-2.43-.58-3.19-1.74s-1.13-2.83-1.13-5.01,.36-3.89,1.09-5.01c.73-1.12,1.8-1.68,3.23-1.68s2.5,.58,3.27,1.74,1.14,2.81,1.14,4.95Zm-6.71,0c0,1.66,.18,2.91,.54,3.74s.95,1.25,1.76,1.25c1.6,0,2.4-1.66,2.4-4.98s-.8-4.95-2.4-4.95c-.81,0-1.4,.41-1.76,1.23s-.54,2.06-.54,3.72Zm15.83-6.39l-11.88,21.42h-2.15l11.88-21.42h2.15Zm3.78,14.97c0,2.22-.37,3.89-1.12,5.03-.75,1.14-1.84,1.71-3.29,1.71s-2.45-.58-3.2-1.74c-.75-1.16-1.12-2.83-1.12-5s.36-3.89,1.09-5.01,1.8-1.68,3.23-1.68,2.47,.57,3.24,1.72c.78,1.15,1.17,2.8,1.17,4.97Zm-6.72,0c0,1.67,.18,2.92,.54,3.74s.95,1.24,1.77,1.24,1.43-.41,1.82-1.22,.59-2.07,.59-3.76-.2-2.91-.59-3.71-1-1.21-1.82-1.21-1.41,.4-1.77,1.21-.54,2.04-.54,3.71Z" fill="#4c4c4d"/>
  </g>
  <g>
    <path d="M655.46,190.82h-2.37v-15.26c0-1.27,.04-2.47,.12-3.6-.21,.21-.43,.42-.69,.64s-1.42,1.18-3.49,2.86l-1.29-1.67,5.67-4.38h2.05v21.42Z" fill="#4c4c4d"/>
    <path d="M672.4,175.79c0,2.23-.37,3.91-1.12,5.05-.75,1.14-1.84,1.71-3.29,1.71-1.37,0-2.43-.58-3.19-1.74s-1.13-2.83-1.13-5.01,.36-3.89,1.09-5.01c.73-1.12,1.8-1.68,3.23-1.68s2.5,.58,3.27,1.74,1.14,2.81,1.14,4.95Zm-6.71,0c0,1.66,.18,2.91,.54,3.74s.95,1.25,1.76,1.25c1.6,0,2.4-1.66,2.4-4.98s-.8-4.95-2.4-4.95c-.81,0-1.4,.41-1.76,1.23s-.54,2.06-.54,3.72Zm15.83-6.39l-11.88,21.42h-2.15l11.88-21.42h2.15Zm3.78,14.97c0,2.22-.37,3.89-1.12,5.03-.75,1.14-1.84,1.71-3.29,1.71s-2.45-.58-3.2-1.74c-.75-1.16-1.12-2.83-1.12-5s.36-3.89,1.09-5.01,1.8-1.68,3.23-1.68,2.47,.57,3.24,1.72c.78,1.15,1.17,2.81,1.17,4.97Zm-6.72,0c0,1.67,.18,2.92,.54,3.74s.95,1.24,1.77,1.24,1.43-.41,1.82-1.22,.59-2.07,.59-3.76-.2-2.91-.59-3.71-1-1.21-1.82-1.21-1.41,.4-1.77,1.21-.54,2.04-.54,3.71Z" fill="#4c4c4d"/>
  </g>
  <polyline points="492.33 434.84 609.2 573.83 707.74 573.83" fill="none" stroke="#4c4c4d" stroke-miterlimit="10" stroke-width="3"/>
  <polyline points="312.03 278.34 122.93 323 43.88 323" fill="none" stroke="#4c4c4d" stroke-miterlimit="10" stroke-width="3"/>
  <polyline points="428.01 241.01 622.99 199.51 700.39 199.51" fill="none" stroke="#4c4c4d" stroke-miterlimit="10" stroke-width="3"/>
  <polyline points="373.42 246.4 155.63 206.07 77.81 206.07" fill="none" stroke="#4c4c4d" stroke-miterlimit="10" stroke-width="3"/>
  <polyline points="248.5 411.52 177.83 561.17 77.81 561.65" fill="none" stroke="#4c4c4d" stroke-miterlimit="10" stroke-width="3"/>
</svg>