<?xml version="1.0" encoding="utf-8"?>
<!-- Generator: Adobe Illustrator 26.3.1, SVG Export Plug-In . SVG Version: 6.00 Build 0)  -->
<svg version="1.1" id="Camada_1" xmlns="http://www.w3.org/2000/svg" xmlns:xlink="http://www.w3.org/1999/xlink" x="0px" y="0px"
	 viewBox="0 0 16 16" style="enable-background:new 0 0 16 16;" xml:space="preserve">
<style type="text/css">
	.st0{fill:#BE7D7B;}
</style>
<g>
	<path class="st0" d="M12.19,11.81c0.01-0.01,1.06-0.57,0.75-2.03c-0.01-0.05-0.04-0.09-0.08-0.12c-0.04-0.03-0.1-0.04-0.15-0.03
		c-0.05,0.01-0.09,0.04-0.12,0.08c-0.03,0.04-0.04,0.1-0.03,0.15c0.25,1.17-0.51,1.59-0.55,1.61l-2.14,1.21
		c-0.89,0.5-1.86-0.1-1.87-0.11c-0.04-0.02-3.6-2.17-4.32-3.01C3.28,9.11,3.36,8.27,3.49,7.65C3.62,7.8,3.77,7.93,3.95,8.03
		c1.14,0.71,3.8,2.43,3.82,2.44v0c0.4,0.26,0.86,0.4,1.34,0.41c0.34,0,0.68-0.08,0.99-0.24c0.78-0.41,1.53-0.87,2.25-1.37
		c0.07-0.04,0.41-0.26,0.41-0.65c0-0.39-0.34-0.78-1.04-1.17c0.23-0.34,0.27-0.78,0.1-1.16c-0.17-0.38-0.53-0.64-0.94-0.69
		c-0.06-0.37-0.27-0.7-0.57-0.92C10,4.45,9.62,4.37,9.25,4.43C8.89,4.5,8.56,4.71,8.35,5.02C8.13,5.33,8.05,5.71,8.12,6.07
		c0.07,0.37,0.29,0.69,0.6,0.9c0.31,0.21,0.69,0.28,1.06,0.21c0.04-0.01,0.08-0.02,0.11-0.03c0.01,0,0.02-0.01,0.04-0.01
		C9.96,7.13,9.98,7.12,10,7.11c0.01-0.01,0.03-0.01,0.04-0.02c0.02-0.01,0.04-0.02,0.06-0.03c0.01-0.01,0.03-0.01,0.04-0.02
		c0.02-0.01,0.04-0.02,0.06-0.03C10.22,7,10.24,7,10.25,6.99c0.02-0.01,0.04-0.02,0.05-0.04c0.01-0.01,0.03-0.02,0.04-0.03
		c0.02-0.01,0.03-0.03,0.05-0.04c0.01-0.01,0.02-0.02,0.04-0.03c0.02-0.01,0.03-0.03,0.05-0.05c0.01-0.01,0.02-0.02,0.03-0.03
		c0.02-0.02,0.03-0.03,0.04-0.05c0.01-0.01,0.02-0.02,0.03-0.04c0.01-0.02,0.03-0.04,0.04-0.06c0.01-0.01,0.02-0.02,0.02-0.03
		c0.02-0.02,0.03-0.05,0.05-0.07c0-0.01,0.01-0.02,0.01-0.02c0.02-0.03,0.04-0.07,0.05-0.1c0-0.01,0.01-0.02,0.01-0.03
		c0.01-0.03,0.02-0.05,0.03-0.08c0-0.01,0.01-0.03,0.01-0.04c0.01-0.02,0.02-0.05,0.02-0.07c0-0.01,0.01-0.03,0.01-0.05
		c0.01-0.02,0.01-0.04,0.01-0.07c0-0.02,0.01-0.03,0.01-0.05c0-0.01,0.01-0.03,0.01-0.04l0,0c0.18,0.04,0.35,0.14,0.46,0.28
		c0.12,0.14,0.18,0.33,0.18,0.51c0,0.18-0.06,0.35-0.16,0.49c-0.11-0.06-0.23-0.11-0.34-0.16c-0.05-0.02-0.1-0.02-0.15-0.01
		c-0.05,0.02-0.09,0.06-0.11,0.1c-0.02,0.05-0.02,0.1,0,0.15c0.02,0.05,0.06,0.09,0.11,0.11c0.15,0.07,0.3,0.14,0.45,0.22
		c0.93,0.48,1.04,0.82,1.04,0.94c0,0.19-0.22,0.31-0.22,0.32c-0.01,0-0.01,0.01-0.02,0.01c-0.71,0.49-1.45,0.94-2.21,1.35
		c-0.98,0.51-1.88-0.11-1.93-0.14C7.96,10.13,5.3,8.42,4.15,7.7c-0.25-0.16-0.54-0.4-0.5-0.67C3.68,6.96,3.7,6.91,3.7,6.89
		C3.75,6.8,3.81,6.73,3.89,6.66l1.4-0.83c0.14-0.09,0.27-0.16,0.4-0.23C6.8,5.05,7.41,5.33,7.41,5.33c0.05,0.02,0.1,0.03,0.15,0.01
		c0.05-0.02,0.09-0.05,0.12-0.1C7.7,5.2,7.7,5.15,7.69,5.1c-0.02-0.05-0.05-0.09-0.1-0.11C7.56,4.97,6.9,4.65,5.74,5.16h0
		C5.63,4.8,5.36,4.52,5.02,4.39c-0.35-0.13-0.73-0.1-1.05,0.08c-0.32,0.18-0.54,0.5-0.6,0.87C3.31,5.7,3.42,6.07,3.66,6.35
		c-0.13,0.1-0.24,0.23-0.31,0.37c0,0.01,0,0.01-0.01,0.02v0l0,0C3.32,6.8,3.3,6.86,3.28,6.92C3.11,7.46,2.7,9.02,3.38,9.81
		c0.76,0.89,4.27,3,4.41,3.09h0c0.39,0.24,0.84,0.36,1.3,0.37c0.34,0,0.67-0.09,0.97-0.25L12.19,11.81z M8.48,5.81
		c0-0.36,0.19-0.7,0.5-0.88c0.31-0.18,0.7-0.19,1.01-0.01c0.32,0.18,0.51,0.51,0.52,0.87v0.02c0,0.06-0.01,0.12-0.02,0.18
		c-0.06,0.34-0.28,0.62-0.6,0.75c-0.31,0.13-0.67,0.1-0.96-0.08C8.66,6.47,8.48,6.15,8.48,5.81L8.48,5.81z M4.58,4.69
		c0.19,0,0.37,0.06,0.52,0.18c0.15,0.11,0.25,0.28,0.3,0.46C5.37,5.34,5.35,5.35,5.33,5.36C5.32,5.37,5.3,5.38,5.28,5.39
		C5.22,5.42,5.15,5.46,5.09,5.5L4,6.15C3.84,5.99,3.74,5.78,3.74,5.55C3.73,5.33,3.82,5.11,3.98,4.95C4.13,4.78,4.35,4.69,4.58,4.69
		L4.58,4.69z"/>
	<path class="st0" d="M6.54,2.93c0,0.27,0.11,0.54,0.3,0.73s0.46,0.3,0.73,0.3c0.27,0,0.54-0.11,0.73-0.3
		c0.19-0.19,0.3-0.46,0.3-0.73c0-0.27-0.11-0.54-0.3-0.73C8.11,2.01,7.85,1.9,7.58,1.9c-0.27,0-0.54,0.11-0.73,0.3
		C6.65,2.39,6.54,2.66,6.54,2.93z M8.22,2.93c0,0.17-0.07,0.34-0.19,0.46C7.91,3.51,7.75,3.58,7.58,3.58
		c-0.17,0-0.34-0.07-0.46-0.19S6.93,3.1,6.93,2.93C6.93,2.76,7,2.6,7.12,2.47S7.4,2.29,7.58,2.29c0.17,0,0.34,0.07,0.46,0.19
		C8.15,2.6,8.22,2.76,8.22,2.93L8.22,2.93z"/>
	<path class="st0" d="M9.66,2.93c0,0.12,0.07,0.23,0.19,0.28c0.11,0.05,0.24,0.02,0.33-0.07c0.09-0.09,0.11-0.22,0.07-0.33
		c-0.05-0.11-0.16-0.19-0.28-0.19c-0.08,0-0.16,0.03-0.21,0.09C9.69,2.78,9.66,2.85,9.66,2.93L9.66,2.93z"/>
	<path class="st0" d="M6.73,6.94c0,0.12,0.07,0.23,0.19,0.28c0.11,0.05,0.24,0.02,0.33-0.07c0.09-0.09,0.11-0.22,0.07-0.33
		C7.27,6.71,7.16,6.64,7.04,6.64c-0.08,0-0.16,0.03-0.21,0.09C6.77,6.78,6.73,6.86,6.73,6.94L6.73,6.94z"/>
</g>
<path class="st0" d="M8,15.88c-4.34,0-7.88-3.53-7.88-7.88c0-4.34,3.53-7.88,7.88-7.88c4.34,0,7.88,3.53,7.88,7.88
	C15.88,12.34,12.34,15.88,8,15.88z M8,0.88c-3.93,0-7.12,3.2-7.12,7.12s3.2,7.12,7.12,7.12s7.12-3.2,7.12-7.12S11.93,0.88,8,0.88z"
	/>
<rect x="0.57" y="7.63" transform="matrix(0.7395 -0.6731 0.6731 0.7395 -3.3012 7.4688)" class="st0" width="14.87" height="0.75"/>
</svg>
