<?xml version="1.0" encoding="utf-8"?>
<!-- Generator: Adobe Illustrator 26.3.1, SVG Export Plug-In . SVG Version: 6.00 Build 0)  -->
<svg version="1.1" id="Camada_1" xmlns="http://www.w3.org/2000/svg" xmlns:xlink="http://www.w3.org/1999/xlink" x="0px" y="0px"
	 viewBox="0 0 16 16" style="enable-background:new 0 0 16 16;" xml:space="preserve">
<style type="text/css">
	.st0{fill:#BE7D7B;}
</style>
<path class="st0" d="M15.32,7.55c-0.06-0.12-0.16-0.21-0.29-0.24c-0.13-0.04-0.26-0.02-0.37,0.05c-0.35,0.21-0.78,0.24-1.16,0.09
	c-0.38-0.15-0.67-0.47-0.78-0.86c-0.12-0.39-0.04-0.81,0.19-1.15c0.08-0.11,0.1-0.24,0.08-0.37c-0.03-0.13-0.1-0.24-0.22-0.31
	c-1.05-0.64-2.26-0.98-3.49-0.97H6.72c-1.78,0-3.49,0.71-4.75,1.97S0,8.72,0,10.5c0,0.46,0.18,0.89,0.5,1.21s0.76,0.5,1.21,0.5
	h12.56c0.46,0,0.89-0.18,1.21-0.5C15.82,11.39,16,10.96,16,10.5C16,9.48,15.77,8.46,15.32,7.55L15.32,7.55z M14.28,11.28H1.72
	c-0.21,0-0.41-0.08-0.55-0.23C1.02,10.9,0.94,10.7,0.94,10.5c0-2.82,2.04-5.18,4.72-5.68v1.33c0,0.17,0.09,0.32,0.23,0.41
	c0.14,0.08,0.32,0.08,0.47,0C6.5,6.48,6.59,6.32,6.59,6.15V4.72c0.04,0,0.08,0,0.12,0h0.81v2.03c0,0.17,0.09,0.32,0.23,0.41
	c0.14,0.08,0.32,0.08,0.47,0c0.14-0.08,0.23-0.24,0.23-0.41V4.72h0.81c0.04,0,0.08,0,0.12,0v1.43c0,0.17,0.09,0.32,0.23,0.41
	c0.14,0.08,0.32,0.08,0.47,0c0.14-0.08,0.23-0.24,0.23-0.41V4.82c0.54,0.1,1.06,0.28,1.55,0.52c-0.22,0.53-0.23,1.13-0.02,1.67
	c0.2,0.54,0.61,0.98,1.13,1.23c0.52,0.25,1.11,0.3,1.66,0.13c0.27,0.68,0.41,1.4,0.41,2.13c0,0.21-0.08,0.41-0.23,0.55
	C14.69,11.2,14.49,11.28,14.28,11.28L14.28,11.28z"/>
</svg>
