<?xml version="1.0" encoding="utf-8"?>
<!-- Generator: Adobe Illustrator 26.3.1, SVG Export Plug-In . SVG Version: 6.00 Build 0)  -->
<svg version="1.1" id="Camada_1" xmlns="http://www.w3.org/2000/svg" xmlns:xlink="http://www.w3.org/1999/xlink" x="0px" y="0px"
	 viewBox="0 0 16 16" style="enable-background:new 0 0 16 16;" xml:space="preserve">
<style type="text/css">
	.st0{fill:#BE7D7B;}
</style>
<g>
	<path class="st0" d="M9.19,5.48c0,0.66-0.54,1.2-1.2,1.2s-1.2-0.54-1.2-1.2s0.54-1.2,1.2-1.2C8.66,4.28,9.19,4.82,9.19,5.48"/>
	<path class="st0" d="M9.46,7.67L9.27,7.28C9.2,7.13,9.05,7.04,8.9,7.04H7.08c-0.15,0-0.3,0.08-0.37,0.24L6.52,7.67
		c0.13,0.07,0.24,0.19,0.32,0.34l1.13,2.27c0.02,0.03,0.02,0.05,0.03,0.07c0-0.03,0.02-0.05,0.03-0.07l1.13-2.27
		C9.23,7.87,9.33,7.76,9.46,7.67L9.46,7.67z"/>
	<path class="st0" d="M3.63,5.48c0,0.66-0.54,1.2-1.2,1.2s-1.2-0.54-1.2-1.2s0.54-1.2,1.2-1.2C3.1,4.28,3.63,4.82,3.63,5.48"/>
	<path class="st0" d="M3.62,8.01c0.07-0.13,0.17-0.25,0.29-0.32L3.7,7.3C3.63,7.15,3.48,7.06,3.33,7.06H1.54
		c-0.15,0-0.3,0.08-0.37,0.24L0.04,9.57c-0.1,0.2-0.02,0.46,0.19,0.56c0.2,0.1,0.46,0.02,0.56-0.19l0.69-1.38l-0.3,1.85
		c-0.03,0.22,0.13,0.4,0.35,0.4h0.91c-0.05-0.19-0.03-0.37,0.05-0.54L3.62,8.01z"/>
	<path class="st0" d="M14.75,5.48c0,0.66-0.54,1.2-1.2,1.2s-1.2-0.54-1.2-1.2s0.54-1.2,1.2-1.2C14.22,4.28,14.75,4.82,14.75,5.48"/>
	<path class="st0" d="M15.95,9.58L14.82,7.3c-0.07-0.15-0.22-0.24-0.37-0.24h-1.8c-0.17,0-0.3,0.08-0.37,0.24l-0.2,0.39
		c0.12,0.08,0.24,0.19,0.29,0.32l1.13,2.27c0.08,0.17,0.1,0.35,0.05,0.54h0.91c0.22,0,0.39-0.2,0.35-0.4l-0.3-1.85l0.69,1.38
		c0.07,0.15,0.22,0.24,0.37,0.24c0.07,0,0.12-0.02,0.19-0.05C15.97,10.03,16.07,9.78,15.95,9.58L15.95,9.58z"/>
	<path class="st0" d="M6.43,6.36c0,0.66-0.54,1.2-1.2,1.2s-1.2-0.54-1.2-1.2s0.54-1.2,1.2-1.2C5.89,5.16,6.43,5.7,6.43,6.36"/>
	<path class="st0" d="M6.51,8.18C6.44,8.05,6.29,7.94,6.14,7.94H4.32c-0.15,0-0.3,0.08-0.37,0.24l-1.13,2.27
		c-0.1,0.2-0.02,0.46,0.19,0.56c0.2,0.1,0.46,0.02,0.56-0.19l0.69-1.38l-0.3,1.85c-0.03,0.22,0.13,0.42,0.35,0.42h1.84
		c0.22,0,0.39-0.2,0.35-0.42L6.2,9.44l0.69,1.38c0.07,0.15,0.22,0.24,0.37,0.24c0.07,0,0.12-0.02,0.19-0.05
		c0.2-0.1,0.29-0.35,0.19-0.56L6.51,8.18z"/>
	<path class="st0" d="M11.96,6.36c0,0.66-0.54,1.2-1.2,1.2s-1.2-0.54-1.2-1.2s0.54-1.2,1.2-1.2C11.42,5.16,11.96,5.7,11.96,6.36"/>
	<path class="st0" d="M12.04,8.18c-0.07-0.13-0.22-0.24-0.37-0.24h-1.8c-0.15,0-0.3,0.08-0.37,0.24l-1.13,2.27
		c-0.1,0.2-0.02,0.46,0.19,0.56c0.2,0.1,0.46,0.02,0.56-0.19l0.69-1.38l-0.3,1.85c-0.03,0.2,0.13,0.4,0.35,0.4h1.82
		c0.22,0,0.39-0.2,0.35-0.42l-0.3-1.85l0.69,1.38c0.07,0.15,0.22,0.24,0.37,0.24c0.07,0,0.12-0.02,0.19-0.05
		c0.2-0.1,0.29-0.35,0.19-0.56L12.04,8.18z"/>
</g>
</svg>
