<?xml version="1.0" encoding="utf-8"?>
<!-- Generator: Adobe Illustrator 26.3.1, SVG Export Plug-In . SVG Version: 6.00 Build 0)  -->
<svg version="1.1" id="Camada_1" xmlns="http://www.w3.org/2000/svg" xmlns:xlink="http://www.w3.org/1999/xlink" x="0px" y="0px"
	 viewBox="0 0 16 16" style="enable-background:new 0 0 16 16;" xml:space="preserve">
<style type="text/css">
	.st0{fill:#BE7D7B;}
</style>
<g>
	<g>
		<path class="st0" d="M2.29,9.39l1.43-1.01c0.37-0.18,0.8-0.21,1.2-0.09L9.57,9.7c0.18,0.05,0.3,0.24,0.26,0.42
			c-0.03,0.19-0.2,0.32-0.39,0.3l-2.93-0.19c-0.08,0-0.15,0.02-0.21,0.07s-0.09,0.12-0.1,0.2c-0.01,0.16,0.11,0.29,0.27,0.3
			l2.93,0.19h0.06l0,0c0.3,0,0.59-0.15,0.77-0.39c0.18-0.25,0.22-0.56,0.13-0.85c-0.1-0.29-0.33-0.51-0.62-0.6L5.09,7.74
			C4.54,7.57,3.96,7.62,3.44,7.88L3.41,7.9L2,8.89L0.72,9.2l0,0C0.64,9.22,0.58,9.26,0.54,9.33C0.5,9.39,0.48,9.47,0.5,9.55
			c0.02,0.07,0.06,0.14,0.13,0.18s0.14,0.05,0.22,0.03l1.34-0.32C2.22,9.42,2.26,9.41,2.29,9.39L2.29,9.39z"/>
		<path class="st0" d="M9.47,11.12H9.41l-2.94-0.19c-0.11-0.01-0.21-0.06-0.28-0.14s-0.11-0.19-0.1-0.3
			c0.01-0.11,0.06-0.21,0.14-0.28c0.08-0.07,0.2-0.1,0.3-0.1l2.93,0.18c0.13,0.02,0.24-0.08,0.26-0.2S9.67,9.84,9.55,9.81L4.89,8.4
			C4.52,8.29,4.13,8.32,3.78,8.49l-1.42,1C2.32,9.52,2.27,9.54,2.21,9.56L0.87,9.88c-0.1,0.03-0.22,0.01-0.31-0.05
			S0.4,9.68,0.37,9.57c-0.02-0.11,0-0.22,0.06-0.31S0.58,9.1,0.69,9.08l1.26-0.3l1.43-1c0.55-0.27,1.17-0.33,1.75-0.15l4.65,1.41
			c0.33,0.1,0.59,0.35,0.7,0.68s0.06,0.69-0.14,0.97C10.14,10.95,9.82,11.12,9.47,11.12z M6.5,10.36c-0.04,0-0.08,0.01-0.11,0.04
			s-0.05,0.07-0.05,0.11s0.01,0.08,0.04,0.12s0.07,0.05,0.11,0.05l2.98,0.19c0.26,0,0.51-0.13,0.67-0.34
			c0.15-0.21,0.19-0.49,0.11-0.74c-0.09-0.25-0.29-0.44-0.54-0.52L5.06,7.86C4.54,7.7,3.99,7.74,3.51,7.99L3.48,8L2.04,9L0.75,9.31
			C0.7,9.32,0.67,9.35,0.64,9.38C0.62,9.42,0.61,9.46,0.62,9.5s0.04,0.08,0.07,0.1c0.04,0.02,0.08,0.03,0.12,0.02L2.15,9.3
			c0.02-0.01,0.04-0.01,0.06-0.03l0,0l1.43-1.01c0.42-0.21,0.88-0.24,1.31-0.11L9.6,9.56c0.24,0.07,0.39,0.32,0.35,0.57
			c-0.05,0.25-0.27,0.43-0.53,0.41L6.5,10.36C6.51,10.36,6.5,10.36,6.5,10.36z"/>
	</g>
	<g>
		<path class="st0" d="M15.38,9.22c-0.12-0.24-0.32-0.42-0.56-0.52c-0.24-0.1-0.52-0.11-0.77-0.02L11.09,9.7
			c-0.07,0.02-0.13,0.08-0.16,0.14c-0.03,0.07-0.04,0.15-0.01,0.22c0.05,0.15,0.21,0.23,0.36,0.18l2.96-1.02
			c0.16-0.05,0.34-0.02,0.48,0.08c0.14,0.11,0.21,0.27,0.2,0.45c-0.01,0.17-0.11,0.33-0.26,0.41l-5.39,2.91
			c-0.32,0.17-0.7,0.2-1.03,0.06c-4.88-1.91-5.03-1.91-5.12-1.91c-0.04,0-0.08,0.01-0.11,0.03l-1.33,0.6
			c-0.14,0.06-0.21,0.23-0.14,0.38c0.06,0.14,0.23,0.21,0.38,0.14l1.24-0.56c0.34,0.1,1.76,0.63,4.88,1.86l0,0
			c0.49,0.2,1.05,0.16,1.51-0.09l5.39-2.91c0.25-0.13,0.43-0.36,0.52-0.63C15.52,9.76,15.5,9.47,15.38,9.22L15.38,9.22z"/>
		<path class="st0" d="M8.67,13.92c-0.24,0-0.48-0.04-0.71-0.14c-3.58-1.4-4.56-1.75-4.83-1.84l-1.2,0.54
			c-0.1,0.04-0.21,0.05-0.31,0.01s-0.18-0.12-0.23-0.22c-0.04-0.1-0.05-0.21-0.01-0.31s0.12-0.18,0.22-0.23l1.33-0.6
			c0.06-0.02,0.11-0.03,0.16-0.03c0.13,0,0.29,0.01,5.17,1.92c0.3,0.12,0.64,0.1,0.93-0.06l5.39-2.91c0.11-0.06,0.19-0.18,0.2-0.31
			s-0.05-0.26-0.15-0.34c-0.1-0.08-0.24-0.11-0.36-0.06l-2.96,1.02c-0.22,0.07-0.45-0.04-0.52-0.25c-0.04-0.11-0.03-0.22,0.02-0.32
			s0.13-0.17,0.24-0.21l2.96-1.02c0.28-0.1,0.58-0.09,0.86,0.02c0.27,0.11,0.5,0.32,0.63,0.58c0.14,0.28,0.17,0.6,0.07,0.91
			c-0.1,0.3-0.3,0.55-0.58,0.7L9.6,13.68C9.3,13.84,8.99,13.92,8.67,13.92z M3.12,11.68l0.04,0.01c0.41,0.13,2.2,0.8,4.89,1.86
			c0.46,0.18,0.97,0.15,1.41-0.08l5.39-2.92c0.22-0.12,0.38-0.32,0.46-0.56s0.06-0.49-0.06-0.72c-0.11-0.21-0.28-0.37-0.5-0.46
			c-0.22-0.09-0.46-0.09-0.68-0.02l-2.96,1.02c-0.04,0.01-0.07,0.04-0.09,0.08C11,9.93,11,9.97,11.01,10.01
			c0.03,0.08,0.12,0.13,0.21,0.1l2.96-1.02c0.21-0.07,0.43-0.03,0.6,0.1c0.17,0.13,0.26,0.34,0.24,0.55
			c-0.02,0.22-0.14,0.41-0.33,0.51L9.3,13.16c-0.35,0.19-0.77,0.22-1.14,0.07c-4.29-1.68-4.97-1.9-5.08-1.9
			c-0.02,0-0.04,0.01-0.06,0.02l-1.33,0.6C1.65,11.97,1.62,12,1.61,12.04s-0.01,0.08,0,0.12c0.04,0.08,0.13,0.12,0.21,0.08
			L3.12,11.68z"/>
	</g>
	<g>
		<path class="st0" d="M5.75,7.1C5.9,7.07,6.01,6.93,5.98,6.78C5.95,6.59,5.93,6.4,5.93,6.2c0-1.23,0.66-2.37,1.72-2.98
			s2.38-0.61,3.44,0s1.72,1.75,1.72,2.98c0,0.74-0.23,1.45-0.67,2.04c-0.06,0.09-0.07,0.2-0.02,0.3c0.05,0.1,0.15,0.16,0.25,0.16
			c0.09,0,0.18-0.04,0.23-0.12c0.51-0.69,0.78-1.52,0.78-2.38c0-1.12-0.47-2.19-1.3-2.95s-1.93-1.13-3.05-1.04
			C7.91,2.3,6.89,2.86,6.2,3.74C5.51,4.62,5.23,5.76,5.41,6.86C5.45,7.03,5.6,7.13,5.75,7.1L5.75,7.1z"/>
		<path class="st0" d="M12.38,8.83c-0.15,0-0.3-0.09-0.37-0.23s-0.06-0.3,0.04-0.43C12.48,7.6,12.7,6.92,12.7,6.2
			c0-1.18-0.64-2.28-1.66-2.87c-1.02-0.59-2.29-0.59-3.32,0C6.7,3.92,6.06,5.02,6.06,6.2c0,0.19,0.02,0.37,0.05,0.56
			c0.03,0.22-0.12,0.43-0.34,0.46C5.55,7.26,5.34,7.11,5.3,6.89C5.11,5.75,5.41,4.58,6.11,3.67c0.71-0.91,1.77-1.49,2.92-1.58
			s2.29,0.29,3.14,1.07c0.85,0.78,1.34,1.88,1.34,3.04c0.01,0.88-0.28,1.75-0.8,2.46C12.63,8.77,12.51,8.83,12.38,8.83z M9.38,2.64
			c0.62,0,1.23,0.16,1.78,0.48c1.1,0.63,1.78,1.82,1.78,3.09c0,0.76-0.25,1.51-0.7,2.12C12.2,8.38,12.2,8.44,12.23,8.5
			c0.05,0.1,0.2,0.12,0.27,0.02c0.49-0.66,0.76-1.48,0.75-2.31c0-1.08-0.46-2.12-1.26-2.85s-1.87-1.1-2.95-1.01S6.96,2.98,6.3,3.84
			C5.64,4.69,5.36,5.8,5.54,6.86C5.56,6.94,5.64,7,5.72,6.99l0,0C5.8,6.98,5.86,6.9,5.85,6.81C5.82,6.62,5.8,6.42,5.8,6.22
			c0-1.27,0.68-2.45,1.78-3.09C8.15,2.8,8.77,2.64,9.38,2.64z"/>
	</g>
	<g>
		<path class="st0" d="M9.39,8.02c0.07,0,0.14-0.03,0.19-0.08c0.05-0.05,0.08-0.12,0.08-0.19V7.51c0.19-0.04,0.36-0.13,0.5-0.26
			c0.15-0.14,0.24-0.33,0.24-0.54c0-0.66-0.45-0.86-0.93-0.97C8.99,5.63,9,5.44,8.99,5.35l0,0C9,5.26,9.03,5.18,9.09,5.12
			C9.15,5.07,9.22,5.04,9.3,5.05C9.76,5.08,9.81,5.33,9.82,5.4s0.05,0.14,0.11,0.18c0.06,0.04,0.13,0.06,0.2,0.05
			s0.13-0.06,0.17-0.12c0.04-0.06,0.05-0.14,0.03-0.21c-0.03-0.18-0.11-0.34-0.24-0.47C9.97,4.7,9.81,4.61,9.63,4.56V4.27
			c0-0.15-0.12-0.26-0.26-0.26c-0.15,0-0.26,0.12-0.26,0.26v0.25c-0.15,0.03-0.29,0.1-0.39,0.2c-0.17,0.17-0.27,0.4-0.26,0.64
			c0.02,0.31,0.19,0.7,0.88,0.87c0.52,0.13,0.52,0.26,0.52,0.46l0,0c0,0.06-0.03,0.12-0.08,0.16c-0.1,0.09-0.22,0.14-0.35,0.14
			S8.89,6.93,8.89,6.51l0,0c0-0.15-0.12-0.26-0.26-0.26c-0.15,0-0.26,0.12-0.26,0.26c-0.01,0.22,0.06,0.44,0.2,0.62
			c0.14,0.18,0.33,0.3,0.55,0.35v0.27C9.13,7.91,9.25,8.02,9.39,8.02L9.39,8.02z"/>
		<path class="st0" d="M9.38,8.14C9.17,8.14,9,7.98,8.99,7.77V7.59C8.78,7.52,8.6,7.4,8.47,7.22c-0.15-0.2-0.23-0.45-0.22-0.7
			c0-0.21,0.17-0.38,0.39-0.38c0.21,0,0.39,0.17,0.39,0.39c0,0.35,0.37,0.36,0.41,0.36c0.09,0,0.19-0.04,0.26-0.11
			c0.02-0.02,0.04-0.04,0.04-0.07c0-0.16,0-0.23-0.43-0.33C8.54,6.2,8.36,5.74,8.33,5.39c0-0.28,0.11-0.55,0.3-0.74
			c0.1-0.1,0.22-0.17,0.36-0.21V4.29c0-0.21,0.17-0.39,0.39-0.39s0.39,0.17,0.39,0.39v0.2c0.16,0.06,0.3,0.15,0.42,0.27
			c0.14,0.15,0.23,0.33,0.27,0.54c0.02,0.1,0.01,0.21-0.05,0.3s-0.15,0.15-0.25,0.17c-0.11,0.02-0.21-0.01-0.3-0.07
			S9.72,5.54,9.7,5.43C9.69,5.37,9.65,5.21,9.29,5.19C9.24,5.18,9.2,5.2,9.17,5.22C9.13,5.26,9.11,5.31,9.1,5.37
			c0.01,0.06,0.02,0.17,0.39,0.25c0.48,0.11,1.03,0.33,1.03,1.09c0,0.24-0.1,0.47-0.28,0.63c-0.13,0.12-0.29,0.21-0.46,0.27v0.15
			c0,0.1-0.04,0.2-0.11,0.28C9.59,8.1,9.49,8.14,9.38,8.14C9.39,8.14,9.38,8.14,9.38,8.14z M8.64,6.39c-0.08,0-0.14,0.06-0.14,0.14
			c-0.01,0.2,0.05,0.39,0.17,0.54c0.12,0.15,0.29,0.26,0.47,0.3l0.1,0.02v0.37c0,0.07,0.06,0.12,0.14,0.12l0,0l0,0l0,0
			c0.04,0,0.07-0.01,0.09-0.04c0.03-0.03,0.04-0.06,0.04-0.1V7.39l0.1-0.02c0.17-0.04,0.32-0.12,0.45-0.23
			c0.13-0.12,0.2-0.28,0.2-0.45c0-0.54-0.33-0.73-0.83-0.84c-0.47-0.11-0.56-0.3-0.58-0.47V5.34c0.01-0.12,0.06-0.23,0.14-0.31
			s0.2-0.12,0.32-0.1C9.67,4.95,9.88,5.1,9.94,5.38C9.95,5.43,9.97,5.47,10,5.49c0.03,0.02,0.06,0.03,0.11,0.03
			c0.04-0.01,0.07-0.03,0.09-0.06c0.02-0.03,0.03-0.07,0.02-0.11c-0.03-0.16-0.1-0.3-0.21-0.42C9.9,4.82,9.77,4.74,9.62,4.7
			l-0.1-0.02V4.29c0-0.08-0.06-0.14-0.14-0.14S9.24,4.21,9.24,4.29v0.36l-0.1,0.02C9.02,4.69,8.9,4.75,8.81,4.84
			C8.66,4.98,8.58,5.19,8.58,5.39C8.6,5.77,8.87,6.02,9.36,6.14c0.58,0.14,0.62,0.32,0.62,0.58c0,0.1-0.04,0.2-0.12,0.26
			C9.75,7.08,9.6,7.14,9.44,7.15l0,0c-0.23,0-0.67-0.13-0.67-0.61C8.78,6.45,8.72,6.39,8.64,6.39z"/>
	</g>
</g>
</svg>
