<?xml version="1.0" encoding="utf-8"?>
<!-- Generator: Adobe Illustrator 26.3.1, SVG Export Plug-In . SVG Version: 6.00 Build 0)  -->
<svg version="1.1" id="Camada_1" xmlns="http://www.w3.org/2000/svg" xmlns:xlink="http://www.w3.org/1999/xlink" x="0px" y="0px"
	 viewBox="0 0 16 16" style="enable-background:new 0 0 16 16;" xml:space="preserve">
<style type="text/css">
	.st0{fill:#BE7D7B;}
</style>
<g>
	<g>
		<path class="st0" d="M9.97,5.81C9.5,5.5,9.21,4.94,9.21,4.32V2.76V0.98c0-0.26-0.21-0.47-0.47-0.47H7.25
			c-0.26,0-0.47,0.21-0.47,0.47v3.34c0,0.62-0.28,1.18-0.76,1.49C5.43,6.2,5.07,6.85,5.07,7.57v6.67c0,0.7,0.57,1.27,1.27,1.27h3.3
			c0.7,0,1.27-0.57,1.27-1.27V7.57C10.92,6.86,10.56,6.2,9.97,5.81L9.97,5.81z M7.19,0.98c0-0.03,0.03-0.06,0.06-0.06h1.49
			c0.03,0,0.06,0.03,0.06,0.06v1.58H7.19L7.19,0.98z M9.65,15.1h-3.3c-0.47,0-0.86-0.39-0.86-0.86V7.57c0-0.57,0.28-1.1,0.76-1.41
			c0.59-0.39,0.94-1.07,0.94-1.83V2.98H8.8v1.35c0,0.76,0.35,1.45,0.94,1.84c0.48,0.31,0.76,0.84,0.76,1.41v0.24H8.33
			c-0.11,0-0.21,0.09-0.21,0.21v5.07c0,0.11,0.09,0.21,0.21,0.21h2.17v0.95C10.51,14.71,10.12,15.1,9.65,15.1L9.65,15.1z
			 M10.51,12.87H8.55V8.21h1.96V12.87z"/>
		<path class="st0" d="M9.65,15.63h-3.3c-0.77,0-1.4-0.63-1.4-1.4V7.55c0-0.75,0.38-1.45,1-1.86c0.44-0.29,0.7-0.8,0.7-1.38V0.97
			c0-0.33,0.27-0.6,0.59-0.6h1.49c0.33,0,0.6,0.27,0.6,0.6v3.34c0,0.58,0.26,1.1,0.7,1.38c0.63,0.41,1,1.11,1.01,1.86v6.67
			C11.05,15.01,10.42,15.63,9.65,15.63z M7.25,0.63c-0.19,0-0.34,0.16-0.34,0.35v3.34c0,0.66-0.3,1.26-0.81,1.59
			C5.54,6.28,5.21,6.89,5.21,7.56v6.67c0,0.63,0.51,1.15,1.15,1.15h3.3c0.63,0,1.15-0.51,1.15-1.15V7.56c0-0.67-0.34-1.29-0.89-1.65
			l0,0C9.41,5.58,9.11,4.98,9.11,4.32V0.98c0-0.19-0.16-0.35-0.35-0.35H7.25z M9.65,15.22h-3.3c-0.54,0-0.98-0.44-0.98-0.98V7.57
			c0-0.61,0.31-1.18,0.82-1.52c0.56-0.36,0.89-1.01,0.89-1.73V2.84h1.86v1.48c0,0.72,0.33,1.37,0.89,1.73
			c0.51,0.33,0.82,0.9,0.82,1.52v0.36h-2.3c-0.04,0-0.08,0.04-0.08,0.08v5.07c0,0.04,0.04,0.08,0.08,0.08h2.3v1.08
			C10.63,14.78,10.19,15.22,9.65,15.22z M7.32,3.1v1.23c0,0.8-0.37,1.53-1,1.94C5.88,6.56,5.61,7.05,5.61,7.58v6.67
			c0,0.4,0.33,0.73,0.73,0.73h3.3c0.4,0,0.73-0.33,0.73-0.73v-0.83H8.32c-0.18,0-0.33-0.15-0.33-0.33V8.01
			c0-0.18,0.15-0.33,0.33-0.33h2.05V7.57c0-0.53-0.26-1.02-0.71-1.31c-0.63-0.41-1-1.14-1-1.94V3.09C8.66,3.09,7.32,3.09,7.32,3.1z
			 M10.63,13H8.42V8.09h2.21V13z M8.67,12.75h1.71V8.34H8.67C8.67,8.34,8.67,12.75,8.67,12.75z M8.93,2.68H7.07v-1.7
			c0-0.1,0.08-0.18,0.18-0.18h1.49c0.1,0,0.19,0.08,0.19,0.18V2.68z M7.32,2.43h1.36V1.04H7.32V2.43z"/>
	</g>
</g>
</svg>
