<?xml version="1.0" encoding="utf-8"?>
<!-- Generator: Adobe Illustrator 26.3.1, SVG Export Plug-In . SVG Version: 6.00 Build 0)  -->
<svg version="1.1" id="Camada_1" xmlns="http://www.w3.org/2000/svg" xmlns:xlink="http://www.w3.org/1999/xlink" x="0px" y="0px"
	 viewBox="0 0 16 16" style="enable-background:new 0 0 16 16;" xml:space="preserve">
<style type="text/css">
	.st0{fill-rule:evenodd;clip-rule:evenodd;fill:#BE7D7B;}
</style>
<g>
	<path class="st0" d="M0,0.86v1.02h0.68v12.24H0v1.02h16v-1.02h-0.68V1.88H16V0.86L0,0.86z M1.36,1.88h2.11v12.24H1.36V1.88z
		 M4.15,1.88h2.11v5.46C6.51,7.38,6.7,7.6,6.7,7.86S6.51,8.34,6.26,8.38v5.74H4.15V1.88z M6.94,1.88h2.11v12.24H6.94V1.88z
		 M9.74,1.88h2.11v12.24H9.74V8.38C9.49,8.34,9.3,8.12,9.3,7.86s0.19-0.48,0.44-0.52V1.88z M12.53,1.88h2.11v12.24h-2.11V1.88z
		 M8,2.91c-0.48,0-0.86,0.39-0.86,0.86c0,0.48,0.39,0.86,0.86,0.86c0.48,0,0.87-0.38,0.87-0.86C8.86,3.3,8.48,2.91,8,2.91z
		 M7.14,4.89v8.56c0.32,0.13,0.66-0.11,0.66-0.46V9.02h0.41v3.97c0,0.34,0.34,0.58,0.66,0.46V4.89H7.14z M6.07,5.13
		c-0.36,0.18-0.63,0.45-0.78,0.8C5.02,6.58,5.24,7.39,5.93,8.1l0,0c0.31,0.34,0.81-0.14,0.49-0.47c0,0,0,0-0.01-0.01
		c-0.57-0.58-0.65-1.09-0.5-1.43C5.95,6.1,6,6.02,6.07,5.95L6.07,5.13L6.07,5.13z M9.93,5.13L9.93,5.13L9.93,5.13z M9.93,5.13v0.82
		c0.07,0.07,0.12,0.16,0.16,0.24c0.15,0.34,0.07,0.85-0.5,1.43C9.26,7.94,9.75,8.43,10.07,8.1l0,0l0,0l0,0
		c0.7-0.71,0.91-1.52,0.64-2.17C10.56,5.58,10.29,5.31,9.93,5.13L9.93,5.13z"/>
</g>
</svg>
