<?xml version="1.0" encoding="utf-8"?>
<!-- Generator: Adobe Illustrator 26.3.1, SVG Export Plug-In . SVG Version: 6.00 Build 0)  -->
<svg version="1.1" id="Layer_2" xmlns="http://www.w3.org/2000/svg" xmlns:xlink="http://www.w3.org/1999/xlink" x="0px" y="0px"
	 viewBox="0 0 48 48" style="enable-background:new 0 0 48 48;" xml:space="preserve">
<style type="text/css">
	.st0{fill:none;}
	.st1{fill-rule:evenodd;clip-rule:evenodd;fill:#D27F7D;}
</style>
<g id="Layer_1-2">
	<rect y="0" class="st0" width="48" height="48"/>
	<path class="st1" d="M24,0.8c-3.6,0-5.8,2.2-7,4.3c-1.2,2-1.6,4-1.6,4.2l0,0c0,0.1,0,0.1,0,0.2c0,0.7,0.3,3,3.4,8.7
		c0.3,0.5,0.6,1,0.9,1.5c-4.1,5.1-8.7,9.1-8.7,9.1c-0.2,0.1-0.3,0.3-0.3,0.5c0,0.2,0.1,0.4,0.2,0.6l4.2,4.4c0.3,0.3,0.7,0.3,1,0
		c0,0,3.9-3.4,7.9-8.4c4,5,7.9,8.4,7.9,8.4c0.3,0.3,0.8,0.2,1,0l4.2-4.4c0.1-0.1,0.2-0.3,0.2-0.6c0-0.2-0.1-0.4-0.3-0.5
		c0,0-4.6-3.9-8.7-9.1c0.3-0.5,0.6-1,0.9-1.5c3.8-6.9,3.4-8.9,3.4-8.9c0,0,0,0,0,0c-0.1-0.3-0.9-4.2-3.5-6.6
		C27.9,1.6,26.2,0.8,24,0.8L24,0.8z M28.4,7.9c-0.4,1-1.4,3.3-3.9,7.3l-0.1,0.1l-0.1,0.1l-0.1,0.2l-0.1,0.1l-0.1,0.2L24.1,16
		L24,16.2c0,0.1-0.1,0.1-0.1,0.2l-0.1,0.1l-0.1,0.1l-0.1,0.1l0,0c-0.8,1.2-1.7,2.4-2.5,3.6c0,0,0,0,0,0c-3.4,4.3-7.1,7.9-8.6,9.1
		c0,0,3.2,3.3,3.2,3.3c1.2-1.1,4.5-4.3,7.7-8.4c0,0,0,0,0,0c1.2-1.5,2.4-3.2,3.4-4.9c0,0,0,0,0,0c0.4-0.6,0.8-1.3,1.1-1.9
		c2.6-4.8,3.1-7.1,3.2-7.8C30.8,9.3,29.9,8.5,28.4,7.9L28.4,7.9z M27.6,21.1c3.2,3.9,6.6,7.1,7.9,8.3l-3.2,3.3
		c-1.2-1.1-4.3-4.1-7.4-8C25.8,23.6,26.7,22.4,27.6,21.1L27.6,21.1L27.6,21.1z M23.1,14.7L23.1,14.7l-0.5,0.9l-0.1,0.1l-0.1,0.1
		l0,0.1l-0.1,0.1l0,0.1L22.3,16c-0.5,0.8-1.1,1.7-1.7,2.5c-0.2-0.3-0.4-0.7-0.6-1c-2.6-4.7-3.1-7.1-3.2-7.8c0.8-0.8,1.8-1.3,2.8-1.7
		C20,9,21,11.1,23.1,14.7L23.1,14.7z M24,7c-1.1,0-2.2,0.2-3,0.4c0.3,0.8,1.2,2.7,3,5.8c1.9-3.2,2.7-5,3-5.8C26.2,7.2,25.1,7,24,7
		L24,7z M24,2.3c-2.9,0-4.7,1.8-5.8,3.6c-0.3,0.5-0.5,1-0.7,1.4c1.4-0.9,3.6-1.8,6.5-1.8c2.9,0,5.1,0.9,6.5,1.8
		c-0.5-1.1-1.2-2.4-2.3-3.4C27.1,2.9,25.8,2.3,24,2.3L24,2.3z"/>
</g>
</svg>
