<?xml version="1.0" encoding="utf-8"?>
<!-- Generator: Adobe Illustrator 26.3.1, SVG Export Plug-In . SVG Version: 6.00 Build 0)  -->
<svg version="1.1" id="Layer_2" xmlns="http://www.w3.org/2000/svg" xmlns:xlink="http://www.w3.org/1999/xlink" x="0px" y="0px"
	 viewBox="0 0 48 48" style="enable-background:new 0 0 48 48;" xml:space="preserve">
<style type="text/css">
	.st0{fill:none;}
	.st1{fill:#D27F7D;}
</style>
<g id="Layer_1-2">
	<rect y="0" class="st0" width="48" height="48"/>
	<g>
		<path class="st1" d="M28.4,24.4v-0.6c2.2-1.4,3.5-3.8,3.7-6.3c0.9-0.3,1.6-0.9,2.2-1.6c0.5-0.7,0.8-1.6,0.8-2.6
			c0-0.6-0.2-1.1-0.5-1.6c-0.3-0.5-0.7-0.9-1.2-1.1c1.1-1.3,1.7-3,1.7-4.7V1.5c0-0.3-0.1-0.5-0.4-0.6s-0.5-0.1-0.7,0
			c-0.7,0.4-1.4,0.7-2.1,0.9c-0.4,0.1-0.6,0.5-0.5,0.9c0.1,0.4,0.5,0.6,0.9,0.5c0.5-0.1,0.9-0.3,1.3-0.5v3.2c0,1.5-0.6,3-1.6,4
			c-0.1-0.2-0.4-0.3-0.6-0.3c-2.6,0-5-1.2-6.6-3.2l0,0V2.5l1.6,0.5c0.9,0.3,1.8,0.5,2.8,0.5c0.4,0,0.8-0.3,0.8-0.7
			c0-0.4-0.3-0.8-0.7-0.8c-0.8,0-1.6-0.2-2.4-0.4l-2.6-0.9c-0.1,0-0.2,0-0.2,0v0c-2.4,0-4.7,0.8-6.5,2.3c-1.8,1.5-3.1,3.6-3.6,5.9
			c-0.3,1.7-0.8,3.3-1.3,4.9l-0.4,1.2c-0.5,1.2-0.3,2.6,0.3,3.8l0.2,0.4c0.3,0.4,0.4,0.9,0.4,1.5c0,0.5-0.1,1-0.4,1.5
			c-0.4,0.7-0.6,1.4-0.6,2.2c0,0.8,0.2,1.6,0.6,2.2l0.1,0.1v0c0.2,0.3,0.3,0.5,0.5,0.7c-0.3,0.3-0.5,0.7-0.7,1
			c-0.1,0.2-0.1,0.4-0.1,0.6c0.1,0.2,0.2,0.4,0.3,0.4c0.4,0.2,0.8,0.1,1-0.3c0.7-1.1,1.7-2.1,2.8-2.6l0,0.1h0
			c-0.1,1.1,0.2,2.2,0.8,3.1c0.6,0.9,1.6,1.5,2.7,1.7c1.1,0.2,2.2,0,3.1-0.5v13.4c0,0.4,0.3,0.7,0.7,0.7c0.4,0,0.7-0.3,0.7-0.7v-1.2
			l2.8-3.5c0.1-0.2,0.2-0.4,0.1-0.7l-1.5-5.6c0.5-0.3,0.8-0.7,1.1-1.2l0.8,0.5c0.2,0.1,0.4,0.1,0.6,0c0.2-0.1,0.4-0.3,0.4-0.5
			l1.9-5.8c1.2,0.5,2.3,1.4,3,2.5c0.7,1.1,1.1,2.4,1.1,3.7v3h-3V34c0-0.4-0.3-0.7-0.7-0.7c-0.4,0-0.7,0.3-0.7,0.7v10.4
			c0,0.4,0.3,0.7,0.7,0.7c0.4,0,0.7-0.3,0.7-0.7V37h3v7.4c0,0.4,0.3,0.7,0.7,0.7c0.4,0,0.7-0.3,0.7-0.7V32.6c0-2.2-0.9-4.2-2.4-5.8
			C32.7,25.3,30.6,24.4,28.4,24.4L28.4,24.4z M27,27l-3,1.8L21,27v-2.4c1.9,0.8,4,0.8,5.9,0V27z M32.1,15.9v-4c0.4,0,0.8,0.2,1,0.4
			c0.3,0.3,0.4,0.7,0.4,1C33.6,14.4,33.1,15.4,32.1,15.9z M23.3,2.3v4.1l0,0c-0.7,0.9-1.6,1.6-2.6,2.2c-0.2,0.1-0.3,0.2-0.4,0.4
			c-0.1,0.2,0,0.4,0.1,0.6c0.1,0.2,0.3,0.3,0.4,0.4c0.2,0.1,0.4,0,0.6-0.1c0.7-0.4,1.3-0.8,1.9-1.3v9.2c0,0.4,0.3,0.7,0.7,0.7
			c0.4,0,0.7-0.3,0.7-0.7V8.5c1.6,1.5,3.7,2.4,5.9,2.5V17c0,2.4-1.3,4.6-3.3,5.8c-2.1,1.2-4.6,1.2-6.7,0c-2.1-1.2-3.3-3.4-3.3-5.8
			v-6c0.3,0,0.6-0.1,1-0.1c0.4-0.1,0.7-0.5,0.6-0.9c-0.1-0.4-0.5-0.7-0.9-0.6c-0.5,0.1-1,0.1-1.5,0.1c-0.4,0-0.7,0.3-0.7,0.7
			c-0.3,0-0.5,0-0.8,0.1c0.1-0.4,0.2-0.8,0.3-1.2c0.4-1.9,1.4-3.6,2.8-4.8S21.4,2.4,23.3,2.3L23.3,2.3z M14.4,13.3
			c0-0.4,0.2-0.8,0.4-1c0.3-0.3,0.7-0.4,1-0.4v4C14.9,15.4,14.4,14.4,14.4,13.3L14.4,13.3z M14.3,26.4c-0.1-0.1-0.2-0.3-0.3-0.4
			l-0.1-0.1c-0.3-0.4-0.4-1-0.4-1.5c0-0.5,0.1-1,0.4-1.5c0.4-0.7,0.6-1.4,0.6-2.2c0-0.8-0.2-1.6-0.6-2.2l-0.2-0.4h0
			c-0.4-0.7-0.5-1.7-0.2-2.5l0-0.1h0c0.5,0.9,1.4,1.6,2.4,2c0.2,2.6,1.5,4.9,3.7,6.3v0.6C17.6,24.4,15.7,25.1,14.3,26.4L14.3,26.4z
			 M19.6,29.7c-0.5-0.3-0.9-0.7-1.2-1.2c-0.3-0.5-0.4-1.1-0.3-1.6l0.1-0.8c0.5-0.1,0.9-0.2,1.4-0.2v1.5c0,0.3,0.1,0.5,0.4,0.6
			l2.7,1.6c-0.5,0.3-1,0.5-1.5,0.5C20.6,30.1,20,30,19.6,29.7L19.6,29.7z M26.1,39l-1.4,1.8V34l0,0L26.1,39z M24.7,32.4v-1.6
			l1.2,0.6v0C25.7,31.9,25.2,32.3,24.7,32.4L24.7,32.4z M28,30.9l-2.5-1.3l2.6-1.6c0.2-0.1,0.4-0.4,0.4-0.6v-1.5
			c0.4,0,0.8,0,1.1,0.1L28,30.9z"/>
		<path class="st1" d="M27.7,15.5c0,0.4-0.3,0.7-0.7,0.7c-0.4,0-0.7-0.3-0.7-0.7s0.3-0.7,0.7-0.7C27.4,14.8,27.7,15.1,27.7,15.5"/>
		<path class="st1" d="M21.8,15.5c0,0.4-0.3,0.7-0.7,0.7c-0.4,0-0.7-0.3-0.7-0.7s0.3-0.7,0.7-0.7C21.4,14.8,21.8,15.1,21.8,15.5"/>
		<path class="st1" d="M26.2,13.3h2.2c0.4,0,0.7-0.3,0.7-0.7s-0.3-0.7-0.7-0.7h-2.2c-0.4,0-0.7,0.3-0.7,0.7S25.8,13.3,26.2,13.3z"/>
		<path class="st1" d="M19.6,13.3h2.2c0.4,0,0.7-0.3,0.7-0.7s-0.3-0.7-0.7-0.7h-2.2c-0.4,0-0.7,0.3-0.7,0.7S19.2,13.3,19.6,13.3z"/>
		<path class="st1" d="M16.6,33.3c-0.4,0-0.7,0.3-0.7,0.7v1.5h-3v-3c0-0.3,0-0.5,0-0.8c0.1-0.4-0.2-0.8-0.6-0.8
			c-0.4-0.1-0.8,0.2-0.8,0.6c0,0.3-0.1,0.6-0.1,1v11.8c0,0.4,0.3,0.7,0.7,0.7s0.7-0.3,0.7-0.7V37h3v7.4c0,0.4,0.3,0.7,0.7,0.7
			c0.4,0,0.7-0.3,0.7-0.7V34c0-0.2-0.1-0.4-0.2-0.5C17,33.4,16.8,33.3,16.6,33.3L16.6,33.3z"/>
		<path class="st1" d="M21.2,19.6c-0.1,0.2-0.1,0.4-0.1,0.6c0,0.2,0.2,0.4,0.3,0.5c0.8,0.5,1.7,0.8,2.6,0.8c0.9,0,1.9-0.3,2.6-0.8
			c0.3-0.2,0.4-0.7,0.2-1c-0.2-0.3-0.7-0.4-1-0.2c-0.5,0.4-1.2,0.5-1.8,0.5c-0.6,0-1.3-0.2-1.8-0.5c-0.2-0.1-0.4-0.1-0.6-0.1
			C21.4,19.3,21.3,19.4,21.2,19.6L21.2,19.6z"/>
		<path class="st1" d="M22.5,33.3c0,0.4-0.3,0.7-0.7,0.7S21,33.7,21,33.3c0-0.4,0.3-0.7,0.7-0.7S22.5,32.9,22.5,33.3"/>
		<path class="st1" d="M22.5,36.3c0,0.4-0.3,0.7-0.7,0.7S21,36.7,21,36.3s0.3-0.7,0.7-0.7S22.5,35.9,22.5,36.3"/>
		<path class="st1" d="M22.5,39.2c0,0.4-0.3,0.7-0.7,0.7S21,39.6,21,39.2c0-0.4,0.3-0.7,0.7-0.7S22.5,38.8,22.5,39.2"/>
	</g>
</g>
</svg>
