<?xml version="1.0" encoding="utf-8"?>
<!-- Generator: Adobe Illustrator 26.3.1, SVG Export Plug-In . SVG Version: 6.00 Build 0)  -->
<svg version="1.1" id="Layer_2" xmlns="http://www.w3.org/2000/svg" xmlns:xlink="http://www.w3.org/1999/xlink" x="0px" y="0px"
	 viewBox="0 0 48 48" style="enable-background:new 0 0 48 48;" xml:space="preserve">
<style type="text/css">
	.st0{fill:none;}
	.st1{fill:#D27F7D;}
</style>
<g id="Layer_1-2">
	<rect y="0" class="st0" width="48" height="48"/>
	<g>
		<g>
			<path class="st1" d="M24.8,12.1c0,0.1-0.1,0.3-0.1,0.4c0,0.1,0,0.3,0,0.4c0,0.1,0,0.2,0.1,0.3c0.1,0.4,0.4,0.7,0.8,0.9
				c0.2,0.1,0.4,0.1,0.7,0.1c0.3,0,0.6-0.1,0.8-0.2c0.1-0.1,0.2-0.2,0.4-0.3c0.1-0.1,0.2-0.2,0.2-0.3c0,0,0-0.1,0.1-0.1
				c0,0,3.2-7,3.2-7c0,0,0.1-0.3,0.1-0.4c0.1-0.7-0.2-1.4-0.9-1.7c-0.2-0.1-0.4-0.1-0.7-0.1c-0.5,0-0.9,0.2-1.2,0.6
				c-0.1,0.1-0.2,0.2-0.2,0.3c0,0,0,0,0,0l0,0c0,0,0,0,0,0l-3.2,7C24.9,12,24.8,12.1,24.8,12.1L24.8,12.1z"/>
			<path class="st1" d="M26.3,4.5c0.1,0.1,0.1,0.2,0.1,0.3c0.1,0.2,0.1,0.5,0,0.8c0,0.2-0.1,0.3-0.1,0.4c0,0.1,0,0.1-0.1,0.2
				c0,0.1-0.1,0.2-0.1,0.3c-0.4,0.9-1.6,2.3-4.2,2.4c0,0,0,0,0,0l-1.1,2.3c0.7,0.2,1.9,0.5,3,1.4l3.6-7.8c0.1-0.1,0.1-0.3,0.1-0.4
				c0.1-0.7-0.2-1.4-0.9-1.7c-0.2-0.1-0.4-0.1-0.7-0.1c-0.5,0-0.9,0.2-1.2,0.6c-0.1,0.1-0.2,0.2-0.2,0.3c0,0,0,0,0,0l0,0l0,0l-0.5,1
				h2.2L26.3,4.5z"/>
			<path class="st1" d="M22.1,4.3h1L23.7,3c0.1-0.1,0.1-0.3,0.1-0.4c0.1-0.7-0.2-1.4-0.9-1.7c-0.2-0.1-0.4-0.1-0.7-0.1
				c-0.5,0-0.9,0.2-1.2,0.6c-0.1,0.1-0.2,0.2-0.2,0.3c0,0,0,0,0,0l-1.2,2.6L22.1,4.3z"/>
			<path class="st1" d="M33.4,10.4c0-0.2-0.1-0.6-0.1-0.6c-0.2-0.6-0.8-1-1.5-1c-0.1,0-0.3,0-0.4,0.1c-0.2,0.1-0.4,0.2-0.6,0.3
				c-0.2,0.2-0.4,0.4-0.5,0.7c0,0,0,0,0,0l-2,4.3h0c-0.1,0.1-0.1,0.3-0.1,0.4c0,0,0,0.1,0,0.1c0,0.4,0.3,0.7,0.6,0.9
				c0.2,0.1,0.4,0.1,0.5,0.1c0.2,0,0.5-0.1,0.6-0.3c0.1-0.1,0.2-0.2,0.2-0.3l1-2.2l0.7,0.3l0.1-0.2L31,15.4l0,0c0,0,0,0.1-0.1,0.1
				c0,0.1-0.1,0.2-0.1,0.2c-0.1,0.1-0.2,0.3-0.4,0.4c-0.3,0.2-0.6,0.3-1,0.4c0,0-0.1,0-0.1,0h0c-0.3,0-0.5-0.1-0.8-0.2
				c-0.4-0.2-0.7-0.5-0.8-0.8c-0.1-0.2-0.2-0.3-0.2-0.5c0-0.1,0-0.1,0-0.2c-0.1,0.1-0.3,0.1-0.4,0.2c-0.2,0.1-0.5,0.1-0.7,0.1h0
				c-0.3,0-0.5,0-0.7-0.1c0.1,0.5,0.2,1,0.2,1.6v3H25v-3c0-0.7-0.2-1.3-0.5-1.9c-1.1-2.5-4.2-2.9-4.4-2.9l-0.6-0.1L21.4,8h0.3
				c0.1,0,0.1,0,0.2,0c0.2,0,0.3,0,0.5,0c1.5-0.2,2.4-0.9,2.8-1.5c0-0.1,0.1-0.1,0.1-0.2c0.1-0.1,0.1-0.2,0.2-0.4
				c0.1-0.1,0.1-0.3,0.1-0.4c0.1-0.2,0.1-0.3,0.1-0.5H19c-0.8,0-1.5,0.4-1.9,1.1c-0.1,0.1-0.2,0.3-0.2,0.5l-2.1,4.5l-0.1,0.2
				c-0.1,0.3-0.2,0.5-0.2,0.8c0,0.4,0.1,0.8,0.3,1.1l0.2,0.3l5.1,6.8v9.2h9.6v0h0.8l0-6.8l2.5-5.2c0-0.1,0.1-0.1,0.1-0.2
				c0.1-0.2,0.1-0.4,0.1-0.6C33.4,16.9,33.4,10.4,33.4,10.4L33.4,10.4z"/>
		</g>
	</g>
</g>
</svg>
