<?xml version="1.0" encoding="utf-8"?>
<!-- Generator: Adobe Illustrator 26.3.1, SVG Export Plug-In . SVG Version: 6.00 Build 0)  -->
<svg version="1.1" id="Layer_2" xmlns="http://www.w3.org/2000/svg" xmlns:xlink="http://www.w3.org/1999/xlink" x="0px" y="0px"
	 viewBox="0 0 48 48" style="enable-background:new 0 0 48 48;" xml:space="preserve">
<style type="text/css">
	.st0{fill:none;}
	.st1{fill:#D27F7D;}
</style>
<g id="Layer_1-2">
	<rect y="-3" class="st0" width="48" height="48"/>
	<path class="st1" d="M43.5,8.9V8.7c-0.5-1.6-1.8-2.2-2.8-2s-2,1-1.9,2.6l0.4,5.9c-0.6,0.1-1.2,0.4-1.6,0.9c-1,1.3-3.4,4.6-3.6,6
		c-0.1,0.7,0,1.6,0,2.6c0.1,1.5,0.2,3.3-0.2,4.8c-0.1,0.4,0.1,0.8,0.5,0.8c0.1,0,0.1,0,0.2,0c0.3,0,0.6-0.2,0.7-0.5
		c0.5-1.7,0.3-3.7,0.2-5.3c-0.1-0.9-0.1-1.8,0-2.3c0.1-0.9,1.8-3.4,3.3-5.4c0.3-0.5,1-0.5,1.3-0.3c0.5,0.3,0.6,0.8,0.3,1.5
		c-1.1,2.7-1.7,3.8-1.7,3.8c-0.2,0.3,0,0.8,0.3,1s0.8,0,1-0.3c0,0,0.6-1.2,1.8-4c0.7-1.6-0.1-2.8-0.9-3.3c0,0-0.1,0-0.2-0.1
		l-0.5-6.2c0-0.8,0.4-1.1,0.8-1.2c0.5-0.1,1,0.2,1.3,1v0.2c1.9,6.5,2.2,7.5,1.8,9.9c-0.1,0.7-0.7,2-1.4,3.3
		c-0.9,1.9-1.9,4.1-2.2,5.9l-0.2,1.2l0,0l0,0v0.1l0,0c0,0.7,0.4,0.8,0.6,0.8c0,0,0.1,0,0.2,0c0.4,0,0.6-0.3,0.7-0.6l0,0v-0.2l0,0
		v-0.1l0.2-1.1c0.3-1.6,1.2-3.7,2.1-5.5c0.7-1.5,1.3-2.8,1.5-3.7C45.8,16.8,45.4,15.6,43.5,8.9L43.5,8.9L43.5,8.9z M13.6,24.9
		c0.1-1,0.1-1.9,0-2.6c-0.2-1.4-2.3-4.4-3.6-6c-0.4-0.5-1-0.8-1.6-0.9l0.4-5.9c0.1-1.6-0.9-2.4-1.9-2.6c-1-0.2-2.4,0.4-2.8,2H4
		c-1.9,6.6-2.3,7.8-1.8,10.5c0.2,0.9,0.8,2.2,1.5,3.7c0.9,1.8,1.8,3.9,2.1,5.5L6,29.7c0,0,0,0,0,0.1l0,0V30l0,0
		c0.1,0.3,0.2,0.6,0.7,0.6c0.1,0,0.1,0,0.2,0c0.2,0,0.6-0.2,0.6-0.8l0,0v-0.1l0,0l0,0l-0.2-1.2c-0.3-1.8-1.3-4-2.2-5.9
		c-0.6-1.4-1.2-2.6-1.4-3.3C3.3,17,3.6,16,5.5,9.4l0.1-0.2c0.2-0.8,0.8-1.1,1.3-1c0.4,0.1,0.8,0.4,0.8,1.1L7,15.5
		c-0.1,0-0.1,0-0.2,0.1C6,16,5.2,17.2,5.9,18.8c1.1,2.8,1.7,3.9,1.8,4c0.2,0.3,0.6,0.5,0.9,0.3c0.3-0.2,0.5-0.6,0.3-1
		c0,0-0.6-1.2-1.7-3.8C6.9,17.6,7,17,7.5,16.8c0.4-0.2,1-0.2,1.4,0.3c1.9,2.5,3.2,4.7,3.3,5.4c0.1,0.5,0,1.4,0,2.3
		c-0.1,1.6-0.2,3.5,0.2,5.3c0.1,0.3,0.4,0.5,0.7,0.5c0.1,0,0.1,0,0.2,0c0.4-0.1,0.6-0.5,0.5-0.8C13.3,28.2,13.5,26.3,13.6,24.9
		L13.6,24.9L13.6,24.9z M34.6,15.8V9c0-0.4-0.3-0.7-0.7-0.7h-6v-6c0-0.4-0.3-0.7-0.7-0.7h-6.7c-0.4,0-0.7,0.3-0.7,0.7v6h-6
		c-0.4,0-0.7,0.3-0.7,0.7v6.7c0,0.4,0.3,0.7,0.7,0.7h6v6.1c0,0.4,0.3,0.7,0.7,0.7h6.7c0.4,0,0.7-0.3,0.7-0.7v-6h6
		C34.3,16.5,34.6,16.2,34.6,15.8L34.6,15.8z M33.2,15.1h-6c-0.4,0-0.7,0.3-0.7,0.7v6.1h-5.3v-6c0-0.4-0.3-0.7-0.7-0.7h-6V9.9h6
		c0.4,0,0.7-0.3,0.7-0.7V3h5.3v6c0,0.4,0.3,0.7,0.7,0.7h6V15.1z"/>
</g>
</svg>
