<?xml version="1.0" encoding="utf-8"?>
<!-- Generator: Adobe Illustrator 26.4.1, SVG Export Plug-In . SVG Version: 6.00 Build 0)  -->
<svg version="1.1" id="Layer_1" xmlns="http://www.w3.org/2000/svg" xmlns:xlink="http://www.w3.org/1999/xlink" x="0px" y="0px"
	 viewBox="0 0 200 200" style="enable-background:new 0 0 200 200;" xml:space="preserve">
<style type="text/css">
	.st0{fill:#FFFFFF;}
</style>
<path class="st0" d="M34.5,61.1c-6.2,9.1-16.9,31.1-1,59.4c13.9,25,3.4,42.6,2.9,43.3c-0.4,0.7-0.4,1.5,0,2.2
	c0.4,0.7,1.1,1.1,1.9,1.1c0.8,0,17.7-0.8,27.2-30.1c5.3,6.9,8.8,14,6.1,28.2l0,0c-0.3,1.2,0.4,2.3,1.6,2.6l68.7,22
	c0.2,0,0.4,0,0.7,0c0.6,0,1.2-0.3,1.6-0.7c0.6-0.6,0.7-1.5,0.4-2.3c-6.7-16.5-5.4-24.5-3.1-28.3h0c1.3-2.2,3.5-3.7,6-4.1
	c0.3,0,0.7-0.1,0.9-0.3l14.8,6.9c0.3,0.1,0.6,0.2,0.9,0.2c0.5,0,0.9-0.1,1.3-0.4c0.6-0.5,1-1.2,0.9-2l-1.9-16l15.6-34
	c0.3-0.6,0.3-1.2,0-1.8l-17.9-40.5c-0.5-1-1.7-1.5-2.7-1.1l-5.7,2.2l0,0c-1.8-2.2-3.8-4.3-6-6.3c3.3-4.7,5-10.3,4.8-16.1
	c-0.2-7.9-2.6-15.6-6.9-22.2c-4.7-7.9-13.2-12.8-22.4-12.9c-4,0.1-7.9,0.4-11.8,0.9c-5.6,0.7-10.1,1.2-13.2-0.7h0
	c-0.7-0.5-1.7-0.5-2.4,0c-0.7,0.5-1.1,1.4-0.9,2.3c0.6,2.5,1.5,5,2.8,7.2c-13.2-3.2-37.8-7-49.1,5.9c-3.1,3.5-5.7,6.6-8.1,9.6
	c-9,10.8-13.2,15.6-17.4,13.7c-0.9-0.4-1.9-0.1-2.5,0.6c-0.6,0.7-0.7,1.8-0.2,2.6C22.5,55.6,27.8,60.8,34.5,61.1L34.5,61.1z
	 M43.8,38.1c2.3-2.8,5-6,8-9.5c12.9-14.8,49.5-3.3,52.7-2.2h0.3c1.2,0.4,2.4-0.2,2.8-1.4c0.4-1.2-0.2-2.4-1.4-2.8h-0.3
	c-2.6-1.4-4.6-3.7-5.6-6.5c3.8,0.4,7.6,0.3,11.3-0.4c3.7-0.5,7.5-0.8,11.3-0.9c7.7,0.2,14.8,4.3,18.7,11c3.9,6,6,12.9,6.1,20
	c0.2,4.7-1.1,9.3-3.7,13.2c-12.5-10-28.1-15.6-44.1-15.7c-1,0-25.7,0.3-41.4,16.3c-8.4,8.5-12.5,19.8-12.4,33.7
	c0.3,21.7,8.4,31.4,15.6,40l0.3,0.4c-5.7,19.6-14.7,26.4-19.9,28.5c2.8-7.4,6.2-23.3-5-43.3c-19.3-34.5,2.9-57.8,3.9-58.8l0,0
	c0.7-0.7,0.8-1.9,0.3-2.7c-0.4-0.6-1.1-1-1.8-1c-0.3,0-0.6,0.1-0.8,0.2c-2,0.7-4.1,0.9-6.2,0.4c-2.1-0.5-3.9-1.5-5.4-3
	C32.2,52,37,46.2,43.8,38.1L43.8,38.1z M101.5,127.3c3.7-1.5,6.9-4.1,9.2-7.5l49.4,24.2l1.5,11.5L101.5,127.3z M78.1,108.5
	c0-4.2,1.7-8.2,4.7-11.2c3-3,7-4.7,11.2-4.7c4.2,0,8.2,1.7,11.2,4.7s4.7,7,4.7,11.2c0,4.2-1.7,8.2-4.7,11.2c-3,3-7,4.7-11.2,4.7
	c-4.2,0-8.2-1.7-11.2-4.7C79.8,116.8,78.1,112.7,78.1,108.5L78.1,108.5z M161.1,139.6l-48.3-23.6v0c1.7-4.4,1.9-9.2,0.4-13.6
	s-4.4-8.3-8.3-10.8l54.1-21.2l16.6,37.6L161.1,139.6z M99.2,89c-5.6-1.5-11.7-0.5-16.5,2.7c-4.9,3.2-8.1,8.4-8.9,14.2
	c-0.8,5.8,1,11.6,4.8,16c3.8,4.4,9.4,6.9,15.2,6.9h0.4l48.5,22.8c-2.1,1.1-3.8,2.7-5,4.7c-3.8,6.1-3.4,15.5,1.1,28l-62.6-20
	c2.8-17.9-3.9-25.9-11-34.4c-7-8.5-14.3-17-14.6-37.2c-0.1-12.6,3.6-22.9,11-30.5c14.4-14.6,38.1-15,38.5-15
	c9.3-0.1,18.5,1.9,27,5.7c8.5,3.8,16.1,9.4,22.2,16.4L99.2,89z"/>
</svg>
