<?xml version="1.0" encoding="utf-8"?>
<!-- Generator: Adobe Illustrator 26.4.1, SVG Export Plug-In . SVG Version: 6.00 Build 0)  -->
<svg version="1.1" id="Layer_1" xmlns="http://www.w3.org/2000/svg" xmlns:xlink="http://www.w3.org/1999/xlink" x="0px" y="0px"
	 viewBox="0 0 200 200" style="enable-background:new 0 0 200 200;" xml:space="preserve">
<style type="text/css">
	.st0{fill:#FFFFFF;}
</style>
<path class="st0" d="M151.2,109.2c0-33.1-11.3-59.9-26.9-66.3l0-14.4h11.5c5.1,0,9.3-4.2,9.3-9.3S141,10,135.9,10H64.1
	c-5.1,0-9.3,4.2-9.3,9.3s4.2,9.3,9.3,9.3h11.5v14.4c-15.5,6.3-26.9,33.2-26.9,66.3c0,27.5,16.9,51.8,33.4,62.2h-8.9
	c-5.1,0-9.3,4.2-9.3,9.3c0,5.1,4.2,9.3,9.3,9.3h53.4c5.1,0,9.3-4.2,9.3-9.3c0-5.1-4.2-9.3-9.3-9.3h-8.9
	C134.3,161,151.2,136.7,151.2,109.2L151.2,109.2z M130.4,180.7c0,2-1.6,3.7-3.7,3.7H73.3c-2,0-3.7-1.6-3.7-3.7c0-2,1.6-3.7,3.7-3.7
	h53.4C128.7,177.1,130.4,178.7,130.4,180.7L130.4,180.7z M59,133.5H141c-1.1,2.9-2.4,5.6-3.8,8.2H62.8
	C61.4,139.1,60.1,136.3,59,133.5L59,133.5z M56.4,87.5l21.8-16.6l19.3,16.5c1.1,0.9,2.6,0.9,3.7,0l19.4-16.6l23.1,15.6
	c0.8,4.4,1.4,9.1,1.8,13.9l-23.5-15.8c-1.1-0.7-2.4-0.6-3.4,0.2L99.3,101L80.1,84.6c-1-0.9-2.5-0.9-3.5-0.1l-21.9,16.7
	c0.3-4.7,0.8-9.3,1.6-13.7C56.3,87.5,56.3,87.5,56.4,87.5L56.4,87.5z M54.4,107.5c0.1,0,0.2,0.1,0.3,0.1c0.6,0,1.2-0.2,1.7-0.6
	l21.8-16.6l19.3,16.5c1.1,0.9,2.6,0.9,3.7,0l19.4-16.6l23.3,15.7c0.6,0.4,1.2,0.5,1.8,0.4c0,0.9,0,1.9,0,2.8c0,6.5-1,12.8-2.7,18.6
	H57.1c-1.7-5.8-2.7-12.1-2.7-18.6C54.4,108.6,54.4,108.1,54.4,107.5L54.4,107.5z M60.4,19.3c0-2,1.6-3.7,3.7-3.7h71.9
	c2,0,3.7,1.6,3.7,3.7c0,2-1.6,3.7-3.7,3.7H64.1C62.1,22.9,60.4,21.3,60.4,19.3L60.4,19.3z M81.2,41.5V28.6h37.5v12.9h-1.5l-34.6,0
	L81.2,41.5z M82.7,47.1h34.6c10.3,0,19.5,12.7,24.4,31.2l-19.9-13.4c-1.1-0.7-2.4-0.6-3.4,0.2L99.3,81.5L80.1,65.1
	c-1-0.9-2.5-0.9-3.5-0.1L58.1,79.1C63,60.2,72.3,47.1,82.7,47.1L82.7,47.1z M102.1,171.3h-4.1c-8.5,0-22-9.2-31.7-24h67.6
	C124.1,162,110.6,171.3,102.1,171.3L102.1,171.3z"/>
</svg>
