<?xml version="1.0" encoding="utf-8"?>
<!-- Generator: Adobe Illustrator 26.4.1, SVG Export Plug-In . SVG Version: 6.00 Build 0)  -->
<svg version="1.1" id="Layer_1" xmlns="http://www.w3.org/2000/svg" xmlns:xlink="http://www.w3.org/1999/xlink" x="0px" y="0px"
	 viewBox="0 0 200 200" style="enable-background:new 0 0 200 200;" xml:space="preserve">
<style type="text/css">
	.st0{fill:#FFFFFF;}
</style>
<path class="st0" d="M31.9,94.9h47v92.8c0,1.2,1,2.3,2.3,2.3h37.6c1.2,0,2.3-1,2.3-2.3V94.9h47c1.2,0,2.3-1,2.3-2.3V55
	c0-1.2-1-2.3-2.3-2.3h-47V12.3c0-1.2-1-2.3-2.3-2.3H81.2c-1.2,0-2.3,1-2.3,2.3v40.5h-47c-1.2,0-2.3,1-2.3,2.3v37.6
	C29.7,93.9,30.7,94.9,31.9,94.9L31.9,94.9z M34.2,57.3h47c1.2,0,2.3-1,2.3-2.3V14.5h33.1V55c0,1.2,1,2.3,2.3,2.3h47v33.1l-47,0
	c-1.2,0-2.3,1-2.3,2.3v92.8l-33.1,0V92.7c0-1.2-1-2.3-2.3-2.3l-47,0L34.2,57.3z"/>
<path class="st0" d="M97.7,167.3c0,1.2,1,2.3,2.3,2.3s2.3-1,2.3-2.3l0-90.6h48c1.2,0,2.3-1,2.3-2.3c0-1.2-1-2.3-2.3-2.3l-48,0V28
	c0-1.2-1-2.3-2.3-2.3c-1.2,0-2.3,1-2.3,2.3v44.1h-48c-1.2,0-2.3,1-2.3,2.3c0,1.2,1,2.3,2.3,2.3h48L97.7,167.3L97.7,167.3z"/>
</svg>
