<?xml version="1.0" encoding="utf-8"?>
<!-- Generator: Adobe Illustrator 26.3.1, SVG Export Plug-In . SVG Version: 6.00 Build 0)  -->
<svg version="1.1" id="Camada_1" xmlns="http://www.w3.org/2000/svg" xmlns:xlink="http://www.w3.org/1999/xlink" x="0px" y="0px"
	 viewBox="0 0 16 16" style="enable-background:new 0 0 16 16;" xml:space="preserve">
<style type="text/css">
	.st0{fill:#BE7D7B;}
	.st1{fill-rule:evenodd;clip-rule:evenodd;fill:#BE7D7B;}
</style>
<g>
	<path class="st0" d="M14.03,35.32c0.01-0.01,1.06-0.57,0.75-2.03c-0.01-0.05-0.04-0.09-0.08-0.12s-0.1-0.04-0.15-0.03
		c-0.05,0.01-0.09,0.04-0.12,0.08s-0.04,0.1-0.03,0.15c0.25,1.17-0.51,1.59-0.55,1.61l-2.14,1.21c-0.89,0.5-1.86-0.1-1.87-0.11
		c-0.04-0.02-3.6-2.17-4.32-3.01c-0.4-0.45-0.32-1.29-0.19-1.91c0.13,0.15,0.28,0.28,0.46,0.38c1.14,0.71,3.8,2.43,3.82,2.44l0,0
		c0.4,0.26,0.86,0.4,1.34,0.41c0.34,0,0.68-0.08,0.99-0.24c0.78-0.41,1.53-0.87,2.25-1.37c0.07-0.04,0.41-0.26,0.41-0.65
		c0-0.39-0.34-0.78-1.04-1.17c0.23-0.34,0.27-0.78,0.1-1.16c-0.17-0.38-0.53-0.64-0.94-0.69c-0.06-0.37-0.27-0.7-0.57-0.92
		c-0.31-0.23-0.69-0.31-1.06-0.25c-0.36,0.07-0.69,0.28-0.9,0.59c-0.22,0.31-0.3,0.69-0.23,1.05c0.07,0.37,0.29,0.69,0.6,0.9
		c0.31,0.21,0.69,0.28,1.06,0.21c0.04-0.01,0.08-0.02,0.11-0.03c0.01,0,0.02-0.01,0.04-0.01c0.03-0.01,0.05-0.02,0.07-0.03
		c0.01-0.01,0.03-0.01,0.04-0.02c0.02-0.01,0.04-0.02,0.06-0.03c0.01-0.01,0.03-0.01,0.04-0.02c0.02-0.01,0.04-0.02,0.06-0.03
		c0.02-0.01,0.04-0.01,0.05-0.02c0.02-0.01,0.04-0.02,0.05-0.04c0.01-0.01,0.03-0.02,0.04-0.03c0.02-0.01,0.03-0.03,0.05-0.04
		c0.01-0.01,0.02-0.02,0.04-0.03c0.02-0.01,0.03-0.03,0.05-0.05c0.01-0.01,0.02-0.02,0.03-0.03c0.02-0.02,0.03-0.03,0.04-0.05
		c0.01-0.01,0.02-0.02,0.03-0.04c0.01-0.02,0.03-0.04,0.04-0.06c0.01-0.01,0.02-0.02,0.02-0.03c0.02-0.02,0.03-0.05,0.05-0.07
		c0-0.01,0.01-0.02,0.01-0.02c0.02-0.03,0.04-0.07,0.05-0.1c0-0.01,0.01-0.02,0.01-0.03c0.01-0.03,0.02-0.05,0.03-0.08
		c0-0.01,0.01-0.03,0.01-0.04c0.01-0.02,0.02-0.05,0.02-0.07c0-0.01,0.01-0.03,0.01-0.05c0.01-0.02,0.01-0.04,0.01-0.07
		c0-0.02,0.01-0.03,0.01-0.05c0-0.01,0.01-0.03,0.01-0.04l0,0c0.18,0.04,0.35,0.14,0.46,0.28c0.12,0.14,0.18,0.33,0.18,0.51
		s-0.06,0.35-0.16,0.49c-0.11-0.06-0.23-0.11-0.34-0.16c-0.05-0.02-0.1-0.02-0.15-0.01c-0.05,0.02-0.09,0.06-0.11,0.1
		c-0.02,0.05-0.02,0.1,0,0.15c0.02,0.05,0.06,0.09,0.11,0.11c0.15,0.07,0.3,0.14,0.45,0.22c0.93,0.48,1.04,0.82,1.04,0.94
		c0,0.19-0.22,0.31-0.22,0.32c-0.01,0-0.01,0.01-0.02,0.01c-0.71,0.49-1.45,0.94-2.21,1.35c-0.98,0.51-1.88-0.11-1.93-0.14
		c0-0.01-2.66-1.72-3.81-2.44c-0.25-0.16-0.54-0.4-0.5-0.67c0.03-0.07,0.05-0.12,0.05-0.14c0.05-0.09,0.11-0.16,0.19-0.23l1.4-0.83
		c0.14-0.09,0.27-0.16,0.4-0.23c1.11-0.55,1.72-0.27,1.72-0.27c0.05,0.02,0.1,0.03,0.15,0.01s0.09-0.05,0.12-0.1
		c0.02-0.04,0.02-0.09,0.01-0.14c-0.02-0.05-0.05-0.09-0.1-0.11c-0.03-0.02-0.69-0.34-1.85,0.17l0,0c-0.11-0.36-0.38-0.64-0.72-0.77
		c-0.35-0.13-0.73-0.1-1.05,0.08c-0.32,0.18-0.54,0.5-0.6,0.87c-0.06,0.36,0.05,0.73,0.29,1.01c-0.13,0.1-0.24,0.23-0.31,0.37
		c0,0.01,0,0.01-0.01,0.02l0,0l0,0c-0.02,0.06-0.04,0.12-0.06,0.18c-0.17,0.54-0.58,2.1,0.1,2.89c0.76,0.89,4.27,3,4.41,3.09l0,0
		c0.39,0.24,0.84,0.36,1.3,0.37c0.34,0,0.67-0.09,0.97-0.25L14.03,35.32z M10.32,29.32c0-0.36,0.19-0.7,0.5-0.88s0.7-0.19,1.01-0.01
		c0.32,0.18,0.51,0.51,0.52,0.87v0.02c0,0.06-0.01,0.12-0.02,0.18c-0.06,0.34-0.28,0.62-0.6,0.75c-0.31,0.13-0.67,0.1-0.96-0.08
		C10.5,29.98,10.32,29.66,10.32,29.32L10.32,29.32z M6.42,28.2c0.19,0,0.37,0.06,0.52,0.18c0.15,0.11,0.25,0.28,0.3,0.46
		c-0.03,0.01-0.05,0.02-0.07,0.03c-0.01,0.01-0.03,0.02-0.05,0.03c-0.06,0.03-0.13,0.07-0.19,0.11l-1.09,0.65
		c-0.16-0.16-0.26-0.37-0.26-0.6c-0.01-0.22,0.08-0.44,0.24-0.6C5.97,28.29,6.19,28.2,6.42,28.2L6.42,28.2z"/>
	<path class="st0" d="M8.38,26.44c0,0.27,0.11,0.54,0.3,0.73c0.19,0.19,0.46,0.3,0.73,0.3c0.27,0,0.54-0.11,0.73-0.3
		c0.19-0.19,0.3-0.46,0.3-0.73s-0.11-0.54-0.3-0.73s-0.45-0.3-0.72-0.3c-0.27,0-0.54,0.11-0.73,0.3C8.49,25.9,8.38,26.17,8.38,26.44
		z M10.06,26.44c0,0.17-0.07,0.34-0.19,0.46c-0.12,0.12-0.28,0.19-0.45,0.19s-0.34-0.07-0.46-0.19c-0.12-0.12-0.19-0.29-0.19-0.46
		s0.07-0.33,0.19-0.46c0.12-0.13,0.28-0.18,0.46-0.18c0.17,0,0.34,0.07,0.46,0.19C9.99,26.11,10.06,26.27,10.06,26.44L10.06,26.44z"
		/>
	<path class="st0" d="M11.5,26.44c0,0.12,0.07,0.23,0.19,0.28c0.11,0.05,0.24,0.02,0.33-0.07c0.09-0.09,0.11-0.22,0.07-0.33
		c-0.05-0.11-0.16-0.19-0.28-0.19c-0.08,0-0.16,0.03-0.21,0.09C11.53,26.29,11.5,26.36,11.5,26.44L11.5,26.44z"/>
	<path class="st0" d="M8.57,30.45c0,0.12,0.07,0.23,0.19,0.28c0.11,0.05,0.24,0.02,0.33-0.07s0.11-0.22,0.07-0.33
		C9.11,30.22,9,30.15,8.88,30.15c-0.08,0-0.16,0.03-0.21,0.09C8.61,30.29,8.57,30.37,8.57,30.45L8.57,30.45z"/>
</g>
<rect x="2.41" y="31.13" transform="matrix(0.7395 -0.6731 0.6731 0.7395 -18.6441 14.8313)" class="st0" width="14.87" height="0.75"/>
<g>
	<path class="st1" d="M11.72,5.98c0,0.12-0.05,0.24-0.14,0.33c-0.09,0.09-0.21,0.14-0.33,0.14h-6.5c-0.17,0-0.32-0.09-0.4-0.24
		c-0.08-0.14-0.08-0.32,0-0.46c0.08-0.14,0.23-0.23,0.4-0.24h6.5c0.12,0,0.24,0.05,0.33,0.14C11.67,5.74,11.72,5.85,11.72,5.98
		L11.72,5.98z M11.72,8c0,0.12-0.05,0.24-0.14,0.33c-0.09,0.09-0.21,0.14-0.33,0.14h-6.5c-0.17,0-0.32-0.09-0.41-0.23
		c-0.08-0.14-0.08-0.32,0-0.47c0.08-0.14,0.24-0.23,0.41-0.23h6.5c0.12,0,0.24,0.05,0.33,0.14C11.67,7.76,11.72,7.88,11.72,8
		L11.72,8z M11.72,10.02c0,0.12-0.05,0.24-0.14,0.33c-0.09,0.09-0.21,0.14-0.33,0.14h-6.5c-0.17,0-0.32-0.09-0.41-0.23
		c-0.08-0.15-0.08-0.32,0-0.47c0.08-0.15,0.24-0.23,0.41-0.23h6.5c0.12,0,0.24,0.05,0.33,0.14C11.67,9.78,11.72,9.9,11.72,10.02
		L11.72,10.02z M11.72,12.04c0,0.12-0.05,0.24-0.14,0.33c-0.09,0.09-0.21,0.14-0.33,0.14h-6.5c-0.17,0-0.32-0.09-0.41-0.23
		c-0.08-0.14-0.08-0.32,0-0.47c0.08-0.14,0.24-0.23,0.41-0.23h6.5c0.12,0,0.24,0.05,0.33,0.14C11.67,11.8,11.72,11.92,11.72,12.04
		L11.72,12.04z M12.95,14.56c0.14,0,0.26-0.12,0.26-0.26V5.45H10.4c-0.29,0-0.56-0.1-0.78-0.29C9.4,4.97,9.26,4.71,9.21,4.43H4.75
		c-0.17,0-0.32-0.09-0.41-0.23c-0.08-0.14-0.08-0.32,0-0.47c0.08-0.14,0.24-0.23,0.41-0.23H9.2V1.44H3.06
		c-0.15,0-0.26,0.12-0.26,0.26v12.6c0,0.15,0.12,0.26,0.26,0.26L12.95,14.56z M10.14,2.12l2.44,2.39H10.4
		c-0.15,0-0.26-0.12-0.26-0.26V2.12z M9.33,0.5H3.06c-0.32,0-0.62,0.13-0.85,0.35C1.98,1.08,1.86,1.38,1.85,1.7v12.6
		c0,0.32,0.13,0.62,0.35,0.85c0.23,0.22,0.53,0.35,0.85,0.35h9.89c0.32,0,0.62-0.13,0.85-0.35c0.23-0.22,0.35-0.53,0.35-0.85V5.24
		c0-0.32-0.13-0.63-0.36-0.86l-3.61-3.54C9.95,0.62,9.65,0.5,9.33,0.5L9.33,0.5z"/>
</g>
</svg>
