<?xml version="1.0" encoding="utf-8"?>
<!-- Generator: Adobe Illustrator 26.3.1, SVG Export Plug-In . SVG Version: 6.00 Build 0)  -->
<svg version="1.1" id="Camada_1" xmlns="http://www.w3.org/2000/svg" xmlns:xlink="http://www.w3.org/1999/xlink" x="0px" y="0px"
	 viewBox="0 0 16 16" style="enable-background:new 0 0 16 16;" xml:space="preserve">
<style type="text/css">
	.st0{fill:#BE7D7B;}
</style>
<g>
	<path class="st0" d="M11.75,3.58H4.23c-0.36,0-0.65,0.29-0.65,0.65v5.36l0.23,0.06c0.11,0.03,1.95,0.53,4.36,0.53
		c1.24,0,2.64-0.13,4.02-0.53l0.22-0.06V4.23C12.41,3.87,12.11,3.58,11.75,3.58L11.75,3.58z M11.79,9.12C8.48,10,5.09,9.32,4.2,9.12
		V4.23c0-0.02,0.02-0.04,0.04-0.04h7.52c0.02,0,0.04,0.02,0.04,0.04L11.79,9.12L11.79,9.12z"/>
	<path class="st0" d="M6.32,3.03h3.32c0.17,0,0.31-0.14,0.31-0.31c0-0.17-0.14-0.31-0.31-0.31H6.32c-0.17,0-0.31,0.14-0.31,0.31
		C6.01,2.89,6.15,3.03,6.32,3.03z"/>
	<path class="st0" d="M6.28,11.7l-2.12-1.27c-0.12-0.07-0.26-0.07-0.38,0c-0.12,0.07-0.2,0.2-0.2,0.34v1.27
		c0,0.22,0.17,0.39,0.39,0.39h2.12c0.17,0,0.32-0.12,0.37-0.29C6.51,11.97,6.43,11.79,6.28,11.7L6.28,11.7z M4.2,11.82v-0.65
		l1.08,0.65H4.2z"/>
	<path class="st0" d="M12.21,10.43c-0.12-0.07-0.26-0.07-0.38,0L9.7,11.7c-0.15,0.09-0.22,0.27-0.18,0.45
		c0.05,0.17,0.2,0.29,0.37,0.29h2.12c0.21,0,0.39-0.18,0.39-0.39v-1.27C12.41,10.63,12.33,10.5,12.21,10.43L12.21,10.43z
		 M11.79,11.82h-1.08l1.08-0.65V11.82z"/>
	<path class="st0" d="M14.85,3.98h-1.3V2.24l-0.19-0.08c-5.5-2.31-10.67-0.02-10.72,0L2.46,2.25v1.73h-1.3
		c-0.36,0-0.65,0.29-0.65,0.65v1.9c0,0.36,0.29,0.65,0.65,0.65h0.29c0.36,0,0.65-0.29,0.65-0.65V5.58c0-0.02,0.02-0.04,0.04-0.04
		h0.33l0,6.9c0,0.28,0.19,0.52,0.46,0.59c0.15,0.04,0.34,0.09,0.58,0.14v1.04c0,0.36,0.29,0.65,0.65,0.65H5.3
		c0.36,0,0.65-0.29,0.65-0.65v-0.66c0.61,0.06,1.3,0.09,2.03,0.09c0.65,0,1.35-0.03,2.07-0.1v0.67c0,0.36,0.29,0.65,0.65,0.65h1.15
		c0.36,0,0.65-0.29,0.65-0.65v-1.05c0.19-0.04,0.38-0.08,0.57-0.13c0.28-0.07,0.47-0.31,0.47-0.6l0-6.89h0.33
		c0.02,0,0.04,0.02,0.04,0.04v0.95c0,0.36,0.29,0.65,0.65,0.65h0.29c0.36,0,0.65-0.29,0.65-0.65v-1.9
		C15.5,4.28,15.21,3.98,14.85,3.98L14.85,3.98z M2.13,4.93c-0.36,0-0.65,0.29-0.65,0.65v0.95c0,0.02-0.02,0.04-0.04,0.04H1.15
		c-0.02,0-0.04-0.02-0.04-0.04v-1.9c0-0.02,0.02-0.04,0.04-0.04h1.3v0.33L2.13,4.93L2.13,4.93z M5.33,14.21
		c0,0.02-0.02,0.04-0.04,0.04H4.14c-0.02,0-0.04-0.02-0.04-0.04V13.3c0.36,0.06,0.77,0.13,1.23,0.18L5.33,14.21L5.33,14.21z
		 M11.89,14.21c0,0.02-0.02,0.04-0.04,0.04H10.7c-0.02,0-0.04-0.02-0.04-0.04v-0.74c0.4-0.05,0.81-0.11,1.23-0.19L11.89,14.21
		L11.89,14.21z M12.93,12.44c-4.74,1.16-8.74,0.3-9.86,0.01l0-9.79c0.94-0.37,5.24-1.85,9.86,0L12.93,12.44l0.31,0L12.93,12.44
		L12.93,12.44z M14.88,6.53c0,0.02-0.02,0.04-0.04,0.04h-0.29c-0.02,0-0.04-0.02-0.04-0.04V5.58c0-0.36-0.29-0.65-0.65-0.65h-0.33
		V4.6h1.3c0.02,0,0.04,0.02,0.04,0.04L14.88,6.53L14.88,6.53z"/>
</g>
</svg>
