<?xml version="1.0" encoding="utf-8"?>
<!-- Generator: Adobe Illustrator 26.3.1, SVG Export Plug-In . SVG Version: 6.00 Build 0)  -->
<svg version="1.1" id="Camada_1" xmlns="http://www.w3.org/2000/svg" xmlns:xlink="http://www.w3.org/1999/xlink" x="0px" y="0px"
	 viewBox="0 0 16 16" style="enable-background:new 0 0 16 16;" xml:space="preserve">
<style type="text/css">
	.st0{fill:#BE7D7B;}
</style>
<g>
	<path class="st0" d="M14.91,3.2H1.1c-0.33,0-0.6,0.27-0.6,0.6v8.41c0,0.33,0.27,0.6,0.6,0.6h13.8c0.33,0,0.6-0.27,0.6-0.6V3.8
		C15.52,3.46,15.25,3.2,14.91,3.2L14.91,3.2z M14.65,11.94H1.37V4.06h13.28V11.94z"/>
	<path class="st0" d="M8.45,6.44h4.28c0.24,0,0.43-0.19,0.43-0.43c0-0.24-0.19-0.43-0.43-0.43l-4.28,0c-0.24,0-0.43,0.19-0.43,0.43
		C8.02,6.25,8.21,6.44,8.45,6.44L8.45,6.44z"/>
	<path class="st0" d="M8.45,8.43h4.28c0.24,0,0.43-0.19,0.43-0.43c0-0.24-0.19-0.43-0.43-0.43H8.45C8.21,7.57,8.02,7.76,8.02,8
		C8.02,8.24,8.21,8.43,8.45,8.43z"/>
	<path class="st0" d="M8.45,10.43h4.28c0.24,0,0.43-0.19,0.43-0.43c0-0.24-0.19-0.43-0.43-0.43l-4.28,0c-0.24,0-0.43,0.19-0.43,0.43
		C8.02,10.24,8.21,10.43,8.45,10.43L8.45,10.43z"/>
	<path class="st0" d="M3.44,10.85h2.88c0.44,0,0.76-0.41,0.66-0.84l-0.22-1C6.65,8.55,6.3,8.21,5.87,8.08
		C5.81,8.06,5.75,8.06,5.68,8.09C5.45,8.21,5.18,8.28,4.89,8.28S4.34,8.22,4.1,8.09C4.04,8.06,3.98,8.06,3.91,8.08
		C3.47,8.19,3.12,8.55,3.03,9.01l-0.22,1C2.68,10.43,3.01,10.85,3.44,10.85L3.44,10.85z"/>
	<path class="st0" d="M6.17,6.45c0,0.72-0.58,1.3-1.3,1.3c-0.72,0-1.3-0.58-1.3-1.3c0-0.72,0.58-1.3,1.3-1.3
		C5.59,5.16,6.17,5.74,6.17,6.45"/>
</g>
</svg>
