<?xml version="1.0" encoding="utf-8"?>
<!-- Generator: Adobe Illustrator 26.3.1, SVG Export Plug-In . SVG Version: 6.00 Build 0)  -->
<svg version="1.1" id="Camada_1" xmlns="http://www.w3.org/2000/svg" xmlns:xlink="http://www.w3.org/1999/xlink" x="0px" y="0px"
	 viewBox="0 0 16 16" style="enable-background:new 0 0 16 16;" xml:space="preserve">
<style type="text/css">
	.st0{fill:#BE7D7B;}
</style>
<g>
	<path class="st0" d="M12.1,8c0-1.09-0.43-2.13-1.2-2.9C10.13,4.33,9.09,3.9,8,3.9S5.87,4.33,5.1,5.1C4.33,5.87,3.9,6.91,3.9,8
		s0.43,2.13,1.2,2.9c0.77,0.77,1.81,1.2,2.9,1.2s2.13-0.43,2.9-1.2C11.67,10.13,12.1,9.09,12.1,8z M9.5,7.95
		C9.38,8.1,9.24,8.24,9.09,8.35c0.31,0.01,0.6,0.14,0.81,0.36c0.21,0.22,0.33,0.51,0.33,0.82v1.33c-0.64,0.5-1.42,0.77-2.23,0.77
		s-1.59-0.27-2.23-0.77V9.53c0-0.31,0.12-0.6,0.33-0.82c0.21-0.22,0.5-0.35,0.81-0.36C6.76,8.24,6.62,8.1,6.5,7.95
		c-0.34,0.1-0.65,0.31-0.86,0.59C5.42,8.83,5.3,9.17,5.3,9.53v0.9v0c-0.63-0.7-0.97-1.62-0.94-2.56C4.4,6.93,4.8,6.04,5.47,5.39
		C6.15,4.73,7.06,4.36,8,4.36s1.85,0.37,2.53,1.02c0.68,0.65,1.07,1.55,1.11,2.49c0.03,0.94-0.3,1.86-0.94,2.56v-0.9
		c0-0.36-0.12-0.71-0.33-0.99S9.84,8.05,9.5,7.95L9.5,7.95z"/>
	<path class="st0" d="M1.2,1.91c0.19,0,0.37-0.07,0.5-0.21s0.21-0.31,0.21-0.5S1.83,0.84,1.7,0.71S1.39,0.5,1.2,0.5
		s-0.37,0.07-0.5,0.21S0.5,1.02,0.5,1.2s0.07,0.37,0.21,0.5S1.02,1.91,1.2,1.91z M1.2,0.97c0.09,0,0.18,0.06,0.22,0.14
		C1.46,1.2,1.44,1.3,1.37,1.37C1.3,1.44,1.2,1.46,1.11,1.42C1.03,1.38,0.97,1.3,0.97,1.2C0.97,1.07,1.07,0.97,1.2,0.97z"/>
	<path class="st0" d="M14.8,0.5c-0.19,0-0.37,0.07-0.5,0.21s-0.21,0.31-0.21,0.5s0.07,0.37,0.21,0.5s0.31,0.21,0.5,0.21
		s0.37-0.07,0.5-0.21s0.21-0.31,0.21-0.5s-0.07-0.37-0.21-0.5S14.98,0.5,14.8,0.5z M14.8,1.44c-0.09,0-0.18-0.06-0.22-0.14
		c-0.04-0.09-0.02-0.19,0.05-0.26c0.07-0.07,0.17-0.09,0.26-0.05c0.09,0.04,0.14,0.12,0.14,0.22c0,0.06-0.02,0.12-0.07,0.17
		C14.92,1.41,14.86,1.44,14.8,1.44z"/>
	<path class="st0" d="M14.8,14.09c-0.19,0-0.37,0.07-0.5,0.21c-0.13,0.13-0.21,0.31-0.21,0.5s0.07,0.37,0.21,0.5s0.31,0.21,0.5,0.21
		s0.37-0.07,0.5-0.21s0.21-0.31,0.21-0.5s-0.07-0.37-0.21-0.5S14.98,14.09,14.8,14.09z M14.8,15.03c-0.09,0-0.18-0.06-0.22-0.14
		c-0.04-0.09-0.02-0.19,0.05-0.26c0.07-0.07,0.17-0.09,0.26-0.05c0.09,0.04,0.14,0.12,0.14,0.22c0,0.06-0.02,0.12-0.07,0.17
		S14.86,15.03,14.8,15.03z"/>
	<path class="st0" d="M1.2,15.5c0.19,0,0.37-0.07,0.5-0.21s0.21-0.31,0.21-0.5s-0.07-0.37-0.21-0.5s-0.31-0.21-0.5-0.21
		s-0.37,0.07-0.5,0.21c-0.13,0.13-0.21,0.31-0.21,0.5s0.07,0.37,0.21,0.5S1.02,15.5,1.2,15.5z M1.2,14.56
		c0.09,0,0.18,0.06,0.22,0.14c0.04,0.09,0.02,0.19-0.05,0.26c-0.07,0.07-0.17,0.09-0.26,0.05c-0.09-0.04-0.14-0.12-0.14-0.22
		C0.97,14.67,1.07,14.56,1.2,14.56z"/>
	<path class="st0" d="M8,5.42c-0.37,0-0.73,0.15-0.99,0.41C6.74,6.1,6.59,6.46,6.59,6.83s0.15,0.73,0.41,0.99
		C7.27,8.09,7.63,8.23,8,8.23c0.37,0,0.73-0.15,0.99-0.41C9.26,7.56,9.41,7.2,9.41,6.83S9.26,6.1,8.99,5.83
		C8.73,5.57,8.37,5.42,8,5.42z M8,7.77c-0.25,0-0.49-0.1-0.66-0.27C7.16,7.32,7.06,7.08,7.06,6.83s0.1-0.49,0.27-0.66
		C7.51,5.99,7.75,5.89,8,5.89c0.25,0,0.49,0.1,0.66,0.27c0.18,0.18,0.27,0.41,0.27,0.66s-0.1,0.49-0.27,0.66
		C8.49,7.67,8.25,7.77,8,7.77z"/>
	<path class="st0" d="M8.23,0.73c0,0.13-0.1,0.23-0.23,0.23c-0.13,0-0.23-0.1-0.23-0.23S7.87,0.5,8,0.5C8.13,0.5,8.23,0.6,8.23,0.73
		"/>
	<path class="st0" d="M15.5,8c0,0.13-0.1,0.23-0.23,0.23S15.03,8.13,15.03,8c0-0.13,0.1-0.23,0.23-0.23S15.5,7.87,15.5,8"/>
	<path class="st0" d="M14.56,8c0-0.06-0.02-0.12-0.07-0.17s-0.1-0.07-0.17-0.07h-0.9c0.09-0.09,0.1-0.23,0.01-0.32
		c-0.08-0.09-0.23-0.11-0.32-0.03l-0.47,0.41C12.6,7.87,12.57,7.93,12.57,8c0,0.07,0.03,0.13,0.08,0.18l0.47,0.41
		c0.1,0.08,0.24,0.07,0.32-0.03c0.08-0.09,0.08-0.24-0.01-0.32h0.9c0.06,0,0.12-0.02,0.17-0.07S14.56,8.06,14.56,8L14.56,8z"/>
	<path class="st0" d="M0.97,8c0,0.13-0.1,0.23-0.23,0.23S0.5,8.13,0.5,8c0-0.13,0.1-0.23,0.23-0.23S0.97,7.87,0.97,8"/>
	<path class="st0" d="M13.3,12.97c0.09,0.09,0.09,0.24,0,0.33c-0.09,0.09-0.24,0.09-0.33,0c-0.09-0.09-0.09-0.24,0-0.33
		C13.06,12.88,13.21,12.88,13.3,12.97"/>
	<path class="st0" d="M12.31,12.64c0.09,0.09,0.24,0.09,0.33,0s0.09-0.24,0-0.33L12,11.67v0c0.13,0.01,0.24-0.09,0.25-0.22
		c0.01-0.13-0.09-0.24-0.22-0.25l-0.62-0.04c-0.07,0-0.13,0.02-0.18,0.07c-0.05,0.05-0.07,0.11-0.07,0.18l0.04,0.62
		c0.01,0.12,0.11,0.22,0.23,0.22h0.02c0.13-0.01,0.23-0.12,0.22-0.25L12.31,12.64z"/>
	<path class="st0" d="M3.03,2.7c0.09,0.09,0.09,0.24,0,0.33c-0.09,0.09-0.24,0.09-0.33,0c-0.09-0.09-0.09-0.24,0-0.33
		C2.79,2.6,2.94,2.6,3.03,2.7"/>
	<path class="st0" d="M3.75,4.55C3.74,4.67,3.84,4.79,3.97,4.79l0.62,0.04H4.6c0.06,0,0.13-0.03,0.17-0.07
		c0.04-0.05,0.07-0.11,0.06-0.18L4.79,3.97C4.79,3.84,4.67,3.74,4.55,3.75C4.42,3.75,4.32,3.87,4.33,4L3.69,3.36
		c-0.09-0.09-0.24-0.09-0.33,0c-0.09,0.09-0.09,0.24,0,0.33L4,4.33v0C3.87,4.32,3.76,4.42,3.75,4.55L3.75,4.55z"/>
	<path class="st0" d="M3.03,12.97c0.09,0.09,0.09,0.24,0,0.33c-0.09,0.09-0.24,0.09-0.33,0c-0.09-0.09-0.09-0.24,0-0.33
		C2.79,12.88,2.94,12.88,3.03,12.97"/>
	<path class="st0" d="M13.3,2.7c0.09,0.09,0.09,0.24,0,0.33c-0.09,0.09-0.24,0.09-0.33,0c-0.09-0.09-0.09-0.24,0-0.33
		C13.06,2.6,13.21,2.6,13.3,2.7"/>
	<path class="st0" d="M7.77,2.57c-0.09-0.09-0.23-0.1-0.32-0.01C7.35,2.64,7.34,2.78,7.41,2.88l0.41,0.47C7.87,3.4,7.93,3.43,8,3.43
		c0.07,0,0.13-0.03,0.18-0.08l0.41-0.47c0.08-0.1,0.07-0.24-0.03-0.32C8.46,2.48,8.32,2.48,8.23,2.57v-0.9
		c0-0.13-0.1-0.23-0.23-0.23c-0.13,0-0.23,0.1-0.23,0.23L7.77,2.57z"/>
	<path class="st0" d="M12.64,3.69c0.09-0.09,0.09-0.24,0-0.33c-0.09-0.09-0.24-0.09-0.33,0L11.67,4h0c0.01-0.13-0.09-0.24-0.22-0.25
		c-0.13-0.01-0.24,0.09-0.25,0.22l-0.04,0.62c0,0.06,0.02,0.13,0.06,0.17c0.04,0.05,0.11,0.07,0.17,0.07h0.02l0.62-0.04
		c0.13-0.01,0.23-0.12,0.22-0.25C12.24,4.42,12.13,4.32,12,4.33L12.64,3.69z"/>
	<path class="st0" d="M8.18,12.65C8.13,12.6,8.07,12.57,8,12.57c-0.07,0-0.13,0.03-0.18,0.08l-0.41,0.47
		c-0.08,0.1-0.07,0.24,0.03,0.32c0.09,0.08,0.24,0.08,0.32-0.01v0.9c0,0.13,0.1,0.23,0.23,0.23c0.13,0,0.23-0.1,0.23-0.23v-0.9
		c0.09,0.09,0.23,0.1,0.32,0.01c0.09-0.08,0.11-0.23,0.03-0.32L8.18,12.65z"/>
	<path class="st0" d="M3.53,12.71c0.06,0,0.12-0.03,0.17-0.07L4.33,12h0c-0.01,0.13,0.09,0.24,0.22,0.25h0.02
		c0.12,0,0.23-0.1,0.23-0.22l0.04-0.62c0-0.07-0.02-0.13-0.07-0.18c-0.05-0.05-0.11-0.07-0.18-0.07l-0.62,0.04
		c-0.13,0.01-0.23,0.12-0.22,0.25c0.01,0.13,0.12,0.23,0.25,0.22l-0.64,0.64c-0.07,0.07-0.09,0.17-0.05,0.25
		C3.35,12.65,3.43,12.71,3.53,12.71L3.53,12.71z"/>
	<path class="st0" d="M3.43,8c0-0.07-0.03-0.13-0.08-0.18L2.88,7.41c-0.1-0.08-0.24-0.07-0.32,0.03C2.48,7.53,2.48,7.68,2.57,7.76
		h-0.9c-0.13,0-0.23,0.1-0.23,0.23c0,0.13,0.1,0.23,0.23,0.23h0.9c-0.09,0.09-0.1,0.23-0.01,0.32c0.08,0.09,0.23,0.11,0.32,0.03
		l0.47-0.41C3.4,8.13,3.43,8.07,3.43,8L3.43,8z"/>
</g>
</svg>
