<?xml version="1.0" encoding="utf-8"?>
<!-- Generator: Adobe Illustrator 26.3.1, SVG Export Plug-In . SVG Version: 6.00 Build 0)  -->
<svg version="1.1" id="Camada_1" xmlns="http://www.w3.org/2000/svg" xmlns:xlink="http://www.w3.org/1999/xlink" x="0px" y="0px"
	 viewBox="0 0 16 16" style="enable-background:new 0 0 16 16;" xml:space="preserve">
<style type="text/css">
	.st0{fill:#BE7D7B;}
</style>
<g>
	<path class="st0" d="M12.22,15.5H3.78c-0.78,0-1.41-0.63-1.41-1.41V1.91c0-0.78,0.63-1.41,1.41-1.41h8.44
		c0.78,0,1.41,0.63,1.41,1.41v12.19C13.62,14.87,12.99,15.5,12.22,15.5z M3.78,1.44c-0.26,0-0.47,0.21-0.47,0.47v12.19
		c0,0.26,0.21,0.47,0.47,0.47h8.44c0.26,0,0.47-0.21,0.47-0.47V1.91c0-0.26-0.21-0.47-0.47-0.47H3.78z"/>
	<path class="st0" d="M8,8L8,8C7.86,8,7.73,7.94,7.64,7.84C7.6,7.81,7.48,7.75,7.21,7.64c-0.8-0.31-1.31-0.88-1.42-1.59
		C5.7,5.5,5.87,4.97,5.98,4.62c0.03-0.09,0.06-0.17,0.07-0.23c0,0-0.02-0.07-0.09-0.17C5.8,3.98,5.83,3.65,6.04,3.45l0.4-0.41
		c0.17-0.17,0.42-0.23,0.65-0.15c0.34,0.12,0.53-0.05,0.56-0.08c0.09-0.09,0.22-0.15,0.35-0.15c0.13,0,0.26,0.06,0.35,0.16
		c0.03,0.03,0.22,0.2,0.56,0.08c0.23-0.08,0.48-0.02,0.65,0.15l0.4,0.41c0.2,0.21,0.23,0.53,0.08,0.77C9.97,4.32,9.95,4.39,9.95,4.4
		c0.01,0.04,0.04,0.12,0.06,0.22c0.11,0.35,0.28,0.89,0.19,1.43c-0.12,0.71-0.62,1.28-1.42,1.59C8.52,7.75,8.4,7.81,8.36,7.84
		C8.27,7.94,8.14,8,8,8L8,8z M8.46,7.61C8.46,7.61,8.46,7.62,8.46,7.61C8.46,7.62,8.46,7.61,8.46,7.61z M6.87,3.93
		c0.08,0.18,0.14,0.4,0.1,0.62C6.96,4.64,6.92,4.76,6.88,4.9c-0.09,0.28-0.21,0.67-0.16,1c0.06,0.38,0.34,0.68,0.84,0.87
		C7.73,6.84,7.88,6.9,8,6.96c0.12-0.06,0.27-0.13,0.45-0.2C8.94,6.58,9.22,6.28,9.28,5.9c0.05-0.33-0.07-0.72-0.16-1
		C9.08,4.76,9.04,4.64,9.03,4.55c-0.04-0.22,0.02-0.44,0.1-0.62l-0.1-0.1C8.61,3.93,8.26,3.84,8,3.71C7.74,3.84,7.39,3.93,6.97,3.83
		L6.87,3.93L6.87,3.93z"/>
	<path class="st0" d="M11.28,9.88H4.72c-0.26,0-0.47-0.21-0.47-0.47s0.21-0.47,0.47-0.47h6.56c0.26,0,0.47,0.21,0.47,0.47
		S11.54,9.88,11.28,9.88z"/>
	<path class="st0" d="M11.28,11.75H4.72c-0.26,0-0.47-0.21-0.47-0.47s0.21-0.47,0.47-0.47h6.56c0.26,0,0.47,0.21,0.47,0.47
		S11.54,11.75,11.28,11.75z"/>
	<path class="st0" d="M11.28,13.62H4.72c-0.26,0-0.47-0.21-0.47-0.47s0.21-0.47,0.47-0.47h6.56c0.26,0,0.47,0.21,0.47,0.47
		S11.54,13.62,11.28,13.62z"/>
</g>
</svg>
