<?xml version="1.0" encoding="utf-8"?>
<!-- Generator: Adobe Illustrator 27.0.0, SVG Export Plug-In . SVG Version: 6.00 Build 0)  -->
<svg version="1.1" id="Layer_1" xmlns="http://www.w3.org/2000/svg" xmlns:xlink="http://www.w3.org/1999/xlink" x="0px" y="0px"
	 viewBox="0 0 1080 720" style="enable-background:new 0 0 1080 720;" xml:space="preserve">
<style type="text/css">
	.st0{fill:#EDF1F5;}
	.st1{display:none;fill:#4169E1;stroke:#FFFFFF;stroke-width:2.0494;stroke-linejoin:round;stroke-miterlimit:4.372;}
	.st2{display:none;fill:#4169E1;stroke:#FFFFFF;stroke-width:2.8537;stroke-linejoin:round;stroke-miterlimit:4.372;}
	.st3{fill:#4169E1;stroke:#EDF1F5;stroke-width:2.0494;stroke-linejoin:round;stroke-miterlimit:4.372;}
	.st4{fill:#329932;stroke:#EDF1F5;stroke-width:2.0494;stroke-linejoin:round;stroke-miterlimit:4.372;}
	.st5{fill:#F00000;stroke:#EDF1F5;stroke-width:2.0494;stroke-linejoin:round;stroke-miterlimit:4.372;}
	.st6{fill:#329932;stroke:#EDF1F5;stroke-width:2.8537;stroke-linejoin:round;stroke-miterlimit:4.372;}
	.st7{fill:#4169E1;stroke:#EDF1F5;stroke-width:2.8537;stroke-linejoin:round;stroke-miterlimit:4.372;}
	.st8{font-family:'Arial-BoldMT';}
	.st9{font-size:22.5863px;}
	.st10{fill:none;stroke:#73828E;stroke-miterlimit:10;}
	.st11{fill:none;stroke:#73828E;stroke-width:2;stroke-miterlimit:10;}
	.st12{fill:#4169E1;}
	.st13{fill:#73828E;}
	.st14{font-family:'NotoSans-SemiBold';}
	.st15{font-size:14px;}
	.st16{fill:none;}
	.st17{fill:#F00000;}
	.st18{fill:#329932;}
</style>
<rect x="-119.1" y="-10.6" class="st0" width="1315.9" height="744.5"/>
<path class="st1" d="M666.2,631.8c0,0,0,0,1.1,0l0,0l0,0C666.2,631.8,666.2,631.8,666.2,631.8z M667.3,632.8L667.3,632.8
	c0,0,0,0,0-1.1c0,0,0,0,1.1,0l0,0l0,0v1.1l0,0H667.3z M678.2,638.3c0-1.1-1.1-1.1-2.2-1.1l0,0v-1.1c-1.1,0-1.1,0-1.1,1.1
	c-1.1,0-1.1,0-1.1,0c-1.1,0-2.2-1.1-2.2-2.2l0,0h-1.1c0,0,0-1.1-1.1-1.1v-1.1l0,0c0-1.1,1.1-1.1,1.1-1.1c1.1,0,2.2,0,2.2-1.1
	c1.1,0,1.1,0,2.2,0c1.1,0,1.1,0,1.1,0c1.1,1.1,1.1,1.1,1.1,1.1s0,0,1.1,0l0,0c0,0,0,0,1.1,1.1c0,0,0,0,1.1,0s1.1,0,2.2,0
	c0,1.1,0,1.1,0,0c0,0,0,0,1.1,1.1l0,0l0,0h1.1c0,0,0,0,0,1.1c-1.1,0-1.1,0-1.1,0h1.1h1.1c1.1,1.1,1.1,1.1,1.1,1.1
	c1.1,0,1.1,1.1,1.1,1.1v1.1l0,0h-2.2c-2.2,0-3.3,0-4.4,0h-1.1c-1.1,0-1.1,0-1.1,0C678.2,638.3,678.2,638.3,678.2,638.3L678.2,638.3z
	 M653.1,629.6v-1.1c-1.1,0-1.1-1.1-2.2-2.2c-1.1-1.1-1.1-1.1-1.1-1.1l0,0c0,0-2.2-2.2-3.3-2.2c0-1.1,0-1.1,0-1.1s0,0,0-1.1
	c0,0,1.1,0,1.1,1.1c1.1,0,1.1,0,2.2,0h1.1h1.1c0,0,0,0,1.1-1.1c1.1,0,2.2,0,3.3,0c1.1-1.1,1.1-1.1,2.2-1.1c0,0,1.1,0,2.2,0l0,0
	c1.1,1.1,1.1,1.1,1.1,2.2c1.1,1.1,2.2,2.2,2.2,2.2l0,0l1.1,2.2l0,0v1.1c0,0-1.1,0-1.1,1.1l0,0v1.1c0,1.1,0,1.1,0,1.1h-1.1l-1.1-1.1
	h-1.1h-1.1c0,0,0,0-1.1,0l0,0l-1.1,1.1c0,0,0,0-1.1,0l0,0h-1.1h-1.1L653.1,629.6z"/>
<path class="st1" d="M547.1,584.8l2.2-2.2l2.2-1.1L547.1,584.8z M547.1,595.7l4.4,4.4l-1.1-4.4H547.1z M556.9,607.7l2.2,6.6l0,0
	l3.3-6.6H556.9z M566.7,620.8v6.6l4.4,2.2l1.1-6.6L566.7,620.8z M585.3,638.3l-4.4,6.6l1.1,3.3l6.6,3.3l2.2-4.4v-6.6L585.3,638.3z"
	/>
<path class="st1" d="M662.9,557.4l-2.2,2.2l-2.2,1.1v2.2l3.3,1.1h3.3l2.2,2.2h2.2l2.2-1.1l5.5-1.1l3.3-1.1l2.2-1.1l-1.1-2.2h-3.3
	l-7.7-2.2H662.9z M684.8,559.6v1.1l1.1,1.1h3.3l1.1,1.1l2.2-1.1v-1.1l0,0l2.2-2.2l1.1-1.1l-2.2-1.1l-2.2,1.1l-3.3-1.1l-1.1,1.1v1.1
	L684.8,559.6z M677.1,590.2l3.3-1.1l3.3,1.1l3.3-2.2h1.1l1.1,2.2l1.1,2.2l3.3-2.2l1.1,1.1l6.6-1.1l1.1,4.4l-3.3,1.1h-4.4l-8.7,2.2
	h-3.3l-5.5,1.1l-2.2-1.1l-1.1,1.1h-4.4c0,0-2.2-1.1,0-2.2c2.2-2.2,1.1-5.5,1.1-5.5L677.1,590.2z"/>
<path class="st1" d="M502.2,574.9L502.2,574.9c1.1,0,1.1,1.1,1.1,1.1c1.1,0,1.1,0,2.2,1.1c0,0,1.1,0,1.1,1.1l0,0
	c1.1,1.1-1.1,1.1,1.1,1.1c0,0,2.2,0,2.2,1.1c1.1,0,1.1,0,2.2,0l-1.1,1.1c0,1.1,0,1.1,0,2.2c0,1.1,0,1.1-1.1,1.1c0,1.1,0,1.1,0,2.2
	c-1.1,0-1.1,0-2.2,0c-1.1,0-1.1,1.1-2.2,1.1v1.1c-1.1,1.1-2.2,0-2.2,1.1s0,1.1-1.1,1.1l-1.1,1.1c-1.1,0-1.1,0-2.2,0
	c0,0-1.1,1.1-1.1,2.2c-1.1,0-1.1,0-1.1,1.1c0,0-1.1-1.1-2.2,0v1.1c0,1.1-1.1,1.1-1.1,1.1s0,1.1,0,2.2v1.1c0,1.1,0,2.2-1.1,2.2
	l1.1,1.1v1.1c0,1.1,0,1.1,0,2.2h-1.1c-1.1,1.1-1.1,1.1-2.2,1.1c0,1.1,0,1.1-1.1,1.1c0,1.1-1.1,1.1-1.1,1.1c-1.1,0-2.2,0-2.2,0
	c-1.1,0-1.1-1.1-2.2-1.1c0,0,0,0-1.1-1.1v-1.1c-1.1-1.1,0-1.1-1.1-1.1c0-1.1,0-1.1,0-2.2c0,0,0-1.1-1.1-1.1c0-1.1-1.1-1.1-1.1-2.2
	c0,0,1.1,0,1.1-1.1c0,0,0-1.1,1.1-1.1c0-1.1,0-1.1,0-2.2l0,0l-3.3-3.3c0-1.1,1.1-1.1,2.2,0h1.1c1.1,0,1.1-1.1,1.1,0s0,0,0,0
	c2.2-1.1,1.1-1.1,0,0c0,0,2.2,0,1.1-1.1c0,0-1.1,0-1.1-1.1c0,0,2.2,0,3.3,0c0,1.1,1.1,0,1.1,0c1.1,0,2.2,0,2.2,0
	c1.1,0,2.2-1.1,2.2-1.1c1.1,0,1.1,0,2.2,0c0-1.1,0-2.2,0-2.2c0-1.1,2.2,0,2.2,0c1.1,0,1.1-1.1,1.1-1.1c0-1.1,0-1.1,1.1-1.1
	c1.1-1.1,1.1-1.1,1.1-2.2c0-1.1,1.1-1.1,1.1-2.2s0-1.1,0-2.2c1.1-1.1,1.1-1.1,2.2-1.1c0-1.1,0-1.1,0-2.2c0-1.1,0-1.1-1.1-1.1"/>
<path class="st1" d="M567.8,572.7l1.1-2.2h2.2l2.2,2.2l9.8,1.1l9.8-1.1h3.3l3.3,1.1l2.2-1.1h3.3h6.6l6.6,2.2l2.2,2.2h3.3l1.1,3.3
	l-1.1,2.2l-4.4,1.1l-2.2,1.1l-1.1,2.2l-2.2,3.3l-3.3,1.1h-6.6h-5.5l-2.2-1.1l0,0h-5.5l-3.3-1.1l-4.4,1.1h-5.5l-3.3-2.2l-3.3,1.1
	l-4.4,1.1v-3.3l1.1-1.1l1.1-3.3l-1.1-3.3l-4.4-3.3l1.1-1.1L567.8,572.7z M627.9,588l-2.2,1.1l5.5,1.1l5.5-1.1l2.2-2.2h-4.4
	L627.9,588z M640,582.6l-2.2-1.1l2.2-2.2l1.1,2.2L640,582.6z"/>
<path class="st1" d="M802.8,288.1l1.8-2.5l-3-1.7l-1.3,1.6l1.4,0.4l1,1L802.8,288.1L802.8,288.1z"/>
<path class="st2" d="M869.8,358.1h36.6c3.5,0,6.3,2.8,6.3,6.3v18.9c0,3.5-2.8,6.3-6.3,6.3h-36.6c-3.5,0-6.3-2.8-6.3-6.3v-18.9
	C863.5,360.9,866.3,358.1,869.8,358.1z"/>
<g>
	<path class="st3" d="M303.7,633.6l-3.2,0.2l-4.5,2.7l-0.7,2l3,2.2l4.1,1.1l3.2-6L303.7,633.6L303.7,633.6z M286.3,643.4l2.5-2.5
		l-3.2,0.4L286.3,643.4z M335.3,648.4l-2.6-2.4l-2.3,2.6l-2.4,1.1l3,5.7l2.2-2.2l3.8,3.1l2.5-1.9l-0.6-2.6l-2.6-0.2L335.3,648.4
		L335.3,648.4z M349.1,657l-0.9,3l4.7-0.1l4.3,1l3.1-1.7l0.2-0.8l-5.7-1.1l-0.3,0.6L349.1,657L349.1,657z M363.3,661.3l-1.9,1
		l1.3,4.1l2.9,0.2l0.9,3.5l3,1.4l3.7-1.1l3.1-2.2l-6.5-5.2L363.3,661.3L363.3,661.3z M356.4,668.1l2.2-1.5l-1.8-2.7l-2.1-0.3
		l-1.2,1.3l1.3,0.6l0.7,2.6L356.4,668.1L356.4,668.1z M364.6,672.7l-1.6-1.3l-1.5,2L364.6,672.7z M402.6,695.5l-3.7-3.5l0-1
		l-2.5-0.5l-0.1-3.1l-7.4-5.1l-3.1-0.8l-4.5-2.7l-2.9,0.8l1.6,4.1l-4.8,7.2l1.8,2.8l1.9,5.2l1.1,8.3l4.1,2.7l2.5-4.2l4.5-3.4
		l5.5-1.6l4.7-3.1L402.6,695.5L402.6,695.5z"/>
	<path class="st4" d="M710.7,241.5l0.5-0.8l-0.3-2.8l-0.9,0.2l-0.8,3.3L710.7,241.5L710.7,241.5z M767.9,292.6l-1.2-1.8l-1.5-3.8
		l-0.8-3.8l-0.9-1.6l-1.7-6.1l-1.3-2.2l-2.2-2l-2.1-0.8l-2.4,1.6l-2.5,1.2l-1.8,3.1l-1.2,3.4l-1-0.2l-1.6,2.8l-3.8-1.1l-1-0.9
		l-0.2-3.5l0.7-1.8l0.6-1.1l2-0.3l1.5-1.4l0.6-4.9l2.4-1.6l0.4-2l-0.6-4.8l0.2-1.7l-1.4-4.1l-2.2-2l0.2-1.7l1.9-0.8l-0.6-1.5
		l-1.4-1.5l0.2-1l-2.1-1.6l-2.9-0.2l-2.7-1.2l-1.7-1l-2.6,0l-2.2-2.7l-1.6-0.5l-2.5,0.4l-2-1.1l-3.1-1l-2.7,1.4l-1.9,2.6l0,2.6
		l1.6,1.7l-0.1,1.4l-2.3,0.2l-2.1,1.8l-0.8,2.1l0.6,2.9l-0.4,3.9l-1.8-1.4l-0.4,3.9l-1.3-0.4l0.6-2.3l-0.5-1.8l0.5-0.8l-0.5-1.8
		l-2.3,2l-1.2,2.7l-1.4-0.8l-1,1.7l-0.7,0l-0.5,4.2l-1.8,0.5l-0.6,1.1l0.6,2.2l0.3,4.6l-2.2,5.1l-1.4,1.8l1.4,2.7l0.4,3.9l-0.8,2.1
		l-0.2,1.7l0.8,1.9l4.7,9.3l1.3,3l0.6,5.5l-0.2,5.5l-1.4,5.1l-1.6,2.8l-1.4,4.4l-1.6,2.8l-2.1,1.8l9.7-0.8l15.5-1.9l8.7-1l0.1,1.2
		l8.4-1.1l13.8-2.1l0.4-2l2-4.1l1-0.5l0.4-5.3l0.2-1l1-1.7l2.6-1.9l-0.2-3.5l0.5-1.6l1.6-2.1l1.4,0.8l0.2,2.3l1-0.5l1-1.7l0.2-2.9
		l-0.5-1L767.9,292.6L767.9,292.6z M740.1,227.1l-2-0.4l0.1,1.2l-2,2.2l2,0.4l2.3-0.2l1.2-1.5L740.1,227.1z M724.6,220.5l-0.9,1
		l-1.6-1.7l-2.5,1.2l-3.8-1.1l0.2-4.3l-0.5-1l-2.6,0l-4.5,2.6l-5.2,0l-3.7,1.2l-0.8-0.5l-1.8,1.9l-3.3,1.8l-1.9,2.6l-2-1.1l-1.8,1.2
		l-1.6-1.7l-1.6,0.2l-2.4,0.9l-1.9,0l-0.8-1.9l-1.3-0.4l-2.3-3.2l-0.8-1.2l-2.5-1.4l-4.3-0.2l-1.8,0.5l-0.7-0.8l-2.2,2.5l-1.6,0.2
		l0.3-3.2l-1.6-3.1l-1.6-0.5l-0.9-1.6l-3,2.7l-1,2.4l-2.5,0.4l-1.4,1.8l-2.4,1.6l-6.3,1.2l-2.9,3.2l-6.1,2.8l0.2,0.9l2.6,0.7l2,3.7
		l15.8,3.5l4.8,2l3,0.6l1.5-0.6l3.3,0.8l2.4,0.3l1.1,0.6l0.8,3.1l2.7,0.4l1.8,1.4l0.3,4.6l-1,2.4l3.6,0.2l-0.7,2.6l-0.1,1.4l2.1,1.6
		l0.7-1.8l2.8-5.5l0.9-2.8l1.3-3l1.2-0.8l0.4-2.7l1.1,0.6l0.2,1.6l1.9-0.8l1.5-3.2l1.1,0.6l1.5-1.4l0.3,2l-1,0.5l-1,2.4l1.6,0.5
		l1.2-2.7l2.2-1.3l1.6-3.5l2.6-0.7l6.4-0.8l1.6-2.8l3.2-0.4l5.3,1.2l3.2,2.9l1.7,0.2l-0.3-2l0.7-2.6l3.4,0.5l6.7,0.5l1.9-0.8
		l-2.5-2.2l0.1-1.4l-4-0.8l0.9-1l-0.6-2.2l1.9,0l-1-2.1l0.4-2l-1.3-0.4l-1.8,1.2l-1.9,0L724.6,220.5L724.6,220.5z M672.6,203.8
		l-1.2-1.1l-3.5,0.2l-2.4,0.9l-3.4,2.1l-2.2,3.2l-0.1,2.2l1.4,0.1l1.8,3.3l2.3-4.6l4.9-5.4l1.9,0L672.6,203.8L672.6,203.8z
		 M659.7,188l-1.9,0.8l-3.2,2.3l-4,2.5l-1.4,1.1l1.2,1.8l2.7-1.4l0.2-1l3.7-2l1.5-1.4L659.7,188L659.7,188z"/>
	<path class="st4" d="M985.9,213.2l-0.1-1.2l-2-1.1l-1,0.5l-0.3,3.2l0.7,0.8L985.9,213.2L985.9,213.2z M982.1,180.2l0.1-1.4
		l-2.8-8.7l-5.7-17.3L970,150l-4.5-1.8l-1.4-0.1l-1,1.7l-2.2,0.6l-1.1,2l-1.8,0.5l-1.7,1.6l-2.3-0.6l-0.7-0.8l-0.8-3.1l-2.6,0
		l-0.8,0.7l-6.1,19.1l0.8,6.4l-1.4,1.8l-0.4,3.9l0.8,1.2l-0.2,1.7l0.2,1.6l1.4,1.5l-1.6,3.5l0.5,1l-2.3,2.8l-0.8,2.1l-0.1,2.2
		l-1,2.4l0.5,1.8l-1,1.7l-1.2-1.8l-1.8,1.2l4.7,13.8l5.3,16l2.5,7.3l0.8,3.8l3.3,2.6l0.2,1.6l1.8,1.4l1.5-0.6l0.5-3.4l0.3-2.4
		l1.7-1.6l-0.4-3.2l2.2-1.3l-1.6-3.1l1.4-2.5l1.6-2.1l2.6,1.9l1.2-0.1l1.1-3.8l1.1-1.2l1.8,0.7l0-2.6l0.8-0.7l2.2,1.3l0.9-1l0.6-2.3
		l0-1.9l0.4-3.9l0.5-1.6l-1.1-1.4l1.8-1.9l2.2,2.7l2,0.4l1.8-0.5l-1.3-2.2l4.1-3.2l2.5-0.4l0.8,1.9l1.3-0.4l1.5-1.4l0.2-1.7
		l-0.8-1.2l0.9-1l2.2,0.1l1.5-0.6l-0.2-2.3l2.4,0.3l0.8-1.4l1.6-0.2l2.4-4.9l-1.8-2.1l-3.6-4.7l-1-0.2l-1.5,1.4l-2.6-1.9l0-2.6
		l-1.8-2.1l0.9-1l-0.9-1.6l-3.2,1.1l-3.4-1.2L982.1,180.2L982.1,180.2z"/>
	<path class="st3" d="M900.4,305.2l-1.4-1.5l-2.3,0.2l-2-1.1l-1.5-2l-1-3.5l-0.5-1l-1.8-0.7l-3.4-1.9l-20.3,4.4l-8.9,2l-15.5,3
		l-13.3,2.4l-14.1,2.7l-1-6.1l-1.8,1.2l-7.5,6.1l-2.1,1l3.1,18l2,11.5l3.5,20.5l17.6-2.9l17.5-3.4l15.5-3l19.4-4.1l9.8-2.2l0.8-1.4
		l1.7-1.6l3.3,0l0.2-1l3.9-2.2l0.2-1.7l1.1-1.2l2.8-2.9l1.4-1.8l-7-4.7l-0.9-2.4l-1.6,0.2l-1.1-4l1.4-1.1l0.3-2.4l-1.6-1.7l1.4-1.8
		l1.6-3.5l0.1-2.2L900.4,305.2L900.4,305.2z"/>
	<path class="st4" d="M914.4,318.4l-1.6,0.2l-0.4,2l2-0.3L914.4,318.4z M941.7,299.8l-1.8,0.5l-3.3,4.4l-2.8,1l-5.5,1.3l-1.4,1.8
		l-4.4,0.5l-0.5,0.8l-3.1,1.6l-0.5,1.6l-2.1,1L915,318l1.1,1.4l2.4-2.3l2.1,0.8l2.1-1.8l3-1.3l2.1-1.8l4.6-1.5l3.3-2.6l2-0.3
		l2.7-2.2l6.9-5.7l-0.7-0.8l-2,2.2l-1.2-1.1l-1.4,1.8l-1.8,0.5l-0.8,2.1l-2.3,0.2l0.8-1.4l1.5-0.6l-0.2-1.6l0.8-1.4L941.7,299.8
		L941.7,299.8z M881.7,225.6l-2.8,0.3l-3.5,2.8l-1.8,1.9l-5.5,7.6l-0.8,2.1l0.5,1l-3.6,5l-2,1.5l-2.2,2.5l1.5,1.2l1-0.5l1.3,0.4
		l0.6,2.9l-1.8,1.2l2.6,4.5l0,1.9l-0.6,1.1l-2.6,0.7l-3.7,3.8l-0.4,1.3l-3.9,2.2l-6.1,1l-2.7,1.4l-1.4-0.1l-2.4-1l-5.9,0l-1.9,0.8
		l-2.6,0l-4.7,1.8l-5.6,2.7l0.6,4.1l2.6,0l0.2,2.3l1.4,2.7l-0.4,2l-1.5,1.4l-1.5,3.2l-3,2.7l-1.6,2.1l-4.1,4l1,6.1l14.1-2.7L842,303
		l15.5-3l8.9-2l20.3-4.4l3.4,1.9l1.8,0.7l0.5,1l1,3.5l1.5,2l2,1.1l2.3-0.2l1.4,1.5l14.7,4.7l-1-3.5l0.7,0l0.7,2.6l0.2,4.9l1.8-1.2
		l0.5-1.6l1.4-2.5l-1.9-1.8l3.5-3.6l-1.5-1.2l-3-16.9l-0.8-0.5l0.3-15.4l-4.1-17.5l-1.1-1.4l-2.2-0.1l0.3-2.4l-2-5.6l-0.7-0.8
		l0.2-3.6l0.5-0.8l-0.7-2.6l0-2.6l-1.5-2l-0.9-1.6l0-3.3l-1-0.9l-0.5-3.6l-9.9,2.5L881.7,225.6L881.7,225.6z"/>
	<path class="st4" d="M901.7,335.6l-1.2,3.4l-2.7,1.4l-1.8,1.9l-0.6,3l0.6,4.1l3.6,2.1l1.8,0.7l2.4,1.7l1.9-0.8l2.8,0.9l-0.3,5
		l1.5-0.6l1.6-2.8l0.6-3.7l1-1.7l0.9-2.8l1.4-4.4l1.7-1.6l0.8-2.1l-0.5-1l0.3-2.4l-0.4-3.9l0.7,0l-0.3-7.2l-1.2-1.8l-3,0.1l-1.7-1
		l0.6-3l0.9-1l0.7,0l1-1.7l0.7-5.2l-0.4-1.3l-14.7-4.7l-2,2.2l-0.1,2.2l-1.6,3.5l-1.4,1.8l1.6,1.7l-0.3,2.4l-1.4,1.1l1.1,4l1.6-0.2
		l0.9,2.4l7,4.7l-1.4,1.8L901.7,335.6L901.7,335.6z"/>
	<path class="st3" d="M890.5,344.8l-9.8,2.2l-19.4,4.1l-15.5,3l-17.5,3.4l1.8,11.1l4.6-4.8l1.4-2.5l1.8,0.7l1.1-2l1.3-3l0.8,1.2
		l3,0.6l1.8-0.5l0.4-2l2.4-0.9l1-1.7l1.3-0.4l3.1,1.8l1.5-0.6l1,2.1l1.1,0.6l1.4,1.5l0.2,1.6l3.3,0l1.7,1l0,2.6l1.7,1l2.6,0l0.8,1.2
		l2.1,0.8l1.2-1.5l2.8,1.6l-1.7,2.4l0.2,2.3l-0.8,2.1l-1,0.5l-0.9,2.8l0.6,2.2l1,0.2l2.6-2.6l1.3,2.2l1.2,1.1l3.3,0.8l2.5-0.4
		l3.2,1.5l2,1.1l0-1.9l-1.4-1.5l-1-2.1l0.1-1.4l-2.6-2.6l-1.2-4.4l-0.5-1l0.8-3.3l-0.6-1.5l1.2-0.8l-1.8-4l0.7-1.8l-1-0.9l3.6-1.7
		l2-2.9l0.9,1.6l-2,2.2l-1.1,3.8l2.7,0.4l0.2,2.3l-1.2,1.5l1.7,1l-0.6,2.3l-1.7-0.2l-0.1,2.2l1.9,0l1.7,1l-1.2,2.7l0.2,1.6l-1,0.5
		l2.3,2.4l4,1.5l1.8-1.2l1.2,1.1l-1.2,1.5l2.2,0.1l-0.5,3.4l4.4-0.5l0-0.7l4.1-1.4l0.6-2.3l0.4-0.1l0.4-2.7l1.5-0.6l0.4-2l-0.7-0.8
		l0.4-2l-10.5,2.2l-3.1-11.4l-4.1-14.2L890.5,344.8L890.5,344.8z"/>
	<path class="st3" d="M896.3,341.8l-3.3,0l-1.7,1.6l-0.8,1.4l0.5,1.8l4.1,14.2l3.1,11.4l10.5-2.2l0.4-0.1l0.2-0.3l-0.8-1.9l-1.1-0.6
		l0.6-2.3l-0.9-2.4l-1.6,0.2l-3.2-2.2l-0.1-1.2l-1.8-1.4l-1-3.5l-1-2.1l-3.3-2.6l0.2-1.7l-1.4-1.5L896.3,341.8L896.3,341.8z"/>
	<path class="st3" d="M828.4,357.5l-17.6,2.9l-3.5-20.5l-2.6,1.9l2,2.3l-0.5,1.6l0.9,1.6l-0.7,1.8l-0.7,4.4l0.1,3l-1,3.1l0.1,3.8
		l-2.6,2.6l-1.1,2l-1.5,1.4l-2.7,1.4l-1.6-0.5l-1.1,1.2l-0.1,1.4l-1.8,0.5l-0.8,2.1l0.1,5.6l-1,0.5l-3.1-1.8l-0.8,0.7l-1.7,5
		l0.6,4.1l-1.3,0.4l-0.5,3.4l-3,1.3l-1.4-0.1l0.8,3.8l-0.6,2.3l3.1,4.3l1.2,1.1l0.6,1.5l1.5,1.2l0.8,1.2l2,1.1l1.5,1.2l2.9,0.2
		l-0.2,1.7l1.2,1.8l2.4,1.7l0.7,0l2.7,1.2l1.6-0.2l3.1-3.4l2.4,1.7l1.6-0.9l3.2-1.1l1.1-1.2l0.2-1.7l2,0.4l3.2-2.3l1.6,0.5l2.7-2.2
		l-0.4-1.3l1.1-1.2l-1.4-1.5l0.9-2.8l2.9-5l0.8-4l1.9-2.6l0-1.9l1.1-2l0.2-3.6l1.6,0.5l1.2,1.8l3.9,0.4l1.3-2.2l0.4-2.7l1.9-5.2
		l2.1,0.8l1.6-3.5l1.3-0.4l3.3-5.9l-0.4-2.5l0.6-1.1l0.2-2.9l9.7,5.1l0.7-4.4l-0.2-1.6l-1.4-1.5l-1.1-0.6l-1-2.1l-1.5,0.6l-3.1-1.8
		l-1.3,0.4l-1,1.7l-2.4,0.9l-0.4,2l-1.8,0.5l-3-0.6l-0.8-1.2l-1.3,3l-1.1,2l-1.8-0.7l-1.4,2.5l-4.6,4.8L828.4,357.5L828.4,357.5z"/>
	<path class="st3" d="M687.6,250.9l-1.3,2.2l-1.5,0.6l-0.6,2.3l-1,1.7l-0.7,1.8l0.9,1.6l1.1,0.6l1-1.7l0.6-2.3l1.7-4.2L687.6,250.9
		L687.6,250.9z M633,225.7l-2.4-0.3l-2.8-1.6l-0.6,1.1l-1.6,0.9l0.4-4.6l1.3-2.2l-1.4-1.5L624,218l-2.4,2.3l-1.6-0.5l-2.7,2.2
		l-6,2.1l-2.5,0.4l-2.4-1.7l-1.3,2.2l-1.3,0.4l0.3,13.1l-1.1,1.2l-5.2,2.6l-1.2,3.4l-1.5,1.4l0.1,3l2,0.4l1.6,2.4l-1.2,3.4l-0.3,2.4
		l0.3,2l-0.8,0.7l0.7,3.4l-0.6,3.7l3.7,3.2l3,0.6l2,2.3l3,0.6l2.5,2.2l1.8,3.3l3,2.5l1.9,0l2,1.1l2.2,2l1,3.5l0.2,6.1l1,2.8l1.6,0.5
		l0.4,1.3l-1.3,3l1,5.4l1.5,3.8l1.4,0.8l4.4,0.7l1.2,2.5l0,0.7l14.6-0.9l17.5-0.8l14.8-1.2l-0.5-3.6l0.2-1l0-2.6l-1.1-1.4l-0.2-1.6
		l-1.2-1.8l0.4-1.3l-0.8-3.8l0.3-2.4l0.8-2.1l0-2.6l1.3-3l-0.7-2.6l-0.2-2.3l1.1-3.8l1.2-1.5l0.8-1.4l-1-2.1l0.6-4.9l1.5-4l0.4-2.7
		l-2.1-1.6l-2.1,1l-0.9,1l-1.6,3.5l-2.1,1.8l-1.9,0.8l0.8-4l1.6-3.5l0.4-1.3l2.7-1.4l0.3-2.4l-2.1-1.6l0.1-1.4l0.7-2.6l-3.6-0.2
		l1-2.4L675,243l-1.8-1.4l-2.7-0.4l-0.8-3.1l-1.1-0.6l-2.4-0.3l-3.3-0.8l-1.5,0.6l-3-0.6l-4.8-2l-15.8-3.5l-2-3.7l-2.6-0.7
		L633,225.7L633,225.7z"/>
	<path class="st4" d="M901.5,382.6l-0.3,3.2l-1.5,1.4l0.4,1.3l-1.8,3.1l1,0.9l-1,5.7l0.4,1.3l1.4,2.7l0.2-5.5l0.8-2.1l3.5-9.5
		l1.1-1.2l-0.5-1.8l0.5-1.6l-4.1,1.4L901.5,382.6L901.5,382.6z M859.3,360.4l-0.7,4.4l-9.7-5.1l-0.2,2.9l-0.6,1.1l0.4,2.5l-3.3,5.9
		l-1.3,0.4l-1.6,3.5l-2.1-0.8l-1.9,5.2l-0.4,2.7l-1.3,2.2l-3.9-0.4l-1.2-1.8l-1.6-0.5l-0.2,3.6l-1.1,2l0,1.9l-1.9,2.6l-0.8,4l-2.9,5
		l-0.9,2.8l1.4,1.5l-1.1,1.2l0.4,1.3l-2.7,2.2l-1.6-0.5l-3.2,2.3l-2-0.4l-0.2,1.7l-1.1,1.2l-3.2,1.1l-1.6,0.9l-2.4-1.7l-3.1,3.4
		l-1.6,0.2l-2.7-1.2l-0.7,0l-2.4-1.7l-1.2-1.8l0.2-1.7l-6.1,6.9l-4.5,3.4l-1.1,1.2l-0.2,1.7l-2.1,1.8l-0.2,1.7l-3.3,1.8l-0.7,1.8
		l-1.9,0.8l-2.8,1.7l-1.6,0.2l-2.6,1.9l14.8-1.9l15.7-2.2l0.8-0.7l4.4-0.5l0.6,0.3l7.4-0.6l9.6-1.2l10.5-1.4l10.6-1.7l14.6-2.8
		l13.4-2.7l10.9-2.3l16-3.4l6-1.4l0.3,0.2l0.9-0.2l-0.7-3.4l0.4-0.1l1.6,3.1l0.7,0l-3.3-5.2l-0.9-2.4l-2.5,0.4l-2.7-0.4l-0.4,2
		l-2.9-0.2l-2.2-2l-1.7-0.2l-1.5-2l-3.4-1.9l4.9,0.6l0.5,1.8l3.1,1l0.8,1.2l2.2-1.3l0.1-1.4l-1.1-1.4l-3.1-1l1.2-1.5l-1-2.8l1.4,0.1
		l1.2-1.5l-2.2-1.3l-1.9-1.8l1.3-0.4l0-2.6l0.8-2.1l-0.5-1.8l-5.4-1.6l-0.1-1.2l-1.8-1.4l-4.6,0.3l-1.6-0.5l-1.6-1.7l-0.2-1.6
		l-3.7,2l-0.7,0l-1.2-2.5l0.8-4.7l1.4,0.1l0.2-1.7l1-0.5l-0.4-3.2l-0.7-0.8l-1.3-0.4l-2.1-0.8l-0.8-1.2l-2.6,0l-1.7-1l0-2.6l-1.7-1
		L859.3,360.4L859.3,360.4z"/>
	<path class="st3" d="M766.5,437.5l-1.2,0.8l-15.9,1.3l-9,0.8l-5.2,0.7l-11.6,0.8l-7.2,0.3l-11,1.1l-13.3,1.3l-0.8-0.5l-3.3,0
		l0.6,4.1l-9.4,0.9l-15.5,1.2l-1.2,0.1l-1.2,0.1l0.7,2.6l-1.5,1.4l0.6,1.5l-2,0.3l1.8,2.1l-0.9,1l-1,2.4l1.2,1.8l-1.6,0.2l0.9,1.6
		l-1.1,1.2l-3,1.3l0.8,1.9l-0.6,1.1l0.8,1.2l-1.9,0.8l-0.1,1.4l-1.2,1.5l-0.3,2.4l0.8,1.9l-0.2,1.7l-1.3-0.4l-0.8,2.1l-1.4,1.1
		l19.2-1.3l19.7-1.4l-0.1-0.4l12.3-0.8l14.3-1.1l20.4-2.1l13.5-1.6l10-1.3l-0.2-4.9l0.6-1.1l2.8-0.3l0.8-1.4l0.4-2.7l2-2.2l2.7-1.4
		l4.1-0.6l4.1-4l3-2l1.6-0.2l1.2-4.1l1.3,0.4l0.5-1.6l2.4-1.6l1.2,1.8l1.5-0.6l1.4-2.5l3.3-1.8l2.1,0.8l0.9-1l1.4-3.7l2.9-3.2l0-2.6
		l0.8-2.1l-4.4,0.5l-0.8,0.7l-15.7,2.2L766.5,437.5L766.5,437.5z"/>
	<path class="st3" d="M807.3,339.9l-2-11.5l-3.1-18l-7.7,4.5l-4.9,3.5l-4.6,5.5l-3.2,1.1l-2.9-0.2l-3.3,1.8l-1.9,0.8l-2.2,1.3
		l-2-1.1l-3.5,0.2l-1.4,1.1l-0.8-1.2l-2.6-2.6l-2.4-0.3l-1.5-1.2l-2.6,0l-13.8,2.1l-8.4,1.1l1.1,9.1l1.6,12.8l1.9,16.2l2.1,19.7
		l1.8-1.2l1.5,1.2l3.1-0.8l2.5,1.4l2.6,4.5l2,0.4l2-0.3l2,0.4l2.9,2l1,0.2l1.8-1.9l3,0.6l1.2,1.1l3.1-0.8l1.3-2.2l2.5-1.2l1.7,3.6
		l2.1,0.8l2.5,2.2l1.4,0.1l3-1.3l0.5-3.4l1.3-0.4l-0.6-4.1l1.7-5l0.8-0.7l3.1,1.8l1-0.5l-0.1-5.6l0.8-2.1l1.8-0.5l0.1-1.4l1.1-1.2
		l1.6,0.5l2.7-1.4l1.5-1.4l1.1-2l2.6-2.6l-0.1-3.8l1-3.1l-0.1-3l0.7-4.4l0.7-1.8l-0.9-1.6l0.5-1.6l-2-2.3L807.3,339.9L807.3,339.9z"
		/>
	<path class="st3" d="M903.2,414.7l-0.4,0.1l-0.9,0.2l1,0.9l0.8-1.4L903.2,414.7z M901.6,414.9l-6,1.4l-16,3.4l-10.9,2.3l-13.4,2.7
		l-14.6,2.8l-10.6,1.7l-10.5,1.4l-9.6,1.2l-7.4,0.6l-0.6-0.3l-0.8,2.1l0,2.6l-2.9,3.2l-1.4,3.7l-0.9,1l-2.1-0.8l-3.3,1.8l-1.4,2.5
		l-1.5,0.6l-1.2-1.8l-2.4,1.6l-0.5,1.6l-1.3-0.4l-1.2,4.1l-1.6,0.2l-3,2l-4.1,4l-4.1,0.6l-2.7,1.4l-2,2.2l-0.4,2.7l-0.8,1.4
		l-2.8,0.3l-0.6,1.1l0.2,4.9l9.6-1.2l12.2-1.9l5.5-2.4l1.2-0.1l3.2-2.3l4.7-1.8l9.4-0.9l12.6-1.3l1.2,1.8l1.5-1.4l3.2,2.9l0.8,3.1
		l19.5-3l0.7,0l9.3,6.4l14.3,10l5.6-2l4.2-0.2l0.8-1.4l1.3-0.4l-0.1-3.8l0.4-2l2.1-4.4l2.2-2.5l2.6-1.9l1.8-1.9l0.8-1.4l5.1-3
		l4.4-0.5l1.4-1.8l1,0.2l2.5-3.8l-1.1-1.4l-3.3,0l-1.6,0.9l-1.8,1.9l-3.3-0.8l3.1-0.8l3-3.9l-2.1-0.8l2.8-1.7l-0.5-1.8l-3.6-0.2
		l-4.1-1.2l3.5-0.2l2,0.4l0-2.6l1.8,2.1l1-0.5l3.4,0.5l2-0.3l3.5-6.2l2.2-1.3l0.2-1.7l-0.6-2.9l-1.8-2.1l-1.4-0.8l-1.9,2.6l0.7,3.4
		l-1.6-0.5l-0.8-1.9l0.2-2.9l-2.8,0.3l-3,2l-1.7-0.2l-1.4,1.1l-3.2,0.4l0.3-2.4l2.9,0.2l1.8-1.9l3.7-1.2l2.6-2.6l3-0.1l-2-4.9
		l-2-1.1L901.6,414.9L901.6,414.9z"/>
	<path class="st3" d="M779.8,394.6l-2.5-2.2l-2.1-0.8l-1.7-3.6l-2.5,1.2l-1.3,2.2l-3.1,0.8l-1.2-1.1l-3-0.6l-1.8,1.9l-1-0.2l-2.9-2
		l-2-0.4l-2,0.3l-2-0.4l-2.6-4.5l-2.5-1.4l-3.1,0.8l-1.5-1.2l-1.8,1.2l-0.6,1.1l0.8,1.2l-0.7,1.8l1.7,0.2l-0.3,2.4l-3.1,0.8l-3,2
		l-1.4-0.8l-3.2,0.4l0,0.7l1,2.8l-1.9,2.6l-1.4,1.1l-0.4,2.7l-1.8,1.2l-0.8-0.5l-1.1,2l0,3.3l-0.6,1.1l-1.5,0.6l-2.7-0.4l-1.7-1
		l-0.2-1.6l-2.4,0.9l-1.7,2.4l0.3,2l-3.8,0.8l-1.5-2l-3.8,2.7l-0.6,2.3l-6.2-2.8l-2.1,1l-0.8,1.4l-1.4-0.8l-2.2,0.6l-1.7-1l-0.1,2.2
		l-0.6,1.1l-1.7-0.2l-0.2,1l-1.6,2.8l1.6,2.4l-0.6,1.1l-3.1,0.8l-2.8,1l-0.7,1.8l0.2,1.6l1.5,2l-0.8,2.1l-2.7-0.4l-5.1-2.2l-2.5,0.4
		l-1.9,3.4l1,2.1l-0.4,2.7l0.4,2.5l-1,3.1l-0.8,0.7l-2-1.1l-1,3.1l15.5-1.2l9.4-0.9l-0.6-4.1l3.3,0l0.8,0.5l13.3-1.3l11-1.1l7.2-0.3
		l11.6-0.8l5.2-0.7l9-0.8l15.9-1.3l1.2-0.8l2.6-1.9l1.6-0.2l2.8-1.7l1.9-0.8l0.7-1.8l3.3-1.8l0.2-1.7l2.1-1.8l0.2-1.7l1.1-1.2
		l4.5-3.4l6.1-6.9l-2.9-0.2l-1.5-1.2l-2-1.1l-0.8-1.2l-1.5-1.2l-0.6-1.5l-1.2-1.1l-3.1-4.3l0.6-2.3L779.8,394.6L779.8,394.6z"/>
	<path class="st3" d="M732.4,326.9l-0.1-1.2l-8.7,1l-15.5,1.9l-9.7,0.8l-2.7,2.2l-4.3,1.6l-2.3-0.6l-1.8-1.4l1.9,22.6l1.2,12.9
		l1.4,17.1l-1.2,1.5l0.3,2l-1.1,1.2l1.8,3.3l0.7,0.8l0,1.9l1.2,2.5l-0.7,1.8l-0.9,1l-0.8,2.1l0.4,0.6l-1.7,1.6l0.2,0.9l-1.4,2.5
		l-1.8,0.5l-0.8,2.1l1.2,1.1l-1.5,1.4l-0.4,1.3l0.6,5.5l1.7,0.2l0.6-1.1l0.1-2.2l1.7,1l2.2-0.6l1.4,0.8l0.8-1.4l2.1-1l6.2,2.8
		l0.6-2.3l3.8-2.7l1.5,2l3.8-0.8l-0.3-2l1.7-2.4l2.4-0.9l0.2,1.6l1.7,1l2.7,0.4l1.5-0.6l0.6-1.1l0-3.3l1.1-2l0.8,0.5l1.8-1.2
		l0.4-2.7l1.4-1.1l1.9-2.6l-1-2.8l0-0.7l3.2-0.4l1.4,0.8l3-2l3.1-0.8l0.3-2.4l-1.7-0.2l0.7-1.8l-0.8-1.2l0.6-1.1l-2.1-19.7
		l-1.9-16.2l-1.6-12.8L732.4,326.9L732.4,326.9z"/>
	<path class="st4" d="M681.3,314.4l-14.8,1.2l-17.5,0.8l-14.6,0.9l-0.3,0.6l3.5,2.4l1,2.8l4,2.7l0.8,1.9l-0.8,4.7l-1.7,1.6l-0.5,3.4
		l-1.5,1.4l-2.6,0.7l-1.7,1.6l-4.8,0.6l-1.1,1.2l-0.4,2.7l0.2,1.6l1.7,1l0.6,1.5l0.1,3l-2.2,2.5l-0.3,3.2l-0.9,1l-3.4,1.4l0.3,4.6
		l-0.9,0.2l-1,1.7l-0.3,3.2l0.7,3.4l0.6,1.5l0,1.9l1.8,3.3l4.6,3.7l1.2,1.8l4,2.7l1.7,2.8l0.8,4.5l0.6,1.5l1.4,0.8l2.6-1.9l4.4,1.4
		l1.1,1.4l-1.1,2l0.2,2.3l-0.8,2.1l-2,5.5l1,2.1l4.2,4.3l1.8,0.7l1.6,0.5l1.5,1.2l2.1,0.8l1.6,2.4l1.6,0.5l0.8,3.1l1.4,2.7l-0.2,1.7
		l-0.8,2.1l3.9,5.5l1.2-0.8l1.5,1.2l1,0.2l-1-2.1l1.9-3.4l2.5-0.4l5.1,2.2l2.7,0.4l0.8-2.1l-1.5-2l-0.2-1.6l0.7-1.8l2.8-1l3.1-0.8
		l0.6-1.1l-1.6-2.4l1.6-2.8l0.2-1l-0.6-5.5l0.4-1.3l1.5-1.4l-1.2-1.1l0.8-2.1l1.8-0.5l1.4-2.5l-0.2-0.9l1.7-1.6l-0.4-0.6l0.8-2.1
		l0.9-1l0.7-1.8l-1.2-2.5l0-1.9l-0.7-0.8l-1.8-3.3l1.1-1.2l-0.3-2l1.2-1.5l-1.4-17.1l-1.2-12.9l-1.9-22.6l-1.1-1.4l-1.4-3.4
		l-0.8-3.1l-1.4-0.8l-1.4-3.4L681.3,314.4L681.3,314.4z"/>
	<path class="st3" d="M868.1,482.8l-14.3-10l-9.3-6.4l-0.7,0l-19.5,3l-0.8-3.1l-3.2-2.9l-1.5,1.4l-1.2-1.8l-12.6,1.3l-9.4,0.9
		l-4.7,1.8l-3.2,2.3l-1.2,0.1l-5.5,2.4l-0.5,1.6l-2.5,3l-0.3,2.4l0.7,0.8l3.8,1.8l2.4,1.7l2.9,0.2l0.9,1.6l1.2,1.8l0.9,2.4l3,2.5
		l0.8,1.9l4.4,2.1l2.4,1.7l1.4,2.7l3.1,1l2.4,1.7l0.2,2.3l2.1,0.8l0.5,1.8l1.4,1.5l4.8,2l0.9,2.4l1.4,1.5l1,2.1l0.3,2.8l3.5,1.6
		l1,0.9l1,2.8l0.8,1.2l0.2,2.3l1.8,2.1l1.2-0.1l2.6,0.7l0-0.7l2.4-2.3l1-1.7l-2.6-1.9l0.5-0.8l2.5,1.4l1.8-0.5l1.7-2.4l-0.9-1.6
		l-1.8-0.7l0.4-1.3l2.4,1l1.6-0.2l3-2.7l2.5-1.2l2-2.2l0.2-1.7l1.8-1.2l2-2.9l0.3-2.4l1.7,0.2l1.9-0.8l2.6-4.5l0.4-5.3l2.8-5.5
		l2.5-3.8L868.1,482.8L868.1,482.8z"/>
	<path class="st3" d="M688.8,482.1l-19.7,1.4l-19.2,1.3l0.9,1.6l-1.5,1.4l-2.1,1l0.2,1.6l-1.8,0.5l-0.6,2.3l0.4,1.3l-0.2,3.6
		l-4.1,3.2l-0.7,1.8l-1.5,1.4l1.2,1.1l-0.4,1.3l-3.2,1.1l1.1,1.4l-0.6,1.1l0.6,1.5l-2.6,2.6l0.9,1.6l-1.3,2.2l1.8,1.4l-0.1,2.2
		l-0.8,1.4l1.5,1.2l0.2,2.3l-1.2,0.8l0.2,2.3l1.8,2.1l-0.8,1.4l-0.4,2l1.1,0.6l-1.2,1.5l0.1,1.2l1.4,1.5l0.2,2.3l3.5,2.4l-2.6,5.9
		l-0.5,1.6l-1.2,0.8l-1.7,2.4l-1.5,0.6l-1.2,2.7l-0.4,3.9l-1.7,1.6l0.8,1.9l-0.9,2.8l-1.8,0.5l0.6,1.5l-0.4,1.3l1,2.1l-1.5,1.4
		l18.4-1l18.8-1.1l0.1,1.2l-1.8,6.4l1.2,2.5l2.5,2.2l1,3.5l1.2,1.8l1.1,0.6l1.6-0.2l0.5-1.6l1.4-1.1l6.2-2.4l1.5-1.4l1.7,0.2
		l2.1,1.6l3.5-0.2l2,0.4l1.2-1.5l-2.6-18.9l-1.9-14.8l0.7-18.1l0.4-12.4l0.4-12.4l0-11.1l0.5-13.8L688.8,482.1L688.8,482.1z"/>
	<path class="st3" d="M827.5,546.8l1-3.1l-1.2,0.1l-0.7,2.6L827.5,546.8L827.5,546.8z M832.3,531.3l-2.6-0.7l-1.2,0.1l-1.8-2.1
		l-0.2-2.3l-0.8-1.2l-1-2.8l-1-0.9l-3.5-1.6l-0.3-2.8l-1-2.1l-1.4-1.5l-0.9-2.4l-4.8-2l-1.4-1.5l-0.5-1.8l-2.1-0.8l-0.2-2.3
		l-2.4-1.7l-3.1-1l-1.4-2.7l-2.4-1.7l-4.4-2.1l-0.8-1.9l-3-2.5l-0.9-2.4l-1.2-1.8l-0.9-1.6l-2.9-0.2l-2.4-1.7l-3.8-1.8l-0.7-0.8
		l0.3-2.4l2.5-3l0.5-1.6l-12.2,1.9l-9.6,1.2l-10,1.3l-13.5,1.6l1.4,5.3l3,10.3l3.4,12.3l4.8,16.8l1,2.8l0.7,0.8l1.4,3.4l1.8,2.1
		l0.8,1.9l0.4,2.5l1.5,1.2l-2.1,1.8l-0.4,1.3l0.1,3l-1.2,4.1l1,2.8l1.2,1.8l0.5,1.8l-0.5,6l0.3,2l1.9,1.8l0.3,2l1.3,2.2l1,2.8
		l1.1,0.6l12.9-0.5l12.3-0.8l10.9-0.8l15.1-1.1l1.1,3.2l1,0.9l2.2-0.6l0.1-4.8l-1.1-1.4l0-1.9l1.1-2l1.2-0.1l4.3,1l4,0.1l-1.1-3.2
		l0-2.6l1.5-1.4l-1.2-3.7l1.4,0.8l1.8-3.1l-1.4-0.8l-1-2.1l0.6-3.7l1.6-3.5l2.3-2l-0.6-2.2l1.7,0.2l2.4-3.5L832.3,531.3L832.3,531.3
		z"/>
	<path class="st3" d="M850.6,607.7l-1.3-0.4l-1.1,1.2l0.5,3.6l1.2-1.5L850.6,607.7L850.6,607.7z M727.4,581.9l-5.1,1.2l-0.3,0.6
		L727.4,581.9z M825.5,562.7l-4-0.1l-4.3-1l-1.2,0.1l-1.1,2l0,1.9l1.1,1.4l-0.1,4.8l-2.2,0.6l-1-0.9l-1.1-3.2l-15.1,1.1l-10.9,0.8
		l-12.3,0.8l-12.9,0.5l-1.1-0.6l-1-2.8l-1.3-2.2l-18.1,1.9l-12.3,1.5l-19.1,1.7l-0.6,3l2.7,3l2.1,1.6l-0.6,2.3l0.6,1.5l1.3,0.4
		l-1,2.4l1.8,0.7l3-3.9l-0.2-2.3l1.9,1.8l0.8-0.7l1.8,1.4l-2,1.5l7-1.2l3.6-1.7l1.7,0.2l2.1-1l3,0.6l-1.6,0.9l-2.5,1.2l6,1.2
		l4.2,1.7l2.5,1.4l-0.9-2.4l1.3-0.4l1,2.8l6.7,4.5l1.2,1.8l0.4,2.5l3.2-1.1l4.8-0.6l2.8-1.7l1.2-1.5l2.7-2.2l3.2,0.3l-0.1-1.2
		l-2.2-0.1l1.2-1.5l2.1-1.8l2.3-0.2l2.4-0.9l3.6,2.1l1.2-0.1l2.5,1.4l1.9,1.8l1.6,2.4l2.6,0.7l0.4,3.2l4.1,2l1.3,2.2l1.6,0.5l1.5,2
		l3.6-0.5l1.5,1.2l0.7,2.6l1.6,1.7l1,0.2l0.5,3.6l0.4,6.5l-1.6,6.1l0.8,1.9l-0.8,6.6l1,0.2l2.8,2.3l0.9-0.2l0.6-3l-0.5-1l-2.4-1
		l0.4-2l1.8,0.7l2.5,1.4l1-0.5l1.2,2.5l-2.5,3.8l-0.3,2.4l-1.6,0.9l0.5,1.8l1.7,1l0.4,2.5l5,6.9l1.5,2l2.6,0.7l0.8-3.3l1.8,1.4
		l0.2,4.2l1.4,3.4l2.5,1.4l1.6-0.2l0.4,2.5l0.5,1l1.2,4.4l3.2,2.2l-0.4,1.3l2.8-0.3l3.6,0.9l1.8,1.4l3.2,5.5l1.7,2.8l1.4,0.8
		l2.4,0.3l1.2,1.1l-0.4,1.3l-2.8-0.9l-1.5-1.2l-0.3,2.4l2.2,2l3.5-1l1.1-1.2l3,0.6l2.3-2.8l3.3,0l0.2-1.7l1.6-2.1l-1-2.8l0.2-2.9
		l0.9-2.8l0.8-0.7l-0.2-2.3l0.9-1l-0.2-4.2l-0.2-4.9l-0.5-6.2l0.3-0.6l-1.2-5.1l-1.2-3.7l-2.1-3.4l-0.7,0l-4.6-7.5l-1.4-3.4
		l-9.7-14.8l-2-4.9l-0.8-1.2l-1-2.8l2.4,1l0,2.6l3.2-0.4l0.9,2.4l-0.2,2.9l0.4,3.9l0.9-0.2l-0.9-4.2l0.8-1.4l-0.9-2.4l-9-10.3
		l-6.9-10.6l-1.9-4.4l-4.6-10.8l-0.3-2l-1.4-2.7l-0.4-3.9L825.5,562.7L825.5,562.7z"/>
	<path class="st3" d="M735.7,477.7l-20.4,2.1l-14.3,1.1l-12.3,0.8l0.1,0.4l1.8,2.1l-0.5,13.8l0,11.1l-0.4,12.4l-0.4,12.4l-0.7,18.1
		l1.9,14.8l2.6,18.9l0.6-0.4l5,1l0-2.6l0.7-4.4l2-0.3l0.9,2.4l-0.5,1.6l0.8,1.2l2.8,2.3l-0.2,1.7l4-1.1l0.2-1l1.8-1.2l1.4-1.8
		l-0.5-1l-0.6-1.5l0.6-2.3l-2.1-1.6l-2.7-3l0.6-3l19.1-1.7l12.3-1.5l18.1-1.9l-0.3-2l-1.9-1.8l-0.3-2l0.5-6l-0.5-1.8l-1.2-1.8
		l-1-2.8l1.2-4.1l-0.1-3l0.4-1.3l2.1-1.8l-1.5-1.2l-0.4-2.5l-0.8-1.9l-1.8-2.1l-1.4-3.4l-0.7-0.8l-1-2.8l-4.8-16.8l-3.4-12.3
		l-3-10.3L735.7,477.7L735.7,477.7z"/>
	<path class="st4" d="M928.9,266.3l-2.2-2.7l0.4-2.7l-0.5-6.2l0.2-1l-1.3-4.8l0.7-2.6l-0.3-2l1-1.7l-0.2-2.3l0.9-6.1l-0.8-3.1
		l0.5-1.6l2.1-1l2.2-2.5l1.1-3.8l-2.2-2.7l1.1-3.8l-0.7-2.6l-12.3,3.4l-16.1,4.2l0.5,3.6l1,0.9l0,3.3l0.9,1.6l1.5,2l0,2.6l0.7,2.6
		l-0.5,0.8l-0.2,3.6l0.7,0.8l2,5.6l-0.3,2.4l2.2,0.1l1.1,1.4l4.1,17.5L928.9,266.3L928.9,266.3z"/>
	<path class="st3" d="M957.7,286.7l-0.8-3.1l-1.4-0.1l1.1,4L957.7,286.7L957.7,286.7z M954.5,283.1l-2.2-1.3l-1.3-2.2l-0.4-2.5
		l-6.7,2.1l2.9,10.5l0.6,2.2l-0.3,2.4l3.9-2.2l1.8-0.5l0.3-2.4l-0.9-2.4l0.4-3.9L954.5,283.1z"/>
	<path class="st3" d="M954.1,251.3l-1.8-1.4l-0.2-1.6l-3.3-2.6l-0.8-3.8l-2.5-7.3l-5.3-16l-4.7-13.8l-0.5,1.6l-2.4-0.3l-1.2,1.5
		l-0.4,5.3l0.7,2.6l-1.1,3.8l2.2,2.7l-1.1,3.8l-2.2,2.5l-2.1,1l-0.5,1.6l0.8,3.1l-0.9,6.1l0.2,2.3l-1,1.7l0.3,2l-0.7,2.6l1.3,4.8
		l-0.2,1l0.5,6.2l-0.4,2.7l2.2,2.7l18.7-4.2l5.1-5.6l1.8-0.5l0.3-3.2L954.1,251.3L954.1,251.3z"/>
	<path class="st3" d="M943.8,279.2l-0.1-0.4l-15.5,3.8l-11.5,2.7l3,16.9l1.5,1.2l-3.5,3.6l1.9,1.8l1.2-0.8l5.7-4.9l5.8-3.7l1.6-0.2
		l0.9-1l1.7,0.2l1.2-0.8l2.2-0.6l1.5-1.4l1.4,0.1l3.3-1.8l0.8,0.5l0.3-2.4l-0.6-2.2L943.8,279.2L943.8,279.2z"/>
	<path class="st3" d="M520.8,653.1l-0.7,0l-3.1,6.8l1.2-0.1L520.8,653.1L520.8,653.1z M524,648.3l3.7-4.6l-1.1-0.6l-1.2,2.7
		L524,648.3L524,648.3z M536.7,637.7l-2.2-0.1l-3.9,3l-2,0.3l0.6,1.5l1.5-1.4L536.7,637.7L536.7,637.7z M568.3,614.6l-2.5,3l4-2.5
		L568.3,614.6z M573.5,517.9l-0.7,0l-4.1-2l-2.3-0.6l-2-2.3l-1.3-0.4l-3.4-1.9l-0.8,1.4l-1.6,0.9l-3.4-0.5l-1.1-1.4l-3.3,1.8
		l-1.6,0.2l-1.4-0.8l-2.1,1l-2,0.3l-0.8,1.4l-1.9,0l-0.8,1.4l-1.5-2l-1.4-0.1l-1.5-1.2l-1.4-1.5l-0.8,1.4l-3-0.6l-1.2-1.8l-2.9,3.2
		l-0.5,1.6l-1.2,0.1l-0.8-1.2l0.7-1.8l-0.7-0.8l-3.1,1.6l-1.4-0.1l-0.4-1.3l-1.7-0.2l-0.5-1.8l-1.7-0.2l-2.3,2l-1.5,0.6l-1.4-0.8
		l0.2-1.7l-2.7-1.2l0-2.6l-2,0.3l-2.6-0.7l-1.2,1.5l-1.6,0.2l-1.5-2l-2.8,0.3l-2.8-0.9l-1.4-0.8l-1.2,0.1l-3.3-0.8l0.1-2.2l-1.2-1.8
		l-2.2-1.3l-0.2,1.7l-2.8-0.9l-2.5,0.4l-3.5-4.2l-2.2-0.1l0.9-19.1l0.8-15.1l0.4-9.1l-13.4-0.6l-19-1.2l-21.4-1.5l-0.7,0l-0.7,7
		l-1.5,18.8l-1.1,12.3l-1.7,18.6l-1.8,22l-1.9,21.5l-16.9-1.5l-16.9-1.5l-20.9-2.3l-13.6-1.5l1.1,4l1.4,1.5l2.5,1.4l1.1,3.2l1.8,3.3
		l3.2,1.5l2.2,2.7l1.7,2.8l2.9,2.8l0.6,1.5l3.4,3.8l2.5,1.4l2.3,2.4l1.7,1l2,3l0.4,2.5l1.6,4.3l0.9,1.6l-0.6,3.7l0.3,2l1.7,3.6
		l0.6,2.9l1.5,2l1.8,1.4l1.7,0.2l3.6,4.7l2.2,1.3l2.7,0.4l0.1,1.2l2.1,1.6l2.6,0.7l1.2,1.8l1.8,1.4l1.4,0.1l3.1,1l0.8-1.4l2.6-2.6
		l1.9-0.8l0.4-2.7l2.5-5.6l2.2-3.2l3.4-0.7l2,0.4l1-1.7l1.5-0.6l3.6,2.1l2.6,0l6.7,1.2l1.6-0.2l2.8,0.9l0.8,1.9l1,0.9l1.4,0.1
		l1.7,2.8l1.8,1.4l0.5,1.8l3.9,3l0.9,2.4l1.5,1.2l0.8,4.5l2.2,2.7l0.2,2.3l1.9,2.6l1.9,7l1.5,2l2.5,1.4l1.3,3l2.4,2.9l0.2,2.3
		l1.1,0.6l1.9,2.6l2.3,0.6l1.6,1.7l-0.2,1.7l0.9,1.6l-0.8,2.1l1.3,3l-0.8,3.3l2,1.1l0.2,1.6l1.8,1.4l0.8,1.2l0,1.9l1.6,1.7l-0.9,2.8
		l1,0.9l0.7,2.6l2.4,0.3l1.4,0.8l1.9,0l1.2,1.8l1.8,1.4l1.3-0.4l4.2,1.7l1.5,2l1.7,1l5.8,0.3l2.9,0.2l2.3,0.6l5.4,4.2l3.6-2.4
		l2.3-0.2l0-1.9l-2,1.5l0-1.9l-1.5-1.2l0.2-1.7l-1-2.1l0.1-1.4l-2.1-1.6l0.7-2.6l-1.3-5.5L513,672l0.2-4.3l1.3-0.4l-0.3-2l1-0.5
		l0.3-3.2l-1.6,0.9l-2.4-0.3l0.1-1.4l2.1-1l2.3,0.6l3.3-7.7l-1.8-1.4l-0.6-2.2l-2.2-0.1l-0.5-1l5.2,0l1.7,1l3.3-4.4l-1.8-0.7
		l-0.4,1.3l-1.8-1.4l1.2-1.5l5.6-0.1l2-2.2l0-1.9l-1-2.1l1.3-0.4l2.2,2.7l5.2-2.6l-2.2-2.7l-1.4-0.8l0.5-1.6l2.3,0.6l1.1-1.2
		l0.8,1.2l1.8-1.2l0.9,2.4l7.8-3.3l2.6,0l1.9-0.8l3.6-2.4l0.9-0.2l4.4-3.8l-0.2-2.3l1.8-1.2l3.4-4l-1-0.9l-1.7-2.8l0.1-4l3,1.3
		l1-2.4l1.3-0.4l1.2,1.8l-1.2,4.1l2.9-0.6l-0.8,2.1l11.5-5.3l3.8-0.1l-1.3-2.2l0.4-2l1.2-2.7l1.2-0.1l1.6-2.1l-0.2-4.9l-0.6-2.2
		l0.8-1.4l-0.7-2.6l0.8-0.7l2.2-5.1l0.9-2.8l-1.1-1.4l1.2-0.8l-3.1-6.2l0.4-1.3l-3.4-4.5l0.2-2.9l-1.8-4l-2.8-2.3l-0.3-22.8
		l-0.3-12.4l-0.8-0.5l-3.9-0.4l-1.6,0.9L573.5,517.9L573.5,517.9z"/>
	<path class="st3" d="M627.7,609.9l1.6-2.1l-4.1-1.2l-1.9,0.8l0.1,1.2l3.5,1.6L627.7,609.9L627.7,609.9z M671.4,591.9l-1.1-0.6
		l-1.2-1.8l-1-3.5l-2.5-2.2l-1.2-2.5l1.8-6.4l-0.1-1.2l-18.8,1.1l-18.4,1l1.5-1.4l-1-2.1l0.4-1.3l-0.6-1.5l1.8-0.5l0.9-2.8l-0.8-1.9
		l1.7-1.6l0.4-3.9l1.2-2.7l1.5-0.6l1.7-2.4l1.2-0.8l0.5-1.6l2.6-5.9l-3.5-2.4l-0.2-2.3l-1.4-1.5l-0.1-1.2l1.2-1.5l-1.1-0.6l0.4-2
		l0.8-1.4l-1.8-2.1l-13.7,0.7l-10.3,0.4l-13.3,0.6l-16.9,0.4l0.3,22.8l2.8,2.3l1.8,4l-0.2,2.9l3.4,4.5l-0.4,1.3l3.1,6.2l-1.2,0.8
		l1.1,1.4l-0.9,2.8l-2.2,5.1l-0.8,0.7l0.7,2.6l-0.8,1.4l0.6,2.2l0.2,4.9l-1.6,2.1l0.7,0.8l-0.6,2.3l-1.8,1.2l1,2.1l1.9-0.8l5.7-0.8
		l4.9-0.2l3.3,0.8l6.9,2.8l2.7,0.4l5.4,0.9l2.7-1.4l0.5-0.8l-0.9-1.6l0.4-1.3l2.5-1.2l0.3-0.6l2.8-0.3l-0.7,1.8l3.8-0.1l1.3,0.4
		l-0.4,2l1.6-0.2l0.7,2.6l4.4,0.7l0.8-0.7l1.2,2.5l-1.9,2.6l2,1.1l3.1,1l2.7,0.4l2-0.3l2.7,1.2l2.4-4.2l3.5-0.2l2.8,0.9l-0.4,2
		l1.2,1.8l2.7-2.2l-0.4-2.5l1.1-2l-1.2-3.7l2.2,1.3l1.3-0.4l2.6,1.9l0.5,1l2.7,1.2l0.4,0.6l2.4,0.3l2.3,3.2l1.4,0.8l2.4,0.3l3-2.7
		l-2-2.3l-1.8-2.1l-2.8,0.3l-2-1.1l-1.6,0.2l-0.5-1.8l-2.6-0.7l-1.2-1.8l1.5-0.6l3.3-5.2l1,0.9l1.6-2.1l-2.1-0.8l-0.1-3l-2.8,1.7
		l-0.7,2.6l-1.2,0.1l-3.2-2.2l0.7-2.6l-2-1.1l-0.8,1.4l-2,1.5l-2.5,0.4l-3.6-0.9l-1.8-1.4l0.4-2l3.4-4l3.2,0.3l2,2.3l3.9,0.4
		l1.1,1.4L671.4,591.9L671.4,591.9z"/>
	<path class="st4" d="M537.8,242.6l-14.7-0.2l-14.7-0.2l-14.5-0.5l-14.7-0.9l-7.2-0.4l-14.4-0.8l-11.1-0.7l-18.1-1.4l-8-0.9
		l-1.7,21.2l-0.3-0.2l-0.8,8.5l-1.5,16.9l-1.8,19.4l16.9,1.5l13.9,0.9l11.3,0.9l16.5,0.9l13.9,0.9l18.3,0.4l3.9,3l3.9,2.2l1.2-0.1
		l1.4-1.8l3.2,0.3l2.6,0l3.2-0.4l2.9,2l4.4,1.4l0.8,1.2l1.7,0.2l0.1,1.2l1.5,2l2,0.4l-0.6-2.9l-2-2.3l1.3-2.2l1.2-2.7l-0.2-1.6
		l1-1.7l-0.4-2.5l-1.4-0.1l0.5-3.4l-0.7-2.6l2.2,0.1l0.4-15l0-9.7l0.1-15.9l-1.8-2.1l-2-0.4l-2.6-4.5l0.2-1l3.3-2.6L537.8,242.6
		L537.8,242.6z"/>
	<path class="st3" d="M570.4,453.8l0-11.1l-12.7,0.2l-12.3,0.1l-20.6-0.3l-16.4-0.5l-16.4-0.5l-8.3-0.3l-16.5-0.9l-16.5-0.9
		l-12.9-0.7l-16.9-1.5l-0.9,11.3l21.4,1.5l19,1.2l13.4,0.6l-0.4,9.1l-0.8,15.1l-0.9,19.1l2.2,0.1l3.5,4.2l2.5-0.4l2.8,0.9l0.2-1.7
		l2.2,1.3l1.2,1.8l-0.1,2.2l3.3,0.8l1.2-0.1l1.4,0.8l2.8,0.9l2.8-0.3l1.5,2l1.6-0.2l1.2-1.5l2.6,0.7l2-0.3l0,2.6l2.7,1.2l-0.2,1.7
		l1.4,0.8l1.5-0.6l2.3-2l1.7,0.2l0.5,1.8l1.7,0.2l0.4,1.3l1.4,0.1l3.1-1.6l0.7,0.8l-0.7,1.8l0.8,1.2l1.2-0.1l0.5-1.6l2.9-3.2
		l1.2,1.8l3,0.6l0.8-1.4l1.4,1.5l1.5,1.2l1.4,0.1l1.5,2l0.8-1.4l1.9,0l0.8-1.4l2-0.3l2.1-1l1.4,0.8l1.6-0.2l3.3-1.8l1.1,1.4l3.4,0.5
		l1.6-0.9l0.8-1.4l3.4,1.9l1.3,0.4l2,2.3l2.3,0.6l4.1,2l0.7,0l0.1-9.9l0.3-19.4l0-9.7l-1.4-9.3L570.4,453.8L570.4,453.8z"/>
	<path class="st5" d="M538.1,319.4l-2-0.4l-1.5-2l-0.1-1.2l-1.7-0.2l-0.8-1.2l-4.4-1.4l-2.9-2l-3.2,0.4l-2.6,0l-3.2-0.3l-1.4,1.8
		l-1.2,0.1l-3.9-2.2l-3.9-3l-18.3-0.4l-13.9-0.9l-16.5-0.9l-11.3-0.9l-13.9-0.9l-16.9-1.5l-1.9,19.7l-1.2,13.8l-1.2,11.2l12.6,1.3
		l12.1,0.9l9.1,0.4l-1.7,22.4l11.3,0.9l10.8,0.6l21.3,1l18.1,0.7l10.7,0.2l14.5,0.5l10.7,0.2l17.9-0.2l-1.7-1l0.1-1.4l-3.8-5.1
		l-1.1-4l-1.2-1.8l0.1-1.4l-1.8-1.4l0.5-1.6l-0.2-4.2l-0.4-0.6l-0.1-3.8l-0.7-0.8l0.7-2.6l-1.3-0.4l0.4-2.7l-2.6-1.9l-0.2-2.3
		l0.5-3.4l-1.1-1.4l-0.3-2.8l-1.6-1.7l-0.4-1.3l-1.2-1.8l0.1-2.2l-0.9-1.6l0.2-2.9L538.1,319.4L538.1,319.4z"/>
	<path class="st3" d="M623.6,365.6l-1.9-1.8l-2.6-1.9l-0.6-1.5l-3.6,0.5l-19.5,1.1l-7.9,0.3l-7.7,0.4l-7.8,0l-7.8,0l-14.3-0.3
		l1.2,1.8l1.1,4l3.8,5.1l-0.1,1.4l1.7,1l2.2,2l2,1.1l1.2-0.8l2.4,1.7l-0.4,2l-1-0.2l-1.4,1.8l-1,3.1l3.3,3.4l1.4,3.4l3.6,2.1l0.1,16
		l0.1,11.5l0.5,19.9l0,11.1l14.9-0.1l14.7-0.5l19.6-0.7l14.9-0.8l16.1-0.9l1.7,2.8l0,1.9l-1,1.7l-1.5,0.6l-2,2.9l-0.7,1.8l11.7-1.1
		l1-2.4l0.9-1l-1.8-2.1l2-0.3l-0.6-1.5l1.5-1.4l-0.7-2.6l1.2-0.1l1.2-0.1l1-3.1l2,1.1l0.8-0.7l1-3.1l-0.4-2.5l0.4-2.7l-1-0.2
		l-1.5-1.2l-1.2,0.8l-3.9-5.5l0.8-2.1l0.2-1.7l-1.4-2.7l-0.8-3.1L658,423l-1.6-2.4l-2.1-0.8l-1.5-1.2l-1.6-0.5l-1.8-0.7l-4.2-4.3
		l-1-2.1l2-5.5l0.8-2.1l-0.2-2.3l1.1-2l-1.1-1.4l-4.4-1.4l-2.6,1.9l-1.4-0.8l-0.6-1.5l-0.8-4.5l-1.7-2.8l-4-2.7l-1.2-1.8l-4.6-3.7
		l-1.8-3.3l0-1.9l-0.6-1.5l-0.7-3.4l0.3-3.2L623.6,365.6L623.6,365.6z"/>
	<path class="st3" d="M570.4,442.7l-0.5-19.9l-0.1-11.5l-0.1-16l-3.6-2.1l-1.4-3.4l-3.3-3.4l1-3.1l1.4-1.8l1,0.2l0.4-2l-2.4-1.7
		l-1.2,0.8l-2-1.1l-2.2-2l-17.9,0.2l-10.7-0.2l-14.5-0.5l-10.7-0.2l-18.1-0.7l-21.3-1l-10.8-0.6l-11.3-0.9l-0.9,14.7l-0.7,10.3
		l-0.9,14.7l-1.1,16.8l-0.9,10.6l12.9,0.7l16.5,0.9l16.5,0.9l8.3,0.3l16.4,0.5l16.4,0.5l20.6,0.3l12.3-0.1L570.4,442.7L570.4,442.7z
		"/>
	<path class="st3" d="M634.5,317.3l0-0.7l-1.2-2.5l-4.4-0.7l-1.4-0.8l-1.5-3.8l-1-5.4l1.3-3l-0.4-1.3l-1.6-0.5l-1-2.8l-10.5,0.3
		l-15.9,0.6l-15.9,0.6l-16,0.1l-15.6,0l-10.8,0.1l-2.2-0.1l0.7,2.6l-0.5,3.4l1.4,0.1l0.4,2.5l-1,1.7l0.2,1.6l-1.2,2.7l-1.3,2.2
		l2,2.3l0.6,2.9l1.6,0.5l-0.2,2.9l0.9,1.6l-0.1,2.2l1.2,1.8l0.4,1.3l1.6,1.7l0.3,2.8l1.1,1.4l-0.5,3.4l0.2,2.3l2.6,1.9l-0.4,2.7
		l1.3,0.4l-0.7,2.6l0.7,0.8l0.1,3.8l0.4,0.6l0.2,4.2l-0.5,1.6l1.8,1.4l-0.1,1.4l14.3,0.3l7.8,0l7.8,0l7.7-0.4l7.9-0.3l19.5-1.1
		l3.6-0.5l0.6,1.5l2.6,1.9l1.9,1.8l0.9-0.2l-0.3-4.6l3.4-1.4l0.9-1l0.3-3.2l2.2-2.5l-0.1-3l-0.6-1.5l-1.7-1l-0.2-1.6l0.4-2.7
		l1.1-1.2l4.8-0.6l1.7-1.6l2.6-0.7l1.5-1.4l0.5-3.4l1.7-1.6l0.8-4.7l-0.8-1.9l-4-2.7l-1-2.8l-3.5-2.4L634.5,317.3L634.5,317.3z"/>
	<path class="st3" d="M658.9,461.7l-11.7,1.1l0.7-1.8l2-2.9l1.5-0.6l1-1.7l0-1.9l-1.7-2.8l-16.1,0.9l-14.9,0.8l-19.6,0.7l-14.7,0.5
		l-14.9,0.1l2.2,15.7l1.4,9.3l0,9.7l-0.3,19.4l-0.1,9.9l1.9,1.8l1.6-0.9l3.9,0.4l0.8,0.5l0.3,12.4l16.9-0.4l13.3-0.6l10.3-0.4
		l13.7-0.7l-0.2-2.3l1.2-0.8l-0.2-2.3l-1.5-1.2l0.8-1.4l0.1-2.2l-1.8-1.4l1.3-2.2l-0.9-1.6l2.6-2.6l-0.6-1.5l0.6-1.1l-1.1-1.4
		l3.2-1.1l0.4-1.3l-1.2-1.1l1.5-1.4l0.7-1.8l4.1-3.2l0.2-3.6l-0.4-1.3l0.6-2.3l1.8-0.5l-0.2-1.6l2.1-1l1.5-1.4l-0.9-1.6l1.4-1.1
		l0.8-2.1l1.3,0.4l0.2-1.7l-0.8-1.9l0.3-2.4l1.2-1.5l0.1-1.4l1.9-0.8l-0.8-1.2l0.6-1.1l-0.8-1.9l3-1.3l1.1-1.2l-0.9-1.6l1.6-0.2
		L658.9,461.7L658.9,461.7z"/>
	<path class="st3" d="M414.4,302.3l1.8-19.4l1.5-16.9l0.8-8.5l-11.6-1.1l-12.2-1.4l-11.9-1.2l-13.9-1.6l-17.2-2.4l-13.7-1.9l-17-2.7
		l-12.6-2l-1.9,11.1l-3.1,17.1l-2.3,13.9l-2.2,13.6l-1.9,10.4l-3.7,22l6,1.2l16.7,2.5l10.6,1.6l13,1.9l10.6,1.6l10.5,1.1l10.6,1.6
		l10.5,1.1l10.5,1.1l17.9,1.7l1.2-11.2l1.2-13.8L414.4,302.3L414.4,302.3z"/>
	<path class="st3" d="M297,309.4l-21.6-3.8l-15-3l-12.3-2.5l-2.1,10.3l-4.3,20.5l-2.6,13.7l-3.5,17.3l-4.3,20.5l-3.4,17l-2.1,10.3
		l11,2.2l16.3,3.3l8.1,1.3l13.7,2.6l13.9,2.3l10.9,1.7l14,2.1l1.5-11l2.9-19.4l1.9-13.7l2.8-16.6l1.9-13.7l2.1-14l-10.6-1.6
		l-16.7-2.5l-6-1.2L297,309.4L297,309.4z"/>
	<path class="st4" d="M128.8,172.8l-1,0.5l-2.1-0.8l-1.2-2.5l-1.9,0.8l-4-0.8l-1.4-1.5l-0.2,2.9l-0.6,2.3l-1.3,0.4l0,1.9L114,178
		l0.4,2.5l-1.2,1.5l-1,2.4l0.5,1l-1.5,1.4l0.1,1.2l-1,3.1l-3,5.3l-0.6,1.1l-1.6,4.7l-6.5,15.2l-1.3,2.2l-3.8,6.7l-0.8,1.4l-1.4-0.1
		L88,234l-2.6,3.3l-0.3,2.4l1,2.1l-0.6,2.3l-0.8,1.4l-1.2,3.4l0,2.6l-0.6,2.3l1.6,3.1l12.7,4.3l12.6,3.9l8.2,2.5l12.6,3.9l8.4,2.2
		l12.5,3.4l8.9,2.5l12.2,3.3l11.9,3.1l14.9,3.7l4.9-20.2l4.3-18.7l2.9-5l-0.4-1.3l1.6-2.1l-1-2.1l-3-1.3l1-4.3l2-1.5l2.4-3.5
		l1.6-0.9l2-2.2l0.7-2.6l2.3-2l2-4.1l4-4.4l0.5-1.6l-0.4-2.5l-2-2.3l-1.1-0.6l-0.9-1.6l0.1-2.2l-15.9-3.9l-16.5-4.2l-1.6,0.9
		l-3.8-1.1l-3.9-0.4l-1.2,0.8l-4.4-0.7l-3.2,0.4l-1.9,0.8l-3.9-0.4l-2-1.1l-0.9,0.2l-3.9,0.4l-2.1-0.8l-1.6,0.2l-1.6-2.4l-4.2-1.7
		l-3.6-0.9l-3.1,0.8l-5.1,0.4l-3.8-2.5l-1.8-0.7l-0.8-1.2l1-6.9l-0.7-3.4l-2.3-2.4L128.8,172.8L128.8,172.8z"/>
	<path class="st6" d="M419.8,448.8l0.9-11.3l-13.5-1l-10.2-1l-13.3-1.3l-20.2-2.3l-13.2-1.6l-10-1.3l-16.9-2.2l-9.9-1.5l-2.3,15.7
		l-1.9,11.9l-1.8,11.6l-2.3,15.7l-1.5,11.7l-1.9,11.9l-1.8,11.6l-1.7,12l-2.3,15.7l-1.3,8.1l1.4,0.1l14.5,1.9l1.5-9.9l19.9,2.8
		l12.5,1.5l-1.4-1.5l-1.1-4l13.6,1.5l20.9,2.3l16.9,1.5l16.9,1.5l1.9-21.5l1.8-22l1.7-18.6l1.1-12.3l1.5-18.8l0.7-7L419.8,448.8
		L419.8,448.8z"/>
	<path class="st4" d="M225.7,409.6l2.1-10.3l3.4-17l4.3-20.5l3.5-17.3l2.6-13.7l4.3-20.5l2.1-10.3l-18.3-3.7l-9-1.8l-21.2-5.1
		l-14.9-3.7l-11.9-3.1l-12.2-3.3l-8.9-2.5l-3.1,11.9l-4.3,16.1l-2.1,7.7l-4.6,15.9l-3.5,13.2l8.8,13.9l6.3,9.1l9.2,13.8l9.6,15.1
		l10,15l6.8,10.2l8.5,13.7l4.8,7.2l8.2,11.7l0.6-3l1.4-1.1l0.5-3.4l-0.6-4.1l1-2.4l-0.3-2l0.1-2.2l0.9-1l-1-2.8l1-2.4l3.4-0.7l2,1.1
		l1.4,0.1l1.7,2.8l1.9,0l2.4-3.5L225.7,409.6L225.7,409.6z"/>
	<path class="st4" d="M442.2,371.9l1.7-22.4l-9.1-0.4l-12.1-0.9l-12.6-1.3l-17.9-1.7l-10.5-1.1l-10.5-1.1l-10.6-1.6l-10.5-1.1
		l-10.6-1.6l-13-1.9l-2.1,14l-1.9,13.7l-2.8,16.6l-1.9,13.7l-2.9,19.4l-1.5,11l9.9,1.5l16.9,2.2l10,1.3l13.2,1.6l20.2,2.3l13.3,1.3
		l10.2,1l13.5,1l16.9,1.5l0.9-10.6l1.1-16.8l0.9-14.7l0.7-10.3L442.2,371.9L442.2,371.9z"/>
	<path class="st4" d="M124.1,477.3l0.8,4.5l1.1,1.4l1.3-0.4l-1.6-2.4L124.1,477.3L124.1,477.3z M127.8,468.3l0.4,1.3l-0.1,2.2
		l3.2,0.3l-0.9-1.6L127.8,468.3L127.8,468.3z M103.6,448.9l-3-0.6l0.2,2.3l1,0.9l2.2-0.6L103.6,448.9L103.6,448.9z M107.7,449
		l-1.4,1.1l0.5,1l2.4,1l1.6-0.9L107.7,449L107.7,449z M206,451.4l-8.2-11.7l-4.8-7.2l-8.5-13.7l-6.8-10.2l-10-15l-9.6-15.1
		l-9.2-13.8l-6.3-9.1l-8.8-13.9l3.5-13.2l4.6-15.9l2.1-7.7l4.3-16.1l3.1-11.9l-12.5-3.4l-8.4-2.2l-12.6-3.9l-8.2-2.5l-12.6-3.9
		l-12.7-4.3l-1.2,3.4l-1.1,1.2l1.4,1.5l0.1,3l-0.6,3.7l-2.6,5.2l-1,0.5l0.1,3l-3.9,6.3l-0.8-0.5l-4.1,4.7l0.1,3l-0.6,1.1l2.9,4.6
		l2.5,7.3l0,3.3l-0.8,3.3l-1.4,1.8l-0.8,2.1l0.2,7.5l-1.1,1.2l0.7,2.6l2.2,4.6l2,4.9l1.5,2l1.5,4.6l-0.4,2.7l-2,2.9l1.8-0.5l1.4,1.5
		l1.2,2.5l1,0.2l1.9,2.6l1.6-0.9l-0.8-1.2l1.5-4l1.8-0.5l1.6,2.4l2.7,1.2l1.5-1.4l0.9,1.6l-3.2,0.4l-1.1-1.4l-3.5,1l1,3.5l-0.9,1
		l1.1,1.4l1,2.1l-0.4,2l-1.1,1.2l-0.9-1.6l-1.5-1.2l0.6-4.9l-2,0.3l-0.3,2.4l-1.6,2.8l1,0.9l0,3.3l-0.9,3.6L85,375l1.4,0.8l2.2,0.1
		l1.1,1.4l0.4,3.2l-1,2.4l-1.5,1.4l-1-0.9l-1,3.1l-0.4,3.9l0.5,1.8l1.6,1.7l1.3,2.2l0.4,2.5l1.2,1.1l-0.3,2.4l1.4,2.7l0.6,2.9
		l1.5,1.2l1.9,4.4l1.4,0.8l0.5,1l-1.5,3.2l1.5,2l2.4,1.7l-0.1,1.4l-1.9,3.4l0.6,1.5l-0.8,2.1l0.4,1.3l-1.7,2.4l2.2,2l0.2,1.6
		l6.3,1.4l2.1,0.8l1.9,1.8l2.6,0.7l2.2,0.1l2.6,1.9l2.6,3.3l0.3,2.8l4.7,3.4l2.5,1.4l4.4,0.7l1.3,2.2l0.3,2.8l-0.8,2.1l1.7,1
		l1.2-0.8l2.8,1.6l1.6,2.4l3,3.2l3.9,5.5l2.3,5.7l0,5.2l-0.9,1l-0.2,2.9l1.5,1.2l0,3.3l11.3,1.6l13.7,1.9l20.2,2.3l1-0.5l2.6,0.7
		l0.6-1.1l1.5-1.4l0.3-2.4l-1.1-1.4l-1.6-0.5l-1.1-1.4l1-2.4l-0.4-2.5l0.6-2.3l1.6-0.2l2.4-2.3l1.7-4.2l0.2-4.3l2.6-1.9l0.8-1.4
		l2.8-1l2.7-1.4l0.2-1l-3.7-3.9l0.2-1.7l-1.2-5.1l-0.8-0.5l-1-2.8L206,451.4L206,451.4z"/>
	<path class="st6" d="M313.5,425.2l-14-2.1l-10.9-1.7l-13.9-2.3l-13.7-2.6l-8.1-1.3l-16.3-3.3l-11-2.2l-3.5,17.3l-2.4,3.5l-1.9,0
		l-1.7-2.8l-1.4-0.1l-2-1.1l-3.4,0.7l-1,2.4l1,2.8l-0.9,1l-0.1,2.2l0.3,2l-1,2.4l0.6,4.1l-0.5,3.4l-1.4,1.1l-0.6,3l-0.4,2.7l1,2.8
		l0.8,0.5l1.2,5.1l-0.2,1.7l3.7,3.9l-0.2,1l-2.7,1.4l-2.8,1l-0.8,1.4l-2.6,1.9l-0.2,4.3l-1.7,4.2l-2.4,2.3l-1.6,0.2l-0.6,2.3
		l0.4,2.5l-1,2.4l1.1,1.4l1.6,0.5l1.1,1.4l-0.3,2.4l-1.5,1.4l-0.6,1.1l-2.6-0.7l-1,0.5l-2.2,2.5l-0.4,2l14.5,9l14.2,8.9l14.4,8.6
		l14.5,8.3l7.7,4.7l1,0.2l20,3.3l17.3,2.8l1.3-8.1l2.3-15.7l1.7-12l1.8-11.6l1.9-11.9l1.5-11.7l2.3-15.7l1.8-11.6l1.9-11.9
		L313.5,425.2L313.5,425.2z"/>
	<path class="st4" d="M152.3,127.6l-1-0.2l-2.2,2.5l-0.2,1l1.6,2.4l-0.6,1.1l0.3,2.8l1.1,1.4l1.6-0.2l0.1-1.4l-1.1-1.4l-1.3,0.4
		l0.5-4.2l-1-0.9l1.5-1.4L152.3,127.6L152.3,127.6z M147.4,123.3l-1.3-3l-0.9,0.2l0.3,2.8L147.4,123.3L147.4,123.3z M150.6,119.6
		l-1-0.2l-1.8,1.2l2.2,1.3l1.9-0.8L150.6,119.6L150.6,119.6z M154,113.7l-1,2.4l1.1,3.2l1.6,0.5l0,4.5l-1.2,0.8l-1.5,3.2l1.5,2
		l-0.5,4.2l1.6,3.1l-2.4,0.9l-2.2,3.2l-0.1,1.4l-1,1.7l-0.7,4.4l0.2,1.6l-2.6,1.9l-1.1-0.6l-1.1,1.2l-3,2l-0.5-1.8l-1.9,0l-0.6-1.5
		l1.4-1.8l1.5-0.6l-0.2,2.9l2.4-1.6l1.8-0.5l2.1-3.6l-0.8-1.9l0.3-2.4l2.9-0.6l0-3.3l-0.8-0.5l-3.2,3l-1.1,1.2l-3.1,0.8l2.8-3.6
		l1.6,0.5l1.5-1.4l0.2-1.7l-0.5-3.6l0.4-1.3l-3.5,0.2l-1.2-1.8l-2.3,0.2l-4.5-1.8l-1.5-1.2l-4.8-2l-2.2-2.7l-2.2-1.3l-1.9-2.6
		l-1.8,0.5l-2,2.9l0,1.9l-0.5,4.2l1.6,3.1l0.5,1.8l-0.4,4.6l-0.8,4l0.7,3.4l-1,4.3l2.1,0.8l-0.2,1l1.6,1.7l-2.8,0.3l-1.2,1.5
		l-0.4,1.3l2.5,1.4l-1.6,6.1l-3.2,1.1l1.4,2.7l3.8-0.1l0.9,1.6l2.2,0.1l1.7,3.6l1.9,0l1.3,0.4l2.3,2.4l0.7,3.4l-1,6.9l0.8,1.2
		l1.8,0.7l3.8,2.5l5.1-0.4l3.1-0.8l3.6,0.9l4.2,1.7l1.6,2.4l1.6-0.2l2.1,0.8l3.9-0.4l0.9-0.2l2,1.1l3.9,0.4l1.9-0.8l3.2-0.4l4.4,0.7
		l1.2-0.8l3.9,0.4l3.8,1.1l1.6-0.9l16.5,4.2l15.9,3.9l-0.7-2.6l1.2-1.5l-0.2-1.6l-1-2.8l1.2-5.3l4.3-17.9l3.5-13.9l1.7-6.8l3.3-13.7
		l-17.8-4.6l-15.8-4.2l-18.9-5.2l-9.7-2.5l-12.3-3.7L154,113.7L154,113.7z"/>
	<path class="st5" d="M250.3,139.8l-14.1-3.2l-3.3,13.7l-1.7,6.8l-3.5,13.9l-4.3,17.9l-1.2,5.3l1,2.8l0.2,1.6l-1.2,1.5l0.7,2.6
		l-0.1,2.2l0.9,1.6l1.1,0.6l2,2.3l0.4,2.5l-0.5,1.6l-4,4.4l-2,4.1l-2.3,2l-0.7,2.6l-2,2.2l-1.6,0.9l-2.4,3.5l-2,1.5l-1,4.3l3,1.3
		l1,2.1l-1.6,2.1l0.4,1.3l-2.9,5l-4.3,18.7l-4.9,20.2l21.2,5.1l9,1.8l18.3,3.7l12.3,2.5l15,3l21.6,3.8l1.9-10.4l2.2-13.6l2.3-13.9
		l3.1-17.1l-2.2-2.7l-1.1-3.2l-2.2-0.1l-1.2,1.5l-0.4,2l-2.8-0.9l-1.8,0.5l-1-0.9l-3.6-0.2l-2.1-0.8l-1.6,0.2l-0.8,1.4l-5-1.7
		l-2.7,1.4l-1.7-0.2l-0.8-1.2l0.2-1.7l-0.8-1.9l0.8-0.7l-1.5-3.8l-2.4-0.3l-1.1-1.4l-0.8-1.9l1.2-1.5l-0.8-3.1l-2.4-4.3l0-2.6l0.1-4
		l-2.2-2.7l-3,2l-3.7,1.2l-1.5-2l-1.4-0.8l1.4-2.5l-0.6-2.2l1.2-0.8l1.9-0.8l0.1-2.2l-0.8-1.9l1.2-2.7l0-1.9l1.2-1.5l1.8-3.8l1-2.4
		l-0.5-1l-3.3,0l-0.5-1.8L257,191l0-1.9l-4.1-7.1l-0.5-1.8l-2.4-1.7l-0.8-1.9l-1.8-1.4l1.6-0.9l-1.2-1.8l1.2-0.8l-0.2-2.3l-1.3-2.2
		l0.1-1.4l-2.1-4.1L250.3,139.8L250.3,139.8z"/>
	<path class="st3" d="M528.3,173.4l-12.1-0.2l-9.8-0.4l-16.4-0.5l-12.9-0.7l-10.3-0.7l-9.3-0.5l-13.1-1.1l-17.4-1.4l-2.1,23.2
		l-1.2,11.2l-1.7,18.6l-1.4,15.5l8,0.9l18.1,1.4l11.1,0.7l14.4,0.8l7.2,0.4l14.7,0.9l14.5,0.5l14.7,0.2l14.7,0.2l-0.1-3.8l-0.6-4.8
		l-1.9-2.6l-0.5-3.6l-0.5-1l0-5.2l-0.6-2.9l-0.1-3.8l-0.2-2.3l0.3-5l-0.9-4.2l-1.1-3.2l-2.2-7.9l0.3-5.8l-0.4-2.5l0.9-2.8l-1.9-7
		L528.3,173.4L528.3,173.4z"/>
	<path class="st4" d="M427,167.9l-11.9-1.2l-9.9-0.8l-16.3-1.9l-9.6-1.4l-13.2-1.6l-12.7-1.7L339,157l-11.7-2.2l-12.9-2.1l-19.1-3.5
		l-16-3.2l-16.3-3.3l-12.8-2.9l-4.7,21.8l2.1,4.1l-0.1,1.4l1.3,2.2l0.2,2.3l-1.2,0.8l1.2,1.8l-1.6,0.9l1.8,1.4l0.8,1.9l2.4,1.7
		l0.5,1.8l4.1,7.1l0,1.9l3.6,3.5l0.5,1.8l3.3,0l0.5,1l-1,2.4l-1.8,3.8l-1.2,1.5l0,1.9l-1.2,2.7l0.8,1.9l-0.1,2.2l-1.9,0.8l-1.2,0.8
		l0.6,2.2l-1.4,2.5l1.4,0.8l1.5,2l3.7-1.2l3-2l2.2,2.7l-0.1,4l0,2.6l2.4,4.3l0.8,3.1l-1.2,1.5l0.8,1.9l1.1,1.4l2.4,0.3l1.5,3.8
		l-0.8,0.7l0.8,1.9l-0.2,1.7l0.8,1.2l1.7,0.2l2.7-1.4l5,1.7l0.8-1.4l1.6-0.2l2.1,0.8l3.6,0.2l1,0.9l1.8-0.5l2.8,0.9l0.4-2l1.2-1.5
		l2.2,0.1l1.1,3.2l2.2,2.7l1.9-11.1l12.6,2l17,2.7l13.7,1.9l17.2,2.4l13.9,1.6l11.9,1.2l12.2,1.4l11.6,1.1l0.3,0.2l1.7-21.2
		l1.4-15.5l1.7-18.6l1.2-11.2L427,167.9L427,167.9z"/>
	<path class="st3" d="M643.7,193.3l-3.6-0.2l-1.2,0.8l-1.1-0.6l-1.8-2.1l-1.4-0.1l-5.4,1l-4-0.1l-0.7-2.6l-1.4-0.1l-2.2,1.3
		l-2.9,2.4l-2.4,0.9l-2.2-0.1l-2-1.1l-1-2.1l-3-0.6l-1.2-2.5l-1.7-0.2l-2.4,0.9l0.2,1.6l-1.3,0.4l-2.5-4.7l-2.6,0l0.8-2.1l-3.6-0.9
		l-1.4-0.8l-4-0.1l-3.1,0.8l-0.6,1.1l-3.8,0.8l-1.9-2.6l-5.3-0.4l-1.4-1.5l-2.5,0.4l-1.6-0.5l-1.9-1.8l-0.2-2.3l-1.6-5.7l-0.1-3
		l-2.2-1.3L559,165l0.1,8.2l-0.3,0.6l-9.9-0.1l-20.6-0.3l0,0.7l1.9,7l-0.9,2.8l0.4,2.5l-0.3,5.8l2.2,7.9l1.1,3.2l0.9,4.2l-0.3,5
		l0.2,2.3l0.1,3.8l0.6,2.9l0,5.2l0.5,1l0.5,3.6l1.9,2.6l0.6,4.8l0.1,3.8l-1.5,4l-3.3,2.6l-0.2,1l2.6,4.5l2,0.4l1.8,2.1l-0.1,15.9
		l0,9.7l-0.4,15l10.8-0.1l15.6,0l16-0.1l15.9-0.6l15.9-0.6l10.5-0.3l-0.2-6.1l-1-3.5l-2.2-2l-2-1.1l-1.9,0l-3-2.5l-1.8-3.3l-2.5-2.2
		l-3-0.6l-2-2.3l-3-0.6l-3.7-3.2l0.6-3.7l-0.7-3.4l0.8-0.7l-0.3-2l0.3-2.4l1.2-3.4l-1.6-2.4l-2-0.4l-0.1-3l1.5-1.4l1.2-3.4l5.2-2.6
		l1.1-1.2l-0.3-13.1l1.3-0.4l1.3-2.2l0-0.7l4.5-3.4l4.3-4.2l7.3-8.8l3.5-2.8l3.6-2.4l6.6-2.5L643.7,193.3L643.7,193.3z"/>
	<path class="st4" d="M966.5,285.5l-1,0.5l-1.6,2.8l4.6-1.5L966.5,285.5L966.5,285.5z M954.4,256l-1.8,0.5l-5.1,5.6l-18.7,4.2
		l-12.9,3l-0.3,15.4l0.8,0.5l11.5-2.7l15.5-3.8l0.1,0.4l6.7-2.1l0.4,2.5l1.3,2.2l2.2,1.3l0.8,0.5l1.4,0.1l0.8,3.1l1.2-0.1l2-1.5
		l-0.4-1.3l2-1.5l1.6-2.1l1.2,4.4l2.1-1.8l1-1.7l3-1.3l3.7-2l0.7,0l-1.1-4l-1.4,2.5l-3,2l-2.9-0.2l-1.8-0.7l-1.3-3l-1.6,0.2
		l-0.6-2.9l-3.2-2.9l-3.2,0.4l-1.3-0.4l0.3-2.4l1.7-2.4l-0.5-1l2.7-2.2l-0.5-1.8l-1.4,1.1l-1.2-1.1L954.4,256L954.4,256z"/>
	<path class="st4" d="M53.9,705.8l0-0.6l-0.2,0.1L53.9,705.8L53.9,705.8z M59.9,705.5l0.3-0.4L60,705L59.9,705.5L59.9,705.5z
		 M64.5,706.6l0.3-0.1l-0.1,0L64.5,706.6L64.5,706.6z M60.7,704.5l0-0.5l-0.3,0L60.7,704.5L60.7,704.5z M68.7,706l-0.1,0.1l0,0
		L68.7,706L68.7,706z M62.5,704.4l0.1-0.7l-0.1,0L62.5,704.4L62.5,704.4z M72.4,702l-2.1,0.3L66,706l1.6-0.1l5.1-2.2L72.4,702
		L72.4,702z M82.4,701.5l0-0.3l-0.2-0.1L82.4,701.5L82.4,701.5z M79.4,700.5l-2.3,0.5l0.2,2.8l-2.1,0.9l5.8-1.2l0.6-2.4l-1.8,0.7
		L79.4,700.5L79.4,700.5z M86.9,701.6l-0.8-0.2l0.5,0.5L86.9,701.6z M88.5,701.6l-1.3-0.3l-0.2,0.2L88.5,701.6L88.5,701.6z
		 M84.1,700l-1.3,0.1l2.2,0.5L84.1,700z M89.5,701.1l-0.1-0.2l-0.5,0.1L89.5,701.1z M86,699.7l-0.5-0.2l0,1.4L86,699.7L86,699.7z
		 M101,702.7L101,702.7l-0.3-0.1L101,702.7z M101.3,702.5l0-0.1l-0.2-0.2L101.3,702.5z M99.3,701.7l0.3,0.5l0-0.1L99.3,701.7z
		 M100.3,701.8l-1.1-0.3l1.3,1L100.3,701.8z M101.9,700.4L101.9,700.4l-0.1,0.2L101.9,700.4L101.9,700.4z M115.9,702.5l-0.1-0.6
		l-0.2,0.1L115.9,702.5z M243.6,709.8l-0.2-0.3l0,0.2L243.6,709.8L243.6,709.8z M100,697.7L100,697.7L100,697.7L100,697.7L100,697.7
		z M247.3,708.3l0.3,0.6l0.2,0L247.3,708.3z M117.4,701.2l-0.1,0.2l-0.1,0.4L117.4,701.2L117.4,701.2z M102.8,698.8l0.3-1.1l-0.2,0
		L102.8,698.8L102.8,698.8z M254.6,707l-1.1,0.4l0.8,0.6L254.6,707L254.6,707z M105,698.2l-0.1-0.3L105,698.2L105,698.2L105,698.2z
		 M96.1,695.4l-3,0.7l-2.9,1.5l0.1,2.2l3-1.3l3.7-2.8L96.1,695.4z M117.2,700.3l-0.7,0.7l0.6-0.1L117.2,700.3z M254.8,706.4
		l-0.1-0.5l-0.2,0.2L254.8,706.4L254.8,706.4z M106,696.9l-0.9-0.1l0.8,0.8L106,696.9z M246.8,706.1l-0.4,0.1l0.1,1.1L246.8,706.1z
		 M107.9,696.8l-0.4,0.1l0.4,0.4L107.9,696.8z M116.5,699.5l-0.3,0l-0.2-0.2L116.5,699.5L116.5,699.5z M106.9,696.7l-0.5-0.3
		l0.2,0.4L106.9,696.7L106.9,696.7z M114.8,698.2l-1,0.3l-0.9,2L114.8,698.2L114.8,698.2z M244.3,705.1l-0.2,0.9l0.6-0.5
		L244.3,705.1z M111.2,696.7l0.6,1.4l0.3-1.7L111.2,696.7z M100.9,694l0.9-0.3l-0.1,0L100.9,694L100.9,694z M99.8,693.2l-0.2-0.2
		l0,0.1L99.8,693.2L99.8,693.2z M244.5,704.3l-0.2-0.2l-0.2,0.4L244.5,704.3z M113.7,696l-0.3-0.1l-0.3,0.3L113.7,696z M243.2,704.2
		l0.2-0.6l-0.2-0.1L243.2,704.2L243.2,704.2z M242.4,703.3l-0.5,0.4l0.6,0.3L242.4,703.3L242.4,703.3z M118.7,694.3l-0.3-0.3l0,0.1
		L118.7,694.3L118.7,694.3z M242.5,701l0.9,0.6l0.5-0.4L242.5,701z M244,700.4l-0.4,0.3l0.5,0.5L244,700.4L244,700.4z M241.2,700.6
		l-0.1-0.6l-0.4,0.3L241.2,700.6L241.2,700.6z M253.8,698.7l-2.5,4.4l2.9,1.3l1.3-1.1l-0.2-1.6L253.8,698.7z M111.5,690.5l-0.1,0
		l-0.1,0L111.5,690.5L111.5,690.5z M243.2,697.9l-1.3,0.9l0,1.4L243.2,697.9z M131.2,693.2l0-0.6l-0.1,0.3L131.2,693.2z
		 M247.5,697.2l-0.4,1l2.1-0.7L247.5,697.2L247.5,697.2z M242.1,696.3l1.5,6l0.9,0.5l3.2,3.4l2.2,3.3l1.2,0.3l-1.3-2.5l0.3-2.3
		l-0.5-1.5l-3.2-4.4l-2.2-2.5L242.1,696.3L242.1,696.3z M126.5,690.9l-0.1-0.4l-0.2,0.1L126.5,690.9L126.5,690.9z M246.5,695.2
		l-0.9,1.8l1-0.4L246.5,695.2z M130.5,689.3l-0.7-0.1l-0.7,0.3L130.5,689.3L130.5,689.3z M142.7,691.1l-0.6,0.8l0.3-0.8L142.7,691.1
		L142.7,691.1z M144.5,691.4l-1.1,0l0.5,0.7L144.5,691.4z M72,674.5l1.2,0.6l-0.2-0.3L72,674.5z M119.6,686.5l0.1-0.1L119.6,686.5
		L119.6,686.5L119.6,686.5z M120,686.4l0.2-0.1l0,0L120,686.4L120,686.4z M245.1,692.2l0.1,2.6l1.4-0.6L245.1,692.2z M123.3,685
		l0.1-0.1L123.3,685L123.3,685L123.3,685z M239.8,692.1l-2,0.3l1.4,1.8l0.1,3.9l1.5-1l-0.1-2.6L239.8,692.1L239.8,692.1z
		 M240.7,690.2l-0.3,1.9l2.3,3l0.1-2.9l2.1,1.2l-0.8-2.6l-0.9,0.5L240.7,690.2L240.7,690.2z M232.2,689.3l-1.2,2.3l1.3-1.4
		L232.2,689.3z M135.3,683.4l-0.1-0.2L135.3,683.4L135.3,683.4L135.3,683.4z M146.8,684.3l-0.2-0.4l0.1,0.5L146.8,684.3L146.8,684.3
		z M232.8,687.5l0.5,5.3l2.7,4.2l0.3-6l-1.8-3.5L232.8,687.5z M153.8,680.7l-0.4,0.3l0.7,0.4L153.8,680.7L153.8,680.7z M152.2,680.8
		l0.2-0.4l-0.4,0L152.2,680.8L152.2,680.8z M151.1,680.7l-0.4,0.8l-3.1-0.9l-0.4,5.1l-1.2-3.2l-2.3,0.9l-1.1,1.4l0.9,3.3l1.4,0.3
		l1.6-1.5l-1.9,3l0.6,0.5l2.1-1.6l-0.7-0.8l1.9-1.2l2.1-0.1l3.1-1.2l1.1-1.6l-1.5-0.4l0.8-1.2L151.1,680.7L151.1,680.7z
		 M228.2,682.9l-0.8-0.7l0,0.8L228.2,682.9L228.2,682.9z M150.4,679.1l0.1,0.6l0.8,0.5L150.4,679.1z M230.9,680.8l-2.6,0.9l0.7,2.1
		l-0.7,0.9l2.6,2.8l0-2.6l3.5,2.3l-3.9-4.3l3.1,1.6l0.2-2.8L230.9,680.8L230.9,680.8z M229.3,680.6l-0.3-0.3l-0.1,0.1L229.3,680.6
		L229.3,680.6z M237,680l-0.9-0.6l-0.3,0.7L237,680z M231.6,679.8l-0.8-0.2l0,0.2L231.6,679.8z M234.5,679.3l2.6,8.9l0.7-4.3
		l1.8,0.2l-1.6-3.2l-2.3,0.2L234.5,679.3L234.5,679.3z M153.5,676.2l-3.1,2.1l1.2,1.6l3.8-0.8l0.3-2.1L153.5,676.2L153.5,676.2z
		 M120.5,669.5l-0.1-0.1L120.5,669.5L120.5,669.5z M119.2,668.9l-0.1-0.6l0,0.2L119.2,668.9z M156.7,672.4l-0.3,0.1l0,0.1
		L156.7,672.4z M155.6,672.1l-0.1-0.1l-0.3,0.4L155.6,672.1L155.6,672.1z M158.5,671.2l-0.3-0.2l0,0.1L158.5,671.2z M159.5,671.2
		l-0.3-0.2l0,0.1L159.5,671.2z M158,670.7l-0.4-0.1l0,0.1L158,670.7L158,670.7z M182.6,670.5l0.2-0.3L182.6,670.5L182.6,670.5z
		 M190.6,667.3l1.7-1.6l-0.6,0.2L190.6,667.3z M175.6,665.2l0.5-0.4l0.2-0.5L175.6,665.2z M175.8,663.7l-0.6,0.4l0.9-0.2
		L175.8,663.7z M155.6,661.9l-0.1-0.6l-0.2,0L155.6,661.9L155.6,661.9z M175.3,663.6l-0.5,0.4l-0.4,0.5L175.3,663.6z M189.1,663.6
		L189.1,663.6l0.2,0L189.1,663.6L189.1,663.6z M189.7,663.7l-0.3-0.1l0,0.1L189.7,663.7L189.7,663.7z M188.2,663.4l0.1,0.1l0-0.1
		L188.2,663.4z M178,663l0.5-0.6L178,663L178,663z M185.7,662.3L185.7,662.3L185.7,662.3L185.7,662.3z M179.7,662l-3.6,4.8l4.4-4.3
		L179.7,662L179.7,662z M175.7,662.1l-0.2-0.5l-0.3,0.3L175.7,662.1z M185.2,662.1L185,662L185.2,662.1L185.2,662.1L185.2,662.1z
		 M188.4,662.7l0.1-0.8l-0.4,0.3L188.4,662.7z M97.5,647.6l-6-0.1l2.4,3.7l1.7,0.7l3,0.3L97.5,647.6L97.5,647.6z M182.3,661.2
		l0.2,0.9l0.6-0.9L182.3,661.2L182.3,661.2z M177.2,660.5l-0.7,2.8l0.9-1.7L177.2,660.5L177.2,660.5z M69.2,636.3l0.1-0.4l0-0.1
		L69.2,636.3L69.2,636.3z M176.3,658.4l0,0.4l0.3,0L176.3,658.4z M175.5,658.9l-0.2-0.9l-0.3,0.3L175.5,658.9L175.5,658.9z
		 M181.6,658l0-0.5l-0.4,0.2L181.6,658L181.6,658z M176,656.6l-0.1,1.2l0.5-0.8L176,656.6L176,656.6z M166.7,654l0.1-0.4l-0.1,0
		L166.7,654L166.7,654z M101.6,635l0.3-0.8l-0.1,0.1L101.6,635z M102.2,633.7l-0.3-0.2l0,0.1L102.2,633.7z M107.7,630.3l0-0.2l0,0
		L107.7,630.3z M107.8,629.8l-0.1-0.3l0,0L107.8,629.8z M110.1,626.3L110.1,626.3l-0.2,0L110.1,626.3z M110.9,626.4l-0.6-0.2l0,0.1
		L110.9,626.4z M110.1,625.9l0-0.2l-0.2,0.2L110.1,625.9z M89.4,620.2l-0.1-0.6l-0.2-0.4L89.4,620.2z M91.4,617.7L91.4,617.7
		l0.2,0.2L91.4,617.7z M87.8,617.2l-1-1.2l0.8,0.9L87.8,617.2L87.8,617.2z M85.7,615.2l-0.1,0l0.4,0.1L85.7,615.2L85.7,615.2z
		 M86,613.7L86,613.7L86,613.7L86,613.7z M85.8,613.5L85.8,613.5l0.2,0.1L85.8,613.5L85.8,613.5z M120.1,623.3l-1.4,0.1l0.8,0.5
		L120.1,623.3L120.1,623.3z M84.3,611.2l-1.6,2.6l0.6,1.5l3.2,0.2l3,4.2l4.5,0.1l-0.6-1.2l-3.9-2.7l-0.9-2.4l-2.2,0.5L84.3,611.2
		L84.3,611.2z M107.2,611.9l0-0.2l-0.1,0L107.2,611.9L107.2,611.9z M100.4,597.5l-0.2-0.1L100.4,597.5L100.4,597.5L100.4,597.5z
		 M104.4,598.8l0.4-0.2l-0.1,0L104.4,598.8z M107.1,597.9l0.4-0.1l1.2-0.5L107.1,597.9z M111.9,596.2l0.2-0.2L111.9,596.2
		L111.9,596.2z M112.6,596l0.7-0.4l-0.7,0.2L112.6,596z M114.5,595.2l-0.7,0.1l0,0.1L114.5,595.2z M115.4,595L115.4,595L115.4,595
		L115.4,595z M205,575.5l-0.4-0.5l-0.9-0.6L205,575.5z M131.2,566.2l1.3-1.8l-0.7,0.7L131.2,566.2L131.2,566.2z M132.9,564.1
		l0.6-0.8l-0.3,0.2L132.9,564.1z M133.9,563l0.9-0.9l-0.5,0.4L133.9,563L133.9,563z M178.8,565.8l0.7,0.7l0.3,0L178.8,565.8
		L178.8,565.8z M156.3,554.1l-4.3,4l-1.8,0.8l-3.4-0.3l-0.1-0.9l-3.5,1.8l0.3,3.1l-0.9-0.1l1.1-2.4l-5.3,2.3l-1.6-1l-4.9,4.5l-2,4.2
		l-4,2.5l-3.2-0.1l-3.5-1l-3.4,4.6l2.9,3.3l4,5.8l0.2,4.8l7.3,2.8l-1.3,2.8l1.2,1.9l1.2-0.7l3.2,1.5l-3,0.5l-3.1-1.6l1.3,2.9
		l-2.4,1.6l-8.1-3.5l2.1-2.2l-1.5-1.7l-6.1,1.1l-9.2,3.3l0.7,3.3l4.3,2.9l-2.5,0.5l0.3,3l3.1,3.7l1.4,1l3-0.5l3.9,1.9l1.6,0.4
		l-0.1,1.3l1.6-1.6l2.7-0.9l0.6-0.9l1.5,0.7l1-1.1l1,3l-1.2,1L126,616l-0.9,1.2l1.3,0.1l0.5,4.9l-0.8,1.9l-5.9-0.1l0,0.5l-3.1,2.5
		l-3.9,0.2l-0.3-2.3l-1.8,0l0,1.6l-1.8,0l-1,5l-0.8-1.1l-4.6,3.7l0.3,1.4l-1.7-0.2l-0.1,6.8l2.3,1l-1,0.6l2.3,1.8l4.2,1.5l-1.3,1.8
		l-0.1-1.7l-1.8,0.3l-1.5-2.5l-3.9,2.4l1.9,0.5l-0.7,1.3l3.8,6.3l3.5,0.3l2.5-0.5l1.3-2.3l1,0.7l-0.1,3.7l0.6,3l-1.8,2.9l0.6,3.4
		l-2.4,0.6l1.9,1.2l7-2.9l2,2.5l1.4,0.3l1.2,3.8l1.5-0.2l-0.3-2.7l3.2,2l5.2-1.5l1.7-2.1l-2.1,3.6l-2.2,1.8l0.4,2.1l-1.4,1.1
		l-1.1,4.4l-3.3,1.7l-2.2,2.2l-4.3,2.6l-1.4,0.2l-4.1,2.7l0.2,3.6l-4.8-2.7l-4.6,1.2l-4.6,3.6l-1.9,0.9l-0.7,1.6l4.1-0.2l0.7-2.4
		l0.5,1.9l4.3-3.6l1.3,0.2l-1,1.6l4.7-1.1l0.5,1l3-2.2l3.2,0.3l5.7-4.3l5.4-1.9l4.9-2.4l2.1-3.2l2.4-1.4l0.8,0.6l4.1-2.9l0.8,0.2
		l5.1-4.7l0.4-2.1l-2.6-1.3l0.8-2.7l2.9-2.6l3.2-3.6l-0.6-0.5l2.6-0.8l4.1-5.2l4-2.1l3,0.6l-0.5,0.8l1.8,1.6l-1.9,0.5l-1.4-1.3
		l-4.8,2.5l0.2,2.6l-2.2,3.1l-0.9,2.8l1.5,2.2l-0.9-0.1l-0.7,2.8l2.6-0.1l7.2-4.7l1.4-1.5l3.9,0.2l1.4-1.2l1.4-3.1l-2.1-0.4l1-1
		l-0.4-1.7l0.8-2l2.1,1.7l0.3-1.1l3.3,0.4l2.5,3.1l1.3-0.2l0.8,2.2l2,1.1l2.2-0.9l-0.7,1.3l3.9,2.7l5.5-0.6l4.7,1.4l1.6-1.6l2.3,3.5
		l4.5-0.7l0.9,2.2l-0.9,0.3l2.8,1.5l6,4.5l1.6,2.1l2.3,1.7l2.6,1.1l2.2-1.9l-4-3.6l3.6,0.3l1.1,3.9l1.4-0.4l2.5,0.9l-2.2-7.2
		l0.6,0.3l-0.5-3.2l1.4,4.9l1.5,3.1l3,2.6l0.7-0.6l1.5,3.2l3.1,0.1l0.1,2.4l-1.3-0.6l0.3,3.3l1.4,1.5l6.2,5.7l-0.1,4.5l0.9,2.8
		l0.5-3.4l2.7-1.4l1.7,2.6l0.8,7.5l1.7-0.2l2.2-4.2l-0.7-6.3l-0.3-0.7l-7.2-3.3l-1.5-0.1l-1.7-2.2l-0.4-1.6l-5.1-8.1l-4.1-5.8
		l-2.2-1.3l-3.8-4.3l-0.7-2.3l-1.2-0.9l-4.3,3.2l-1.6,2.8l-2.8,1.5l-0.7-2.1l-4.6-4.4l-0.5-1.3l-2.2-1.7l-3.7-0.7l-1.8-0.9l-2.6-0.2
		l-0.2-87.2l-1.5-0.1l-4.9-4.2l-1.2-0.5l-7.1,1l-1.8-1.8l-4.3-0.3l-2.2-0.9l-5.4-3.1l-5.9,0.3l-2.5-0.6l0.9-1.1l-2.6-0.1l0.4-3.4
		l-4.4-0.7l-2.5,0.3l-0.2-2.7l-1-0.6l-3.4,3.4l1.8-2.9L156.3,554.1L156.3,554.1z"/>
	<path class="st7" d="M986.1,282.1h34.4c3.3,0,5.9,2.6,5.9,5.9v17.7c0,3.3-2.6,5.9-5.9,5.9h-34.4c-3.3,0-5.9-2.6-5.9-5.9V288
		C980.2,284.8,982.8,282.1,986.1,282.1z"/>
	<text transform="matrix(1 0 0 1 986.9502 304.5654)" class="st0 st8 st9">NH</text>
	<path class="st6" d="M935.8,343.7h34.4c3.3,0,5.9,2.6,5.9,5.9v17.7c0,3.3-2.6,5.9-5.9,5.9h-34.4c-3.3,0-5.9-2.6-5.9-5.9v-17.7
		C929.9,346.4,932.5,343.7,935.8,343.7z"/>
	<text transform="matrix(1 0 0 1 938.5254 366.166)" class="st0 st8 st9">VT</text>
	<path class="st7" d="M986.1,374.5h34.4c3.3,0,5.9,2.6,5.9,5.9v17.7c0,3.3-2.6,5.9-5.9,5.9h-34.4c-3.3,0-5.9-2.6-5.9-5.9v-17.7
		C980.2,377.1,982.8,374.5,986.1,374.5z"/>
	<text transform="matrix(1 0 0 1 991.9688 396.9648)" class="st0 st8 st9">RI</text>
	<path class="st6" d="M935.8,374.5h34.4c3.3,0,5.9,2.6,5.9,5.9v17.7c0,3.3-2.6,5.9-5.9,5.9h-34.4c-3.3,0-5.9-2.6-5.9-5.9v-17.7
		C929.9,377.1,932.5,374.5,935.8,374.5z"/>
	<text transform="matrix(1 0 0 1 938.5205 396.9648)" class="st0 st8 st9">NJ</text>
	<path class="st7" d="M935.8,405.3h34.4c3.3,0,5.9,2.6,5.9,5.9v17.7c0,3.3-2.6,5.9-5.9,5.9h-34.4c-3.3,0-5.9-2.6-5.9-5.9v-17.7
		C929.9,407.9,932.5,405.3,935.8,405.3z"/>
	<text transform="matrix(1 0 0 1 937.2686 427.8203)" class="st0 st8 st9">DE</text>
	<path class="st7" d="M986.1,405.3h34.4c3.3,0,5.9,2.6,5.9,5.9v17.7c0,3.3-2.6,5.9-5.9,5.9h-34.4c-3.3,0-5.9-2.6-5.9-5.9v-17.7
		C980.2,407.9,982.8,405.3,986.1,405.3z"/>
	<text transform="matrix(1 0 0 1 985.6992 427.8203)" class="st0 st8 st9">MD</text>
	<path class="st6" d="M986.1,312.9h34.4c3.3,0,5.9,2.6,5.9,5.9v17.7c0,3.3-2.6,5.9-5.9,5.9h-34.4c-3.3,0-5.9-2.6-5.9-5.9v-17.7
		C980.2,315.6,982.8,312.9,986.1,312.9z"/>
	<text transform="matrix(1 0 0 1 985.6992 335.3657)" class="st0 st8 st9">MA</text>
	<path class="st7" d="M986.1,343.7h34.4c3.3,0,5.9,2.6,5.9,5.9v17.7c0,3.3-2.6,5.9-5.9,5.9h-34.4c-3.3,0-5.9-2.6-5.9-5.9v-17.7
		C980.2,346.4,982.8,343.7,986.1,343.7z"/>
	<text transform="matrix(1 0 0 1 988.207 366.166)" class="st0 st8 st9">CT</text>
	<path class="st7" d="M349.1,674.3H370c3.3,0,5.9,2.6,5.9,5.9v17.7c0,3.3-2.6,5.9-5.9,5.9h-20.9c-3.3,0-5.9-2.6-5.9-5.9v-17.7
		C343.2,676.9,345.8,674.3,349.1,674.3z"/>
	<text transform="matrix(1 0 0 1 348.2593 696.7451)" class="st0 st8 st9">HI</text>
	<text transform="matrix(1 0 0 1 146.1255 624.8789)" class="st0 st8 st9">AK</text>
	<text transform="matrix(1 0 0 1 826.2285 640.3369)" class="st0 st8 st9">FL</text>
	<text transform="matrix(1 0 0 1 946.2832 203.9546)" class="st0 st8 st9">ME</text>
	<text transform="matrix(1 0 0 1 867.4551 278.9004)" class="st0 st8 st9">NY</text>
	<text transform="matrix(1 0 0 1 838.5215 332.2856)" class="st0 st8 st9">PA</text>
	<text transform="matrix(1 0 0 1 842.6279 406.2031)" class="st0 st8 st9">VA</text>
	<text transform="matrix(1 0 0 1 792.0596 393.8848)" class="st0 st8 st9">WV</text>
	<text transform="matrix(1 0 0 1 748.1387 363.084)" class="st0 st8 st9">OH</text>
	<text transform="matrix(1 0 0 1 702.4541 373.4092)" class="st0 st8 st9">IN</text>
	<text transform="matrix(1 0 0 1 652.3789 373.4092)" class="st0 st8 st9">IL</text>
	<text transform="matrix(1 0 0 1 622.9521 275.8193)" class="st0 st8 st9">WI</text>
	<text transform="matrix(1 0 0 1 835.0078 451.4336)" class="st0 st8 st9">NC</text>
	<text transform="matrix(1 0 0 1 703.8262 465.8066)" class="st0 st8 st9">TN</text>
	<text transform="matrix(1 0 0 1 592.7178 494.5527)" class="st0 st8 st9">AR</text>
	<text transform="matrix(1 0 0 1 590.8379 417.5547)" class="st0 st8 st9">MO</text>
	<text transform="matrix(1 0 0 1 766.6182 532.7656)" class="st0 st8 st9">GA</text>
	<text transform="matrix(1 0 0 1 810.9912 497.6328)" class="st0 st8 st9">SC</text>
	<text transform="matrix(1 0 0 1 728.8574 424.7402)" class="st0 st8 st9">KY</text>
	<text transform="matrix(1 0 0 1 703.8262 532.7656)" class="st0 st8 st9">AL</text>
	<text transform="matrix(1 0 0 1 596.0283 563.3389)" class="st0 st8 st9">LA</text>
	<text transform="matrix(1 0 0 1 645.4756 532.54)" class="st0 st8 st9">MS</text>
	<text transform="matrix(1 0 0 1 574.123 332.3423)" class="st0 st8 st9">IA</text>
	<text transform="matrix(1 0 0 1 548.3467 244.0508)" class="st0 st8 st9">MN</text>
	<text transform="matrix(1 0 0 1 501.7441 486.2822)" class="st0 st8 st9">OK</text>
	<text transform="matrix(1 0 0 1 468.3203 563.3389)" class="st0 st8 st9">TX</text>
	<text transform="matrix(1 0 0 1 341.9897 491.4727)" class="st0 st8 st9">NM</text>
	<text transform="matrix(1 0 0 1 487.5957 414.7002)" class="st0 st8 st9">KS</text>
	<text transform="matrix(1 0 0 1 461.9297 347.6846)" class="st0 st8 st9">NE</text>
	<text transform="matrix(1 0 0 1 454.7432 280.9531)" class="st0 st8 st9">SD</text>
	<text transform="matrix(1 0 0 1 457.2002 215.3047)" class="st0 st8 st9">ND</text>
	<text transform="matrix(1 0 0 1 336.2285 301.5435)" class="st0 st8 st9">WY</text>
	<text transform="matrix(1 0 0 1 317.5806 214.2793)" class="st0 st8 st9">MT</text>
	<text transform="matrix(1 0 0 1 358.0132 399.0752)" class="st0 st8 st9">CO</text>
	<text transform="matrix(1 0 0 1 260.313 383.6748)" class="st0 st8 st9">UT</text>
	<text transform="matrix(1 0 0 1 241.8345 486.3398)" class="st0 st8 st9">AZ</text>
	<text transform="matrix(1 0 0 1 174.4683 358.0098)" class="st0 st8 st9">NV</text>
	<text transform="matrix(1 0 0 1 132.1504 239.8872)" class="st0 st8 st9">OR</text>
	<text transform="matrix(1 0 0 1 161.6978 173.1553)" class="st0 st8 st9">WA</text>
	<text transform="matrix(1 0 0 1 240.4614 270.6865)" class="st0 st8 st9">ID</text>
	<text transform="matrix(1 0 0 1 111.2192 409.3418)" class="st0 st8 st9">CA</text>
	<text transform="matrix(1 0 0 1 714.5488 306.6191)" class="st0 st8 st9">MI</text>
</g>
<g>
	<path class="st10" d="M937.5,93h-795c-2.2,0-4-1.8-4-4V24c0-2.2,1.8-4,4-4h795c2.2,0,4,1.8,4,4v65C941.5,91.2,939.7,93,937.5,93z"
		/>
	<line class="st11" x1="245.1" y1="57.5" x2="921.9" y2="57.5"/>
	<path class="st10" d="M231.7,75.8h-77.2c-2.2,0-4-1.8-4-4V43.1c0-2.2,1.8-4,4-4h77.2c2.2,0,4,1.8,4,4v28.8
		C235.7,74,233.9,75.8,231.7,75.8z"/>
	<g>
		<path class="st12" d="M296,78.9c-3.9,0-7-3.1-7-7V43.1c0-3.9,3.1-7,7-7h193c3.9,0,7,3.1,7,7v28.8c0,3.9-3.1,7-7,7H296z"/>
		<path class="st0" d="M489,39.1c2.2,0,4,1.8,4,4v28.8c0,2.2-1.8,4-4,4H296c-2.2,0-4-1.8-4-4V43.1c0-2.2,1.8-4,4-4H489 M489,33.1
			H296c-5.5,0-10,4.5-10,10v28.8c0,5.5,4.5,10,10,10h193c5.5,0,10-4.5,10-10V43.1C499,37.6,494.5,33.1,489,33.1L489,33.1z"/>
	</g>
	<text transform="matrix(1 0 0 1 160.9798 62.7337)" class="st13 st14 st15">Legenda</text>
	<rect x="305.2" y="50.8" class="st16" width="173.6" height="17.4"/>
	<text transform="matrix(1 0 0 1 305.6855 62.8013)" class="st0 st14 st15">Medicinalmente legal</text>
	<g>
		<path class="st17" d="M558,78.9c-3.9,0-7-3.1-7-7V43.1c0-3.9,3.1-7,7-7h92.8c3.9,0,7,3.1,7,7v28.8c0,3.9-3.1,7-7,7H558z"/>
		<path class="st0" d="M650.8,39.1c2.2,0,4,1.8,4,4v28.8c0,2.2-1.8,4-4,4H558c-2.2,0-4-1.8-4-4V43.1c0-2.2,1.8-4,4-4H650.8
			 M650.8,33.1H558c-5.5,0-10,4.5-10,10v28.8c0,5.5,4.5,10,10,10h92.8c5.5,0,10-4.5,10-10V43.1C660.8,37.6,656.3,33.1,650.8,33.1
			L650.8,33.1z"/>
	</g>
	<rect x="569.5" y="50.8" class="st16" width="69.8" height="17.4"/>
	<text transform="matrix(1 0 0 1 569.4962 62.8037)" class="st0 st14 st15">proibido</text>
	<g>
		<path class="st18" d="M717.3,78.9c-3.9,0-7-3.1-7-7V43.1c0-3.9,3.1-7,7-7h158.8c3.9,0,7,3.1,7,7v28.8c0,3.9-3.1,7-7,7H717.3z"/>
		<path class="st0" d="M876.1,39.1c2.2,0,4,1.8,4,4v28.8c0,2.2-1.8,4-4,4H717.3c-2.2,0-4-1.8-4-4V43.1c0-2.2,1.8-4,4-4H876.1
			 M876.1,33.1H717.3c-5.5,0-10,4.5-10,10v28.8c0,5.5,4.5,10,10,10h158.8c5.5,0,10-4.5,10-10V43.1C886.1,37.6,881.7,33.1,876.1,33.1
			L876.1,33.1z"/>
	</g>
	<rect x="728.4" y="50.9" class="st16" width="136.6" height="34.2"/>
	<text transform="matrix(1 0 0 1 750.8138 62.9097)"><tspan x="0" y="0" class="st0 st14 st15">totalmente </tspan><tspan x="24.5" y="16.8" class="st0 st14 st15">legal</tspan></text>
</g>
</svg>
