<?xml version="1.0" encoding="utf-8"?>
<!-- Generator: Adobe Illustrator 26.3.1, SVG Export Plug-In . SVG Version: 6.00 Build 0)  -->
<svg version="1.1" id="Layer_1" xmlns="http://www.w3.org/2000/svg" xmlns:xlink="http://www.w3.org/1999/xlink" x="0px" y="0px"
	 viewBox="0 0 120 120" style="enable-background:new 0 0 120 120;" xml:space="preserve">
<style type="text/css">
	.st0{fill:#B7A1B3;}
	.st1{fill:none;stroke:#000000;stroke-width:3.5;stroke-miterlimit:10;}
	.st2{fill:#FFFFFF;}
</style>
<rect x="-13" y="-16" class="st0" width="146" height="146"/>
<path class="st1" d="M27.03,58.39"/>
<path class="st1" d="M23.31,72.55"/>
<path class="st1" d="M27.03,76.15"/>
<path class="st2" d="M92.11,88.14L73.13,69.16l-1.72,1.73l-4.01-4.01c3.39-4.11,5.43-9.37,5.43-15.1
	c0-13.11-10.66-23.77-23.77-23.77c-13.11,0-23.77,10.66-23.77,23.77c0,13.11,10.66,23.77,23.77,23.77c5.63,0,10.8-1.97,14.87-5.25
	l4.04,4.04l-1.72,1.72l18.99,18.99c0.95,0.95,2.2,1.43,3.45,1.43c1.25,0,2.5-0.48,3.45-1.43C94.02,93.14,94.02,90.05,92.11,88.14
	L92.11,88.14z M30.14,51.77c0-10.42,8.48-18.9,18.9-18.9c10.42,0,18.9,8.48,18.9,18.9c0,10.42-8.48,18.9-18.9,18.9
	C38.62,70.66,30.15,62.19,30.14,51.77L30.14,51.77z"/>
<path class="st2" d="M57.83,42.92c4.55,4.55,6.59,10.51,5.95,15.78c0.85-1.99,1.32-4.18,1.32-6.48c0-9.12-7.4-16.52-16.52-16.52
	c-2.22,0-4.33,0.44-6.26,1.23C47.52,36.4,53.36,38.45,57.83,42.92L57.83,42.92z"/>
</svg>
