<?xml version="1.0" encoding="utf-8"?>
<!-- Generator: Adobe Illustrator 26.3.1, SVG Export Plug-In . SVG Version: 6.00 Build 0)  -->
<svg version="1.1" id="Layer_1" xmlns="http://www.w3.org/2000/svg" xmlns:xlink="http://www.w3.org/1999/xlink" x="0px" y="0px"
	 viewBox="0 0 120 120" style="enable-background:new 0 0 120 120;" xml:space="preserve">
<style type="text/css">
	.st0{fill:#B7A1B3;}
	.st1{fill:#FFFFFF;}
</style>
<rect x="-13" y="-16" class="st0" width="146" height="146"/>
<path class="st1" d="M96.29,72.2L75.58,52.52c1.39-1.7,2.68-3.47,3.89-5.3c0.32,0.09,0.65,0.16,0.98,0.19
	c1.47,0,2.88-0.58,3.91-1.62l0.99-0.99v0c1.04-1.04,1.62-2.45,1.62-3.91c0-1.47-0.58-2.88-1.62-3.91L73.63,25.26
	c-1.05-1.01-2.46-1.57-3.91-1.57c-1.46,0-2.86,0.56-3.91,1.57l-0.99,0.99c-0.7,0.68-1.2,1.54-1.45,2.49
	c-0.25,0.95-0.23,1.94,0.04,2.88c-6.95,4.64-12.92,10.62-17.55,17.58c-1.87-0.52-3.88-0.02-5.3,1.31l-0.99,0.99h0
	c-1.04,1.04-1.62,2.45-1.62,3.92c0,1.47,0.58,2.88,1.62,3.92l11.69,11.71c1.04,1.04,2.45,1.62,3.91,1.62c1.47,0,2.88-0.58,3.91-1.62
	l0.99-0.99c1.26-1.29,1.79-3.13,1.43-4.89c1.84-1.19,3.61-2.48,5.31-3.86L86.49,82.4c1.34,1.34,3.16,2.09,5.06,2.07
	c1.9-0.01,3.71-0.79,5.02-2.15c1.32-1.36,2.04-3.19,1.99-5.09C98.54,75.32,97.71,73.49,96.29,72.2L96.29,72.2z M67.43,28.85
	l0.99-0.99c0.72-0.72,1.89-0.72,2.61,0l11.71,11.71c0.72,0.72,0.72,1.89,0,2.61l-0.99,0.99h0c-0.72,0.72-1.89,0.72-2.61,0
	L67.43,31.47c-0.35-0.35-0.54-0.82-0.54-1.31S67.08,29.2,67.43,28.85L67.43,28.85z M65.44,34.71l10.75,10.74
	c-4.33,6.51-9.92,12.1-16.44,16.43L49.01,51.12C53.36,44.63,58.94,39.05,65.44,34.71L65.44,34.71z M57.49,67.45l-0.99,0.99
	c-0.72,0.72-1.89,0.72-2.61,0L42.18,56.71c-0.72-0.72-0.72-1.89,0-2.61l0.99-0.99c0.34-0.35,0.81-0.55,1.3-0.54
	c0.49,0,0.96,0.2,1.3,0.54l11.71,11.71c0.72,0.72,0.72,1.89,0,2.61L57.49,67.45z M93.89,79.81c-0.66,0.64-1.55,0.99-2.47,0.97
	c-0.92-0.02-1.8-0.41-2.43-1.08L69.57,58.85c1.23-1.14,2.42-2.33,3.56-3.56L93.8,74.92h0c0.68,0.63,1.07,1.5,1.09,2.43
	C94.91,78.27,94.55,79.16,93.89,79.81L93.89,79.81z M68.38,85.13v-3.32h0c0-1.47-0.58-2.88-1.62-3.91
	c-1.04-1.04-2.45-1.62-3.91-1.62h-22.3c-1.47,0-2.88,0.58-3.91,1.62C35.58,78.93,35,80.34,35,81.81v3.32
	c-1.26,0.25-2.39,0.92-3.21,1.91c-0.81,0.99-1.26,2.23-1.26,3.51v5.05c0,0.49,0.19,0.96,0.54,1.3c0.35,0.35,0.82,0.54,1.31,0.54H71
	c0.49,0,0.96-0.19,1.31-0.54c0.35-0.35,0.54-0.82,0.54-1.3v-5.07c0-1.28-0.45-2.52-1.26-3.51c-0.81-0.99-1.95-1.67-3.21-1.91
	L68.38,85.13z M38.69,81.81L38.69,81.81c0-1.02,0.83-1.85,1.85-1.85h22.31h0c0.49,0,0.96,0.19,1.31,0.54
	c0.35,0.35,0.54,0.82,0.54,1.31v3.23l-26,0L38.69,81.81z M69.15,93.8H34.22v-3.23c0-1.02,0.83-1.85,1.85-1.85h31.24
	c0.49,0,0.96,0.19,1.3,0.54c0.35,0.35,0.54,0.82,0.54,1.3L69.15,93.8z"/>
</svg>
