<?xml version="1.0" encoding="utf-8"?>
<!-- Generator: Adobe Illustrator 26.3.1, SVG Export Plug-In . SVG Version: 6.00 Build 0)  -->
<svg version="1.1" id="Layer_1" xmlns="http://www.w3.org/2000/svg" xmlns:xlink="http://www.w3.org/1999/xlink" x="0px" y="0px"
	 viewBox="0 0 120 120" style="enable-background:new 0 0 120 120;" xml:space="preserve">
<style type="text/css">
	.st0{fill:#B7A1B3;}
	.st1{fill:#FFFFFF;}
</style>
<rect x="-13" y="-16" class="st0" width="146" height="146"/>
<path class="st1" d="M42.98,40.07h31.24c0.65,0,1.17,0.52,1.17,1.17s-0.52,1.17-1.17,1.17l-31.24,0c-0.65,0-1.17-0.52-1.17-1.17
	C41.8,40.6,42.33,40.07,42.98,40.07L42.98,40.07z M58.59,25.65c-0.78,0-1.42,0.64-1.42,1.42c0,0.78,0.64,1.42,1.42,1.42
	c0.78,0,1.42-0.64,1.42-1.42C60.01,26.28,59.37,25.65,58.59,25.65z M98.77,65.69c0.91,1.97,2.05,4.41,1.04,6.17
	c-1.02,1.76-3.71,2-5.86,2.19c-0.51,0.05-1.18,0.1-1.52,0.18c-0.13,0.32-0.3,0.97-0.44,1.46c-0.56,2.09-1.26,4.7-3.18,5.39
	c-0.33,0.12-0.67,0.17-1.01,0.17c-0.2,0-0.4-0.02-0.61-0.05v8.62c0,2.38-1.94,4.32-4.32,4.32l-48.54,0c-2.38,0-4.32-1.94-4.32-4.32
	v-58c0-2.38,1.94-4.32,4.32-4.32h10.96l0-0.73c0-0.65,0.52-1.17,1.17-1.17h6.07c0.98-2.45,3.35-4.1,6.06-4.1
	c2.71,0,5.09,1.64,6.06,4.1h6.07c0.65,0,1.17,0.52,1.17,1.17v0.73h10.96c2.38,0,4.32,1.94,4.32,4.32v13.56
	c0.07,0.09,0.13,0.16,0.18,0.22c0.34-0.05,0.99-0.22,1.49-0.35c2.09-0.56,4.7-1.26,6.26,0.05c1.56,1.31,1.33,4,1.14,6.16
	c-0.04,0.51-0.1,1.18-0.09,1.53c0.29,0.18,0.9,0.47,1.37,0.68c1.96,0.92,4.41,2.06,4.76,4.06c0.35,2-1.55,3.91-3.08,5.45
	c-0.36,0.36-0.84,0.84-1.05,1.11C98.27,64.61,98.55,65.22,98.77,65.69L98.77,65.69z M71.9,29.85v2.04h9.73
	c0.65,0,1.17,0.52,1.17,1.17v7.58c0.75,0.32,1.43,0.91,2.04,1.61V31.83c0-1.09-0.89-1.98-1.98-1.98L71.9,29.85L71.9,29.85z
	 M47.63,33.79h21.93v-5.85l-5.75,0c-0.54,0-1.01-0.37-1.14-0.9c-0.45-1.88-2.13-3.2-4.07-3.2c-1.94,0-3.62,1.32-4.07,3.2
	c-0.13,0.53-0.6,0.9-1.14,0.9h-5.75L47.63,33.79z M46.46,36.14c-0.65,0-1.17-0.52-1.17-1.17v-0.73h-8.56v53.19h43.73v-8.5
	c-0.04,0.02-0.07,0.05-0.1,0.07c-1.6,1.12-3.54,2.48-5.31,2.24c-0.21,0.21-0.51,0.35-0.83,0.35H42.98c-0.65,0-1.17-0.52-1.17-1.17
	s0.52-1.17,1.17-1.17h29.55c-0.58-1.06-0.94-2.38-1.25-3.54c-0.13-0.5-0.31-1.14-0.44-1.46c-0.34-0.07-1.01-0.13-1.52-0.18
	c-0.8-0.07-1.67-0.15-2.5-0.31l-23.85,0c-0.65,0-1.17-0.52-1.17-1.17s0.52-1.17,1.17-1.17h20.28c-0.59-1.64,0.33-3.73,1.14-5.49
	H42.98c-0.65,0-1.17-0.52-1.17-1.17s0.52-1.17,1.17-1.17h21.47c-0.13-0.14-0.27-0.27-0.39-0.39c-1.44-1.44-3.21-3.22-3.12-5.09
	H42.98c-0.65,0-1.17-0.52-1.17-1.17s0.52-1.17,1.17-1.17l19.21,0c0.97-0.87,2.35-1.51,3.54-2.07c0.47-0.22,1.07-0.5,1.37-0.68
	c0.01-0.34-0.05-1.01-0.09-1.53c-0.03-0.39-0.07-0.79-0.1-1.21H42.98c-0.65,0-1.17-0.52-1.17-1.17s0.52-1.17,1.17-1.17h23.96
	c0.13-1.04,0.46-1.98,1.21-2.6c1.56-1.31,4.17-0.61,6.26-0.05c0.5,0.13,1.15,0.31,1.49,0.35c0.23-0.25,0.62-0.81,0.91-1.23
	c0.99-1.42,2.18-3.11,3.66-3.74v-6.41H71.9v0.73c0,0.65-0.52,1.17-1.17,1.17L46.46,36.14L46.46,36.14z M84.85,80.27
	c-0.68-0.39-1.33-0.85-1.94-1.27c-0.03-0.02-0.07-0.05-0.1-0.07v9.67c0,0.65-0.52,1.17-1.17,1.17l-46.08,0
	c-0.65,0-1.17-0.52-1.17-1.17l0-55.53c0-0.65,0.52-1.17,1.17-1.17h9.73v-2.04H34.32c-1.09,0-1.98,0.89-1.98,1.98v58
	c0,1.09,0.89,1.98,1.98,1.98h48.54c1.09,0,1.98-0.89,1.98-1.98L84.85,80.27z M96.64,66.68c-0.58-1.25-0.97-2.08-0.84-2.81
	c0.13-0.73,0.77-1.37,1.75-2.35c0.9-0.9,2.58-2.58,2.43-3.38c-0.14-0.8-2.29-1.81-3.45-2.35c-1.25-0.58-2.08-0.97-2.45-1.61
	s-0.29-1.55-0.17-2.92c0.11-1.27,0.32-3.63-0.31-4.16c-0.62-0.52-2.92,0.09-4.15,0.42c-1.33,0.36-2.21,0.59-2.91,0.34
	c-0.7-0.25-1.22-1-2.01-2.13c-0.73-1.04-2.09-2.99-2.91-2.99c-0.82,0-2.18,1.94-2.91,2.99c-0.79,1.13-1.32,1.88-2.01,2.13
	c-0.7,0.25-1.58,0.02-2.91-0.34c-1.23-0.33-3.52-0.94-4.15-0.42c-0.63,0.52-0.42,2.89-0.31,4.16c0.12,1.37,0.2,2.28-0.17,2.92
	c-0.37,0.64-1.2,1.03-2.45,1.61c-0.91,0.42-2.43,1.14-3.11,1.81c-0.05,0.06-0.1,0.12-0.16,0.17c-0.1,0.12-0.16,0.25-0.18,0.36
	c-0.14,0.8,1.53,2.48,2.43,3.38c0.98,0.98,1.62,1.62,1.75,2.35c0.06,0.37,0,0.76-0.16,1.22c0,0,0,0.01,0,0.01
	c-0.15,0.45-0.39,0.96-0.68,1.58c-0.54,1.15-1.54,3.31-1.13,4.01c0.41,0.71,2.77,0.92,4.04,1.03c1.37,0.12,2.28,0.2,2.85,0.68
	c0.57,0.48,0.8,1.36,1.16,2.69c0.33,1.23,0.95,3.52,1.71,3.8c0.77,0.28,2.71-1.08,3.75-1.81c1.13-0.79,1.88-1.31,2.62-1.31
	s1.49,0.52,2.62,1.31c1.04,0.73,2.99,2.09,3.76,1.81c0.77-0.28,1.38-2.57,1.71-3.8c0.36-1.33,0.59-2.21,1.16-2.69
	c0.57-0.48,1.48-0.56,2.85-0.68c1.27-0.11,3.63-0.32,4.04-1.03C98.18,69.98,97.18,67.83,96.64,66.68L96.64,66.68z M93.46,60.83
	c0,6.52-5.31,11.83-11.83,11.83S69.8,67.35,69.8,60.83C69.8,54.3,75.11,49,81.63,49S93.46,54.3,93.46,60.83z M91.12,60.83
	c0-5.23-4.26-9.49-9.49-9.49c-5.23,0-9.49,4.26-9.49,9.49s4.26,9.49,9.49,9.49C86.86,70.31,91.12,66.05,91.12,60.83z M86.45,54.58
	c0.78,0,1.52,0.3,2.08,0.86c0.56,0.56,0.87,1.29,0.87,2.08c0,0.79-0.3,1.53-0.86,2.09c-1.31,1.33-4.44,4.51-6.54,6.6
	c-0.56,0.56-1.3,0.86-2.09,0.86c-0.79,0-1.53-0.31-2.09-0.86l-3.09-3.09c-0.56-0.56-0.86-1.3-0.86-2.09c0-0.79,0.31-1.53,0.86-2.09
	c0.56-0.56,1.3-0.86,2.09-0.86c0.79,0,1.53,0.31,2.09,0.86l0.99,0.99l4.45-4.49C84.91,54.89,85.65,54.58,86.45,54.58L86.45,54.58
	L86.45,54.58z M86.87,57.1c-0.11-0.11-0.27-0.18-0.43-0.18h0c-0.16,0-0.31,0.06-0.43,0.18l-5.28,5.32
	c-0.22,0.22-0.52,0.35-0.83,0.35h0c-0.31,0-0.61-0.12-0.83-0.34l-1.83-1.83c-0.12-0.12-0.27-0.18-0.43-0.18
	c-0.16,0-0.32,0.06-0.43,0.18c-0.11,0.12-0.18,0.27-0.18,0.43c0,0.16,0.06,0.32,0.18,0.43l3.09,3.09c0.24,0.24,0.62,0.24,0.86,0
	c2.09-2.09,5.21-5.26,6.53-6.6C87.11,57.72,87.11,57.33,86.87,57.1L86.87,57.1z"/>
</svg>
